<?xml version="1.0" encoding="iso-8859-1"?>
<!-- Generator: Adobe Illustrator 19.0.0, SVG Export Plug-In . SVG Version: 6.00 Build 0)  -->
<svg version="1.1" id="Layer_1" xmlns="http://www.w3.org/2000/svg" xmlns:xlink="http://www.w3.org/1999/xlink" x="0px" y="0px"
	 viewBox="0 0 512 512" style="enable-background:new 0 0 512 512;" xml:space="preserve">
<circle style="fill:#96C8EF;" cx="108.701" cy="372.172" r="79.239"/>
<path style="fill:#5AAAE7;" d="M187.935,372.193c0,25.161-11.74,47.566-30.027,62.082c-2.067-2.78-4.086-5.647-6.041-8.619
	c-23.623-35.925-36.853-82.855-37.412-132.47C155.527,296.139,187.935,330.369,187.935,372.193z"/>
<circle style="fill:#C2DFF6;" cx="110.728" cy="216.743" r="110.728"/>
<g>
	<path style="fill:#96C8EF;" d="M221.46,216.744c0,59.092-46.29,107.368-104.585,110.558c-1.618-12.216-2.445-24.733-2.445-37.413
		c0-50.824,13.296-99.033,37.439-135.749c6.897-10.489,14.509-19.786,22.759-27.838C202.961,146.358,221.46,179.389,221.46,216.744z
		"/>
	<circle style="fill:#96C8EF;" cx="403.299" cy="372.172" r="79.239"/>
</g>
<path style="fill:#5AAAE7;" d="M324.065,372.193c0,25.161,11.74,47.566,30.027,62.082c2.067-2.78,4.086-5.647,6.041-8.619
	c23.623-35.925,36.853-82.855,37.412-132.47C356.473,296.139,324.065,330.369,324.065,372.193z"/>
<circle style="fill:#C2DFF6;" cx="401.272" cy="216.743" r="110.728"/>
<path style="fill:#96C8EF;" d="M290.54,216.744c0,59.092,46.29,107.368,104.585,110.558c1.618-12.216,2.445-24.733,2.445-37.413
	c0-50.824-13.296-99.033-37.439-135.749c-6.897-10.489-14.509-19.786-22.759-27.838C309.039,146.358,290.54,179.389,290.54,216.744z
	"/>
<path style="fill:#5AAAE7;" d="M403.303,427.902c-4.329,0-7.837-3.509-7.837-7.837c0-4.328,3.508-7.837,7.837-7.837
	c22.087,0,40.056-17.969,40.056-40.055c0-4.328,3.508-7.837,7.837-7.837s7.837,3.509,7.837,7.837
	C459.033,402.903,434.033,427.902,403.303,427.902z"/>
<g>
	<path style="fill:#96C8EF;" d="M31.347,224.578c-4.329,0-7.837-3.509-7.837-7.837c0-48.094,39.126-87.22,87.22-87.22
		c4.329,0,7.837,3.509,7.837,7.837c0,4.328-3.508,7.837-7.837,7.837c-39.451,0-71.546,32.095-71.546,71.546
		C39.184,221.069,35.676,224.578,31.347,224.578z"/>
	<path style="fill:#96C8EF;" d="M84.637,299.559c-0.857,0-1.727-0.141-2.583-0.44c-10.082-3.519-19.354-8.818-27.555-15.749
		c-8.991-7.598-16.247-16.755-21.567-27.213c-1.961-3.858-0.424-8.577,3.434-10.538c3.857-1.961,8.575-0.425,10.538,3.432
		c4.367,8.586,10.326,16.105,17.711,22.348c6.732,5.688,14.337,10.036,22.604,12.922c4.086,1.426,6.243,5.895,4.816,9.982
		C90.908,297.533,87.877,299.559,84.637,299.559z"/>
</g>
<g>
	<path style="fill:#57565C;" d="M229.36,157.941c-2.984,0-5.836-1.714-7.145-4.609l-39.706-87.771
		c-1.785-3.943-0.033-8.586,3.91-10.371c3.944-1.785,8.587-0.032,10.37,3.91l39.706,87.771c1.785,3.943,0.033,8.586-3.91,10.371
		C231.537,157.717,230.44,157.941,229.36,157.941z"/>
	<path style="fill:#57565C;" d="M282.64,157.941c-1.079,0-2.177-0.225-3.225-0.698c-3.943-1.785-5.695-6.427-3.91-10.371
		l39.706-87.771c1.784-3.942,6.426-5.695,10.37-3.91c3.943,1.785,5.695,6.427,3.91,10.371l-39.706,87.771
		C288.475,156.228,285.624,157.941,282.64,157.941z"/>
</g>
<ellipse style="fill:#FFEB99;" cx="256" cy="289.886" rx="110.226" ry="167.623"/>
<path style="fill:#FFDE55;" d="M197.078,289.887c0-79.143,36.07-145.465,84.573-163.048c-8.232-2.984-16.819-4.574-25.651-4.574
	c-60.875,0-110.223,75.047-110.223,167.621S195.125,457.507,256,457.507c8.833,0,17.419-1.589,25.651-4.574
	C233.149,435.351,197.078,369.03,197.078,289.887z"/>
<g>
	<path style="fill:#787680;" d="M147.984,256.362h216.034c-3.306-24.771-10.206-47.556-19.833-67.048H167.816
		C158.188,208.806,151.29,231.591,147.984,256.362z"/>
	<path style="fill:#787680;" d="M167.816,390.459h176.367c9.628-19.492,16.526-42.278,19.833-67.048H147.984
		C151.29,348.182,158.188,370.968,167.816,390.459z"/>
</g>
<g>
	<path style="fill:#57565C;" d="M199.289,323.41h-51.306c3.307,24.771,10.206,47.556,19.833,67.048h51.31
		C209.496,370.968,202.596,348.184,199.289,323.41z"/>
	<path style="fill:#57565C;" d="M167.816,189.314c-9.628,19.492-16.526,42.278-19.833,67.048h51.306
		c3.307-24.772,10.208-47.557,19.837-67.048H167.816z"/>
</g>
<g>
</g>
<g>
</g>
<g>
</g>
<g>
</g>
<g>
</g>
<g>
</g>
<g>
</g>
<g>
</g>
<g>
</g>
<g>
</g>
<g>
</g>
<g>
</g>
<g>
</g>
<g>
</g>
<g>
</g>
</svg>
