<svg id="Layer_1" data-name="Layer 1" xmlns="http://www.w3.org/2000/svg" width="500" height="500" background-color="#180f03" viewBox="0 0 137.68 111.67"><defs><style>.cls-1,.cls-2{fill:none;stroke:#d12d42;stroke-width:4px;}.cls-1{stroke-miterlimit:10;}.cls-2{stroke-linecap:round;stroke-linejoin:round;}</style></defs><title>aragon mesh iso</title><line class="cls-1" x1="9.32" y1="2.03" x2="11.78" y2="72.15"/><line class="cls-1" x1="31.48" y1="21.9" x2="33.63" y2="72.4"/><line class="cls-1" x1="63.45" y1="72.44" x2="31.48" y2="21.9"/><line class="cls-1" x1="84.27" y1="72.47" x2="63.45" y2="72.44"/><line class="cls-1" x1="111.91" y1="22.35" x2="84.27" y2="72.47"/><line class="cls-1" x1="114.1" y1="72.51" x2="111.91" y2="22.35"/><line class="cls-1" x1="135.68" y1="72.53" x2="114.1" y2="72.51"/><line class="cls-1" x1="11.78" y1="72.15" x2="5.34" y2="109.45"/><polyline class="cls-2" points="33.63 72.4 26.72 109.5 5.34 109.45 2 34.47 9.04 2.03 39.57 2 72.79 54.36"/><line class="cls-1" x1="33.21" y1="72.54" x2="11.78" y2="72.51"/><line class="cls-1" x1="63.45" y1="72.44" x2="56.24" y2="109.58"/><line class="cls-1" x1="84.27" y1="72.47" x2="77.05" y2="109.6"/><line class="cls-1" x1="114.1" y1="72.51" x2="106.88" y2="109.64"/><polyline class="cls-2" points="72.79 54.36 102.01 2.03 132.52 2.03 135.68 72.53 128.46 109.67 106.88 109.64 104.38 59.53 77.05 109.6 56.24 109.58 33.63 72.4"/><line class="cls-1" x1="39.57" y1="2" x2="31.48" y2="21.9"/><line class="cls-1" x1="9.32" y1="2.03" x2="31.48" y2="21.9"/><line class="cls-1" x1="111.91" y1="22.35" x2="102.01" y2="2.03"/><line class="cls-1" x1="132.52" y1="2.03" x2="111.91" y2="22.35"/><line class="cls-1" x1="72.79" y1="54.36" x2="31.48" y2="21.9"/><line class="cls-1" x1="111.91" y1="22.35" x2="72.79" y2="54.36"/><line class="cls-1" x1="63.27" y1="73.39" x2="72.79" y2="54.36"/><line class="cls-1" x1="84.3" y1="72.42" x2="72.79" y2="54.36"/><line class="cls-1" x1="31.48" y1="21.9" x2="11.78" y2="72.15"/><line class="cls-1" x1="111.91" y1="22.35" x2="135.68" y2="72.53"/></svg>