<svg width="42" height="42" xmlns="http://www.w3.org/2000/svg"><defs><linearGradient x1="69.558%" y1="-13.269%" x2="39.93%" y2="82.202%" id="a"><stop stop-color="#2CF4E1" offset="3.9%"/><stop stop-color="#2CB2E1" offset="100%"/></linearGradient><linearGradient x1="-24.618%" y1="3.457%" x2="147.594%" y2="127.729%" id="b"><stop stop-color="#2CF4E1" offset="3.9%"/><stop stop-color="#2CB2E1" offset="100%"/></linearGradient><linearGradient x1="21.51%" y1="17.32%" x2="69.351%" y2="84.775%" id="c"><stop stop-color="#2CE5E1" offset="0%"/><stop stop-color="#2CB2E1" offset="100%"/></linearGradient><linearGradient x1="49.992%" y1="99.959%" x2="49.992%" y2="0%" id="d"><stop offset="0%"/><stop stop-color="#3B3B3B" offset="100%"/></linearGradient><linearGradient x1="-1.389%" y1="50.004%" x2="101.329%" y2="50.004%" id="e"><stop stop-color="#2CF4E1" offset="3.9%"/><stop stop-color="#2CB2E1" offset="100%"/></linearGradient></defs><g transform="translate(1 2)" fill="none"><ellipse fill="url(#a)" cx="21.267" cy="16.115" rx="10.942" ry="11.221"/><path d="M28.951 12.75a6.316 6.316 0 0 1 1.194 3.712c0 1.62-.651 3.117-1.76 4.33l.675 2.585h2.05l2.16-2.511.579-3.674.12-2.19-2.135-2.474-2.883.223z" fill="url(#b)"/><path d="M5.186 23.674l.374 1.522s4.415 9.29 14.356 12.742c0 0 9.313-3.959 13.33-10.676L27.43 22.3s-2.654 2.165-6.599 2.165c-3.944 0-9.3-2.412-9.3-7.386 0-4.973 5.549-6.791 5.549-6.791l-2.365-.594H8.672L4.836 19.17l.35 4.503z" fill="url(#c)"/><path d="M38.59 13.69c-.169-.172-5.067-6.492-18.493-11.23C7.007 7 1.41 13.69 1.41 13.69c.507 3.032 1.786 6.409 2.944 9.032.096.222 1.64 3.018 2.786 4.54-.675-1.522-1.411-2.846-1.411-5.122 0-6.42 4.85-11.641 10.917-11.864.145 0 .302 0 .447.013l-1.448-1.485s5.827-1.002 13.306 3.637c0 0 .109.235 0 .928 0 0 3.523 1.559 3.824 4.59.302 3.03-1.568 4.763-3.076 5.01 0 0 .784-1.25-.422-1.917a1.569 1.569 0 0 0-.857-.198c-2.304 0-2.57 2.697-2.57 2.697-.023.136-.023.272-.023.408 0 0-.386 3.946 6.466 3.872 0 0 3.474-4.033 4.39-7.658a84.38 84.38 0 0 0 .737-3.08 84.69 84.69 0 0 0 1.122-3.266l.048-.136z" fill="url(#d)"/><path d="M25.971 13.641c.097-.05.41-.21.772-.594.724.1 1.436.334 1.436.334-1.315-.816-3.112-1.299-5.103-1.286 0 0 .76 1.113 2.871 1.571l.024-.025z" fill="#282828"/><path d="M39.42 12.319l-.088.51c-.047.397-.36 1.817-.746 3.177a42.182 42.182 0 0 1-2.775 7.213c-1.602 3.223-3.55 6.036-5.781 8.35-2.756 2.85-5.942 4.955-9.495 6.267l-.198.071-.377.15-.374-.135-.208-.075c-3.56-1.314-6.757-3.423-9.493-6.267-2.243-2.338-4.186-5.142-5.78-8.35A42.247 42.247 0 0 1 .76 13.731c-.09-.41-.186-.92-.169-.848L.5 12.359l.211-.184.157-.136c3.262-2.834 7.12-5.265 11.287-7.308 2.775-1.36 5.313-2.37 7.229-3.005l.563-.182.384.118.19.065c1.913.633 4.45 1.644 7.226 3.004 4.16 2.04 8.013 4.466 11.271 7.295l.4.293zm-37.891.324c-.001-.004-.002-.003 0 0zm.174.874a41.25 41.25 0 0 0 3.262 9.265c1.55 3.118 3.436 5.84 5.607 8.103 2.635 2.74 5.709 4.767 9.13 6.03l.242.087.267-.099c3.414-1.26 6.478-3.283 9.133-6.03 2.16-2.24 4.049-4.969 5.607-8.104a41.185 41.185 0 0 0 2.708-7.04c.232-.815.417-1.564.559-2.222a21.487 21.487 0 0 0 .148-.752C35.183 10 31.409 7.624 27.332 5.625c-2.734-1.341-5.232-2.336-7.11-2.958l-.182-.061.153-.47-.139.474-.24-.074.138-.474.144.472-.418.135c-1.874.62-4.372 1.615-7.106 2.955-4.074 1.997-7.844 4.37-11.025 7.123l-.211.183-.312-.377.475-.086.037.21-.476.086.468-.12c.051.272.117.606.175.874zm27.11 16.836c2.106-2.184 3.949-4.85 5.475-7.918a40.517 40.517 0 0 0 2.458-6.22c.379-1.245.646-2.32.82-3.174-3.207-2.714-6.99-5.04-11.058-6.988a63.316 63.316 0 0 0-4.4-1.907 47.441 47.441 0 0 0-2.157-.785c-.57.19-1.294.448-2.161.785a63.052 63.052 0 0 0-4.399 1.907C9.327 8 5.545 10.326 2.338 13.042c.173.863.437 1.938.815 3.187a40.03 40.03 0 0 0 2.463 6.23c1.52 3.058 3.36 5.714 5.474 7.906 2.569 2.658 5.54 4.617 8.862 5.848 3.312-1.228 6.284-3.194 8.861-5.86zm6.334-7.469c-1.57 3.157-3.47 5.906-5.648 8.165-2.72 2.815-5.871 4.883-9.387 6.156l-.16.058-.16-.058c-3.526-1.277-6.675-3.337-9.388-6.144-2.185-2.266-4.083-5.006-5.648-8.151a41.026 41.026 0 0 1-2.525-6.388 34.586 34.586 0 0 1-.897-3.58l-.053-.285.217-.187c3.325-2.857 7.257-5.288 11.485-7.314a64 64 0 0 1 4.465-1.936c.96-.373 1.75-.653 2.358-.85l.146-.048.147.048c.63.207 1.397.48 2.351.85 1.42.552 2.92 1.196 4.466 1.936 4.232 2.027 8.165 4.458 11.49 7.314l.217.188-.054.286a34.97 34.97 0 0 1-.901 3.566 41.515 41.515 0 0 1-2.52 6.374z" fill="url(#e)"/></g></svg>