<svg width="205" height="238" xmlns="http://www.w3.org/2000/svg"><defs><linearGradient x1="204.103%" y1="-.816%" x2="28.198%" y2="48.044%" id="a"><stop stop-color="#424242" offset="0%"/><stop stop-color="#202020" offset="100%"/></linearGradient><linearGradient x1="-11.993%" y1="78.664%" x2="73.302%" y2="29.666%" id="b"><stop stop-color="#0E0E0E" offset="0%"/><stop stop-color="#444343" offset="100%"/></linearGradient><linearGradient x1="60.9%" y1="-1.554%" x2="50%" y2="100%" id="c"><stop stop-color="#181818" offset="0%"/><stop stop-color="#1F1F1F" offset="100%"/></linearGradient><linearGradient x1="-3.905%" y1="91.503%" x2="168.585%" y2="15.816%" id="d"><stop stop-color="#1F1F1F" offset="0%"/><stop stop-color="#424242" offset="100%"/></linearGradient><linearGradient x1="-8.858%" y1="2.833%" x2="50%" y2="59.965%" id="e"><stop stop-color="#A6A4A4" offset="0%"/><stop stop-color="#706E6E" offset="99.371%"/><stop stop-color="#6D6B6B" offset="100%"/></linearGradient><linearGradient x1="30.427%" y1="48.349%" x2="88.7%" y2="53.288%" id="f"><stop stop-color="#DFDDDD" offset="0%"/><stop stop-color="#BBB8B8" offset="100%"/></linearGradient><linearGradient x1="88.7%" y1="30.644%" x2="42.737%" y2="62.866%" id="g"><stop stop-color="#DFDDDD" offset="0%"/><stop stop-color="#BBB8B8" offset="100%"/></linearGradient><linearGradient x1="58.315%" y1="89.333%" x2="48.031%" y2="1.654%" id="h"><stop stop-color="#171717" offset="0%"/><stop stop-color="#393939" offset="100%"/></linearGradient><linearGradient x1="3.644%" y1="74.459%" x2="100%" y2="15.842%" id="i"><stop stop-color="#2B2B2B" offset="0%"/><stop stop-color="#282828" offset="100%"/></linearGradient><linearGradient x1="21.388%" y1="82.406%" x2="71.597%" y2="28.648%" id="j"><stop stop-color="#292929" offset="0%"/><stop stop-color="#777676" offset="100%"/></linearGradient><linearGradient x1="98.978%" y1="49.963%" x2="30.135%" y2="47.485%" id="k"><stop stop-color="#AFACAC" offset="0%"/><stop stop-color="#303030" offset="100%"/></linearGradient><linearGradient x1="42.391%" y1="39.36%" x2="82.31%" y2="55.918%" id="l"><stop stop-color="#1F1F1F" offset="0%"/><stop stop-color="#848484" offset="97.354%"/></linearGradient><linearGradient x1="6.969%" y1="-7.915%" x2="-4.22%" y2="106.972%" id="m"><stop stop-color="#FA8B6A" offset="0%"/><stop stop-color="#EF6590" offset="100%"/><stop stop-color="#EE6293" offset="100%"/></linearGradient><linearGradient x1="91.768%" y1="36.368%" x2="0%" y2="67.886%" id="n"><stop stop-color="#5C5B5B" offset="0%"/><stop stop-color="#151515" offset="100%"/></linearGradient><linearGradient x1="50%" y1="14.537%" x2="166.414%" y2="163.618%" id="o"><stop stop-color="#232323" offset="0%"/><stop stop-color="#7D7C7C" offset="100%"/></linearGradient></defs><g fill="none" fill-rule="evenodd"><path fill="#2A2A2A" d="M138.46 109.807l32.189 42.39-63.893 2.948z"/><path fill="#262626" d="M96.22 159.24v72.208l5.022 3.543 34.001-36.578-31.61-53.087z"/><path fill="url(#a)" d="M106.79 152.454l27.9 46.43 41.911-8.839 24.93-15.153v-30.6h-87.068z"/><path fill="#1A1A1A" d="M103.366 232.77l31.311-34.307 41.364-8.36z"/><path fill="url(#b)" d="M89.244 98.548l-30.488 36.285 49.036 32.002 45.076-75.216h29.895l-14.055-11.331-22.167 2.566z"/><path fill="url(#c)" d="M60.729 210.3l40.148 23.762v-70.664l-30.88-31.119-11.715 10.113-4.927 29.304z"/><path fill="url(#d)" d="M24.015 185.906l37.258 24.948 41.031-47.352-39.842-55.285z"/><path fill="#313131" opacity=".696" d="M141.697 81.374l7.377-15.7 19.97.766 11.694 14.168 1.979 18.38-6.657-8.425-15.653-8.232z"/><path fill="#525151" opacity=".058" d="M182.987 98.987l-2.25-18.953 7.377-1.341z"/><path fill="url(#e)" opacity=".087" d="M181.008 80.32l-11.515-13.88-21.139-1.818-12.954-3.064 23.298-4.69 21.05 6.318 8.186 15.124z"/><path fill="#656363" opacity=".261" d="M90.495 96.275l49.251-33.408 13.897 3.542-7.287 16.273L90.855 96.85z"/><path fill="url(#f)" opacity=".044" d="M75.382 53.39l63.239 8.807 25.277-4.404-6.848-9.896-38.94-10.972z"/><path d="M89.145 97.807l57.302-14.646 8.096-17.135-15.743-3.16"/><path fill="url(#g)" opacity=".015" d="M16.811 117.409l57.639-63.66 36.324 5.405L88.56 97.59z"/><path fill="url(#h)" d="M14.38 121.502l-4.958 58.07 56.82 29.021L90.938 87.83 49.13 101.505z"/><path fill="url(#i)" d="M14.41 121.292L74.365 54.05 91.2 68.948l-2.154 29.655z"/><path d="M123.214 60.046l-13.876-1.823 8.28 4.112 1.19 4.656 11.432 2.293-41.467 29.542c-6.572-18.3-11.306-33.239-14.2-44.815 8.361.719 13.904 1.314 16.627 1.786l19.8 2.426 12.215 1.823z" fill="url(#j)"/><path fill="#636060" d="M182.61 99.849l5.126-21.492-6.634 1.942z"/><path fill="url(#k)" d="M181.132 80.358l6.515-1.953-8.347-15.577-20.258-6.17-24.66 4.84 14.7 3.785 20.058 2.726z"/><path fill="#282828" d="M.485 141.245l13.902-19.913-3.373 60.169-10.53-6.314z"/><path fill="url(#l)" d="M163.66 58.086l-24.311 4.506-65.062-8.471 23.3-14.029 28.612-3.83 31.133 11.91z"/><path d="M102.377 229.61l95.172-56.425V33.562L102.377 7.577 7.205 33.562v139.623l95.172 56.425zm.011 8.108l-.087.21L0 177.292V28.058L102.3.128l.005.015 102.45 27.915v149.233l-102.302 60.582-.065-.155z" fill="url(#m)" fill-rule="nonzero"/><path fill="url(#n)" d="M88.9 98.743l50.712-36.21 14.788 3.363-7.933 17.231z"/><path fill="url(#o)" d="M140.888 83.887l8.43-19.024 19.931 2.746 11.922 12.678 1.429 19.705-15.527-14.828-6.608-2.663z"/></g></svg>