<svg width="110" height="110" xmlns="http://www.w3.org/2000/svg" xmlns:xlink="http://www.w3.org/1999/xlink"><defs><linearGradient x1="50%" y1="0%" x2="50%" y2="100%" id="a"><stop stop-color="#00DBE2" offset="0%"/><stop stop-color="#02A9D6" offset="100%"/></linearGradient><linearGradient x1="50%" y1="22.3%" x2="54%" y2="117.7%" id="b"><stop stop-color="#00FFF3" offset="0%"/><stop stop-color="#01D3E2" offset="100%"/></linearGradient><linearGradient x1="31.8%" y1="34.2%" x2="62.8%" y2="121.1%" id="d"><stop stop-color="#00FFEB" offset="0%"/><stop stop-color="#02B4E4" offset="100%"/></linearGradient><path d="M1.4 46l1.2 4.9s14.9 30.5 48.2 41.8c0 0 31.7-12.8 45.2-34.8L76 41.4s-8.8 7.1-22 7.1c-13.3 0-31.3-7.9-31.3-24.2C22.7 8 41.3 2 41.3 2l-8-2H13.2L.2 31.3l1.2 14.7z" id="c"/><path d="M125.8 46c-.6-.6-5.7-26.8-50.8-42.4-1.4-1-49-8.6-41.7 1.8C-8.6 16 .9 44.6.9 46c0 1.4 6 22.5 10 31.1.2.7 5.4 10 9.3 14.9-2.6-4-4.8-9.3-4.8-16.8 0-21 16.3-38.2 36.7-38.9h1.5l-4.9-4.8s19.6-3.3 44.7 12c0 0 .4.7 0 3 0 0 11.8 5 12.8 15S101 77.1 96 77.9c0 0 2.7-4-1.4-6.3-.9-.5-1.9-.7-2.9-.6-7.7 0-8.6 8.8-8.6 8.8v1.4S81.5 94 104.5 93.9c8.6 0 11.7-13.3 14.8-25.1 1.1-4.4 2-7.7 2.4-10.1 1.3-3.5 2.6-8.6 3.8-12.3l.2-.4z" id="f"/></defs><g fill="none" fill-rule="evenodd"><path d="M67.6 92.2a36.8 36.8 0 100-73.5 36.8 36.8 0 000 73.5z" fill="url(#a)" fill-rule="nonzero" transform="translate(-9 -13)"/><path d="M93.8 45.4c2.6 3.6 3.6 6.8 3.6 11.2 0 5.3-2.2 10.2-5.9 14.2l2.3 8.5h6.9l7.2-8.3 2-12 .4-7.2-7.2-8.1c-6.4-.8-9.5-.2-9.3 1.7z" fill="url(#b)" fill-rule="nonzero" transform="translate(-9 -13)"/><g transform="translate(3.2 21.3)"><mask id="e" fill="#fff"><use xlink:href="#c"/></mask><circle fill="url(#d)" fill-rule="nonzero" mask="url(#e)" cx="52.7" cy="32" r="52.6"/></g><g transform="translate(-9 -13)"><mask id="g" fill="#fff"><use xlink:href="#f"/></mask><ellipse fill="#000" fill-rule="nonzero" mask="url(#g)" cx="64.1" cy="66.4" rx="51.7" ry="53.3"/></g><path d="M74.4 34.3c.3-.1 1.4-.6 2.6-1.9 2.4.3 4.8 1 4.8 1a33 33 0 00-17.1-4.1s2.5 3.6 9.6 5.1h.1z" fill="#000" fill-rule="nonzero"/><path d="M55 0a55 55 0 110 110A55 55 0 0155 0zm0 5a50 50 0 100 100A50 50 0 0055 5z" fill="#000" fill-rule="nonzero"/></g></svg>