<svg xmlns="http://www.w3.org/2000/svg" width="600" height="600"><g fill="#fb8a61"><path d="M220.344 223.41v83.599c0 46.152 37.447 83.599 83.648 83.599 46.153 0 83.599-37.43 83.599-83.6 0-46.168-37.43-83.598-83.599-83.598h-83.648z"/><path d="M317.174 43.047h-96.846v96.715h83.648c92.354 0 167.214 74.893 167.214 167.23 0 92.338-74.86 167.23-167.214 167.23-92.387 0-167.198-74.892-167.198-167.23v-83.598h-94.32v76.5h.606c.147 141.981 115.241 257.059 257.256 257.059 142.08 0 257.223-115.16 257.223-257.29.016-136.374-106.159-247.96-240.37-256.616z"/></g><path fill="#fb8a61" d="M43.064 43.047h93.386v97.42H43.064z"/></svg>