<svg id="Layer_1" data-name="Layer 1" xmlns="http://www.w3.org/2000/svg" viewBox="0 0 95.98 113.1"><defs><style>.cls-1{fill:#030303;}.cls-2{fill:#fff;}.cls-3{fill:#f79723;}</style></defs><title>cryptokek-logo</title><path class="cls-1" d="M254,490.64h64.31a2.37,2.37,0,0,1,2.37,2.37V505.7a2.37,2.37,0,0,1-2.37,2.37H255.58a3.9,3.9,0,0,1-3.9-3.9V493A2.37,2.37,0,0,1,254,490.64Z" transform="translate(580.7 -230.3) rotate(90)"/><path class="cls-1" d="M245.42,450.75h16.43a14.79,14.79,0,0,1,14.79,14.79v10.25a14.79,14.79,0,0,1-14.79,14.79H247a16.33,16.33,0,0,1-16.33-16.33v-8.71A14.79,14.79,0,0,1,245.42,450.75Z" transform="translate(-116.12 535.79) rotate(-133.71)"/><path class="cls-1" d="M241.46,537.95h22.95a4.86,4.86,0,0,1,4.86,4.86v1.39a4.86,4.86,0,0,1-4.86,4.86H242.85a6.25,6.25,0,0,1-6.25-6.25v0A4.86,4.86,0,0,1,241.46,537.95Z" transform="translate(309.82 639.37) rotate(179.07)"/><path class="cls-1" d="M186.07,492.24h66.21a.88.88,0,0,1,.88.88v14.79a.88.88,0,0,1-.88.88H187.61a2.42,2.42,0,0,1-2.42-2.42V493.13a.88.88,0,0,1,.88-.88Z" transform="translate(514.85 -162.11) rotate(90)"/><path class="cls-1" d="M213.09,470.61H291.3a.88.88,0,0,1,.88.88v57.58a.88.88,0,0,1-.88.88H214.63a2.42,2.42,0,0,1-2.42-2.42v-56a.88.88,0,0,1,.88-.88Z" transform="translate(538.62 -212.51) rotate(88.02)"/><path class="cls-1" d="M240,515.72H267.4a4.86,4.86,0,0,1,4.86,4.86v19.56A4.86,4.86,0,0,1,267.4,545h-26a6.25,6.25,0,0,1-6.25-6.25V520.58a4.86,4.86,0,0,1,4.86-4.86Z" transform="translate(311.17 613.08) rotate(179.07)"/><path class="cls-2" d="M243.75,500.21l-23.87-12.83a3.06,3.06,0,0,0-4.51,2.69v31.18a3,3,0,0,0,1.61,2.69l23.87,12.83a3.12,3.12,0,0,0,1.45.37,3,3,0,0,0,1.57-.44,3.06,3.06,0,0,0,1.49-2.62V502.9A3.06,3.06,0,0,0,243.75,500.21ZM237.87,504l-5.76,4.44-5.25-2.83v6.86l-5.37,4.13v-21.4Zm-15,16.17,5.77-4.43,5.25,2.82v-6.86l5.37-4.13V529Z" transform="translate(-204.84 -443.45)"/><path class="cls-2" d="M270.58,467l-17.75,9.54-10.94-5.88,17.75-9.54-4.86-2.61a4.12,4.12,0,0,0-3.89,0L231,469.18a1.68,1.68,0,0,0,0,2.95l19.86,10.67a4.07,4.07,0,0,0,3.89,0l19.85-10.67a1.67,1.67,0,0,0,0-2.95Z" transform="translate(-204.84 -443.45)"/><path class="cls-2" d="M288.8,487.45a3,3,0,0,0-3-.07l-23.87,12.83a3.06,3.06,0,0,0-1.61,2.69v31.18a3.08,3.08,0,0,0,3.05,3.06,3.09,3.09,0,0,0,1.45-.37l23.87-12.83a3,3,0,0,0,1.61-2.69V490.07A3,3,0,0,0,288.8,487.45Zm-4.62,29.14-5.37-4.13V505.6l-5.25,2.83L267.79,504l16.39-8.8Zm-17.76-9,5.37,4.13v6.86l5.25-2.82,5.77,4.43L266.42,529Z" transform="translate(-204.84 -443.45)"/><path class="cls-3" d="M300.71,469.85a2.6,2.6,0,0,0-.1-.25,2.91,2.91,0,0,0-.21-.48c0-.09-.13-.17-.19-.26a2.63,2.63,0,0,0-.29-.37,2.92,2.92,0,0,0-.28-.21,3.61,3.61,0,0,0-.3-.25l-.07,0-.06-.05-44.93-24.14a3,3,0,0,0-2.89,0L206.45,468l0,.05-.07,0c-.11.07-.2.17-.31.25a2.78,2.78,0,0,0-.27.21,2.63,2.63,0,0,0-.29.37c-.07.09-.14.17-.2.26a2.86,2.86,0,0,0-.2.48c0,.09-.08.17-.11.25a3.1,3.1,0,0,0-.11.81v58.69a3.06,3.06,0,0,0,1.61,2.69l44.94,24.15a2.73,2.73,0,0,0,.43.16l.24.1a3.32,3.32,0,0,0,.77.1,3.47,3.47,0,0,0,.78-.1l.24-.1a3.16,3.16,0,0,0,.43-.16L299.21,532a3.06,3.06,0,0,0,1.61-2.69V470.66A3.1,3.1,0,0,0,300.71,469.85Zm-47.88-19.78,38.31,20.59-1.63.87-36.68,19.72-36.68-19.72-1.63-.87ZM211,475.77l38.82,20.86v51.75L211,527.52Zm44.93,72.61V496.63l38.82-20.86v51.75Z" transform="translate(-204.84 -443.45)"/></svg>
