<svg width="18" height="21" xmlns="http://www.w3.org/2000/svg" xmlns:xlink="http://www.w3.org/1999/xlink"><defs><path id="a" d="M0 .007h17.343v20.977H0z"/></defs><g fill="none" fill-rule="evenodd"><path fill="#1A1A1A" d="M7.082 10.389l.166.081-.007.184-1.375.767-.16-.265zm-5.865 3.26l.159.266 1.455-.808-.159-.266zm2.288-1.259l.16.265 1.373-.77-.16-.266zm6.756-2.001l-.166.081.007.184 1.376.767.159-.265zm5.865 3.26l-.158.266-1.455-.808.158-.266zm-2.287-1.259l-.16.265-1.373-.77.16-.266zM8.493 5.569h.317V4.035h-.317zm.317 2.454l-.156.06-.161-.06V6.489h.317zm-.317-4.908h.317v-1.62h-.317z"/><g transform="translate(0 .01)"><mask id="b" fill="#fff"><use xlink:href="#a"/></mask><path d="M2.107 5.231L8.672 8.89l6.564-3.659L9.222 1.88l-.548-.309-1.085.606-.075.042L2.107 5.23zM9.024.202l7.967 4.442.267.148.085.048v9.663l-.085.047-.267.15-3.984 2.22-2.05 1.142-.256.143V16.64l.085-.047 1.517-.846 2.845-1.586.789-.438-.002-.762V6.404l-6.56 3.656v10.531l-.085.048-.267.149-.267.149-.084.047-.085-.047-.267-.15-.266-.148-.086-.048v-10.53l-6.56-3.657v7.141l.002-.001v.181l.512.283 3.118 1.738 1.517.846.085.047v1.566l-.255-.143-2.05-1.142h-.001L.352 14.7l-.267-.15L0 14.503V4.84l.085-.048.267-.148L8.32.202l.267-.148.085-.047.084.047.267.148z" fill="#1A1A1A" mask="url(#b)"/></g></g></svg>