<?xml version="1.0" encoding="UTF-8"?>
<svg width="293px" height="293px" viewBox="0 0 293 293" version="1.1" xmlns="http://www.w3.org/2000/svg" xmlns:xlink="http://www.w3.org/1999/xlink">
    <!-- Generator: Sketch Beta 52.5 (67469) - http://www.bohemiancoding.com/sketch -->
    <title>melon-sticker</title>
    <desc>Created with Sketch Beta.</desc>
    <g id="melon-sticker" stroke="none" stroke-width="1" fill="none" fill-rule="evenodd">
        <g id="Group" transform="translate(8.000000, 8.000000)" fill="#000000">
            <path d="M100.9829,107.6025 C99.1159,102.8105 97.1389,99.2775 95.0449,97.0055 C92.9479,94.7345 89.9319,93.6015 85.9999,93.6015 L83.1959,93.6015 C86.3259,94.8105 88.7839,96.4895 90.5769,98.6335 C92.3659,100.7795 94.1969,104.1225 96.0639,108.6635 L131.1079,192.0715 C132.2179,190.0535 132.7749,188.2865 132.7749,186.7725 C132.7749,185.3605 132.2179,183.3415 131.1079,180.7185 L100.9829,107.6025 Z" id="Fill-1"></path>
            <path d="M168.5742,192.0713 L171.2202,192.0713 C174.7082,192.0713 176.8722,191.0763 177.7312,189.0803 C178.5872,187.0903 179.0182,183.6453 179.0182,178.7503 L179.0182,105.7103 C179.0182,99.7593 179.4752,95.7193 180.3822,93.6013 C178.3622,93.7503 176.9232,94.3213 176.0672,95.3053 C175.2082,96.2863 174.6782,97.6493 174.4752,99.3913 C174.2762,101.1323 174.1752,103.9193 174.1752,107.7553 L174.1752,180.7183 C174.1752,184.3503 173.8082,186.8363 173.0802,188.1723 C172.3452,189.5093 170.8442,190.8093 168.5742,192.0713" id="Fill-3"></path>
            <path d="M205.5078,93.6016 C200.4148,93.6526 196.8328,94.3096 194.7628,95.5686 C192.6928,96.8306 191.4818,98.6486 191.1268,101.0186 C190.7718,103.3926 190.5978,107.7546 190.5978,114.1136 L190.5978,179.5076 C190.5978,182.8356 191.0398,185.3606 191.9248,187.0756 C192.8058,188.7896 194.2308,189.9906 196.1978,190.6716 C198.1668,191.3516 201.2708,191.8196 205.5078,192.0716 L205.5078,196.2346 L156.6908,196.2346 L156.6908,192.0716 C161.5338,192.0226 165.0428,191.4166 167.2108,190.2546 C169.3828,189.0946 170.6698,187.5426 171.0718,185.5996 C171.4748,183.6566 171.6778,180.4416 171.6778,175.9486 L171.6778,102.9096 L134.0618,196.2346 L129.6678,196.2346 L92.5088,105.8626 L92.5088,167.8506 C92.5088,174.8146 93.8318,180.2526 96.4828,184.1636 C99.1288,188.0746 103.5318,190.7076 109.6868,192.0716 L109.6868,196.2346 L71.3878,196.2346 L71.3878,192.0716 C76.7878,191.5186 80.9518,189.4106 83.8798,185.7496 C86.8068,182.0936 88.2678,176.9606 88.2678,170.3486 L88.2678,100.1096 C86.1978,97.8386 83.7268,96.1486 80.8508,95.0396 C77.9778,93.9286 74.8198,93.4496 71.3878,93.6016 L71.3878,89.4386 L105.9808,89.4386 L139.7368,170.3486 L172.8118,89.4386 L205.5078,89.4386 L205.5078,93.6016 Z M138.7328,15.4596 C70.6528,15.4596 15.4618,70.6526 15.4618,138.7266 C15.4618,206.8076 70.6528,262.0036 138.7328,262.0036 C206.8098,262.0036 261.9968,206.8076 261.9968,138.7266 C261.9968,70.6526 206.8098,15.4596 138.7328,15.4596 Z" id="Fill-5"></path>
            <path d="M89.1011,182.1562 C88.3931,184.2262 87.2941,186.0542 85.8091,187.6422 C84.3211,189.2322 82.4161,190.7082 80.0951,192.0712 L96.0631,192.0712 C94.2471,191.1142 92.7721,189.7892 91.6371,188.0952 C90.5041,186.4062 89.6561,184.4272 89.1011,182.1562" id="Fill-7"></path>
            <path d="M138.7329,6.5889 C65.8709,6.5889 6.5959,65.8649 6.5959,138.7269 C6.5959,211.5929 65.8709,270.8639 138.7329,270.8639 C211.5949,270.8639 270.8639,211.5929 270.8639,138.7269 C270.8639,65.8649 211.5949,6.5889 138.7329,6.5889 M138.7329,276.4799 C62.7729,276.4799 0.9809,214.6799 0.9809,138.7269 C0.9809,62.7729 62.7729,0.9809 138.7329,0.9809 C214.6879,0.9809 276.4799,62.7729 276.4799,138.7269 C276.4799,214.6799 214.6879,276.4799 138.7329,276.4799" id="Fill-9"></path>
        </g>
    </g>
</svg>