<svg id="Layer_1" data-name="Layer 1" xmlns="http://www.w3.org/2000/svg" viewBox="50 50 400 400"><defs><style>.cls-1{fill:#1e65f3;}</style></defs><title>coinmark_blue_padded</title><path class="cls-1" d="M329.5,162.14l-24.83,11.79a1.06,1.06,0,0,0-.51,1.41L341.94,255c14.05,29.63,10.28,52.1-11.07,62.23-17.27,8.19-32.18,2.47-43.81-17.49h0l-44.73-94.29c-18.14-38.22-42.85-48.36-72.15-34.45-19.07,9-30.13,25.21-29.91,45.73a1.06,1.06,0,0,1-2,.48l-9.76-20.58a1.07,1.07,0,0,0-1.42-.5l-24.84,11.78a1.07,1.07,0,0,0-.5,1.42l68.6,144.61a1.06,1.06,0,0,0,1.42.5l24.83-11.78a1.05,1.05,0,0,0,.51-1.41L160.38,263.8c-15-31.53-12.12-54.34,10.81-65.22,17.61-8.35,31.29-2.74,43.57,18.65a.56.56,0,0,0,.05.08l44.28,93.36c17.08,36,43.63,48.37,71.67,35.07,21.66-10.28,30.65-25.75,30.12-46.1a1.06,1.06,0,0,1,2-.48L372.77,320a1.06,1.06,0,0,0,1.41.51L399,308.67a1,1,0,0,0,.5-1.41l-68.6-144.61A1.07,1.07,0,0,0,329.5,162.14Z"/></svg>