<svg width="73" height="73" xmlns="http://www.w3.org/2000/svg"><defs><radialGradient cx="1.992%" cy="1.889%" fx="1.992%" fy="1.889%" r="135.07%" id="a"><stop stop-color="#C0F8EC" offset="0%"/><stop stop-color="#9BE3D4" offset="100%"/></radialGradient><filter x="-31.6%" y="-30%" width="163.2%" height="160%" filterUnits="objectBoundingBox" id="b"><feOffset dy="2" in="SourceAlpha" result="shadowOffsetOuter1"/><feGaussianBlur stdDeviation="2" in="shadowOffsetOuter1" result="shadowBlurOuter1"/><feColorMatrix values="0 0 0 0 0 0 0 0 0 0 0 0 0 0 0 0 0 0 0.149428216 0" in="shadowBlurOuter1" result="shadowMatrixOuter1"/><feMerge><feMergeNode in="shadowMatrixOuter1"/><feMergeNode in="SourceGraphic"/></feMerge></filter></defs><g fill="none" fill-rule="evenodd"><path d="M20.511 0H52.49c7.132 0 9.718.743 12.326 2.137a14.538 14.538 0 0 1 6.048 6.048C72.257 10.793 73 13.38 73 20.511V52.49c0 7.132-.743 9.718-2.137 12.326a14.538 14.538 0 0 1-6.048 6.048C62.207 72.257 59.62 73 52.489 73H20.51c-7.132 0-9.718-.743-12.326-2.137a14.538 14.538 0 0 1-6.048-6.048C.743 62.207 0 59.62 0 52.489V20.51c0-7.132.743-9.718 2.137-12.326a14.538 14.538 0 0 1 6.048-6.048C10.793.743 13.38 0 20.511 0z" fill="url(#a)"/><path d="M19.658 50.813c-3.65-6.774-1.167-17.398 6.384-25.346 8.575-9.023 20.43-11.174 26.483-4.804a.24.24 0 0 0 .023.025c-1.211 3.71-5.07 11.602-16.633 15.869-10.594 3.91-14.68 10.13-16.257 14.256zm29.303-19.742c-2.765 2.913-6.696 5.772-12.264 7.828-11.3 4.17-14.457 10.999-15.338 14.305.042.045.077.092.117.133 6.052 6.37 17.91 4.22 26.482-4.804 7.63-8.03 10.083-18.79 6.27-25.553-.919 2.252-2.515 5.195-5.267 8.09z" fill="#FFF" fill-rule="nonzero"/></g></svg>