<svg width="65" height="65" viewBox="0 0 65 65" xmlns="http://www.w3.org/2000/svg"><title>template-startup</title><g transform="translate(.753)" fill="none" fill-rule="evenodd"><ellipse fill="#F2F6F7" cx="32" cy="32.011" rx="32" ry="32.011"/><path d="M50.019 14c-3.405.04-6.722.625-9.858 1.698a31.386 31.386 0 0 0-12.048 7.52 32.063 32.063 0 0 0-2.342 2.618 13.4 13.4 0 0 0-9.295 3.942 13.356 13.356 0 0 0-3.201 5.142.5.5 0 0 0 .697.61 9.966 9.966 0 0 1 6.816-.764c-.077.214-.163.425-.236.64a.5.5 0 0 0 .3.63c.484.177.948.384 1.4.613l-.759 1.363a.501.501 0 0 0 .192.678 11.02 11.02 0 0 1 2.365 1.787 11.033 11.033 0 0 1 1.787 2.367.498.498 0 0 0 .678.19l1.361-.758c.228.45.436.914.614 1.396a.5.5 0 0 0 .628.301c.243-.082.48-.177.72-.264a9.97 9.97 0 0 1-.73 6.96.5.5 0 0 0 .448.722c.055 0 .11-.007.164-.025a13.357 13.357 0 0 0 5.14-3.204 13.413 13.413 0 0 0 3.954-9.513A31.351 31.351 0 0 0 48.822 24.38a31.645 31.645 0 0 0 1.703-9.877.502.502 0 0 0-.147-.36.511.511 0 0 0-.36-.144z" fill="#FFF"/><path d="M20.702 39.7a4.217 4.217 0 0 0-3.992 2.619l-3.332 8.175a.502.502 0 0 0 .11.543.501.501 0 0 0 .543.108l8.173-3.332a4.215 4.215 0 0 0 2.538-4.738 4.19 4.19 0 0 0-3.27-3.288h-.008l-.021-.005a4.221 4.221 0 0 0-.74-.082z" fill="#FFF"/><path d="M50.019 14c-3.405.04-6.722.625-9.858 1.698l-.015.005a31.36 31.36 0 0 0-12.033 7.514 32.063 32.063 0 0 0-2.342 2.62 13.4 13.4 0 0 0-9.295 3.94 13.356 13.356 0 0 0-3.201 5.143.5.5 0 0 0 .697.61 9.966 9.966 0 0 1 6.816-.764c-.077.214-.163.425-.236.64a.5.5 0 0 0 .3.63c.484.177.948.384 1.4.613l-.759 1.363a.501.501 0 0 0 .192.678 11.02 11.02 0 0 1 2.365 1.787 11.033 11.033 0 0 1 1.787 2.367.498.498 0 0 0 .678.19l1.361-.758c.228.45.436.914.614 1.396a.5.5 0 0 0 .628.301c.243-.082.48-.177.72-.264a9.97 9.97 0 0 1-.73 6.96.5.5 0 0 0 .448.722c.055 0 .11-.007.164-.025a13.357 13.357 0 0 0 5.14-3.204 13.413 13.413 0 0 0 3.954-9.513 31.351 31.351 0 0 0 10.014-14.29 31.568 31.568 0 0 0 1.697-9.855.502.502 0 0 0-.147-.36.511.511 0 0 0-.36-.144zm-.506 1.01a30.559 30.559 0 0 1-1.375 8.248l-6.873-6.873a30.559 30.559 0 0 1 8.248-1.375zm-9.307 1.729l7.579 7.578a30.38 30.38 0 0 1-7.186 11.386 30.157 30.157 0 0 1-11.35 7.166 13.753 13.753 0 0 0-7.595-7.597c.084-.238.181-.468.271-.703a30.459 30.459 0 0 1 6.895-10.645 30.384 30.384 0 0 1 11.386-7.185zM37.63 22.93c-1.036 0-2.072.377-2.828 1.133a4.005 4.005 0 0 0 0 5.658c.78.78 1.804 1.17 2.828 1.17 1.024 0 2.048-.39 2.828-1.17a4.005 4.005 0 0 0 0-5.658c-.755-.756-1.791-1.133-2.828-1.133zm0 .96a2.98 2.98 0 0 1 2.121.88 3.005 3.005 0 0 1 0 4.244 3.004 3.004 0 0 1-4.242 0 3.006 3.006 0 0 1 0-4.244 2.978 2.978 0 0 1 2.121-.88zm-12.648 2.976c-.032.043-.058.09-.09.132-.336.462-.66.933-.969 1.412l-.078.122a31.081 31.081 0 0 0-2.707 5.28 10.957 10.957 0 0 0-6.484.333 12.287 12.287 0 0 1 2.529-3.66 12.406 12.406 0 0 1 7.799-3.62zm-1.897 10.337c.882.54 1.68 1.164 2.375 1.86a12.65 12.65 0 0 1 1.854 2.38l-.862.48a11.957 11.957 0 0 0-1.697-2.153 11.844 11.844 0 0 0-2.152-1.697l.482-.87zm14.686 2.454a12.406 12.406 0 0 1-3.62 7.798 12.3 12.3 0 0 1-3.66 2.528c.763-2.074.88-4.325.333-6.49a31.345 31.345 0 0 0 6.947-3.836zm-17.442 1.06a2.474 2.474 0 0 0-.867 1.084l-1.795 4.402a.498.498 0 0 0 .653.65l4.402-1.794a2.478 2.478 0 0 0 1.08-.86 3.202 3.202 0 0 1-1.976 2.686L14.75 49.77l2.885-7.074a3.208 3.208 0 0 1 2.693-1.979z" fill="#000" fill-rule="nonzero"/><path d="M20.702 39.7a4.217 4.217 0 0 0-3.992 2.619l-3.332 8.175a.502.502 0 0 0 .11.543.501.501 0 0 0 .543.108l8.173-3.332a4.215 4.215 0 0 0 2.538-4.738 4.19 4.19 0 0 0-3.27-3.288h-.008l-.021-.005a4.221 4.221 0 0 0-.74-.082z" stroke="#36ECE8" fill="#FFF"/><path d="M21.775 41.248c.099 0 .198.009.297.03h.002a1.5 1.5 0 0 1 .27 2.857l-3.302 1.344 1.346-3.3a1.5 1.5 0 0 1 1.387-.93z" fill="#FFF"/></g></svg>