<svg width="60" height="60" viewBox="0 0 60 60" xmlns="http://www.w3.org/2000/svg"><title>Icon_Not_Found</title><g fill="none" fill-rule="evenodd"><circle fill="#F2F6F7" cx="30" cy="30" r="30"/><g stroke="#000"><path d="M41.188 16c.49 0 .915.18 1.274.538.359.359.538.784.538 1.275v25.375c0 .49-.18.915-.538 1.274a1.742 1.742 0 0 1-1.275.538H15.814c-.491 0-.916-.18-1.275-.538A1.742 1.742 0 0 1 14 43.187V17.814c0-.491.18-.916.538-1.275A1.742 1.742 0 0 1 15.812 16h25.376z" stroke-width="1.5" fill="#FFF"/><path d="M40 26.423v14.14c0 .389-.142.726-.427 1.01a1.381 1.381 0 0 1-1.01.427H18.436c-.389 0-.726-.142-1.01-.427a1.381 1.381 0 0 1-.427-1.01V20.436c0-.389.142-.726.427-1.01a1.381 1.381 0 0 1 1.01-.427h11.171" opacity=".3" stroke-linecap="round" stroke-linejoin="round"/></g><circle fill="#FFF" cx="42" cy="41" r="10"/><path d="M41.078 43.576v-.396c0-3.42 3.24-3.366 3.24-5.76 0-1.098-.792-1.962-2.232-1.962-1.62 0-2.556.972-2.556 2.448H38C38 35.584 39.62 34 42.086 34s3.816 1.512 3.816 3.438c0 3.06-3.24 2.97-3.24 5.76v.378h-1.584zm.756 3.474a1.24 1.24 0 0 1-1.242-1.224c0-.648.54-1.242 1.242-1.242s1.26.594 1.26 1.242-.558 1.224-1.26 1.224z" fill="#00E7E2"/></g></svg>
