<svg xmlns="http://www.w3.org/2000/svg" width="306" height="153" fill="none"><defs/><path fill="url(#prefix__prefix__prefix__paint0_linear)" d="M0 4a4 4 0 014-4h298a4 4 0 014 4v149H0V4z"/><path fill="url(#prefix__prefix__prefix__paint1_linear)" fill-opacity=".5" fill-rule="evenodd" d="M100.944 74.665a50.504 50.504 0 014.114-20.031A16.12 16.12 0 01100 42.888c0-8.928 7.238-16.166 16.166-16.166 3.995 0 7.651 1.449 10.472 3.85C134.008 26.389 142.53 24 151.61 24c27.981 0 50.665 22.684 50.665 50.665 0 5.698-.941 11.177-2.675 16.289a21.493 21.493 0 016.563 15.488c0 11.904-9.65 21.555-21.554 21.555-5.787 0-11.04-2.28-14.912-5.99a50.559 50.559 0 01-18.087 3.323c-27.982 0-50.666-22.683-50.666-50.665zm72.816 45.58a17.482 17.482 0 0010.849 3.752c9.695 0 17.554-7.86 17.554-17.555 0-4.332-1.569-8.298-4.17-11.36a50.865 50.865 0 01-24.233 25.163zm19.393-29.142a44.82 44.82 0 01-23.55 24.455 17.47 17.47 0 01-2.549-9.116c0-9.695 7.859-17.555 17.555-17.555 3.101 0 6.015.804 8.544 2.216zm1.318-3.832a21.459 21.459 0 00-9.862-2.384c-11.905 0-21.555 9.65-21.555 21.555 0 3.844 1.006 7.454 2.77 10.579a44.61 44.61 0 01-14.214 2.309c-24.668 0-44.666-19.997-44.666-44.665a44.521 44.521 0 013.248-16.75 16.119 16.119 0 005.974 1.14c8.929 0 16.166-7.238 16.166-16.167 0-2.735-.679-5.311-1.878-7.57A44.466 44.466 0 01151.61 30c24.667 0 44.665 19.997 44.665 44.665 0 4.378-.63 8.608-1.804 12.606zm-65.139-44.383a13.1 13.1 0 00-1.473-6.057 44.868 44.868 0 00-16.447 18.34c1.475.57 3.078.884 4.754.884 7.272 0 13.166-5.895 13.166-13.167zm-22.915 8.85a50.9 50.9 0 0117.49-19.5 13.105 13.105 0 00-7.741-2.516c-7.271 0-13.166 5.895-13.166 13.166 0 3.407 1.294 6.512 3.417 8.85z" clip-rule="evenodd"/><circle cx="151.5" cy="74.5" r="14.5" fill="url(#prefix__prefix__prefix__paint2_linear)"/><circle cx="185" cy="107" r="10" fill="url(#prefix__prefix__prefix__paint3_linear)"/><circle cx="116" cy="43" r="5" fill="url(#prefix__prefix__prefix__paint4_linear)"/><defs><linearGradient id="prefix__prefix__prefix__paint0_linear" x1="306" x2=".087" y1="153" y2="153.174" gradientUnits="userSpaceOnUse"><stop stop-color="#3B89D0"/><stop offset="1" stop-color="#00B3FF"/></linearGradient><linearGradient id="prefix__prefix__prefix__paint1_linear" x1="100" x2="206" y1="24" y2="128" gradientUnits="userSpaceOnUse"><stop stop-color="#fff"/><stop offset="1" stop-color="#BBB"/></linearGradient><linearGradient id="prefix__prefix__prefix__paint2_linear" x1="151.5" x2="151.5" y1="60" y2="89" gradientUnits="userSpaceOnUse"><stop stop-color="#fff"/><stop offset="1" stop-color="#F9FAFC"/></linearGradient><linearGradient id="prefix__prefix__prefix__paint3_linear" x1="185" x2="185" y1="97" y2="117" gradientUnits="userSpaceOnUse"><stop stop-color="#fff"/><stop offset="1" stop-color="#F9FAFC"/></linearGradient><linearGradient id="prefix__prefix__prefix__paint4_linear" x1="116" x2="116" y1="38" y2="48" gradientUnits="userSpaceOnUse"><stop stop-color="#fff"/><stop offset="1" stop-color="#F9FAFC"/></linearGradient></defs></svg>