<svg width="52" height="52" viewBox="0 0 160 160" fill="none" xmlns="http://www.w3.org/2000/svg"><path fill="url(#prefix__paint0_linear)" d="M0 0h160v160H0z"/><path fill-rule="evenodd" clip-rule="evenodd" d="M25.389 77.948a52.798 52.798 0 014.682-21.805 16.214 16.214 0 01-3.654-10.275c0-9.009 7.33-16.306 16.332-16.306 3.262 0 6.305.959 8.859 2.61a52.993 52.993 0 0126.986-7.343c29.325 0 53.204 23.77 53.204 53.119a52.868 52.868 0 01-3.169 18.089 21.624 21.624 0 015.114 13.99c0 12.012-9.774 21.741-21.777 21.741a21.703 21.703 0 01-13.375-4.589 53.063 53.063 0 01-19.997 3.888c-29.326 0-53.205-23.771-53.205-53.12zm77.435 47.292a17.704 17.704 0 009.142 2.528c9.803 0 17.777-7.947 17.777-17.741 0-3.577-1.064-6.908-2.892-9.695a53.442 53.442 0 01-24.027 24.908zm16.009-31.578c-4.19 10.662-12.516 19.26-22.996 23.826a17.625 17.625 0 01-1.647-7.461c0-9.793 7.973-17.741 17.776-17.741 2.433 0 4.754.49 6.867 1.376zm1.29-3.796a21.717 21.717 0 00-8.157-1.58c-12.002 0-21.776 9.73-21.776 21.741 0 3.167.68 6.176 1.9 8.889a43.157 43.157 0 01-13.496 2.151c-23.826 0-43.205-19.317-43.205-43.12 0-5.77 1.139-11.276 3.203-16.307 1.328.349 2.721.534 4.157.534 9.002 0 16.332-7.297 16.332-16.306 0-2.053-.38-4.018-1.075-5.828a43.036 43.036 0 0120.588-5.211c23.825 0 43.204 19.316 43.204 43.119 0 4.134-.584 8.132-1.675 11.918zM56.081 45.868c0-1.496-.248-2.935-.705-4.278a43.41 43.41 0 00-15.524 17.268c.933.207 1.903.316 2.897.316 7.352 0 13.332-5.96 13.332-13.306zm-24.518 7.237a53.466 53.466 0 0117.182-19.121 13.283 13.283 0 00-5.996-1.422c-7.352 0-13.332 5.961-13.332 13.306 0 2.668.789 5.154 2.146 7.237z" fill="url(#prefix__paint1_linear)" fill-opacity=".5"/><ellipse cx="78.483" cy="77.781" rx="14.664" ry="14.638" fill="url(#prefix__paint2_linear)"/><ellipse cx="112.362" cy="110.591" rx="10.113" ry="10.095" fill="url(#prefix__paint3_linear)"/><ellipse cx="42.581" cy="45.981" rx="5.057" ry="5.048" fill="url(#prefix__paint4_linear)"/><defs><linearGradient id="prefix__paint0_linear" x1="160" y1="160" x2=".044" y2="160.044" gradientUnits="userSpaceOnUse"><stop stop-color="#3B89D0"/><stop offset="1" stop-color="#00B3FF"/></linearGradient><linearGradient id="prefix__paint1_linear" x1="25.389" y1="24.829" x2="134.37" y2="130.956" gradientUnits="userSpaceOnUse"><stop stop-color="#fff"/><stop offset="1" stop-color="#BBB"/></linearGradient><linearGradient id="prefix__paint2_linear" x1="78.483" y1="63.143" x2="78.483" y2="92.419" gradientUnits="userSpaceOnUse"><stop stop-color="#fff"/><stop offset="1" stop-color="#F9FAFC"/></linearGradient><linearGradient id="prefix__paint3_linear" x1="112.362" y1="100.495" x2="112.362" y2="120.686" gradientUnits="userSpaceOnUse"><stop stop-color="#fff"/><stop offset="1" stop-color="#F9FAFC"/></linearGradient><linearGradient id="prefix__paint4_linear" x1="42.581" y1="40.933" x2="42.581" y2="51.029" gradientUnits="userSpaceOnUse"><stop stop-color="#fff"/><stop offset="1" stop-color="#F9FAFC"/></linearGradient></defs></svg>