<svg xmlns="http://www.w3.org/2000/svg" width="52" height="52" fill="none"><defs/><rect width="52" height="52" fill="url(#prefix__prefix__prefix__prefix__paint0_linear)" rx="6"/><path fill="url(#prefix__prefix__prefix__prefix__paint1_linear)" fill-opacity=".5" fill-rule="evenodd" d="M4.137 25.231c0-2.896.58-5.671 1.629-8.208a7.167 7.167 0 01-2.143-5.108c0-3.902 3.16-7.146 7.087-7.146 1.713 0 3.28.617 4.502 1.636a20.938 20.938 0 0110.21-2.648c11.775 0 21.286 9.737 21.286 21.474 0 2.388-.393 4.694-1.12 6.852a9.22 9.22 0 012.65 6.464c0 5.023-4.07 9.195-9.117 9.195a9.025 9.025 0 01-6.162-2.433 20.932 20.932 0 01-7.536 1.396c-11.774 0-21.286-9.737-21.286-21.474zm30.858 19.167a7.01 7.01 0 004.126 1.344c3.918 0 7.117-3.252 7.117-7.195a7.2 7.2 0 00-1.479-4.373 21.628 21.628 0 01-9.764 10.224zm7.37-12.247c-1.772 4.388-5.174 7.958-9.443 9.917a7.186 7.186 0 01-.919-3.52c0-3.944 3.2-7.195 7.117-7.195 1.168 0 2.272.288 3.246.798zm.654-1.911a8.968 8.968 0 00-3.898-.887c-5.048 0-9.118 4.171-9.118 9.194 0 1.53.378 2.98 1.045 4.257a17.922 17.922 0 01-5.625.901c-10.08 0-18.286-8.356-18.286-18.474 0-2.311.429-4.531 1.21-6.58a6.98 6.98 0 002.363.41c3.927 0 7.088-3.244 7.088-7.146 0-1.11-.255-2.166-.712-3.11a17.95 17.95 0 018.337-2.048c10.08 0 18.285 8.357 18.285 18.474 0 1.732-.24 3.413-.69 5.009zm-27.22-18.325c0-.74-.158-1.445-.44-2.083a18.655 18.655 0 00-6.196 6.983 4.98 4.98 0 001.547.246c2.798 0 5.088-2.324 5.088-5.146zm-9.104 3.148a21.68 21.68 0 016.69-7.518 4.998 4.998 0 00-2.675-.776c-2.797 0-5.087 2.324-5.087 5.146a5.15 5.15 0 001.072 3.148z" clip-rule="evenodd"/><ellipse cx="25.377" cy="25.162" fill="url(#prefix__prefix__prefix__prefix__paint2_linear)" rx="6.019" ry="6.076"/><ellipse cx="39.283" cy="38.781" fill="url(#prefix__prefix__prefix__prefix__paint3_linear)" rx="4.151" ry="4.19"/><ellipse cx="10.641" cy="11.962" fill="url(#prefix__prefix__prefix__prefix__paint4_linear)" rx="2.075" ry="2.095"/><defs><linearGradient id="prefix__prefix__prefix__prefix__paint0_linear" x1="52" x2=".011" y1="52" y2="52.011" gradientUnits="userSpaceOnUse"><stop stop-color="#3B89D0"/><stop offset="1" stop-color="#00B3FF"/></linearGradient><linearGradient id="prefix__prefix__prefix__prefix__paint1_linear" x1="3.623" x2="48.448" y1="3.757" y2="47.457" gradientUnits="userSpaceOnUse"><stop stop-color="#fff"/><stop offset="1" stop-color="#BBB"/></linearGradient><linearGradient id="prefix__prefix__prefix__prefix__paint2_linear" x1="25.377" x2="25.377" y1="19.086" y2="31.238" gradientUnits="userSpaceOnUse"><stop stop-color="#fff"/><stop offset="1" stop-color="#F9FAFC"/></linearGradient><linearGradient id="prefix__prefix__prefix__prefix__paint3_linear" x1="39.283" x2="39.283" y1="34.59" y2="42.971" gradientUnits="userSpaceOnUse"><stop stop-color="#fff"/><stop offset="1" stop-color="#F9FAFC"/></linearGradient><linearGradient id="prefix__prefix__prefix__prefix__paint4_linear" x1="10.641" x2="10.641" y1="9.867" y2="14.057" gradientUnits="userSpaceOnUse"><stop stop-color="#fff"/><stop offset="1" stop-color="#F9FAFC"/></linearGradient></defs></svg>