<svg width="64" height="65" viewBox="0 0 64 65" xmlns="http://www.w3.org/2000/svg"><title>template-blank</title><g fill="none" fill-rule="evenodd"><ellipse fill="#F2F6F7" cx="32" cy="32.011" rx="32" ry="32.011"/><path d="M43.275 37.62l-8.898 2.57a.632.632 0 0 0 .175 1.238 2.316 2.316 0 0 1 2.301 2.542c-.112 1.168-1.178 2.083-2.428 2.083H23.356a.632.632 0 0 1-.632-.632V18.895c0-.348.284-.632.632-.632h19.288c.348 0 .631.284.631.632V37.62z" fill="#FFF"/><g fill="#000" fill-rule="nonzero"><path d="M23.356 47.316h11.07c1.893 0 3.512-1.417 3.684-3.227a3.594 3.594 0 0 0-1.458-3.241l7.43-2.145a.632.632 0 0 0 .457-.607V18.895c0-1.045-.85-1.895-1.895-1.895H23.356c-1.045 0-1.895.85-1.895 1.895V45.42c0 1.045.85 1.895 1.895 1.895zm19.92-9.695l-8.9 2.569a.632.632 0 0 0 .176 1.238 2.316 2.316 0 0 1 2.301 2.542c-.112 1.168-1.178 2.083-2.428 2.083H23.356a.632.632 0 0 1-.632-.632V18.895c0-.348.284-.632.632-.632h19.288c.348 0 .631.284.631.632V37.62z"/><path d="M37.11 45.879a.63.63 0 0 0 .458-.197l6.797-7.151a.631.631 0 0 0-.633-1.042l-9.355 2.7a.632.632 0 0 0 .175 1.24c.602 0 1.469.336 1.95 1.075.44.676.45 1.536.03 2.488a.631.631 0 0 0 .578.887zm4.735-6.53l-3.761 3.957a3.322 3.322 0 0 0-.523-1.491 3.617 3.617 0 0 0-.928-.962l5.212-1.505z"/><path d="M36.744 46.332a.63.63 0 0 0 .46-.199l7.163-7.604a.632.632 0 1 0-.92-.866l-7.163 7.604a.632.632 0 0 0 .46 1.065z"/></g></g></svg>