<svg width="54" height="51" viewBox="0 0 54 51" xmlns="http://www.w3.org/2000/svg"><defs><linearGradient x1="69.558%" y1="-13.269%" x2="39.93%" y2="82.202%" id="a"><stop stop-color="#2CF4E1" offset="3.9%"/><stop stop-color="#2CB2E1" offset="100%"/></linearGradient><linearGradient x1="-24.618%" y1="3.457%" x2="147.594%" y2="127.729%" id="b"><stop stop-color="#2CF4E1" offset="3.9%"/><stop stop-color="#2CB2E1" offset="100%"/></linearGradient><linearGradient x1="21.51%" y1="17.32%" x2="69.351%" y2="84.775%" id="c"><stop stop-color="#2CE5E1" offset="0%"/><stop stop-color="#2CB2E1" offset="100%"/></linearGradient><linearGradient x1="49.992%" y1="99.959%" x2="49.992%" y2="0%" id="d"><stop offset="0%"/><stop stop-color="#3B3B3B" offset="100%"/></linearGradient><linearGradient x1="-1.389%" y1="50.004%" x2="101.329%" y2="50.004%" id="e"><stop stop-color="#2CF4E1" offset="3.9%"/><stop stop-color="#2CB2E1" offset="100%"/></linearGradient></defs><g fill="none" fill-rule="evenodd"><g transform="translate(0 -2)" fill-rule="nonzero"><ellipse fill="url(#a)" cx="29.242" cy="22.314" rx="15.045" ry="15.536"/><path d="M39.808 17.655a8.787 8.787 0 0 1 1.642 5.138c0 2.244-.896 4.317-2.422 5.996l.93 3.58h2.819l2.969-3.478.796-5.087.166-3.032-2.936-3.426-3.964.309z" fill="url(#b)"/><path d="M7.13 32.78l.515 2.107S13.716 47.75 27.384 52.53c0 0 12.805-5.482 18.329-14.783l-7.995-6.869s-3.65 2.998-9.073 2.998c-5.425 0-12.79-3.34-12.79-10.226 0-6.886 7.63-9.404 7.63-9.404l-3.25-.822h-8.31L6.65 26.544l.48 6.236z" fill="url(#c)"/><path d="M53.061 18.956c-.232-.24-6.967-8.99-25.428-15.55C9.635 9.692 1.939 18.956 1.939 18.956c.697 4.197 2.455 8.873 4.047 12.505.133.308 2.256 4.18 3.832 6.286-.929-2.107-1.94-3.94-1.94-7.091 0-8.89 6.667-16.119 15.01-16.427.2 0 .415 0 .614.017l-1.99-2.056s8.012-1.387 18.296 5.036c0 0 .15.326 0 1.285 0 0 4.843 2.158 5.258 6.355.415 4.197-2.156 6.595-4.23 6.937 0 0 1.078-1.73-.58-2.655a2.145 2.145 0 0 0-1.178-.274c-3.168 0-3.533 3.734-3.533 3.734-.033.189-.033.377-.033.566 0 0-.531 5.464 8.89 5.361 0 0 4.778-5.584 6.038-10.603.465-1.85.796-3.237 1.012-4.265.53-1.456 1.045-2.963 1.543-4.522l.066-.189z" fill="url(#d)"/><path d="M35.71 18.888c.133-.069.565-.291 1.062-.822.996.137 1.974.462 1.974.462-1.808-1.13-4.28-1.798-7.016-1.781 0 0 1.045 1.541 3.948 2.175l.033-.034z" fill="#282828"/><path d="M54.202 17.057l-.12.706c-.065.55-.496 2.516-1.027 4.4a58.656 58.656 0 0 1-3.815 9.986c-2.203 4.463-4.88 8.358-7.95 11.562-3.788 3.947-8.17 6.861-13.055 8.677l-.272.1-.518.207-.514-.187-.286-.104c-4.896-1.82-9.291-4.74-13.054-8.678-3.083-3.237-5.755-7.12-7.947-11.561a58.747 58.747 0 0 1-4.598-13.152 26.95 26.95 0 0 1-.232-1.175l-.125-.726.29-.255.216-.188c4.485-3.924 9.79-7.29 15.52-10.118 3.815-1.884 7.304-3.283 9.94-4.161l.774-.252.527.163.262.09c2.63.877 6.119 2.276 9.935 4.16 5.72 2.824 11.018 6.184 15.498 10.1l.55.406zm-52.1.449c-.001-.005-.002-.005-.001 0zm.24 1.21c.197.92.45 1.951.767 3.075a57.36 57.36 0 0 0 3.717 9.753c2.132 4.318 4.725 8.086 7.71 11.22 3.624 3.792 7.85 6.6 12.555 8.349l.331.12.368-.136c4.694-1.744 8.907-4.547 12.558-8.35 2.97-3.1 5.567-6.88 7.71-11.22a57.27 57.27 0 0 0 3.723-9.747c.319-1.13.574-2.167.768-3.078a29.935 29.935 0 0 0 .204-1.04c-4.376-3.818-9.565-7.106-15.172-9.875-3.76-1.855-7.194-3.233-9.777-4.094l-.248-.085.21-.65-.191.656-.332-.103.19-.656.2.654-.576.186c-2.577.86-6.011 2.237-9.77 4.092-5.602 2.766-10.786 6.05-15.16 9.863l-.29.254-.429-.524.654-.119.05.292-.654.119.643-.166c.07.376.16.84.24 1.21zm37.276 23.311c2.896-3.024 5.43-6.714 7.527-10.963a56.334 56.334 0 0 0 3.381-8.612 49.03 49.03 0 0 0 1.126-4.395c-4.408-3.758-9.61-6.979-15.204-9.676a86.742 86.742 0 0 0-6.049-2.64 64.937 64.937 0 0 0-2.966-1.087c-.784.262-1.78.62-2.972 1.086a86.245 86.245 0 0 0-6.048 2.641c-5.588 2.696-10.79 5.917-15.199 9.677a48.372 48.372 0 0 0 1.121 4.412 55.657 55.657 0 0 0 3.387 8.628c2.09 4.233 4.62 7.911 7.527 10.946 3.532 3.68 7.616 6.393 12.185 8.097 4.554-1.7 8.641-4.422 12.184-8.114zm8.71-10.341c-2.159 4.371-4.771 8.177-7.767 11.305-3.74 3.898-8.073 6.76-12.906 8.523l-.221.08-.221-.08c-4.848-1.768-9.178-4.62-12.907-8.506C11.3 39.87 8.69 36.077 6.54 31.721a57.042 57.042 0 0 1-3.472-8.844c-.595-1.977-.99-3.653-1.233-4.956l-.074-.396.3-.259c4.57-3.955 9.978-7.322 15.79-10.127a87.68 87.68 0 0 1 6.14-2.68 62.988 62.988 0 0 1 3.242-1.178l.202-.066.201.067c.867.287 1.921.663 3.233 1.177a88.042 88.042 0 0 1 6.14 2.68c5.819 2.806 11.228 6.172 15.798 10.127l.3.26-.075.397c-.242 1.285-.643 2.964-1.239 4.937a57.72 57.72 0 0 1-3.465 8.826z" fill="url(#e)"/></g><path d="M110.525 24.888v-.035c0-3.65 2.79-6.732 6.733-6.732 2.273 0 3.668.637 5.011 1.773l-1.446 1.722c-1-.86-1.998-1.395-3.65-1.395-2.412 0-4.237 2.101-4.237 4.598v.034c0 2.687 1.774 4.65 4.443 4.65 1.222 0 2.342-.396 3.15-.982V25.56l2.222-1.48v5.475c-1.291 1.103-3.134 2.032-5.441 2.032-4.098 0-6.785-2.91-6.785-6.698M67.82 18.551l-5.734 13.121h2.342l1.343-3.134.844-2.031 2.238-5.218 2.256 5.218.827 2.031 1.326 3.134h2.428l-5.734-13.121zm32.132-.258l-5.751 13.121h2.359l1.343-3.151.827-2.032 2.238-5.2 2.256 5.2.844 2.032 1.326 3.151h2.41l-5.734-13.121zm33.888-.138c-4.011 0-6.835 3.065-6.835 6.733v.034c0 3.668 2.79 6.699 6.801 6.699 4.013 0 6.837-3.065 6.837-6.733v-.035c0-3.667-2.807-6.698-6.802-6.698zm4.392 6.785c0 2.53-1.808 4.597-4.391 4.597s-4.443-2.1-4.443-4.632v-.034c0-2.532 1.808-4.598 4.391-4.598s4.443 2.1 4.443 4.632v.035zm16.152-6.561v9.006l-6.991-9.006h-2.118v13.035h2.255v-9.281l7.198 9.281h1.912V18.38zm-66.847 8.093c1.825-.516 3.117-1.808 3.117-3.943v-.035c0-1.136-.396-2.1-1.085-2.806-.844-.827-2.118-1.31-3.771-1.31h-5.82v13.036h2.29V20.462h3.34c.293 0 .551.035.792.07 1.206.206 1.912.93 1.912 2.083v.034c0 1.326-1.05 2.17-2.687 2.17h-1.274l-.895 2.032h1.687l3.203 4.546h2.704l-3.513-4.925z" fill="#FFF"/></g></svg>