<svg xmlns="http://www.w3.org/2000/svg" width="120" height="119" fill="none"><defs/><path fill="#2C2C4E" fill-rule="evenodd" d="M59.597 22.464c.877-1.49 5.303-2.366 7.012 0 2.007 2.78-.379 5.17-.379 5.17V25.5h-4.809l-2.087 1.797v2.53h-.768a1.906 1.906 0 00-1.906-1.907c-.164 0-.32.027-.472.067a1.889 1.889 0 00-.496.206c-.319-1.377-.515-3.306.448-4.501 1.182-1.465 3.457-1.227 3.457-1.227z" clip-rule="evenodd"/><path fill="#F5C5B6" fill-rule="evenodd" d="M55.692 28.192c.153-.09.318-.16.495-.206.152-.04.309-.066.473-.066 1.052 0 1.906.853 1.906 1.906h.768v-2.53l2.087-1.797h4.809v7.774a1.908 1.908 0 01-2.337 1.858l-2.259-.591v4.857l-2.723 2.699-2.724-2.699v-7.731a1.902 1.902 0 01-1.434-1.84c0-.698.38-1.302.939-1.634z" clip-rule="evenodd"/><rect width="33" height="34" x="71" y="64" fill="url(#prefix__paint0_linear)" rx="6"/><path fill="#7D80F2" d="M95.75 85.212v-8.424c0-.597-.293-1.148-.768-1.446l-6.714-4.212a1.431 1.431 0 00-1.536 0l-6.714 4.212c-.475.298-.768.85-.768 1.446v8.424c0 .596.293 1.148.768 1.446l6.714 4.212a1.431 1.431 0 001.536 0l6.714-4.212c.475-.298.768-.85.768-1.446z"/><path fill="#7370DB" d="M94.982 86.658a1.61 1.61 0 00.564-.614L87.5 80.996v10.098c.265 0 .53-.075.768-.224l6.714-4.212z"/><path fill="url(#prefix__paint1_linear)" d="M87.5 81l8.044-5.047a1.609 1.609 0 00-.562-.611l-6.713-4.212a1.43 1.43 0 00-1.537 0l-6.713 4.212c-.238.15-.43.362-.563.611L87.5 81z"/><path fill="#8BB3EA" fill-opacity=".1" d="M80.018 86.658a1.61 1.61 0 01-.564-.614l8.046-5.048v10.098c-.265 0-.53-.075-.768-.224l-6.714-4.212z"/><path fill="#2C2C4E" fill-rule="evenodd" d="M76.941 93.597l1.417 3.356 9.887-4.064a.75.75 0 00.412-.986.763.763 0 00-.672-.463l-5.256-.222-3.644 1.497-2.144.882zM58.036 97.722h10.71a.757.757 0 00.764-.751.755.755 0 00-.44-.685l-4.764-2.2h-6.27v3.636z" clip-rule="evenodd"/><path fill="#6893C0" fill-rule="evenodd" d="M75.306 62.119c-.555-2.174-2.535-3.697-4.806-3.697H50.673l-1.744 3.684c-.606 1.28.34 2.747 1.771 2.747h7.336v29.233h6.27l1.463-29.233h2.974l8.198 28.744 2.144-.882 3.644-1.497-7.423-29.1z" clip-rule="evenodd"/><path fill="#F5C5B6" fill-rule="evenodd" d="M28.077 63.32v1.533h5.73l.874-1.533-3.748-1.683-2.856 1.683z" clip-rule="evenodd"/><path fill="#FF897E" d="M49.353 37.172H62.04v21.25H50.673l-3.325-12.57L34.68 63.32l-3.747-1.683 11.989-20.776c1.316-2.28 3.77-3.689 6.43-3.689z"/><path fill="#F5C5B6" fill-rule="evenodd" d="M90.55 63.32v1.533h-5.73l-.875-1.533 3.748-1.683 2.856 1.683z" clip-rule="evenodd"/><path fill="#FF897E" d="M69.274 37.172H56.586v21.25h11.367l3.326-12.57L83.945 63.32l3.748-1.683-11.99-20.776c-1.315-2.28-3.77-3.689-6.43-3.689z"/><rect width="33" height="34" x="15" y="64" fill="url(#prefix__paint2_linear)" rx="6"/><path fill="#7D80F2" d="M39.75 85.212v-8.424c0-.597-.293-1.148-.768-1.446l-6.714-4.212a1.431 1.431 0 00-1.536 0l-6.714 4.212c-.475.298-.768.85-.768 1.446v8.424c0 .596.293 1.148.768 1.446l6.714 4.212a1.431 1.431 0 001.536 0l6.714-4.212c.475-.298.768-.85.768-1.446z"/><path fill="#7370DB" d="M38.982 86.658a1.61 1.61 0 00.563-.614L31.5 80.996v10.098c.265 0 .53-.075.768-.224l6.714-4.212z"/><path fill="url(#prefix__paint3_linear)" d="M31.5 81l8.044-5.047a1.609 1.609 0 00-.562-.611l-6.713-4.212a1.43 1.43 0 00-1.537 0l-6.713 4.212c-.238.15-.43.362-.563.611L31.5 81z"/><path fill="#8BB3EA" fill-opacity=".1" d="M24.018 86.658a1.61 1.61 0 01-.564-.614l8.046-5.048v10.098c-.265 0-.53-.075-.768-.224l-6.714-4.212z"/><defs><linearGradient id="prefix__paint0_linear" x1="72.768" x2="102.926" y1="67.946" y2="101.357" gradientUnits="userSpaceOnUse"><stop stop-color="#65AAFF"/><stop offset="1" stop-color="#5D21D4"/></linearGradient><linearGradient id="prefix__paint1_linear" x1="87.5" x2="100.442" y1="70.906" y2="84.984" gradientUnits="userSpaceOnUse"><stop stop-color="#fff"/><stop offset="1" stop-color="#DBEAFF" stop-opacity="0"/></linearGradient><linearGradient id="prefix__paint2_linear" x1="16.768" x2="46.926" y1="67.946" y2="101.357" gradientUnits="userSpaceOnUse"><stop stop-color="#65AAFF"/><stop offset="1" stop-color="#5D21D4"/></linearGradient><linearGradient id="prefix__paint3_linear" x1="31.5" x2="44.441" y1="70.906" y2="84.984" gradientUnits="userSpaceOnUse"><stop stop-color="#fff"/><stop offset="1" stop-color="#DBEAFF" stop-opacity="0"/></linearGradient></defs></svg>