<svg width="60" height="60" viewBox="0 0 60 60" xmlns="http://www.w3.org/2000/svg"><title>Artboard</title><g fill="none" fill-rule="evenodd"><circle fill="#F2F6F7" fill-rule="nonzero" cx="30" cy="30" r="30"/><g stroke="#000"><path d="M42.188 16c.49 0 .915.18 1.274.538.359.359.538.784.538 1.275v25.375c0 .49-.18.915-.538 1.274a1.742 1.742 0 0 1-1.275.538H16.814c-.491 0-.916-.18-1.275-.538A1.742 1.742 0 0 1 15 43.187V17.814c0-.491.18-.916.538-1.275A1.742 1.742 0 0 1 16.812 16h25.376z" stroke-width="1.5" fill="#FFF" fill-rule="nonzero"/><path d="M41 26.423v14.14c0 .389-.142.726-.427 1.01-.263.276-.629.43-1.01.427H19.436c-.389 0-.726-.142-1.01-.427a1.381 1.381 0 0 1-.427-1.01V20.436c0-.389.142-.726.427-1.01.263-.276.629-.43 1.01-.427h11.171" opacity=".3" stroke-linecap="round" stroke-linejoin="round"/></g><circle stroke="#00E7E2" fill="#FFF" fill-rule="nonzero" cx="42" cy="43" r="6"/></g></svg>