<svg width="306" height="153" fill="none" xmlns="http://www.w3.org/2000/svg"><path d="M0 4a4 4 0 0 1 4-4h298a4 4 0 0 1 4 4v149H0V4z" fill="url(#paint0_linear)"/><path d="M153 23l-44 26.543v53.087l44 26.544 44-26.544V49.543L153 23zm0 84.054c-17.014 0-30.8-13.863-30.8-30.967 0-17.103 13.786-30.967 30.8-30.967 17.013 0 30.8 13.864 30.8 30.967 0 17.104-13.787 30.967-30.8 30.967z" fill="url(#paint1_linear)"/><path d="M132.913 76.087L153 56.478l20.087 19.61L153 95.695l-20.087-19.609z" fill="#fff"/><defs><linearGradient id="paint0_linear" x1="-119.5" y1="-74" x2="47.331" y2="288.036" gradientUnits="userSpaceOnUse"><stop stop-color="#65AAFF"/><stop offset="1" stop-color="#5D21D4"/></linearGradient><linearGradient id="paint1_linear" x1="-248.238" y1="-197.399" x2="270.931" y2="47.829" gradientUnits="userSpaceOnUse"><stop stop-color="#65AAFF"/><stop offset="1" stop-color="#5015CF"/></linearGradient></defs></svg>