<svg width="16" height="14" viewBox="0 0 16 14" fill="none" xmlns="http://www.w3.org/2000/svg">
<path d="M13.8829 0.470703H2.11709C0.94975 0.470703 6.10352e-05 1.42042 6.10352e-05 2.58774V11.4121C6.10352e-05 12.5794 0.94975 13.5291 2.11709 13.5291H13.8829C15.0503 13.5291 16 12.5794 16 11.4121V2.58774C16 1.42039 15.0503 0.470703 13.8829 0.470703ZM14.7073 11.4121C14.7073 11.8667 14.3375 12.2365 13.8829 12.2365H2.11709C1.66253 12.2365 1.29269 11.8667 1.29269 11.4121V2.58774C1.29269 2.13317 1.66253 1.76333 2.11709 1.76333H13.8829C14.3375 1.76333 14.7073 2.13317 14.7073 2.58774V11.4121Z" fill="#8FA4B5"/>
</svg>