<svg width="65" height="65" viewBox="0 0 65 65" xmlns="http://www.w3.org/2000/svg"><title>template-multisig</title><g transform="translate(.11)" fill="none" fill-rule="evenodd"><ellipse fill="#F2F6F7" cx="32" cy="32.011" rx="32" ry="32.011"/><path d="M27.551 41.33v-1.877a.879.879 0 0 0-.23-.164l-.264-.132a.16.16 0 0 1-.082-.033 1.077 1.077 0 0 0-.115-.066l-6.62-3.652a2.226 2.226 0 0 1-.757-.708 1.939 1.939 0 0 1-.329-.97 1.921 1.921 0 0 1 .148-1.021c.143-.33.357-.603.642-.823.9-.702 1.515-1.706 1.844-3.011.33-1.305.494-2.375.494-3.209v-4.442c0-.768-.576-1.646-1.729-2.633-1.152-.987-2.497-1.481-4.033-1.481-1.493 0-2.838.494-4.034 1.48-1.197.988-1.795 1.866-1.795 2.634v4.442c0 .834.197 1.904.593 3.209.395 1.305 1.042 2.31 1.943 3.011.263.22.466.494.609.823.142.33.192.67.148 1.02a1.939 1.939 0 0 1-.33.971c-.197.296-.45.521-.757.675L6.081 39.09a.146.146 0 0 0-.066.017.258.258 0 0 0-.066.05.913.913 0 0 0-.28.13l-.247.165v1.876h22.13z" fill="#FFF"/><path d="M13.624 35.324c.698 1.035 1.778 1.553 3.239 1.553 2.191 0 3.058-1.058 3.238-1.553" stroke="#000" opacity=".2" stroke-linecap="round" stroke-linejoin="round"/><path d="M22.356 36.573l-2.115-1.167a2.226 2.226 0 0 1-.758-.708 1.939 1.939 0 0 1-.329-.97 1.921 1.921 0 0 1 .148-1.021c.143-.33.357-.603.642-.823.9-.702 1.515-1.706 1.844-3.011.33-1.305.494-2.375.494-3.209v-4.442c0-.768-.576-1.646-1.729-2.633-1.152-.987-2.497-1.481-4.033-1.481-1.493 0-2.838.494-4.034 1.48-1.197.988-1.795 1.866-1.795 2.634v4.442c0 .834.197 1.904.593 3.209.395 1.305 1.042 2.31 1.943 3.011.263.22.466.494.609.823.142.33.192.67.148 1.02a1.939 1.939 0 0 1-.33.971c-.197.296-.45.521-.757.675L6.081 39.09a.146.146 0 0 0-.066.017.258.258 0 0 0-.066.05.913.913 0 0 0-.28.13l-.247.165v1.876" stroke="#000" opacity=".5" stroke-linecap="round" stroke-linejoin="round"/><path d="M56.715 41.33v-1.877a.879.879 0 0 0-.23-.164l-.264-.132a.16.16 0 0 1-.082-.033 1.077 1.077 0 0 0-.116-.066l-6.619-3.652a2.226 2.226 0 0 1-.757-.708 1.939 1.939 0 0 1-.33-.97 1.921 1.921 0 0 1 .149-1.021c.143-.33.357-.603.642-.823.9-.702 1.515-1.706 1.844-3.011.33-1.305.494-2.375.494-3.209v-4.442c0-.768-.576-1.646-1.729-2.633-1.152-.987-2.497-1.481-4.034-1.481-1.493 0-2.837.494-4.034 1.48-1.196.988-1.794 1.866-1.794 2.634v4.442c0 .834.197 1.904.592 3.209.396 1.305 1.043 2.31 1.943 3.011.264.22.467.494.61.823.142.33.192.67.148 1.02a1.939 1.939 0 0 1-.33.971c-.197.296-.45.521-.757.675l-6.817 3.718a.146.146 0 0 0-.065.017.258.258 0 0 0-.066.05.913.913 0 0 0-.28.13l-.247.165v1.876h22.129z" fill="#FFF"/><path d="M42.788 35.324c.698 1.035 1.778 1.553 3.239 1.553 2.191 0 3.057-1.058 3.238-1.553" stroke="#000" opacity=".2" stroke-linecap="round" stroke-linejoin="round"/><path d="M56.715 41.33v-1.877a.879.879 0 0 0-.23-.164l-.264-.132a.16.16 0 0 1-.082-.033 1.077 1.077 0 0 0-.116-.066l-6.619-3.652a2.226 2.226 0 0 1-.757-.708 1.939 1.939 0 0 1-.33-.97 1.921 1.921 0 0 1 .149-1.021c.143-.33.357-.603.642-.823.9-.702 1.515-1.706 1.844-3.011.33-1.305.494-2.375.494-3.209v-4.442c0-.768-.576-1.646-1.729-2.633-1.152-.987-2.497-1.481-4.034-1.481-1.493 0-2.837.494-4.034 1.48-1.196.988-1.794 1.866-1.794 2.634v4.442c0 .834.197 1.904.592 3.209.396 1.305 1.043 2.31 1.943 3.011.264.22.467.494.61.823.142.33.192.67.148 1.02a1.939 1.939 0 0 1-.33.971c-.197.296-.45.521-.757.675l-1.628.888-.888.484" stroke="#000" opacity=".5" stroke-linecap="round" stroke-linejoin="round"/><g><path d="M42.133 51.348v-1.876a.879.879 0 0 0-.23-.164l-.264-.132a.16.16 0 0 1-.082-.033 1.077 1.077 0 0 0-.115-.066l-6.62-3.653a2.226 2.226 0 0 1-.757-.707 1.939 1.939 0 0 1-.33-.971 1.921 1.921 0 0 1 .149-1.02c.143-.33.357-.604.642-.823.9-.702 1.515-1.706 1.844-3.011.33-1.306.494-2.375.494-3.209V31.24c0-.768-.576-1.645-1.729-2.632-1.152-.988-2.497-1.481-4.034-1.481-1.492 0-2.837.493-4.034 1.48-1.196.988-1.794 1.865-1.794 2.633v4.443c0 .834.197 1.903.592 3.209.396 1.305 1.043 2.309 1.943 3.01.264.22.467.495.61.824.142.329.192.669.148 1.02a1.939 1.939 0 0 1-.33.97c-.197.297-.45.522-.757.675l-6.816 3.72a.146.146 0 0 0-.066.016.258.258 0 0 0-.066.049.913.913 0 0 0-.28.132l-.247.164v1.876h22.13z" fill="#FFF"/><path d="M28.252 45.277c.698 1.035 1.777 1.553 3.238 1.553 2.192 0 3.058-1.058 3.239-1.553" stroke="#000" stroke-linecap="round" stroke-linejoin="round"/><path d="M42.133 51.348v-1.876a.879.879 0 0 0-.23-.164l-.264-.132a.16.16 0 0 1-.082-.033 1.077 1.077 0 0 0-.115-.066l-6.62-3.653a2.226 2.226 0 0 1-.757-.707 1.939 1.939 0 0 1-.33-.971 1.921 1.921 0 0 1 .149-1.02c.143-.33.357-.604.642-.823.9-.702 1.515-1.706 1.844-3.011.33-1.306.494-2.375.494-3.209V31.24c0-.768-.576-1.645-1.729-2.632-1.152-.988-2.497-1.481-4.034-1.481-1.492 0-2.837.493-4.034 1.48-1.196.988-1.794 1.865-1.794 2.633v4.443c0 .834.197 1.903.592 3.209.396 1.305 1.043 2.309 1.943 3.01.264.22.467.495.61.824.142.329.192.669.148 1.02a1.939 1.939 0 0 1-.33.97c-.197.297-.45.522-.757.675l-6.816 3.72a.146.146 0 0 0-.066.016.258.258 0 0 0-.066.049.913.913 0 0 0-.28.132l-.247.164v1.876" stroke="#000" stroke-width="1.4" stroke-linecap="round" stroke-linejoin="round"/></g><path d="M49.098 45.914l.586.586-1.646 1.646a.5.5 0 0 0 .707.708l2-2a.5.5 0 0 0 0-.707l-1.011-1.011a1.488 1.488 0 0 0-.282-1.696 1.5 1.5 0 0 0-2.121 0l-6.44 6.439V52h2.12l6.087-6.086zM22.891 54h20v1h-20z" fill="#00E7E2" fill-rule="nonzero"/></g></svg>