<svg width="306" height="153" fill="none" xmlns="http://www.w3.org/2000/svg"><path d="M0 4a4 4 0 014-4h298a4 4 0 014 4v149H0V4z" fill="url(#paint0_linear)"/><path d="M160.698 76c0-4.245-3.453-7.698-7.698-7.698-4.245 0-7.698 3.453-7.698 7.698 0 4.245 3.453 7.698 7.698 7.698 4.245 0 7.698-3.453 7.698-7.698z" fill="#FFD48C"/><path d="M151.343 47.532a2.336 2.336 0 001.657.687c.6 0 1.2-.229 1.657-.687l5.021-5.02a2.344 2.344 0 00-3.314-3.315l-1.02 1.02v-1.873a2.344 2.344 0 00-4.688 0v1.873l-1.02-1.02a2.343 2.343 0 10-3.314 3.314l5.021 5.021z" fill="#fff"/><path d="M155.344 63.84V52.507a7.04 7.04 0 01-2.344.4 7.04 7.04 0 01-2.344-.4V63.84c.76-.146 1.543-.225 2.344-.225.801 0 1.584.079 2.344.225z" fill="#DDE4E9"/><path d="M154.657 104.468a2.333 2.333 0 00-1.657-.687c-.6 0-1.2.229-1.657.687l-5.021 5.02a2.345 2.345 0 003.314 3.315l1.02-1.02v1.873a2.344 2.344 0 004.688 0v-1.873l1.02 1.02a2.344 2.344 0 003.314-3.314l-5.021-5.021z" fill="#fff"/><path d="M150.656 88.16v11.333a7.04 7.04 0 012.344-.4 7.04 7.04 0 012.344.4V88.16c-.76.146-1.543.225-2.344.225-.801 0-1.584-.079-2.344-.225z" fill="#DDE4E9"/><path d="M190.656 73.656h-1.873l1.02-1.02a2.344 2.344 0 00-3.314-3.314l-5.021 5.02a2.335 2.335 0 00-.687 1.658c0 .6.229 1.2.687 1.657l5.021 5.021a2.343 2.343 0 103.314-3.314l-1.02-1.02h1.873a2.344 2.344 0 100-4.688z" fill="#fff"/><path d="M165.16 73.656c.146.76.225 1.543.225 2.344 0 .801-.079 1.584-.225 2.344h11.333a7.036 7.036 0 01-.399-2.344c0-.811.137-1.6.399-2.344H165.16z" fill="#DDE4E9"/><path d="M119.511 82.678l5.021-5.02a2.335 2.335 0 00.687-1.658c0-.6-.229-1.2-.687-1.657l-5.021-5.021a2.343 2.343 0 10-3.314 3.314l1.02 1.02h-1.873a2.344 2.344 0 100 4.688h1.873l-1.02 1.02a2.344 2.344 0 003.314 3.314z" fill="#fff"/><path d="M140.84 78.344a12.401 12.401 0 01-.225-2.344c0-.801.079-1.584.225-2.344h-11.333c.262.743.399 1.533.399 2.344 0 .811-.137 1.6-.399 2.344h11.333z" fill="#DDE4E9"/><path d="M188.212 88.618a2.344 2.344 0 00-2.871-1.657l-6.858 1.838a2.343 2.343 0 00-1.658 2.87l1.838 6.859a2.343 2.343 0 104.528-1.214l-.373-1.393 1.622.937a2.343 2.343 0 102.343-4.06l-1.622-.936 1.394-.373a2.344 2.344 0 001.657-2.871z" fill="#fff"/><path d="M173 87.547a7.033 7.033 0 011.517-1.83l-9.814-5.667a12.354 12.354 0 01-2.344 4.06l9.814 5.666a7.04 7.04 0 01.827-2.23z" fill="#DDE4E9"/><path d="M117.788 63.382a2.344 2.344 0 002.871 1.657l6.858-1.838a2.343 2.343 0 001.658-2.87l-1.838-6.859a2.344 2.344 0 00-4.528 1.214l.373 1.393-1.622-.937a2.343 2.343 0 10-2.343 4.06l1.622.936-1.394.374a2.345 2.345 0 00-1.657 2.87z" fill="#fff"/><path d="M142.274 69.807c.401-.694.861-1.332 1.367-1.917l-9.814-5.666a7.035 7.035 0 01-.827 2.23 7.033 7.033 0 01-1.517 1.83l9.814 5.666c.254-.731.576-1.449.977-2.143z" fill="#DDE4E9"/><path d="M175.528 101.662l-6.859-1.837a2.335 2.335 0 00-1.778.234c-.52.3-.925.798-1.092 1.423l-1.838 6.859a2.343 2.343 0 004.528 1.213l.373-1.393.937 1.622a2.343 2.343 0 104.059-2.344l-.936-1.622 1.393.373a2.343 2.343 0 101.213-4.528z" fill="#fff"/><path d="M166.776 95.173l-5.666-9.814c-.585.506-1.223.966-1.917 1.367-.694.4-1.412.724-2.142.977l5.666 9.814a7.037 7.037 0 011.83-1.517 7.047 7.047 0 012.229-.827z" fill="#DDE4E9"/><path d="M130.472 50.337l6.859 1.838a2.335 2.335 0 001.778-.234c.52-.3.925-.798 1.092-1.423l1.838-6.859a2.344 2.344 0 00-4.528-1.213l-.373 1.393-.937-1.622a2.343 2.343 0 10-4.059 2.344l.936 1.622-1.393-.373a2.344 2.344 0 00-1.213 4.527z" fill="#fff"/><path d="M139.224 56.827l5.666 9.814a12.407 12.407 0 011.917-1.367c.694-.4 1.412-.724 2.142-.977l-5.666-9.814a7.037 7.037 0 01-1.83 1.518 7.047 7.047 0 01-2.229.826z" fill="#DDE4E9"/><path d="M140.201 101.483a2.332 2.332 0 00-1.092-1.424 2.336 2.336 0 00-1.778-.234l-6.859 1.838a2.343 2.343 0 101.214 4.528l1.393-.373-.937 1.622a2.343 2.343 0 104.06 2.343l.936-1.622.374 1.394a2.343 2.343 0 104.527-1.214l-1.838-6.858z" fill="#fff"/><path d="M146.807 86.726c-.694-.4-1.332-.86-1.917-1.367l-5.666 9.814a7.035 7.035 0 012.229.827 7.04 7.04 0 011.831 1.517l5.666-9.814a12.404 12.404 0 01-2.143-.977z" fill="#DDE4E9"/><path d="M165.799 50.517a2.333 2.333 0 001.092 1.424c.519.3 1.153.401 1.778.234l6.859-1.838a2.344 2.344 0 10-1.214-4.528l-1.393.373.937-1.622a2.344 2.344 0 00-4.06-2.343l-.936 1.622-.374-1.393a2.343 2.343 0 10-4.527 1.213l1.838 6.858z" fill="#fff"/><path d="M159.193 65.274c.694.4 1.332.86 1.917 1.367l5.666-9.814a7.036 7.036 0 01-2.229-.827 7.042 7.042 0 01-1.831-1.517l-5.666 9.814c.731.254 1.449.576 2.143.977z" fill="#DDE4E9"/><path d="M128.941 89.89a2.335 2.335 0 00-1.423-1.091l-6.859-1.838a2.343 2.343 0 10-1.213 4.528l1.393.373-1.622.937a2.344 2.344 0 102.344 4.06l1.622-.937-.373 1.393a2.343 2.343 0 104.527 1.213l1.838-6.859a2.334 2.334 0 00-.234-1.778z" fill="#fff"/><path d="M133 87.547a7.04 7.04 0 01.827 2.23l9.814-5.667a12.363 12.363 0 01-2.344-4.06l-9.814 5.667a7.027 7.027 0 011.517 1.83z" fill="#DDE4E9"/><path d="M177.059 62.11c.3.519.798.924 1.423 1.091l6.859 1.838a2.343 2.343 0 101.213-4.528l-1.393-.373 1.622-.937a2.344 2.344 0 10-2.344-4.06l-1.622.937.374-1.393a2.345 2.345 0 00-4.528-1.213l-1.838 6.859a2.334 2.334 0 00.234 1.778z" fill="#fff"/><path d="M174.517 66.283a7.033 7.033 0 01-1.517-1.83 7.037 7.037 0 01-.827-2.23l-9.814 5.667a12.36 12.36 0 012.344 4.06l9.814-5.667z" fill="#DDE4E9"/><defs><linearGradient id="paint0_linear" x1="-33.5" y1="-132.5" x2="95.91" y2="132.019" gradientUnits="userSpaceOnUse"><stop stop-color="#95ECFF"/><stop offset="1" stop-color="#7C80F2"/></linearGradient></defs></svg>