<svg width="306" height="153" viewBox="0 0 306 153" fill="none" xmlns="http://www.w3.org/2000/svg">
<path d="M0 4C0 1.79086 1.79086 0 4 0H302C304.209 0 306 1.79086 306 4V153H0V4Z" fill="url(#paint0_linear)"/>
<path d="M160.698 76C160.698 71.7553 157.245 68.302 153 68.302C148.755 68.302 145.302 71.7553 145.302 76C145.302 80.2447 148.755 83.6979 153 83.6979C157.245 83.6979 160.698 80.2447 160.698 76Z" fill="#FFD48C"/>
<path d="M151.343 47.5323C151.801 47.99 152.4 48.2189 153 48.2189C153.6 48.2189 154.2 47.9902 154.657 47.5323L159.678 42.5116C160.593 41.5964 160.593 40.1123 159.678 39.197C158.763 38.2817 157.279 38.2819 156.364 39.197L155.344 40.2167V38.3438C155.344 37.0494 154.294 36 153 36C151.706 36 150.656 37.0494 150.656 38.3438V40.2167L149.636 39.1969C148.721 38.2817 147.237 38.2816 146.322 39.1969C145.407 40.1122 145.407 41.5961 146.322 42.5114L151.343 47.5323Z" fill="white"/>
<path d="M155.344 63.84V52.5073C154.601 52.7692 153.811 52.9062 153 52.9062C152.189 52.9062 151.399 52.7692 150.656 52.5073V63.84C151.416 63.6939 152.199 63.6147 153 63.6147C153.801 63.6147 154.584 63.6939 155.344 63.84Z" fill="#DDE4E9"/>
<path d="M154.657 104.468C154.2 104.01 153.6 103.781 153 103.781C152.4 103.781 151.8 104.01 151.343 104.468L146.322 109.488C145.407 110.404 145.407 111.888 146.322 112.803C147.237 113.718 148.721 113.718 149.636 112.803L150.656 111.783V113.656C150.656 114.951 151.706 116 153 116C154.294 116 155.344 114.951 155.344 113.656V111.783L156.364 112.803C157.279 113.718 158.763 113.718 159.678 112.803C160.593 111.888 160.593 110.404 159.678 109.489L154.657 104.468Z" fill="white"/>
<path d="M150.656 88.16V99.4927C151.399 99.2308 152.189 99.0938 153 99.0938C153.811 99.0938 154.601 99.2308 155.344 99.4927V88.16C154.584 88.3061 153.801 88.3853 153 88.3853C152.199 88.3853 151.416 88.3061 150.656 88.16Z" fill="#DDE4E9"/>
<path d="M190.656 73.6563H188.783L189.803 72.6365C190.718 71.7213 190.718 70.2372 189.803 69.3219C188.888 68.4066 187.404 68.4066 186.489 69.3219L181.468 74.3429C181.01 74.8005 180.781 75.4004 180.781 76.0001C180.781 76.5997 181.01 77.1997 181.468 77.6572L186.489 82.6782C187.404 83.5935 188.888 83.5935 189.803 82.6782C190.718 81.763 190.718 80.279 189.803 79.3637L188.783 78.3438H190.656C191.951 78.3438 193 77.2944 193 76.0001C193 74.7057 191.951 73.6563 190.656 73.6563Z" fill="white"/>
<path d="M165.16 73.6562C165.306 74.4156 165.385 75.1986 165.385 76C165.385 76.8014 165.306 77.5844 165.16 78.3438H176.493C176.231 77.6009 176.094 76.8111 176.094 76C176.094 75.1889 176.231 74.3991 176.493 73.6562H165.16Z" fill="#DDE4E9"/>
<path d="M119.511 82.6782L124.532 77.6572C124.99 77.1996 125.219 76.5997 125.219 76C125.219 75.4004 124.99 74.8004 124.532 74.3429L119.511 69.3219C118.596 68.4066 117.112 68.4066 116.197 69.3219C115.282 70.2371 115.282 71.7211 116.197 72.6365L117.217 73.6563H115.344C114.049 73.6563 113 74.7057 113 76C113 77.2944 114.049 78.3438 115.344 78.3438H117.217L116.197 79.3636C115.282 80.2788 115.282 81.7629 116.197 82.6782C117.112 83.5936 118.596 83.5936 119.511 82.6782Z" fill="white"/>
<path d="M140.84 78.3438C140.694 77.5844 140.615 76.8014 140.615 76C140.615 75.1986 140.694 74.4156 140.84 73.6562H129.507C129.769 74.3991 129.906 75.1889 129.906 76C129.906 76.8111 129.769 77.6009 129.507 78.3438H140.84Z" fill="#DDE4E9"/>
<path d="M188.212 88.618C187.877 87.3677 186.591 86.6257 185.341 86.9608L178.483 88.7986C177.857 88.9661 177.359 89.3711 177.059 89.8906C176.76 90.4102 176.658 91.0439 176.825 91.6691L178.663 98.5277C178.998 99.778 180.283 100.52 181.533 100.185C182.784 99.85 183.526 98.5645 183.191 97.3144L182.818 95.9211L184.44 96.8577C185.56 97.5049 186.994 97.1208 187.641 95.9999C188.288 94.8789 187.904 93.4455 186.783 92.7983L185.161 91.8617L186.555 91.4885C187.805 91.1535 188.547 89.8683 188.212 88.618Z" fill="white"/>
<path d="M173 87.5467C173.405 86.8443 173.919 86.2289 174.517 85.7164L164.703 80.0501C164.45 80.7809 164.127 81.4985 163.726 82.1925C163.325 82.8864 162.865 83.525 162.359 84.1095L172.173 89.7757C172.318 89.0017 172.594 88.2492 173 87.5467Z" fill="#DDE4E9"/>
<path d="M117.788 63.3821C118.123 64.6324 119.409 65.3744 120.659 65.0392L127.517 63.2014C128.143 63.0339 128.641 62.6289 128.941 62.1094C129.24 61.5899 129.342 60.9561 129.175 60.331L127.337 53.4724C127.002 52.2221 125.717 51.48 124.466 51.8152C123.216 52.15 122.474 53.4353 122.809 54.6856L123.182 56.0789L121.56 55.1424C120.439 54.4952 119.006 54.8792 118.359 56.0002C117.712 57.1211 118.096 58.5546 119.217 59.2017L120.839 60.1383L119.445 60.5116C118.196 60.8466 117.453 62.1317 117.788 63.3821Z" fill="white"/>
<path d="M142.274 69.8073C142.675 69.1132 143.135 68.4748 143.641 67.8903L133.827 62.224C133.682 62.9984 133.406 63.7509 133 64.4532C132.595 65.1556 132.081 65.771 131.483 66.2835L141.297 71.9498C141.551 71.219 141.873 70.5013 142.274 69.8073Z" fill="#DDE4E9"/>
<path d="M175.528 101.662L168.669 99.8248C168.044 99.6573 167.41 99.759 166.891 100.059C166.371 100.359 165.966 100.857 165.799 101.482L163.961 108.341C163.626 109.591 164.368 110.876 165.619 111.211C166.869 111.546 168.154 110.804 168.489 109.554L168.862 108.161L169.799 109.783C170.446 110.904 171.88 111.288 173 110.641C174.121 109.993 174.505 108.56 173.858 107.439L172.922 105.817L174.315 106.19C175.565 106.525 176.85 105.783 177.185 104.533C177.52 103.282 176.778 101.997 175.528 101.662Z" fill="white"/>
<path d="M166.776 95.1731L161.11 85.3589C160.525 85.8651 159.887 86.3253 159.193 86.7259C158.499 87.1267 157.781 87.4495 157.051 87.7026L162.717 97.5168C163.229 96.9186 163.845 96.405 164.547 95.9995C165.25 95.594 166.002 95.3178 166.776 95.1731Z" fill="#DDE4E9"/>
<path d="M130.472 50.3375L137.331 52.1752C137.956 52.3427 138.59 52.241 139.109 51.941C139.629 51.6411 140.034 51.143 140.201 50.5179L142.039 43.6593C142.374 42.409 141.632 41.1238 140.381 40.7888C139.131 40.4536 137.846 41.1958 137.511 42.446L137.138 43.8393L136.201 42.2172C135.554 41.0963 134.12 40.7122 133 41.3594C131.879 42.0066 131.495 43.44 132.142 44.561L133.078 46.183L131.685 45.8097C130.435 45.4749 129.15 46.2168 128.815 47.4671C128.48 48.7175 129.222 50.0027 130.472 50.3375Z" fill="white"/>
<path d="M139.224 56.8269L144.89 66.6411C145.475 66.1349 146.113 65.6747 146.807 65.2741C147.501 64.8733 148.219 64.5505 148.949 64.2974L143.283 54.4832C142.771 55.0814 142.155 55.595 141.453 56.0005C140.75 56.406 139.998 56.6822 139.224 56.8269Z" fill="#DDE4E9"/>
<path d="M140.201 101.483C140.034 100.857 139.629 100.359 139.109 100.059C138.59 99.7595 137.956 99.6577 137.331 99.8253L130.472 101.663C129.222 101.998 128.48 103.283 128.815 104.533C129.15 105.784 130.435 106.526 131.686 106.191L133.079 105.818L132.142 107.44C131.495 108.56 131.879 109.994 133 110.641C134.121 111.288 135.554 110.904 136.202 109.783L137.138 108.161L137.512 109.555C137.847 110.805 139.132 111.547 140.382 111.212C141.632 110.877 142.374 109.592 142.039 108.341L140.201 101.483Z" fill="white"/>
<path d="M146.807 86.7261C146.113 86.3255 145.475 85.8653 144.89 85.3591L139.224 95.1734C139.998 95.3181 140.751 95.5942 141.453 95.9998C142.156 96.4053 142.771 96.9189 143.284 97.5172L148.95 87.7028C148.219 87.4495 147.501 87.1267 146.807 86.7261Z" fill="#DDE4E9"/>
<path d="M165.799 50.5175C165.966 51.1427 166.371 51.6408 166.891 51.9407C167.41 52.2405 168.044 52.3424 168.669 52.1747L175.528 50.3371C176.778 50.0021 177.52 48.7169 177.185 47.4666C176.85 46.2163 175.565 45.4742 174.314 45.8092L172.921 46.1825L173.858 44.5605C174.505 43.4396 174.121 42.0061 173 41.3589C171.879 40.7117 170.445 41.0958 169.798 42.2167L168.862 43.8388L168.488 42.4455C168.153 41.1953 166.868 40.4532 165.618 40.7883C164.368 41.1233 163.626 42.4085 163.961 43.6588L165.799 50.5175Z" fill="white"/>
<path d="M159.193 65.2739C159.887 65.6746 160.525 66.1347 161.11 66.641L166.776 56.8266C166.002 56.6819 165.249 56.4058 164.547 56.0002C163.844 55.5946 163.229 55.0811 162.716 54.4828L157.05 64.2972C157.781 64.5505 158.499 64.8732 159.193 65.2739Z" fill="#DDE4E9"/>
<path d="M128.941 89.8909C128.641 89.3714 128.143 88.9664 127.518 88.7989L120.659 86.9612C119.409 86.6261 118.124 87.3681 117.789 88.6186C117.454 89.8689 118.196 91.154 119.446 91.489L120.839 91.8623L119.217 92.7989C118.096 93.4461 117.712 94.8795 118.359 96.0004C119.007 97.1214 120.44 97.5054 121.561 96.8583L123.183 95.9217L122.81 97.315C122.475 98.5651 123.217 99.8504 124.467 100.185C125.717 100.52 127.002 99.7784 127.337 98.5279L129.175 91.6692C129.343 91.0442 129.241 90.4105 128.941 89.8909Z" fill="white"/>
<path d="M133 87.5472C133.406 88.2496 133.682 89.0021 133.827 89.7764L143.641 84.11C143.135 83.5253 142.675 82.8871 142.274 82.193C141.873 81.4989 141.55 80.7813 141.297 80.0507L131.483 85.7171C132.081 86.2294 132.595 86.8447 133 87.5472Z" fill="#DDE4E9"/>
<path d="M177.059 62.1091C177.359 62.6287 177.857 63.0337 178.482 63.2012L185.341 65.0388C186.591 65.374 187.876 64.6319 188.211 63.3815C188.547 62.1312 187.804 60.846 186.554 60.511L185.161 60.1377L186.783 59.2012C187.904 58.554 188.288 57.1205 187.641 55.9996C186.994 54.8787 185.56 54.4946 184.439 55.1418L182.817 56.0784L183.191 54.6851C183.525 53.4349 182.783 52.1496 181.533 51.8148C180.283 51.4798 178.998 52.2216 178.663 53.4721L176.825 60.3308C176.657 60.9557 176.759 61.5896 177.059 62.1091Z" fill="white"/>
<path d="M174.517 66.2832C173.919 65.7708 173.405 65.1552 173 64.4529C172.594 63.7505 172.318 62.998 172.173 62.2236L162.359 67.89C162.865 68.4747 163.325 69.113 163.726 69.8071C164.127 70.5011 164.45 71.2188 164.703 71.9494L174.517 66.2832Z" fill="#DDE4E9"/>
<defs>
<linearGradient id="paint0_linear" x1="-33.5" y1="-132.5" x2="95.9097" y2="132.019" gradientUnits="userSpaceOnUse">
<stop stop-color="#95ECFF"/>
<stop offset="1" stop-color="#7C80F2"/>
</linearGradient>
</defs>
</svg>
