<svg width="52" height="52" viewBox="0 0 52 52" fill="none" xmlns="http://www.w3.org/2000/svg">
<rect width="52" height="52" rx="6" fill="url(#paint0_linear)"/>
<path d="M29.0792 26C29.0792 24.3021 27.6979 22.9208 26 22.9208C24.3021 22.9208 22.9208 24.3021 22.9208 26C22.9208 27.6979 24.3021 29.0792 26 29.0792C27.6979 29.0792 29.0792 27.6979 29.0792 26Z" fill="#FFD48C"/>
<path d="M25.3371 14.6129C25.5202 14.796 25.7601 14.8876 26 14.8876C26.2399 14.8876 26.4799 14.7961 26.6629 14.6129L28.6712 12.6046C29.0374 12.2386 29.0374 11.6449 28.6712 11.2788C28.3052 10.9127 27.7115 10.9128 27.3454 11.2788L26.9375 11.6867V10.9375C26.9375 10.4197 26.5177 10 26 10C25.4822 10 25.0625 10.4197 25.0625 10.9375V11.6867L24.6545 11.2787C24.2885 10.9127 23.6949 10.9126 23.3287 11.2787C22.9626 11.6449 22.9626 12.2384 23.3287 12.6046L25.3371 14.6129Z" fill="white"/>
<path d="M26.9375 21.136V16.6029C26.6404 16.7077 26.3244 16.7625 26 16.7625C25.6756 16.7625 25.3596 16.7077 25.0625 16.6029V21.136C25.3663 21.0776 25.6794 21.0459 26 21.0459C26.3206 21.0459 26.6337 21.0776 26.9375 21.136Z" fill="#DDE4E9"/>
<path d="M26.6629 37.3871C26.4798 37.204 26.2399 37.1125 26 37.1125C25.7601 37.1125 25.5201 37.204 25.3371 37.3871L23.3287 39.3954C22.9626 39.7615 22.9626 40.3551 23.3287 40.7212C23.6948 41.0873 24.2884 41.0873 24.6545 40.7212L25.0625 40.3133V41.0625C25.0625 41.5803 25.4822 42 26 42C26.5177 42 26.9375 41.5803 26.9375 41.0625V40.3133L27.3454 40.7213C27.7115 41.0873 28.3051 41.0874 28.6712 40.7213C29.0374 40.3551 29.0374 39.7616 28.6712 39.3955L26.6629 37.3871Z" fill="white"/>
<path d="M25.0625 30.864V35.3971C25.3596 35.2923 25.6756 35.2375 26 35.2375C26.3244 35.2375 26.6404 35.2923 26.9375 35.3971V30.864C26.6337 30.9224 26.3206 30.9541 26 30.9541C25.6794 30.9541 25.3663 30.9224 25.0625 30.864Z" fill="#DDE4E9"/>
<path d="M41.0625 25.0625H40.3133L40.7212 24.6546C41.0873 24.2885 41.0874 23.6949 40.7212 23.3288C40.3551 22.9626 39.7615 22.9626 39.3954 23.3288L37.3871 25.3371C37.2041 25.5202 37.1125 25.7601 37.1125 26C37.1125 26.2399 37.204 26.4799 37.3871 26.6629L39.3954 28.6713C39.7615 29.0374 40.3551 29.0374 40.7212 28.6713C41.0874 28.3052 41.0873 27.7116 40.7212 27.3455L40.3133 26.9375H41.0625C41.5802 26.9375 42 26.5178 42 26C42 25.4823 41.5802 25.0625 41.0625 25.0625Z" fill="white"/>
<path d="M30.8641 25.0625C30.9225 25.3663 30.9542 25.6794 30.9542 26C30.9542 26.3206 30.9225 26.6337 30.8641 26.9375H35.3971C35.2924 26.6404 35.2376 26.3244 35.2376 26C35.2376 25.6756 35.2924 25.3596 35.3971 25.0625H30.8641Z" fill="#DDE4E9"/>
<path d="M12.6046 28.6713L14.6129 26.6629C14.7959 26.4798 14.8875 26.2399 14.8875 26C14.8875 25.7601 14.796 25.5201 14.6129 25.3371L12.6046 23.3288C12.2385 22.9626 11.6449 22.9626 11.2787 23.3288C10.9126 23.6948 10.9126 24.2884 11.2787 24.6546L11.6867 25.0625H10.9375C10.4197 25.0625 10 25.4823 10 26C10 26.5178 10.4197 26.9375 10.9375 26.9375H11.6867L11.2787 27.3454C10.9127 27.7115 10.9126 28.3051 11.2787 28.6713C11.6449 29.0374 12.2385 29.0374 12.6046 28.6713Z" fill="white"/>
<path d="M21.1359 26.9375C21.0775 26.6337 21.0458 26.3206 21.0458 26C21.0458 25.6794 21.0775 25.3663 21.1359 25.0625H16.6028C16.7076 25.3596 16.7624 25.6756 16.7624 26C16.7624 26.3244 16.7076 26.6404 16.6028 26.9375H21.1359Z" fill="#DDE4E9"/>
<path d="M40.0846 31.0472C39.9506 30.5471 39.4366 30.2503 38.9364 30.3843L36.193 31.1195C35.9429 31.1865 35.7437 31.3485 35.6238 31.5563C35.5038 31.7641 35.4631 32.0176 35.5301 32.2676L36.2652 35.0111C36.3992 35.5112 36.9133 35.808 37.4134 35.674C37.9135 35.54 38.2103 35.0258 38.0763 34.5258L37.927 33.9685L38.5758 34.3431C39.0242 34.602 39.5976 34.4483 39.8564 34C40.1153 33.5516 39.9617 32.9782 39.5133 32.7193L38.8645 32.3447L39.4218 32.1954C39.9218 32.0614 40.2187 31.5473 40.0846 31.0472Z" fill="white"/>
<path d="M33.9999 30.6187C34.1621 30.3377 34.3675 30.0916 34.6068 29.8866L30.6811 27.6201C30.5798 27.9124 30.4507 28.1994 30.2904 28.477C30.1302 28.7546 29.9461 29.01 29.7436 29.2438L33.6693 31.5103C33.7272 31.2007 33.8377 30.8997 33.9999 30.6187Z" fill="#DDE4E9"/>
<path d="M11.9153 20.9528C12.0493 21.453 12.5634 21.7498 13.0635 21.6157L15.807 20.8806C16.057 20.8136 16.2563 20.6516 16.3762 20.4438C16.4962 20.236 16.5369 19.9825 16.4698 19.7324L15.7348 16.989C15.6008 16.4888 15.0867 16.192 14.5866 16.3261C14.0865 16.46 13.7897 16.9741 13.9237 17.4743L14.073 18.0316L13.4242 17.657C12.9758 17.3981 12.4024 17.5517 12.1435 18.0001C11.8847 18.4485 12.0383 19.0218 12.4867 19.2807L13.1355 19.6553L12.5782 19.8046C12.0782 19.9386 11.7813 20.4527 11.9153 20.9528Z" fill="white"/>
<path d="M21.7096 23.5229C21.8698 23.2453 22.0539 22.9899 22.2564 22.7561L18.3306 20.4896C18.2728 20.7993 18.1623 21.1003 18.0001 21.3813C17.8379 21.6622 17.6324 21.9084 17.3931 22.1134L21.3189 24.3799C21.4202 24.0876 21.5493 23.8005 21.7096 23.5229Z" fill="#DDE4E9"/>
<path d="M35.0113 36.265L32.2678 35.5299C32.0177 35.4629 31.7642 35.5036 31.5564 35.6236C31.3486 35.7436 31.1866 35.9428 31.1196 36.1929L30.3846 38.9363C30.2505 39.4365 30.5473 39.9505 31.0475 40.0845C31.5476 40.2186 32.0617 39.9216 32.1957 39.4216L32.345 38.8643L32.7196 39.5131C32.9785 39.9615 33.5519 40.1151 34.0002 39.8563C34.4486 39.5974 34.6022 39.024 34.3434 38.5756L33.9687 37.9268L34.5261 38.0761C35.0261 38.2101 35.5402 37.9133 35.6742 37.4132C35.8082 36.913 35.5114 36.3989 35.0113 36.265Z" fill="white"/>
<path d="M31.5106 33.6692L29.244 29.7436C29.0102 29.9461 28.7549 30.1301 28.4772 30.2904C28.1996 30.4507 27.9126 30.5798 27.6203 30.6811L29.8869 34.6067C30.0918 34.3674 30.338 34.162 30.619 33.9998C30.8999 33.8376 31.2009 33.7271 31.5106 33.6692Z" fill="#DDE4E9"/>
<path d="M16.9887 15.735L19.7322 16.4701C19.9823 16.5371 20.2358 16.4964 20.4436 16.3764C20.6514 16.2564 20.8134 16.0572 20.8804 15.8071L21.6155 13.0637C21.7495 12.5636 21.4527 12.0495 20.9525 11.9155C20.4524 11.7814 19.9383 12.0783 19.8043 12.5784L19.655 13.1357L19.2804 12.4869C19.0215 12.0385 18.4482 11.8849 17.9998 12.1438C17.5514 12.4026 17.3978 12.976 17.6567 13.4244L18.0313 14.0732L17.474 13.9239C16.9739 13.7899 16.4598 14.0867 16.3258 14.5868C16.1918 15.087 16.4886 15.6011 16.9887 15.735Z" fill="white"/>
<path d="M20.4894 18.3308L22.756 22.2564C22.9899 22.0539 23.2452 21.8699 23.5228 21.7096C23.8004 21.5493 24.0875 21.4202 24.3798 21.3189L22.1132 17.3933C21.9083 17.6326 21.6621 17.838 21.3811 18.0002C21.1002 18.1624 20.7992 18.2729 20.4894 18.3308Z" fill="#DDE4E9"/>
<path d="M20.8806 36.193C20.8136 35.9429 20.6516 35.7437 20.4438 35.6237C20.236 35.5038 19.9825 35.4631 19.7324 35.5301L16.989 36.2652C16.4888 36.3992 16.192 36.9132 16.3261 37.4134C16.46 37.9135 16.9742 38.2102 17.4743 38.0763L18.0316 37.927L17.657 38.5758C17.3981 39.0242 17.5517 39.5976 18.0001 39.8564C18.4485 40.1153 19.0218 39.9617 19.2807 39.5133L19.6553 38.8645L19.8046 39.4218C19.9386 39.9219 20.4527 40.2187 20.9528 40.0847C21.453 39.9507 21.7498 39.4366 21.6157 38.9365L20.8806 36.193Z" fill="white"/>
<path d="M23.5229 30.2904C23.2453 30.1302 22.9899 29.9461 22.7561 29.7436L20.4896 33.6694C20.7993 33.7272 21.1003 33.8377 21.3813 33.9999C21.6622 34.1621 21.9084 34.3676 22.1134 34.6069L24.3799 30.6811C24.0876 30.5798 23.8005 30.4507 23.5229 30.2904Z" fill="#DDE4E9"/>
<path d="M31.1194 15.807C31.1864 16.0571 31.3484 16.2563 31.5562 16.3763C31.764 16.4962 32.0176 16.5369 32.2676 16.4699L35.0111 15.7348C35.5112 15.6008 35.808 15.0868 35.6739 14.5866C35.5399 14.0865 35.0259 13.7897 34.5257 13.9237L33.9684 14.073L34.3431 13.4242C34.6019 12.9758 34.4483 12.4024 33.9999 12.1436C33.5516 11.8847 32.9782 12.0383 32.7193 12.4867L32.3447 13.1355L32.1954 12.5782C32.0613 12.0781 31.5473 11.7813 31.0472 11.9153C30.5471 12.0493 30.2502 12.5634 30.3843 13.0635L31.1194 15.807Z" fill="white"/>
<path d="M28.4771 21.7096C28.7547 21.8698 29.0101 22.0539 29.2439 22.2564L31.5104 18.3306C31.2006 18.2728 30.8996 18.1623 30.6187 18.0001C30.3377 17.8378 30.0915 17.6324 29.8866 17.3931L27.6201 21.3189C27.9124 21.4202 28.1994 21.5493 28.4771 21.7096Z" fill="#DDE4E9"/>
<path d="M16.3764 31.5564C16.2565 31.3485 16.0572 31.1865 15.8072 31.1195L13.0637 30.3845C12.5636 30.2504 12.0496 30.5472 11.9156 31.0474C11.7815 31.5475 12.0784 32.0616 12.5784 32.1956L13.1357 32.3449L12.4869 32.7195C12.0386 32.9784 11.8849 33.5518 12.1438 34.0002C12.4027 34.4485 12.9761 34.6022 13.4244 34.3433L14.0732 33.9687L13.9239 34.526C13.7899 35.026 14.0867 35.5402 14.5869 35.6741C15.087 35.8082 15.6011 35.5113 15.7351 35.0112L16.4701 32.2677C16.5371 32.0177 16.4964 31.7642 16.3764 31.5564Z" fill="white"/>
<path d="M18.0002 30.6189C18.1624 30.8998 18.2729 31.2008 18.3307 31.5106L22.2564 29.244C22.0539 29.0101 21.8699 28.7548 21.7096 28.4772C21.5493 28.1996 21.4202 27.9125 21.3189 27.6202L17.3932 29.8868C17.6325 30.0917 17.8379 30.3379 18.0002 30.6189Z" fill="#DDE4E9"/>
<path d="M35.6236 20.4436C35.7436 20.6515 35.9428 20.8135 36.1929 20.8805L38.9364 21.6155C39.4365 21.7496 39.9506 21.4528 40.0846 20.9526C40.2186 20.4525 39.9218 19.9384 39.4217 19.8044L38.8644 19.6551L39.5132 19.2805C39.9616 19.0216 40.1152 18.4482 39.8563 17.9998C39.5975 17.5515 39.0241 17.3978 38.5757 17.6567L37.9269 18.0313L38.0762 17.474C38.2101 16.974 37.9134 16.4598 37.4133 16.3259C36.9131 16.1919 36.399 16.4886 36.2651 16.9888L35.53 19.7323C35.463 19.9823 35.5036 20.2358 35.6236 20.4436Z" fill="white"/>
<path d="M34.6067 22.1132C34.3673 21.9083 34.1619 21.6621 33.9997 21.3811C33.8375 21.1002 33.727 20.7992 33.6692 20.4894L29.7435 22.756C29.946 22.9899 30.13 23.2452 30.2903 23.5228C30.4505 23.8004 30.5797 24.0875 30.681 24.3797L34.6067 22.1132Z" fill="#DDE4E9"/>
<defs>
<linearGradient id="paint0_linear" x1="-20.3072" y1="-25.1503" x2="54.0317" y2="55.5105" gradientUnits="userSpaceOnUse">
<stop stop-color="#7C80F2"/>
<stop offset="1" stop-color="#7C80F2"/>
</linearGradient>
</defs>
</svg>
