<svg width="24" height="24" viewBox="0 0 24 24" fill="none" xmlns="http://www.w3.org/2000/svg">
<path d="M0 0H24V24H0V0Z" fill="url(#paint0_linear)"/>
<path d="M11.5857 4.88312C11.7001 4.99753 11.8501 5.05476 12 5.05476C12.1499 5.05476 12.2999 4.99757 12.4143 4.88312L13.6695 3.62792C13.8984 3.39913 13.8984 3.02812 13.6695 2.79929C13.4407 2.57046 13.0697 2.5705 12.8409 2.79929L12.5859 3.05421V2.58597C12.5859 2.26237 12.3236 2.00003 12 2.00003C11.6764 2.00003 11.4141 2.26237 11.4141 2.58597V3.05421L11.1591 2.79925C10.9303 2.57046 10.5593 2.57042 10.3305 2.79925C10.1016 3.02808 10.1016 3.39905 10.3305 3.62788L11.5857 4.88312Z" fill="white" fill-opacity="0.5"/>
<path d="M12.4143 19.117C12.2999 19.0025 12.1499 18.9453 12 18.9453C11.8501 18.9453 11.7001 19.0025 11.5857 19.117L10.3305 20.3721C10.1016 20.6009 10.1016 20.972 10.3305 21.2008C10.5593 21.4296 10.9303 21.4296 11.1591 21.2008L11.4141 20.9458V21.4141C11.4141 21.7377 11.6764 22 12 22C12.3236 22 12.5859 21.7377 12.5859 21.4141V20.9459L12.8409 21.2008C13.0697 21.4296 13.4407 21.4296 13.6695 21.2008C13.8984 20.972 13.8984 20.601 13.6695 20.3722L12.4143 19.117Z" fill="white" fill-opacity="0.5"/>
<path d="M21.4141 11.4141H20.9458L21.2008 11.1592C21.4296 10.9304 21.4296 10.5594 21.2008 10.3305C20.972 10.1017 20.601 10.1017 20.3721 10.3305L19.117 11.5858C19.0025 11.7002 18.9453 11.8501 18.9453 12.0001C18.9453 12.15 19.0025 12.3 19.117 12.4144L20.3721 13.6696C20.6009 13.8984 20.972 13.8984 21.2008 13.6696C21.4296 13.4408 21.4296 13.0698 21.2008 12.841L20.9458 12.586H21.4141C21.7377 12.586 22 12.3237 22 12.0001C22 11.6765 21.7377 11.4141 21.4141 11.4141Z" fill="white" fill-opacity="0.5"/>
<path d="M3.62785 13.6696L4.88305 12.4144C4.99746 12.2999 5.05469 12.15 5.05469 12.0001C5.05469 11.8501 4.9975 11.7001 4.88305 11.5858L3.62785 10.3305C3.39906 10.1017 3.02805 10.1017 2.79922 10.3305C2.57039 10.5593 2.57039 10.9303 2.79922 11.1592L3.05418 11.4141H2.58594C2.26234 11.4141 2 11.6765 2 12.0001C2 12.3237 2.26234 12.586 2.58594 12.586H3.05418L2.79922 12.841C2.57047 13.0697 2.57039 13.4408 2.79922 13.6696C3.02805 13.8985 3.39906 13.8985 3.62785 13.6696Z" fill="white" fill-opacity="0.5"/>
<path d="M20.8029 15.1545C20.7192 14.8419 20.3979 14.6564 20.0853 14.7402L18.3706 15.1997C18.2144 15.2415 18.0898 15.3428 18.0149 15.4727C17.9399 15.6026 17.9144 15.761 17.9563 15.9173L18.4158 17.6319C18.4995 17.9445 18.8208 18.13 19.1334 18.0462C19.446 17.9625 19.6314 17.6412 19.5477 17.3286L19.4544 16.9803L19.8599 17.2144C20.1401 17.3762 20.4985 17.2802 20.6603 17C20.8221 16.7197 20.7261 16.3614 20.4458 16.1996L20.0403 15.9655L20.3887 15.8721C20.7012 15.7884 20.8867 15.4671 20.8029 15.1545Z" fill="white" fill-opacity="0.5"/>
<path d="M3.19711 8.84559C3.28086 9.15817 3.60215 9.34368 3.91472 9.25989L5.62937 8.80043C5.78566 8.75856 5.91019 8.65731 5.98515 8.52743C6.06012 8.39754 6.08558 8.23911 6.04367 8.08282L5.58426 6.36817C5.50051 6.05559 5.17922 5.87008 4.86664 5.95387C4.55406 6.03758 4.36855 6.35891 4.4523 6.67149L4.54562 7.01981L4.14012 6.78567C3.85988 6.62387 3.50152 6.71989 3.33972 7.00012C3.17793 7.28036 3.27394 7.63872 3.55418 7.80051L3.95969 8.03465L3.61137 8.12797C3.2989 8.21172 3.11336 8.53301 3.19711 8.84559Z" fill="white" fill-opacity="0.5"/>
<path d="M17.6321 18.4157L15.9174 17.9562C15.7611 17.9144 15.6026 17.9398 15.4728 18.0148C15.3429 18.0898 15.2417 18.2143 15.1998 18.3706L14.7404 20.0852C14.6566 20.3978 14.8421 20.7191 15.1547 20.8028C15.4673 20.8866 15.7886 20.701 15.8723 20.3885L15.9656 20.0402L16.1998 20.4457C16.3616 20.726 16.7199 20.822 17.0002 20.6602C17.2804 20.4984 17.3764 20.14 17.2146 19.8598L16.9805 19.4543L17.3288 19.5476C17.6413 19.6314 17.9627 19.4458 18.0464 19.1333C18.1302 18.8207 17.9447 18.4994 17.6321 18.4157Z" fill="white" fill-opacity="0.5"/>
<path d="M6.36795 5.58443L8.08264 6.04385C8.23893 6.08572 8.39741 6.06029 8.52725 5.98529C8.65713 5.91033 8.75838 5.7858 8.80026 5.62951L9.25967 3.91486C9.34346 3.60228 9.15795 3.281 8.84534 3.19725C8.53276 3.11346 8.21147 3.299 8.12772 3.61154L8.0344 3.95986L7.80026 3.55435C7.63846 3.27412 7.2801 3.1781 6.99987 3.3399C6.71963 3.5017 6.62362 3.86006 6.78541 4.14029L7.01956 4.5458L6.67123 4.45248C6.3587 4.36877 6.03737 4.55424 5.95366 4.86682C5.86987 5.17943 6.05538 5.50072 6.36795 5.58443Z" fill="white" fill-opacity="0.5"/>
<path d="M8.80037 18.3707C8.75849 18.2144 8.65725 18.0899 8.52736 18.0149C8.39748 17.9399 8.23904 17.9145 8.08275 17.9564L6.36811 18.4158C6.05553 18.4995 5.87002 18.8208 5.95381 19.1334C6.03752 19.446 6.35889 19.6315 6.67143 19.5477L7.01975 19.4544L6.78561 19.8599C6.62381 20.1402 6.71982 20.4985 7.00006 20.6603C7.28029 20.8221 7.63865 20.7261 7.80045 20.4459L8.03459 20.0404L8.12791 20.3887C8.21166 20.7012 8.53295 20.8868 8.84553 20.803C9.1581 20.7192 9.34361 20.3979 9.25982 20.0854L8.80037 18.3707Z" fill="white" fill-opacity="0.5"/>
<path d="M15.1996 5.62943C15.2415 5.78572 15.3428 5.91025 15.4726 5.98521C15.6025 6.06017 15.761 6.08564 15.9173 6.04373L17.6319 5.58431C17.9445 5.50056 18.13 5.17927 18.0462 4.86669C17.9624 4.55412 17.6412 4.36861 17.3286 4.45236L16.9803 4.54568L17.2144 4.14017C17.3762 3.85994 17.2802 3.50158 16.9999 3.33978C16.7197 3.17798 16.3614 3.274 16.1996 3.55423L15.9654 3.95974L15.8721 3.61142C15.7883 3.29888 15.4671 3.11333 15.1545 3.19712C14.8419 3.28087 14.6564 3.60216 14.7402 3.91474L15.1996 5.62943Z" fill="white" fill-opacity="0.5"/>
<path d="M5.98526 15.4728C5.9103 15.3429 5.78577 15.2416 5.62948 15.1998L3.91483 14.7403C3.60225 14.6565 3.28096 14.8421 3.19721 15.1547C3.11342 15.4673 3.29901 15.7885 3.61151 15.8723L3.95983 15.9656L3.55432 16.1998C3.27409 16.3615 3.17807 16.7199 3.33987 17.0001C3.50167 17.2804 3.86002 17.3764 4.14026 17.2146L4.54577 16.9805L4.45245 17.3288C4.3687 17.6413 4.5542 17.9626 4.86678 18.0464C5.17936 18.1301 5.50065 17.9446 5.5844 17.632L6.04381 15.9173C6.08569 15.7611 6.06026 15.6026 5.98526 15.4728Z" fill="white" fill-opacity="0.5"/>
<g clip-path="url(#clip0)">
<path d="M20.8268 8.04593L12.2317 17.5548C12.0014 17.8087 11.6284 17.8087 11.399 17.5548L6.17208 11.734C5.94264 11.479 5.94264 11.0648 6.17208 10.8114L7.42098 9.43048C7.65134 9.17608 8.02429 9.17608 8.25373 9.43048L11.8198 13.4027L18.7437 5.7404C18.9732 5.48652 19.3461 5.48652 19.5774 5.7404L20.8263 7.12341C21.0581 7.37781 21.0581 7.79204 20.8268 8.04593Z" fill="white"/>
</g>
<defs>
<linearGradient id="paint0_linear" x1="-13" y1="-10.5" x2="25" y2="25" gradientUnits="userSpaceOnUse">
<stop stop-color="#7C80F2"/>
<stop offset="0.526042" stop-color="#7C80F2"/>
<stop offset="1" stop-color="#65AAFF"/>
<stop offset="1" stop-color="#65AAFF"/>
</linearGradient>
<clipPath id="clip0">
<rect width="15" height="17" fill="white" transform="translate(6 3)"/>
</clipPath>
</defs>
</svg>
