<svg width="24" height="24" viewBox="0 0 24 24" fill="none" xmlns="http://www.w3.org/2000/svg">
<rect width="24" height="24" fill="url(#paint0_linear)"/>
<path d="M17.3333 18.4H16V16.8C16 14.7757 14.8941 12.9493 13.1429 12C14.8941 11.0507 16 9.22427 16 7.2V5.6H17.3333C17.7744 5.6 18.1333 5.24107 18.1333 4.8C18.1333 4.35893 17.7744 4 17.3333 4H6.66667C6.2256 4 5.86667 4.35893 5.86667 4.8C5.86667 5.24107 6.2256 5.6 6.66667 5.6H8V7.2C8 9.22427 9.10587 11.0507 10.8571 12C9.10587 12.9493 8 14.7757 8 16.8V18.4H6.66667C6.2256 18.4 5.86667 18.7589 5.86667 19.2C5.86667 19.6411 6.2256 20 6.66667 20H17.3333C17.7744 20 18.1333 19.6411 18.1333 19.2C18.1333 18.7589 17.7744 18.4 17.3333 18.4ZM6.66667 5.06667C6.51974 5.06667 6.4 4.9472 6.4 4.8C6.4 4.6528 6.51974 4.53333 6.66667 4.53333H17.3333C17.4803 4.53333 17.6 4.6528 17.6 4.8C17.6 4.9472 17.4803 5.06667 17.3333 5.06667H16H8H6.66667ZM8.53334 7.2V5.6H15.4667V7.2C15.4667 9.18053 14.2957 10.9541 12.4792 11.7333H11.5205C9.70427 10.9541 8.53334 9.18053 8.53334 7.2ZM8.53334 16.8C8.53334 14.8195 9.70427 13.0459 11.5208 12.2667H12.4795C14.2957 13.0459 15.4667 14.8195 15.4667 16.8V18.4C15.4667 18.2528 15.3472 18.1333 15.2 18.1333C15.0528 18.1333 14.9333 18.2528 14.9333 18.4H14.4C14.4 18.2528 14.2805 18.1333 14.1333 18.1333C13.9861 18.1333 13.8667 18.2528 13.8667 18.4H13.3333C13.3333 18.2528 13.2139 18.1333 13.0667 18.1333C12.9195 18.1333 12.8 18.2528 12.8 18.4H12.2667C12.2667 18.2528 12.1472 18.1333 12 18.1333C11.8528 18.1333 11.7333 18.2528 11.7333 18.4H11.2C11.2 18.2528 11.0805 18.1333 10.9333 18.1333C10.7861 18.1333 10.6667 18.2528 10.6667 18.4H10.1333C10.1333 18.2528 10.0139 18.1333 9.86667 18.1333C9.71947 18.1333 9.6 18.2528 9.6 18.4H9.06667C9.06667 18.2528 8.9472 18.1333 8.8 18.1333C8.6528 18.1333 8.53334 18.2528 8.53334 18.4V16.8ZM17.3333 19.4667H6.66667C6.51974 19.4667 6.4 19.3472 6.4 19.2C6.4 19.0528 6.51974 18.9333 6.66667 18.9333H8H16H17.3333C17.4803 18.9333 17.6 19.0528 17.6 19.2C17.6 19.3472 17.4803 19.4667 17.3333 19.4667Z" fill="white"/>
<path d="M9.33333 18.1333C9.48061 18.1333 9.6 18.0139 9.6 17.8667C9.6 17.7194 9.48061 17.6 9.33333 17.6C9.18606 17.6 9.06667 17.7194 9.06667 17.8667C9.06667 18.0139 9.18606 18.1333 9.33333 18.1333Z" fill="white"/>
<path d="M10.4 18.1333C10.5473 18.1333 10.6667 18.0139 10.6667 17.8667C10.6667 17.7194 10.5473 17.6 10.4 17.6C10.2527 17.6 10.1333 17.7194 10.1333 17.8667C10.1333 18.0139 10.2527 18.1333 10.4 18.1333Z" fill="white"/>
<path d="M11.4667 18.1333C11.6139 18.1333 11.7333 18.0139 11.7333 17.8667C11.7333 17.7194 11.6139 17.6 11.4667 17.6C11.3194 17.6 11.2 17.7194 11.2 17.8667C11.2 18.0139 11.3194 18.1333 11.4667 18.1333Z" fill="white"/>
<path d="M12.5333 18.1333C12.6806 18.1333 12.8 18.0139 12.8 17.8667C12.8 17.7194 12.6806 17.6 12.5333 17.6C12.3861 17.6 12.2667 17.7194 12.2667 17.8667C12.2667 18.0139 12.3861 18.1333 12.5333 18.1333Z" fill="white"/>
<path d="M13.6 18.1333C13.7473 18.1333 13.8667 18.0139 13.8667 17.8667C13.8667 17.7194 13.7473 17.6 13.6 17.6C13.4527 17.6 13.3333 17.7194 13.3333 17.8667C13.3333 18.0139 13.4527 18.1333 13.6 18.1333Z" fill="white"/>
<path d="M14.6667 18.1333C14.8139 18.1333 14.9333 18.0139 14.9333 17.8667C14.9333 17.7194 14.8139 17.6 14.6667 17.6C14.5194 17.6 14.4 17.7194 14.4 17.8667C14.4 18.0139 14.5194 18.1333 14.6667 18.1333Z" fill="white"/>
<path d="M9.86667 17.6C10.0139 17.6 10.1333 17.4806 10.1333 17.3333C10.1333 17.1861 10.0139 17.0667 9.86667 17.0667C9.7194 17.0667 9.60001 17.1861 9.60001 17.3333C9.60001 17.4806 9.7194 17.6 9.86667 17.6Z" fill="white"/>
<path d="M10.9333 17.6C11.0806 17.6 11.2 17.4806 11.2 17.3333C11.2 17.1861 11.0806 17.0667 10.9333 17.0667C10.7861 17.0667 10.6667 17.1861 10.6667 17.3333C10.6667 17.4806 10.7861 17.6 10.9333 17.6Z" fill="white"/>
<path d="M12 13.0667C12.1473 13.0667 12.2667 12.9473 12.2667 12.8C12.2667 12.6527 12.1473 12.5333 12 12.5333C11.8527 12.5333 11.7333 12.6527 11.7333 12.8C11.7333 12.9473 11.8527 13.0667 12 13.0667Z" fill="white"/>
<path d="M10.4 10.1333C10.5473 10.1333 10.6667 10.0139 10.6667 9.86667C10.6667 9.7194 10.5473 9.60001 10.4 9.60001C10.2527 9.60001 10.1333 9.7194 10.1333 9.86667C10.1333 10.0139 10.2527 10.1333 10.4 10.1333Z" fill="white"/>
<path d="M11.4667 10.1333C11.6139 10.1333 11.7333 10.0139 11.7333 9.86667C11.7333 9.7194 11.6139 9.60001 11.4667 9.60001C11.3194 9.60001 11.2 9.7194 11.2 9.86667C11.2 10.0139 11.3194 10.1333 11.4667 10.1333Z" fill="white"/>
<path d="M12.5333 10.1333C12.6806 10.1333 12.8 10.0139 12.8 9.86667C12.8 9.7194 12.6806 9.60001 12.5333 9.60001C12.3861 9.60001 12.2667 9.7194 12.2667 9.86667C12.2667 10.0139 12.3861 10.1333 12.5333 10.1333Z" fill="white"/>
<path d="M13.6 10.1333C13.7473 10.1333 13.8667 10.0139 13.8667 9.86667C13.8667 9.7194 13.7473 9.60001 13.6 9.60001C13.4527 9.60001 13.3333 9.7194 13.3333 9.86667C13.3333 10.0139 13.4527 10.1333 13.6 10.1333Z" fill="white"/>
<path d="M13.0667 9.6C13.2139 9.6 13.3333 9.48061 13.3333 9.33333C13.3333 9.18606 13.2139 9.06667 13.0667 9.06667C12.9194 9.06667 12.8 9.18606 12.8 9.33333C12.8 9.48061 12.9194 9.6 13.0667 9.6Z" fill="white"/>
<path d="M13.6 9.06667C13.7473 9.06667 13.8667 8.94728 13.8667 8.80001C13.8667 8.65273 13.7473 8.53334 13.6 8.53334C13.4527 8.53334 13.3333 8.65273 13.3333 8.80001C13.3333 8.94728 13.4527 9.06667 13.6 9.06667Z" fill="white"/>
<path d="M10.9333 9.6C11.0806 9.6 11.2 9.48061 11.2 9.33333C11.2 9.18606 11.0806 9.06667 10.9333 9.06667C10.7861 9.06667 10.6667 9.18606 10.6667 9.33333C10.6667 9.48061 10.7861 9.6 10.9333 9.6Z" fill="white"/>
<path d="M12 9.6C12.1473 9.6 12.2667 9.48061 12.2667 9.33333C12.2667 9.18606 12.1473 9.06667 12 9.06667C11.8527 9.06667 11.7333 9.18606 11.7333 9.33333C11.7333 9.48061 11.8527 9.6 12 9.6Z" fill="white"/>
<path d="M10.4 9.06667C10.5473 9.06667 10.6667 8.94728 10.6667 8.80001C10.6667 8.65273 10.5473 8.53334 10.4 8.53334C10.2527 8.53334 10.1333 8.65273 10.1333 8.80001C10.1333 8.94728 10.2527 9.06667 10.4 9.06667Z" fill="white"/>
<path d="M10.9333 10.6667C11.0806 10.6667 11.2 10.5473 11.2 10.4C11.2 10.2527 11.0806 10.1333 10.9333 10.1333C10.7861 10.1333 10.6667 10.2527 10.6667 10.4C10.6667 10.5473 10.7861 10.6667 10.9333 10.6667Z" fill="white"/>
<path d="M11.4667 11.2C11.6139 11.2 11.7333 11.0806 11.7333 10.9333C11.7333 10.7861 11.6139 10.6667 11.4667 10.6667C11.3194 10.6667 11.2 10.7861 11.2 10.9333C11.2 11.0806 11.3194 11.2 11.4667 11.2Z" fill="white"/>
<path d="M12.5333 11.2C12.6806 11.2 12.8 11.0806 12.8 10.9333C12.8 10.7861 12.6806 10.6667 12.5333 10.6667C12.3861 10.6667 12.2667 10.7861 12.2667 10.9333C12.2667 11.0806 12.3861 11.2 12.5333 11.2Z" fill="white"/>
<path d="M12 10.6667C12.1473 10.6667 12.2667 10.5473 12.2667 10.4C12.2667 10.2527 12.1473 10.1333 12 10.1333C11.8527 10.1333 11.7333 10.2527 11.7333 10.4C11.7333 10.5473 11.8527 10.6667 12 10.6667Z" fill="white"/>
<path d="M13.0667 10.6667C13.2139 10.6667 13.3333 10.5473 13.3333 10.4C13.3333 10.2527 13.2139 10.1333 13.0667 10.1333C12.9194 10.1333 12.8 10.2527 12.8 10.4C12.8 10.5473 12.9194 10.6667 13.0667 10.6667Z" fill="white"/>
<path d="M12 13.8667C12.1473 13.8667 12.2667 13.7473 12.2667 13.6C12.2667 13.4527 12.1473 13.3333 12 13.3333C11.8527 13.3333 11.7333 13.4527 11.7333 13.6C11.7333 13.7473 11.8527 13.8667 12 13.8667Z" fill="white"/>
<path d="M12 14.6667C12.1473 14.6667 12.2667 14.5473 12.2667 14.4C12.2667 14.2527 12.1473 14.1333 12 14.1333C11.8527 14.1333 11.7333 14.2527 11.7333 14.4C11.7333 14.5473 11.8527 14.6667 12 14.6667Z" fill="white"/>
<path d="M12 15.4667C12.1473 15.4667 12.2667 15.3473 12.2667 15.2C12.2667 15.0527 12.1473 14.9333 12 14.9333C11.8527 14.9333 11.7333 15.0527 11.7333 15.2C11.7333 15.3473 11.8527 15.4667 12 15.4667Z" fill="white"/>
<path d="M12 16.2667C12.1473 16.2667 12.2667 16.1473 12.2667 16C12.2667 15.8527 12.1473 15.7333 12 15.7333C11.8527 15.7333 11.7333 15.8527 11.7333 16C11.7333 16.1473 11.8527 16.2667 12 16.2667Z" fill="white"/>
<path d="M12 17.0667C12.1473 17.0667 12.2667 16.9473 12.2667 16.8C12.2667 16.6527 12.1473 16.5333 12 16.5333C11.8527 16.5333 11.7333 16.6527 11.7333 16.8C11.7333 16.9473 11.8527 17.0667 12 17.0667Z" fill="white"/>
<path d="M13.0667 17.6C13.2139 17.6 13.3333 17.4806 13.3333 17.3333C13.3333 17.1861 13.2139 17.0667 13.0667 17.0667C12.9194 17.0667 12.8 17.1861 12.8 17.3333C12.8 17.4806 12.9194 17.6 13.0667 17.6Z" fill="white"/>
<path d="M14.1333 17.6C14.2806 17.6 14.4 17.4806 14.4 17.3333C14.4 17.1861 14.2806 17.0667 14.1333 17.0667C13.9861 17.0667 13.8667 17.1861 13.8667 17.3333C13.8667 17.4806 13.9861 17.6 14.1333 17.6Z" fill="white"/>
<defs>
<linearGradient id="paint0_linear" x1="3.5" y1="10.5" x2="12" y2="24" gradientUnits="userSpaceOnUse">
<stop stop-color="#FFA857"/>
<stop offset="0.765625" stop-color="#FFCA62" stop-opacity="0.866433"/>
<stop offset="1" stop-color="#FFD53F" stop-opacity="0.73"/>
</linearGradient>
</defs>
</svg>
