<svg width="24" height="24" viewBox="0 0 24 24" fill="none" xmlns="http://www.w3.org/2000/svg">
<path d="M0 0H24V24H0V0Z" fill="url(#paint0_linear)"/>
<path d="M10.4286 16.5306C10.4286 17.0189 10.8304 17.4183 11.3214 17.4183L15.9509 17.4183L15.3571 20.237C15.3437 20.3035 15.3348 20.3746 15.3348 20.4456C15.3348 20.7208 15.4465 20.9693 15.6295 21.1513L16.3393 21.8571L20.75 17.4716C20.9911 17.2319 21.1429 16.899 21.1429 16.5306L21.1429 10.7602C21.1429 10.0233 20.5447 9.42856 19.8036 9.42856L13.7768 9.42856C13.2232 9.42856 12.7455 9.76147 12.5446 10.2409L10.5223 14.9371C10.4643 15.088 10.4286 15.2478 10.4286 15.4209L10.4286 16.5306Z" fill="white" fill-opacity="0.6"/>
<path d="M14.7143 8.32652C14.7143 7.83827 14.3125 7.43878 13.8214 7.43878H9.19195L9.78571 4.62018C9.79911 4.5536 9.80802 4.48256 9.80802 4.41157C9.80802 4.13638 9.6964 3.88778 9.51338 3.70581L8.80356 3L4.39287 7.38552C4.1518 7.62521 4 7.95812 4 8.32652V14.0969C4 14.8338 4.5982 15.4286 5.33929 15.4286H11.3661C11.9197 15.4286 12.3973 15.0957 12.5982 14.6163L14.6205 9.92007C14.6786 9.76914 14.7143 9.60934 14.7143 9.43623V8.32652Z" fill="white"/>
<defs>
<linearGradient id="paint0_linear" x1="-13" y1="-10.5" x2="25" y2="25" gradientUnits="userSpaceOnUse">
<stop stop-color="#3E3BE1"/>
<stop offset="1" stop-color="#51F9D0"/>
</linearGradient>
</defs>
</svg>
