<svg width="24" height="24" viewBox="0 0 24 24" fill="none" xmlns="http://www.w3.org/2000/svg">
<rect width="24" height="24" fill="url(#paint0_linear)"/>
<path d="M8.10001 10.1604V8.32038C8.10652 7.87781 8.20016 7.44086 8.37557 7.03448C8.55098 6.6281 8.80472 6.26026 9.1223 5.95196C9.43989 5.64366 9.8151 5.40094 10.2265 5.23767C10.6379 5.07439 11.0774 4.99376 11.52 5.00038C11.9626 4.99376 12.4021 5.07439 12.8135 5.23767C13.2249 5.40094 13.6001 5.64366 13.9177 5.95196C14.2353 6.26026 14.489 6.6281 14.6644 7.03448C14.8399 7.44086 14.9335 7.87781 14.94 8.32038V10.1604" stroke="white" stroke-linecap="round" stroke-linejoin="round"/>
<path d="M11.52 9.50038C12.4298 9.50038 13.3192 9.77017 14.0756 10.2756C14.8321 10.7811 15.4217 11.4995 15.7698 12.34C16.118 13.1806 16.2091 14.1055 16.0316 14.9978C15.8541 15.8901 15.416 16.7098 14.7727 17.3531C14.1294 17.9964 13.3097 18.4345 12.4174 18.612C11.5251 18.7895 10.6002 18.6984 9.75966 18.3502C8.91912 18.0021 8.2007 17.4125 7.69524 16.656C7.18979 15.8995 6.92 15.0102 6.92 14.1004C6.92 13.4963 7.03898 12.8981 7.27016 12.34C7.50133 11.7819 7.84016 11.2748 8.26731 10.8477C9.12998 9.98503 10.3 9.50038 11.52 9.50038V9.50038ZM11.52 8.58038C10.4282 8.58038 9.36101 8.90413 8.45325 9.51067C7.5455 10.1172 6.83798 10.9793 6.42019 11.988C6.00239 12.9966 5.89308 14.1065 6.10607 15.1773C6.31906 16.2481 6.84479 17.2316 7.61677 18.0036C8.38876 18.7756 9.37233 19.3013 10.4431 19.5143C11.5139 19.7273 12.6238 19.618 13.6324 19.2002C14.6411 18.7824 15.5032 18.0749 16.1097 17.1671C16.7163 16.2594 17.04 15.1921 17.04 14.1004C17.04 12.6364 16.4584 11.2324 15.4232 10.1972C14.388 9.16195 12.984 8.58038 11.52 8.58038V8.58038Z" fill="white"/>
<path d="M11.52 11.0404V14.2804L13.53 15.9804" stroke="white"/>
<defs>
<linearGradient id="paint0_linear" x1="3.5" y1="10.5" x2="12" y2="24" gradientUnits="userSpaceOnUse">
<stop stop-color="#FFA857"/>
<stop offset="0.765625" stop-color="#FFCA62" stop-opacity="0.866433"/>
<stop offset="1" stop-color="#FFD53F" stop-opacity="0.73"/>
</linearGradient>
</defs>
</svg>
