<svg width="60" height="60" viewBox="0 0 60 60" xmlns="http://www.w3.org/2000/svg"><title>Icon_Transfer_Tokens@2x</title><g fill="none" fill-rule="evenodd"><circle fill="#F2F6F7" cx="30" cy="30" r="30"/><g transform="translate(5 12)" stroke="#000"><path d="M14.456 4.872l-2.301 2.471c-6.53 7.002-7.342 16.895 0 23.908 7.341 7.013 18.096 5.418 24.625-1.583" opacity=".67"/><path d="M11.4 30.553l2.702-2.702M13.4 32.553l2.702-2.702M16.072 33.881l2.03-2.03"/><circle stroke-width="1.5" fill="#FFF" cx="26.333" cy="16.667" r="16.667"/><path d="M14.43 12.334c-2.392 6.574.997 13.843 7.571 16.235 6.574 2.393 13.842-.996 16.235-7.57 2.393-6.574-.997-13.842-7.57-16.235a12.64 12.64 0 0 0-10.647.922" opacity=".5" stroke-linecap="round" stroke-linejoin="round"/><path d="M16.911 16.083a9.44 9.44 0 1 0 9.438-8.856" opacity=".2" stroke-linecap="round" stroke-linejoin="round"/></g><path d="M42.179 45.94c.119 0 .237.024.356.074.118.05.227.113.326.192.079.1.143.203.193.312.049.108.074.232.074.37v4.388L53 43.094 43.128 35v4.27c0 .256-.094.478-.282.666a.912.912 0 0 1-.667.282c-1.344 0-2.609.094-3.795.281a16.683 16.683 0 0 0-3.305.86c-1.018.386-1.942.86-2.772 1.423-.83.563-1.562 1.22-2.194 1.972-.969 1.107-1.695 2.302-2.18 3.587-.483 1.285-.795 2.5-.933 3.646a16 16 0 0 1 1.897-2.149c.751-.721 1.715-1.369 2.89-1.942 1.177-.573 2.61-1.042 4.3-1.408 1.69-.366 3.72-.548 6.092-.548z" stroke="#00E7E2" fill="#FFF" stroke-linecap="round" stroke-linejoin="round"/></g></svg>