<svg width="1307" height="877" viewBox="0 0 1307 877" fill="none" xmlns="http://www.w3.org/2000/svg">
<mask id="mask0" mask-type="alpha" maskUnits="userSpaceOnUse" x="0" y="0" width="1307" height="877">
<rect width="1307" height="877" fill="black"/>
</mask>
<g mask="url(#mask0)">
<mask id="mask1" mask-type="alpha" maskUnits="userSpaceOnUse" x="38" y="61" width="1228" height="866">
<path d="M38.8036 655.624C38.8036 756.331 69.9007 859.663 100.5 927L1242.53 907.392C932.027 910.706 949.512 736.079 949.512 736.079C949.512 730.096 949.512 724.067 950.617 718.037C950.617 718.037 962.672 598.689 1067.08 598.689C1080.74 598.137 1094.41 600.852 1105.91 607.434C1160.58 636.984 1125.06 692.262 1125.06 692.262C1193.39 681.353 1278.14 604.719 1264.48 470.596C1250.81 336.474 1091.19 267.525 1091.19 267.525C1096.11 236.871 1091.19 226.469 1091.19 226.469C752.25 21.2352 488.176 65.5591 488.176 65.5591L553.792 131.24C547.212 130.687 540.126 130.687 533.546 130.687H533.546C258.566 140.537 38.8036 371.546 38.8036 655.624Z" fill="#95ECFF"/>
</mask>
<g mask="url(#mask1)">
<path d="M742.909 885.437C1016.76 885.437 1238.76 663.17 1238.76 388.99C1238.76 114.811 1016.76 -107.456 742.909 -107.456C469.061 -107.456 247.062 114.811 247.062 388.99C247.062 663.17 469.061 885.437 742.909 885.437Z" fill="#EBF2F8"/>
<path d="M1096.11 253.533C1131.64 301.723 1145.3 345.218 1145.3 404.317C1145.3 476.027 1115.76 542.26 1065.47 595.881L1096.07 710.304H1189.02L1286.89 599.195L1313.12 436.628L1318.59 339.741L1221.82 230.289C1135.82 219.887 1093.9 227.666 1096.11 253.533Z" fill="#F1F6FA"/>
<mask id="mask2" mask-type="alpha" maskUnits="userSpaceOnUse" x="-2" y="104" width="1276" height="1251">
<path d="M14.1854 723.468L31.1185 790.805C31.1185 790.805 231.233 1201.87 681.71 1354.59C681.71 1354.59 1091.56 1179.41 1273.59 882.215L1022.31 662.712C1022.31 662.712 902.025 758.494 723.261 758.494C544.497 758.494 301.773 651.758 301.773 431.703C301.773 211.649 553.239 131.194 553.239 131.194L446.073 104.912H172.151L-1.68945 524.217L14.1854 723.468Z" fill="#F1F6FA"/>
</mask>
<g mask="url(#mask2)">
<circle cx="707.436" cy="535.31" r="710.335" fill="#F1F6FA"/>
</g>
<mask id="mask3" mask-type="alpha" maskUnits="userSpaceOnUse" x="-170" y="-360" width="1698" height="1288">
<path d="M1528 261.358C1520.36 253.717 1451.52 -100.644 843.036 -310.297C823.802 -323.46 181.585 -427.021 279.641 -287.053C-285.549 -142.759 -156.94 242.395 -156.94 261.358C-156.94 280.321 -26.5 701.5 -26.5 701.5C-26.5 701.5 27.237 937.785 100.5 927C69.9007 859.663 38.8035 756.331 38.8035 655.624C38.8035 371.546 258.566 140.537 533.546 130.687C540.126 130.687 547.212 130.687 553.792 131.24L488.176 65.5591C488.176 65.5591 752.25 21.2352 1091.19 226.469C1091.19 226.469 1096.11 236.871 1091.19 267.525C1091.19 267.525 1250.81 336.474 1264.48 470.596C1278.14 604.719 1193.39 681.354 1125.06 692.262C1125.06 692.262 1160.58 636.984 1105.91 607.434C1094.41 600.852 1080.74 598.137 1067.08 598.689C962.672 598.689 950.617 718.037 950.617 718.037C949.512 724.067 949.512 730.096 949.512 736.079C949.512 736.079 932.027 910.706 1242.53 907.392C1242.53 907.392 1399.99 728.945 1441.54 568.588C1456.86 509.489 1467.77 465.119 1474.9 432.302C1492.39 385.768 1509.36 317.234 1525.75 267.433L1528 261.358Z" fill="url(#paint0_radial)"/>
</mask>
<g mask="url(#mask3)">
<circle cx="659.035" cy="552.903" r="955.335" fill="#F9FAFC"/>
</g>
<path d="M956.139 279.538C960.51 277.329 974.728 270.241 991.109 253.257C1023.92 257.629 1056.17 268.032 1056.17 268.032C996.585 231.9 915.14 210.544 824.907 211.096C824.907 211.096 859.371 260.345 955.034 280.597C955.034 280.643 955.587 280.091 956.139 279.538Z" fill="#F9FAFC"/>
</g>
</g>
<defs>
<radialGradient id="paint0_radial" cx="0" cy="0" r="1" gradientUnits="userSpaceOnUse" gradientTransform="translate(-379.638 1447.95) scale(3.08188 3.08275)">
<stop stop-color="#00C9FF"/>
<stop offset="1" stop-color="#7DD6E7"/>
</radialGradient>
</defs>
</svg>
