<svg width="60" height="60" viewBox="0 0 60 60" xmlns="http://www.w3.org/2000/svg"><title>Icon_Check_Finance@1x</title><g fill="none" fill-rule="evenodd"><circle fill="#F2F6F7" cx="30" cy="30" r="30"/><g opacity=".8"><g stroke="#000"><path d="M17.748 35.596v5.786M19.748 37.102v6.28"/><path d="M22.748 38.596v5.786" opacity=".5" stroke-linecap="round" stroke-linejoin="round"/><path d="M26.748 39.596v5.786" opacity=".2" stroke-linecap="round" stroke-linejoin="round"/></g><g stroke="#000"><path d="M9.748 24.596v4.786M11.748 25.596v5.786"/><path d="M14.748 26.596v5.786" opacity=".5" stroke-linecap="round" stroke-linejoin="round"/><path d="M18.748 28.596v4.786M36.748 26.596v4.786M38.748 25.596v4.786" opacity=".2" stroke-linecap="round" stroke-linejoin="round"/></g><path d="M16 33v5.2c0 4.333 7.585 7.8 17 7.8s17-3.467 17-7.8V33" stroke="#6F7172"/><path d="M16 33.002C17.05 36.808 24.205 40 32.934 40 42.386 40 50 36.255 50 32.02c0-2.264-2.799-4.86-7.76-6.02" stroke="#000"/><path d="M8 21v5.2c0 4.333 7.585 7.8 17 7.8s17-3.467 17-7.8V21c0 4.271-7.585 8.048-17 8.048S8 25.27 8 21z" stroke="#6F7172"/><path d="M25 29c-9.415 0-17-3.904-17-8.32S15.585 13 25 13s17 3.264 17 7.68S34.415 29 25 29z" stroke="#000" stroke-width="1.5" fill="#FFF"/><path d="M24.5 16C17.577 16 12 18.44 12 21.2c0 2.76 5.577 4.8 12.5 4.8S37 23.96 37 21.2" stroke="#000" opacity=".3" stroke-linecap="round" stroke-linejoin="round"/></g><circle fill="#FFF" cx="42" cy="41" r="10"/><path d="M40.85 42.585c.607 0 1.166-.151 1.677-.455.511-.303.915-.71 1.212-1.221.298-.511.446-1.07.446-1.676 0-.607-.148-1.165-.446-1.677a3.296 3.296 0 0 0-1.212-1.212 3.276 3.276 0 0 0-1.677-.446c-.606 0-1.165.149-1.676.446a3.365 3.365 0 0 0-1.221 1.212 3.227 3.227 0 0 0-.455 1.677c0 .606.152 1.165.455 1.676.303.511.71.918 1.221 1.221.511.304 1.07.455 1.676.455zm4.459 0L49 46.277 47.877 47.4l-3.692-3.71v-.588l-.214-.196a4.41 4.41 0 0 1-1.435.847 4.905 4.905 0 0 1-1.686.294c-.88 0-1.69-.214-2.434-.642a4.762 4.762 0 0 1-1.756-1.73 4.74 4.74 0 0 1-.66-2.442c0-.88.217-1.691.65-2.435a4.767 4.767 0 0 1 1.766-1.756 4.792 4.792 0 0 1 2.434-.642c.88 0 1.695.22 2.444.66a4.713 4.713 0 0 1 1.72 1.747c.422.737.633 1.546.633 2.426 0 .594-.098 1.162-.294 1.703a4.41 4.41 0 0 1-.847 1.435l.196.214h.607z" fill="#00E7E2" opacity=".75"/></g></svg>