<svg width="60" height="60" viewBox="0 0 60 60" xmlns="http://www.w3.org/2000/svg"><title>Icon_view_groups@1x</title><g fill="none" fill-rule="evenodd"><circle fill="#F2F6F7" cx="30" cy="30" r="30"/><path d="M26.281 36.594v-2.06a.965.965 0 0 0-.253-.18l-.289-.145a.176.176 0 0 1-.09-.036 1.181 1.181 0 0 0-.127-.072L18.26 30.09a2.443 2.443 0 0 1-.831-.777 2.13 2.13 0 0 1-.362-1.066 2.11 2.11 0 0 1 .163-1.12c.157-.361.391-.662.705-.903.987-.771 1.662-1.873 2.023-3.307.361-1.433.542-2.607.542-3.522v-4.878c0-.844-.632-1.807-1.897-2.891C17.338 10.542 15.863 10 14.177 10c-1.638 0-3.114.542-4.427 1.626-1.312 1.084-1.969 2.047-1.969 2.89v4.879c0 .915.217 2.09.65 3.522.434 1.434 1.145 2.536 2.132 3.307.29.24.512.542.669.903.157.361.21.735.163 1.12a2.13 2.13 0 0 1-.362 1.066 2.133 2.133 0 0 1-.83.74l-7.48 4.084a.16.16 0 0 0-.073.018.283.283 0 0 0-.072.054 1.001 1.001 0 0 0-.307.145l-.271.18v2.06h24.281z" fill="#FFF"/><path d="M11 30c.766 1.137 1.95 1.705 3.553 1.705 2.405 0 3.356-1.162 3.554-1.705" stroke="#000" opacity=".2" stroke-linecap="round" stroke-linejoin="round"/><path d="M20.58 31.371l-2.32-1.281a2.443 2.443 0 0 1-.831-.777 2.13 2.13 0 0 1-.362-1.066 2.11 2.11 0 0 1 .163-1.12c.157-.361.391-.662.705-.903.987-.771 1.662-1.873 2.023-3.307.361-1.433.542-2.607.542-3.522v-4.878c0-.844-.632-1.807-1.897-2.891C17.338 10.542 15.863 10 14.177 10c-1.638 0-3.114.542-4.427 1.626-1.312 1.084-1.969 2.047-1.969 2.89v4.879c0 .915.217 2.09.65 3.522.434 1.434 1.145 2.536 2.132 3.307.29.24.512.542.669.903.157.361.21.735.163 1.12a2.13 2.13 0 0 1-.362 1.066 2.133 2.133 0 0 1-.83.74l-7.48 4.084a.16.16 0 0 0-.073.018.283.283 0 0 0-.072.054 1.001 1.001 0 0 0-.307.145l-.271.18v2.06" stroke="#000" opacity=".5" stroke-linecap="round" stroke-linejoin="round"/><path d="M58.281 36.594v-2.06a.965.965 0 0 0-.253-.18l-.289-.145a.176.176 0 0 1-.09-.036 1.181 1.181 0 0 0-.127-.072L50.26 30.09a2.443 2.443 0 0 1-.831-.777 2.13 2.13 0 0 1-.362-1.066 2.11 2.11 0 0 1 .163-1.12c.157-.361.391-.662.705-.903.987-.771 1.662-1.873 2.023-3.307.361-1.433.542-2.607.542-3.522v-4.878c0-.844-.632-1.807-1.897-2.891C49.338 10.542 47.863 10 46.177 10c-1.638 0-3.114.542-4.427 1.626-1.312 1.084-1.969 2.047-1.969 2.89v4.879c0 .915.217 2.09.65 3.522.434 1.434 1.145 2.536 2.132 3.307.29.24.512.542.669.903.157.361.21.735.163 1.12a2.13 2.13 0 0 1-.362 1.066 2.133 2.133 0 0 1-.83.74l-7.48 4.084a.16.16 0 0 0-.073.018.283.283 0 0 0-.072.054 1.001 1.001 0 0 0-.307.145l-.271.18v2.06h24.281z" fill="#FFF"/><path d="M43 30c.766 1.137 1.95 1.705 3.553 1.705 2.405 0 3.356-1.162 3.554-1.705" stroke="#000" opacity=".2" stroke-linecap="round" stroke-linejoin="round"/><path d="M58.281 36.594v-2.06a.965.965 0 0 0-.253-.18l-.289-.145a.176.176 0 0 1-.09-.036 1.181 1.181 0 0 0-.127-.072L50.26 30.09a2.443 2.443 0 0 1-.831-.777 2.13 2.13 0 0 1-.362-1.066 2.11 2.11 0 0 1 .163-1.12c.157-.361.391-.662.705-.903.987-.771 1.662-1.873 2.023-3.307.361-1.433.542-2.607.542-3.522v-4.878c0-.844-.632-1.807-1.897-2.891C49.338 10.542 47.863 10 46.177 10c-1.638 0-3.114.542-4.427 1.626-1.312 1.084-1.969 2.047-1.969 2.89v4.879c0 .915.217 2.09.65 3.522.434 1.434 1.145 2.536 2.132 3.307.29.24.512.542.669.903.157.361.21.735.163 1.12a2.13 2.13 0 0 1-.362 1.066 2.133 2.133 0 0 1-.83.74c-.795.434-1.39.76-1.788.976l-.973.532" stroke="#000" opacity=".5" stroke-linecap="round" stroke-linejoin="round"/><g><path d="M42.281 47.594v-2.06a.965.965 0 0 0-.253-.18l-.289-.145a.176.176 0 0 1-.09-.036 1.181 1.181 0 0 0-.127-.072L34.26 41.09a2.443 2.443 0 0 1-.831-.777 2.13 2.13 0 0 1-.362-1.066 2.11 2.11 0 0 1 .163-1.12c.157-.361.391-.662.705-.903.987-.771 1.662-1.873 2.023-3.307.361-1.433.542-2.607.542-3.522v-4.878c0-.844-.632-1.807-1.897-2.891C33.338 21.542 31.863 21 30.177 21c-1.638 0-3.114.542-4.427 1.626-1.312 1.084-1.969 2.047-1.969 2.89v4.879c0 .915.217 2.09.65 3.522.434 1.434 1.145 2.536 2.132 3.307.29.24.512.542.669.903.157.361.21.735.163 1.12a2.13 2.13 0 0 1-.362 1.066 2.133 2.133 0 0 1-.83.74l-7.48 4.084a.16.16 0 0 0-.073.018.283.283 0 0 0-.072.054 1.001 1.001 0 0 0-.307.145l-.271.18v2.06h24.281z" fill="#FFF"/><path d="M27.05 40.928c.766 1.137 1.95 1.706 3.553 1.706 2.405 0 3.355-1.162 3.554-1.706" stroke="#000" stroke-linecap="round" stroke-linejoin="round"/><path d="M42.281 47.594v-2.06a.965.965 0 0 0-.253-.18l-.289-.145a.176.176 0 0 1-.09-.036 1.181 1.181 0 0 0-.127-.072L34.26 41.09a2.443 2.443 0 0 1-.831-.777 2.13 2.13 0 0 1-.362-1.066 2.11 2.11 0 0 1 .163-1.12c.157-.361.391-.662.705-.903.987-.771 1.662-1.873 2.023-3.307.361-1.433.542-2.607.542-3.522v-4.878c0-.844-.632-1.807-1.897-2.891C33.338 21.542 31.863 21 30.177 21c-1.638 0-3.114.542-4.427 1.626-1.312 1.084-1.969 2.047-1.969 2.89v4.879c0 .915.217 2.09.65 3.522.434 1.434 1.145 2.536 2.132 3.307.29.24.512.542.669.903.157.361.21.735.163 1.12a2.13 2.13 0 0 1-.362 1.066 2.133 2.133 0 0 1-.83.74l-7.48 4.084a.16.16 0 0 0-.073.018.283.283 0 0 0-.072.054 1.001 1.001 0 0 0-.307.145l-.271.18v2.06" stroke="#000" stroke-width="1.4" stroke-linecap="round" stroke-linejoin="round"/></g><circle stroke="#00E7E2" fill="#FFF" stroke-linecap="round" stroke-linejoin="round" cx="40.5" cy="46.5" r="5.5"/></g></svg>