<svg width="1129" height="792" viewBox="0 0 1129 792" xmlns="http://www.w3.org/2000/svg"><defs><linearGradient x1="58.303%" y1="29.305%" x2="-20.356%" y2="89.584%" id="a"><stop stop-color="#E9F2F4" offset="0%"/><stop stop-color="#FFF" offset="100%"/></linearGradient><linearGradient x1="50%" y1="125.887%" x2="50%" y2="27.419%" id="b"><stop stop-color="#E9F2F4" offset="0%"/><stop stop-color="#FFF" offset="100%"/></linearGradient><linearGradient x1="38.76%" y1="40.284%" x2="27.198%" y2="4.898%" id="c"><stop stop-color="#E9F2F4" offset="0%"/><stop stop-color="#FFF" offset="100%"/></linearGradient></defs><g fill="none" fill-rule="evenodd" opacity=".7"><path d="M474.223 64.24c-.503 0-231.685 73.873-231.685 275.905 0 202.033 223.146 300.029 387.48 300.029 89.383 0 162.808-26.013 211.24-49.744 6.242-28.642 28.943-96.473 104.047-96.981 13.393-.523 25.958 1.99 36.517 8.021 50.256 27.144 17.59 77.898 17.59 77.898 1.894-.307 3.809-.663 5.724-1.075 1.91-.413 3.83-.89 5.764-1.408 60.404-16.268 128.467-85.36 116.661-201.057-9.463-92.774-95.09-151.58-136.743-174.94-13.64-7.648-22.566-11.513-22.566-11.513 1.508-9.423 1.995-16.71 1.995-22.309 0-1.05-.02-2.035-.05-2.96v-10.86C751.617 20.65 566.645.223 475.414.223c-39.412 0-61.5 3.704-61.5 3.704l60.309 60.313zm461.86 125.638s-29.652-9.55-59.8-13.57c-15.083 15.58-28.15 22.113-32.17 24.129-.503.497-1.005 1-1.005 1-87.95-18.595-119.612-63.827-119.612-63.827 82.93-.497 157.812 19.098 212.587 52.268z" fill="url(#a)" opacity=".779"/><path d="M1018.002 315.017c0 65.842-27.134 126.647-73.375 175.899l-2.197 2.528 3.704-.01c12.564-.508 25.129 2.005 35.688 8.036 50.256 27.144 17.59 77.898 17.59 77.898 62.82-10.051 140.719-80.406 128.15-203.54-9.464-92.774-95.092-151.58-136.744-174.94 17.901 35.357 27.184 74.19 27.184 114.13" fill="url(#b)" opacity=".374"/><path d="M.808 545.696c0 8.152.317 15.911.769 23.495 62.198 119.616 137.015 224.115 222.588 310.653 106.72 107.685 230.9 187.578 369.166 237.539 137.764-49.785 261.949-129.854 369.182-238.057 31.792-32.144 62.112-66.887 90.915-104.012-229.272-16.479-215.346-155.74-215.346-155.74 0-5.524 0-11.057 1.005-16.585 0 0 .508-4.89 2.176-12.564-48.432 23.736-121.857 49.749-211.244 49.749-164.335 0-387.48-97.996-387.48-300.029 0-202.032 231.181-275.905 231.181-275.905l-.12-.035c-5.86-.452-12.143-.472-17.973-.472C202.836 72.784.808 284.863.808 545.696" fill="url(#c)" opacity=".557"/></g></svg>