<svg width="60" height="60" viewBox="0 0 60 60" xmlns="http://www.w3.org/2000/svg"><title>Icon_New_Payment@1x</title><g fill="none" fill-rule="evenodd"><circle fill="#F2F6F7" cx="30" cy="30" r="30"/><path d="M41.188 16c.49 0 .915.18 1.274.538.359.359.538.784.538 1.275v25.375c0 .49-.18.915-.538 1.274a1.742 1.742 0 0 1-1.275.538H15.814c-.491 0-.916-.18-1.275-.538A1.742 1.742 0 0 1 14 43.187V17.814c0-.491.18-.916.538-1.275A1.742 1.742 0 0 1 15.812 16h25.376z" stroke="#000" stroke-width="1.5" fill="#FFF"/><path d="M40 26.423v14.14c0 .389-.142.726-.427 1.01a1.381 1.381 0 0 1-1.01.427H18.436c-.389 0-.726-.142-1.01-.427a1.381 1.381 0 0 1-.427-1.01V20.436c0-.389.142-.726.427-1.01a1.381 1.381 0 0 1 1.01-.427h11.171" stroke="#000" opacity=".3" stroke-linecap="round" stroke-linejoin="round"/><path d="M20.75 25.75a.741.741 0 0 1-.527-.21A.71.71 0 0 1 20 25a.72.72 0 0 1 .223-.527.72.72 0 0 1 .527-.223h1.5v-1.5a.72.72 0 0 1 .223-.527A.72.72 0 0 1 23 22a.72.72 0 0 1 .527.223.72.72 0 0 1 .223.527v1.5h1.5a.72.72 0 0 1 .527.223A.72.72 0 0 1 26 25a.71.71 0 0 1-.223.54.741.741 0 0 1-.527.21h-1.5v1.5a.71.71 0 0 1-.223.54A.741.741 0 0 1 23 28a.741.741 0 0 1-.527-.21.71.71 0 0 1-.223-.54v-1.5h-1.5zM25.756 33.22a.776.776 0 0 1 .244.564.699.699 0 0 1-.244.538l-1.658 1.666 1.658 1.665a.776.776 0 0 1 .244.563.699.699 0 0 1-.244.54.706.706 0 0 1-.549.244.706.706 0 0 1-.548-.245L23 37.115l-1.659 1.64a.706.706 0 0 1-.548.245.706.706 0 0 1-.55-.245.699.699 0 0 1-.243-.539c0-.212.081-.4.244-.563l1.658-1.665-1.658-1.666a.699.699 0 0 1-.244-.538c0-.213.081-.4.244-.564a.743.743 0 0 1 .549-.22c.22 0 .402.073.548.22L23 34.886l1.659-1.666a.743.743 0 0 1 .548-.22c.22 0 .403.073.55.22zM31.75 25.875c-.203 0-.379-.088-.527-.264-.149-.175-.223-.4-.223-.674 0-.253.074-.473.223-.659.148-.185.324-.278.527-.278h4.5c.203 0 .379.093.527.278.149.186.223.406.223.66 0 .273-.074.498-.223.673-.148.176-.324.264-.527.264h-4.5zM31.75 34.875c-.203 0-.379-.088-.527-.264-.149-.175-.223-.4-.223-.673 0-.254.074-.474.223-.66.148-.185.324-.278.527-.278h4.5c.203 0 .379.093.527.278.149.186.223.406.223.66 0 .273-.074.498-.223.673-.148.176-.324.264-.527.264h-4.5zM31.75 37.875c-.203 0-.379-.088-.527-.264-.149-.175-.223-.4-.223-.673 0-.254.074-.474.223-.66.148-.185.324-.278.527-.278h4.5c.203 0 .379.093.527.278.149.186.223.406.223.66 0 .273-.074.498-.223.673-.148.176-.324.264-.527.264h-4.5z" fill="#7F7F7F" opacity=".8"/><circle fill="#FFF" cx="42" cy="41" r="10"/><path d="M48.4 40.4c.163 0 .303.06.422.178.119.119.178.26.178.422 0 .163-.06.303-.178.422a.577.577 0 0 1-.422.178h-5.8v5.8c0 .163-.06.303-.178.422A.577.577 0 0 1 42 48a.577.577 0 0 1-.422-.178.577.577 0 0 1-.178-.422v-5.8h-5.8a.577.577 0 0 1-.422-.178A.577.577 0 0 1 35 41c0-.163.06-.303.178-.422a.577.577 0 0 1 .422-.178h5.8v-5.8c0-.163.06-.303.178-.422A.577.577 0 0 1 42 34c.163 0 .303.06.422.178.119.119.178.26.178.422v5.8h5.8z" stroke="#00E7E2" stroke-width=".5" fill="#00E7E2"/></g></svg>