<svg width="60" height="60" viewBox="0 0 60 60" xmlns="http://www.w3.org/2000/svg"><title>Icon_Vote</title><g fill="none" fill-rule="evenodd"><circle fill="#F2F6F7" cx="30" cy="30" r="30"/><path d="M31.283 32.568c-1.232-.1-2.333.387-4.9-.376C23.815 31.43 21.47 31 18.563 31c-.43 0-.946.01-1.547.032a14.95 14.95 0 0 0-1.74.161 6.36 6.36 0 0 0-1.462.387c-.415.172-.658.408-.73.71a.808.808 0 0 0 .172.665l.236.3a.704.704 0 0 1 .01.527.615.615 0 0 1-.354.376c-.014 0-.25.115-.709.344-.458.23-.694.53-.709.902-.014.258.036.455.15.591.115.136.173.211.173.226.1.143.132.308.096.494a.737.737 0 0 1-.268.451l-.44.365c-.294.244-.441.545-.441.903.014.3.15.544.408.73.258.186.394.28.408.28a.836.836 0 0 1 .344.472.802.802 0 0 1-.129.559l-.172.333c-.114.222-.172.469-.172.74.015.56.233.889.656.99.422.1.698.15.827.15h3.749c.666 0 1.239-.004 1.719-.011l.72-.011a.68.68 0 0 1 .343.086c.1.057.18.136.236.236a.507.507 0 0 1 .119.301.824.824 0 0 1-.054.344 12.433 12.433 0 0 0-.44 1.611 15.072 15.072 0 0 0-.258 1.73 9.552 9.552 0 0 0-.022 1.557c.036.473.133.838.29 1.096.1.158.194.3.28.43.085.129.3.193.644.193.043 0 .115-.036.215-.107.1-.072.215-.251.344-.538.573-1.375 1.206-2.603 1.901-3.684.695-1.081 1.418-1.998 2.17-2.75s1.507-1.343 2.267-1.773c.759-.43 3.49-.68 4.191-.752.129-.272.28-.708.451-1.31.172-.602.258-1.425.258-2.47 0-1.06-.125-1.974-.376-2.74-.25-.766-.462-1.286-.634-1.558z" fill="#FFF"/><path d="M19.406 43.358l-.029-.042h-.01l-.72.01c-.483.008-1.059.011-1.728.011h-3.75c-.197 0-.502-.055-.976-.167-.738-.175-1.134-.773-1.156-1.621 0-.374.082-.723.245-1.04l.208-.395a.153.153 0 0 0 .024-.055c.004-.02.005-.031.015.01-.005-.009-.013-.026-.023-.04a.153.153 0 0 0-.017-.019c-.032-.01-.038-.018-.048-.031l-.104-.069c-.074-.05-.176-.123-.31-.219a1.581 1.581 0 0 1-.677-1.257c0-.556.236-1.038.676-1.403l.449-.373c.021-.017.03-.03.036-.066l.003-.008-.111-.158v-.024c.006.035.024.06.074.125a7.124 7.124 0 0 0-.093-.113c-.234-.278-.325-.636-.303-1.035.024-.636.414-1.132 1.068-1.458.231-.116.407-.203.528-.262l.149-.07c.014-.012.02-.017.066-.028a.22.22 0 0 0 .004-.012l-.151-.192a1.475 1.475 0 0 1-.293-1.218c.126-.53.522-.915 1.114-1.16a6.998 6.998 0 0 1 1.61-.428 15.6 15.6 0 0 1 1.816-.168 44.892 44.892 0 0 1 1.57-.033c2.8 0 5.18.38 8.006 1.22 1.362.404 2.165.461 3.478.374.518-.035.682-.043.946-.04.117.002.231.007.344.017l.323.026.174.274c.208.33.435.888.702 1.703.273.836.408 1.817.408 2.941 0 1.101-.092 1.981-.283 2.65-.18.632-.341 1.098-.489 1.41l-.156.33-.365.038c-.333.033-.58.058-.855.089-.437.048-.845.099-1.228.155-.933.136-1.618.293-1.854.427-.706.4-1.415.954-2.127 1.667-.718.717-1.412 1.597-2.083 2.641-.673 1.048-1.29 2.243-1.856 3.6-.173.386-.336.641-.558.8-.209.148-.368.228-.593.228-.542 0-.944-.12-1.185-.483a24.62 24.62 0 0 1-.293-.451c-.219-.358-.341-.819-.384-1.386-.039-.51-.03-1.064.022-1.664.053-.59.142-1.192.27-1.804.127-.615.281-1.18.467-1.707a.217.217 0 0 0 .013-.047z" stroke="#7F7F7F" stroke-width="1.3" stroke-linecap="round" stroke-linejoin="round"/><path d="M27.01 26.682c1.232.1 2.333-.387 4.9.376 2.568.762 4.913 1.192 7.82 1.192.43 0 .946-.01 1.547-.032a14.95 14.95 0 0 0 1.74-.161 6.36 6.36 0 0 0 1.462-.387c.415-.172.658-.408.73-.71a.808.808 0 0 0-.172-.665l-.236-.3a.704.704 0 0 1-.011-.527.615.615 0 0 1 .355-.376c.014 0 .25-.115.709-.344.458-.23.694-.53.709-.902.014-.258-.036-.455-.15-.591-.115-.136-.173-.211-.173-.226a.622.622 0 0 1-.096-.494.737.737 0 0 1 .268-.451l.44-.365c.294-.244.441-.545.441-.903a.92.92 0 0 0-.408-.73c-.258-.186-.394-.28-.408-.28a.836.836 0 0 1-.344-.472.802.802 0 0 1 .129-.559l.172-.333c.114-.222.171-.469.171-.74-.014-.56-.232-.889-.655-.99-.422-.1-.698-.15-.827-.15h-3.749c-.666 0-1.239.004-1.719.011l-.72.011a.68.68 0 0 1-.343-.086.624.624 0 0 1-.237-.236.507.507 0 0 1-.118-.301.824.824 0 0 1 .054-.344c.172-.487.319-1.024.44-1.611.122-.587.208-1.164.258-1.73.05-.565.058-1.085.022-1.557-.036-.473-.133-.838-.29-1.096-.1-.158-.194-.3-.28-.43-.086-.129-.3-.193-.644-.193-.043 0-.115.036-.215.107-.1.072-.215.251-.344.538-.573 1.375-1.206 2.603-1.901 3.684-.695 1.081-1.418 1.998-2.17 2.75s-1.507 1.343-2.267 1.773c-.759.43-3.49.68-4.191.752-.129.272-.28.708-.451 1.31-.172.602-.258 1.425-.258 2.47 0 1.06.125 1.974.376 2.74.25.766.462 1.286.634 1.558z" fill="#FFF"/><path d="M38.887 15.892l.029.042h.01l.72-.01c.483-.008 1.059-.011 1.728-.011h3.749c.198 0 .503.055.977.167.738.175 1.134.773 1.155 1.621 0 .374-.08.723-.244 1.04l-.208.395a.153.153 0 0 0-.024.055c-.004.02-.005.031-.015-.01.005.009.013.026.023.04l.017.019c.032.01.038.018.048.031l.104.069c.074.05.176.123.31.219.415.3.652.725.677 1.257 0 .556-.236 1.038-.676 1.403l-.449.373c-.021.017-.03.03-.036.066l-.003.008.111.158v.024c-.006-.035-.024-.06-.074-.125l.093.113c.234.278.325.636.303 1.035-.024.636-.414 1.132-1.068 1.458a52.33 52.33 0 0 1-.528.262l-.149.07c-.014.012-.02.017-.066.028a.22.22 0 0 0-.004.012l.151.192c.271.345.376.754.293 1.218-.126.53-.522.915-1.114 1.16a6.998 6.998 0 0 1-1.61.428 15.6 15.6 0 0 1-1.816.168c-.61.022-1.132.033-1.57.033-2.8 0-5.18-.38-8.006-1.22-1.362-.404-2.165-.461-3.478-.374-.518.035-.682.043-.946.04a5.077 5.077 0 0 1-.344-.017l-.323-.026-.174-.274c-.208-.33-.435-.888-.702-1.703-.273-.836-.408-1.817-.408-2.941 0-1.101.092-1.981.283-2.65.18-.632.341-1.098.489-1.41l.156-.33.365-.038c.333-.033.58-.058.855-.089.437-.048.845-.099 1.228-.155.933-.136 1.618-.293 1.854-.427.705-.4 1.415-.954 2.127-1.667.718-.717 1.412-1.597 2.083-2.641.673-1.048 1.29-2.243 1.856-3.6.173-.386.336-.641.558-.8.209-.148.368-.228.593-.228.541 0 .944.12 1.185.483.089.133.184.28.293.451.219.358.34.819.384 1.386.039.51.03 1.064-.022 1.664a15.722 15.722 0 0 1-.27 1.804c-.127.615-.281 1.18-.467 1.707a.217.217 0 0 0-.013.047z" stroke="#000" stroke-width="1.3" stroke-linecap="round" stroke-linejoin="round"/><circle fill="#FFF" cx="41" cy="42" r="10"/><path d="M47.4 41.4c.163 0 .303.06.422.178.119.119.178.26.178.422 0 .163-.06.303-.178.422a.577.577 0 0 1-.422.178h-5.8v5.8c0 .163-.06.303-.178.422A.577.577 0 0 1 41 49a.577.577 0 0 1-.422-.178.577.577 0 0 1-.178-.422v-5.8h-5.8a.577.577 0 0 1-.422-.178A.577.577 0 0 1 34 42c0-.163.06-.303.178-.422a.577.577 0 0 1 .422-.178h5.8v-5.8c0-.163.06-.303.178-.422A.577.577 0 0 1 41 35c.163 0 .303.06.422.178.119.119.178.26.178.422v5.8h5.8z" stroke="#00E7E2" stroke-width=".5" fill="#00E7E2"/></g></svg>