<svg width="56" height="56" fill="none" xmlns="http://www.w3.org/2000/svg"><rect width="56" height="56" rx="16" fill="url(#paint0_linear)"/><path fill-rule="evenodd" clip-rule="evenodd" d="M33.494 19.331l4.522-4.522.69.689-4.523 4.523-.69-.69zm-17.198-3.835l.69-.689 4.523 4.523-.69.689-4.523-4.523zm-4.5 26.054l2.55-2.55.654.655-2.55 2.55a1.854 1.854 0 1 1-.654-.655zm-1.831 1.57a.915.915 0 1 0 1.83 0 .915.915 0 0 0-1.83 0zm6.329-6.102l4.522-4.523.69.69-4.523 4.522-.69-.689zm17.202-3.837l.69-.689 4.522 4.523-.69.69-4.522-4.523zm9.06-25.251c.324-.57.926-.924 1.58-.93a1.838 1.838 0 0 1 1.75 1.208 1.85 1.85 0 0 1-.552 2.06c-.6.5-1.449.564-2.117.161L40.657 13 40 12.34l2.56-2.57a1.853 1.853 0 0 1-.005-1.84zm.66.916c0 .51.412.923.92.923a.921.921 0 0 0 .919-.923.921.921 0 0 0-.92-.923.921.921 0 0 0-.918.923zM11.778 10.43a1.837 1.837 0 0 1-.92.262 1.848 1.848 0 0 1-.943-3.44 1.838 1.838 0 0 1 2.226.286 1.85 1.85 0 0 1 .295 2.231L15 12.34l-.658.66-2.564-2.57zm0-1.584a.922.922 0 1 0-.92.923c.508 0 .92-.413.92-.923zM43.222 41.57c.279-.167.596-.258.92-.262.836-.008 1.57.55 1.792 1.356a1.848 1.848 0 0 1-.848 2.085 1.837 1.837 0 0 1-2.227-.287 1.85 1.85 0 0 1-.295-2.231L40 39.66l.658-.66 2.564 2.57zm0 1.584a.922.922 0 1 0 1.841 0 .922.922 0 0 0-1.841 0zM34.93 21.958h-.158L28 20l-6.772 1.958h-.159v8.957L28 33l6.93-2.085v-8.957zm-6.93-.94l3.465 1.003L28 23.03l-3.465-1.009L28 21.018zm-5.94 9.172L28 31.977l5.94-1.787v-7.86L28 24.053l-5.94-1.723v7.86z" fill="#fff"/><path fill="#fff" d="M40 26h3v1h-3zm-4 0h3v1h-3zm8 0h1v1h-1zm-32 0h3v1h-3zm4 0h3v1h-3zm-6 0h1v1h-1z"/><defs><linearGradient id="paint0_linear" x1="7.785" y1="35.791" x2="48.227" y2="76.221" gradientUnits="userSpaceOnUse"><stop stop-color="#75AFF8"/><stop offset="1" stop-color="#5D21D4"/></linearGradient></defs></svg>