<svg width="306" height="153" fill="none" xmlns="http://www.w3.org/2000/svg"><path d="M0 4a4 4 0 0 1 4-4h298a4 4 0 0 1 4 4v149H0V4z" fill="url(#paint0_linear)"/><path d="M105 82.996v28.002l24.25 14.004V96.997L105 82.996zm16.167 28.002l-8.085-4.666v-9.335l8.085 4.666v9.335zM153.498 28l-24.499 14.146 24.499 14.146 24.499-14.146L153.498 28zm-8.336 14.146l8.336-4.812 8.332 4.812-8.332 4.812-8.336-4.812z" fill="#fff"/><path d="M128.999 51.48l-15.916 9.19v17.662l8.084 4.664V65.334l15.913-9.188-8.081-4.666z" fill="url(#paint1_linear)"/><path d="M177.748 96.997v28.005l24.251-14.004V82.996l-24.251 14zm16.169 9.337l-8.085 4.665v-9.335l8.085-4.665v9.335z" fill="#fff"/><path d="M178.001 51.48l15.915 9.19v17.662l-8.084 4.664V65.334l-15.914-9.188 8.083-4.666z" fill="url(#paint2_linear)"/><defs><linearGradient id="paint0_linear" x1="16.393" y1="17.759" x2="116.673" y2="246.682" gradientUnits="userSpaceOnUse"><stop stop-color="#72BBFF"/><stop offset="1" stop-color="#7270FF"/></linearGradient><linearGradient id="paint1_linear" x1="13.668" y1="-17" x2="153.544" y2="48.676" gradientUnits="userSpaceOnUse"><stop stop-color="#fff"/><stop offset="1" stop-color="#72BCFF"/></linearGradient><linearGradient id="paint2_linear" x1="70.5" y1="-17" x2="210.379" y2="48.681" gradientUnits="userSpaceOnUse"><stop stop-color="#fff"/><stop offset="1" stop-color="#72BCFF"/></linearGradient></defs></svg>