<svg width="56" height="56" fill="none" xmlns="http://www.w3.org/2000/svg"><path fill="url(#paint0_linear)" d="M0 0h56v56H0z"/><path d="M41.797 8H15.205c-.979 0-1.772.794-1.772 1.773v35.454c0 .979.794 1.773 1.772 1.773h26.592c.979 0 1.772-.794 1.772-1.773V9.773c0-.979-.793-1.773-1.773-1.773zm-1.774 3.545v5.318H16.978v-5.318h23.045zm-23.045 31.91V20.408h23.045v23.045H16.978v.002z" fill="url(#paint1_linear)"/><path d="M23.316 21.977h-3.68a.887.887 0 0 0-.886.886v3.682c0 .49.398.886.886.886h3.68c.49 0 .887-.397.887-.886v-3.682a.884.884 0 0 0-.887-.886z" fill="#fff" fill-opacity=".9"/><g filter="url(#filter0_f)"><path d="M23.316 21.977h-3.68a.887.887 0 0 0-.886.886v3.682c0 .49.398.886.886.886h3.68c.49 0 .887-.397.887-.886v-3.682a.884.884 0 0 0-.887-.886z" fill="#fff" fill-opacity=".5"/></g><path d="M30.34 21.977h-3.68a.887.887 0 0 0-.886.886v3.682c0 .49.397.886.886.886h3.68c.49 0 .886-.397.886-.886v-3.682a.885.885 0 0 0-.886-.886z" fill="#fff" fill-opacity=".8"/><path d="M37.364 21.977h-3.68a.886.886 0 0 0-.886.886v3.682c0 .49.397.886.886.886h3.68c.49 0 .886-.397.886-.886v-3.682a.885.885 0 0 0-.886-.886z" fill="#fff" fill-opacity=".7"/><path d="M23.316 29.205h-3.68a.886.886 0 0 0-.886.885v3.683c0 .49.398.885.886.885h3.68c.49 0 .887-.397.887-.885V30.09a.883.883 0 0 0-.887-.885z" fill="#fff" fill-opacity=".8"/><path d="M30.34 29.205h-3.68a.886.886 0 0 0-.886.885v3.683c0 .49.397.885.886.885h3.68c.49 0 .886-.397.886-.885V30.09a.884.884 0 0 0-.886-.885z" fill="#fff" fill-opacity=".7"/><path d="M23.316 36.433h-3.68a.886.886 0 0 0-.886.884V41c0 .491.398.886.886.886h3.68c.49 0 .887-.397.887-.886v-3.683a.883.883 0 0 0-.887-.884z" fill="#fff" fill-opacity=".6"/><path d="M30.34 36.433h-3.68a.886.886 0 0 0-.886.884V41c0 .491.397.886.886.886h3.68c.49 0 .886-.397.886-.886v-3.683a.884.884 0 0 0-.886-.884z" fill="#fff" fill-opacity=".4"/><path d="M37.364 29.205h-3.68a.885.885 0 0 0-.886.885V41c0 .491.397.886.886.886h3.68c.49 0 .886-.397.886-.886V30.09a.885.885 0 0 0-.886-.885z" fill="#fff" fill-opacity=".2"/><g filter="url(#filter1_f)"><path d="M41.797 8H15.205c-.979 0-1.772.794-1.772 1.773v35.454c0 .979.794 1.773 1.772 1.773h26.592c.979 0 1.772-.794 1.772-1.773V9.773c0-.979-.793-1.773-1.773-1.773zm-1.774 3.545v5.318H16.978v-5.318h23.045zm-23.045 31.91V20.408h23.045v23.045H16.978v.002z" fill="url(#paint2_linear)" fill-opacity=".4"/></g><defs><filter id="filter0_f" x="16.75" y="19.977" width="9.453" height="9.455" filterUnits="userSpaceOnUse" color-interpolation-filters="sRGB"><feFlood flood-opacity="0" result="BackgroundImageFix"/><feBlend in="SourceGraphic" in2="BackgroundImageFix" result="shape"/><feGaussianBlur stdDeviation="1" result="effect1_foregroundBlur"/></filter><filter id="filter1_f" x="9.433" y="4" width="38.136" height="47" filterUnits="userSpaceOnUse" color-interpolation-filters="sRGB"><feFlood flood-opacity="0" result="BackgroundImageFix"/><feBlend in="SourceGraphic" in2="BackgroundImageFix" result="shape"/><feGaussianBlur stdDeviation="2" result="effect1_foregroundBlur"/></filter><linearGradient id="paint0_linear" x1="61.121" y1="16.527" x2="18.835" y2="-21.143" gradientUnits="userSpaceOnUse"><stop stop-color="#46C4E6"/><stop offset="1" stop-color="#4A80E4"/></linearGradient><linearGradient id="paint1_linear" x1="28.501" y1="8" x2="66" y2="76" gradientUnits="userSpaceOnUse"><stop stop-color="#fff"/><stop offset="1" stop-color="#fff" stop-opacity="0"/></linearGradient><linearGradient id="paint2_linear" x1="15" y1="8" x2="49.5" y2="59.5" gradientUnits="userSpaceOnUse"><stop stop-color="#fff"/><stop offset="1" stop-color="#fff" stop-opacity="0"/></linearGradient></defs></svg>