<svg width="56" height="56" fill="none" xmlns="http://www.w3.org/2000/svg"><g clip-path="url(#clip0)"><path fill="url(#paint0_linear)" d="M0 0h56v56H0z"/><path d="M23 37.571c0 1.14.938 2.072 2.083 2.072h10.803L34.5 46.22a2.31 2.31 0 0 0 .635 2.133L36.792 50l10.291-10.233A3.09 3.09 0 0 0 48 37.571V24.107A3.112 3.112 0 0 0 44.875 21H30.812a3.11 3.11 0 0 0-2.875 1.895L23.22 33.853a3.11 3.11 0 0 0-.219 1.13v2.588z" fill="url(#paint1_linear)"/><g filter="url(#filter0_d)"><path d="M33 18.429c0-1.14-.938-2.072-2.083-2.072H20.115L21.5 9.78a2.31 2.31 0 0 0-.635-2.134L19.208 6 8.917 16.233A3.09 3.09 0 0 0 8 18.429v13.464A3.112 3.112 0 0 0 11.125 35h14.063a3.11 3.11 0 0 0 2.875-1.895l4.718-10.958a3.11 3.11 0 0 0 .219-1.13V18.43z" fill="#fff"/></g></g><defs><filter id="filter0_d" x="4" y="-2" width="33" height="37" filterUnits="userSpaceOnUse" color-interpolation-filters="sRGB"><feFlood flood-opacity="0" result="BackgroundImageFix"/><feColorMatrix in="SourceAlpha" values="0 0 0 0 0 0 0 0 0 0 0 0 0 0 0 0 0 0 127 0"/><feOffset dy="-4"/><feGaussianBlur stdDeviation="2"/><feColorMatrix values="0 0 0 0 1 0 0 0 0 1 0 0 0 0 1 0 0 0 0.25 0"/><feBlend in2="BackgroundImageFix" result="effect1_dropShadow"/><feBlend in="SourceGraphic" in2="effect1_dropShadow" result="shape"/></filter><linearGradient id="paint0_linear" x1="0" y1="-9.338" x2="47" y2="56" gradientUnits="userSpaceOnUse"><stop stop-color="#A8ED2F"/><stop offset="1" stop-color="#68DFB1"/></linearGradient><linearGradient id="paint1_linear" x1="43" y1="35" x2="26.385" y2="19.514" gradientUnits="userSpaceOnUse"><stop stop-color="#fff"/><stop offset=".971" stop-color="#fff" stop-opacity="0"/></linearGradient><clipPath id="clip0"><path fill="#fff" d="M0 0h56v56H0z"/></clipPath></defs></svg>