<svg width="24" height="24" fill="none" xmlns="http://www.w3.org/2000/svg"><path fill="url(#paint0_linear)" d="M0 0h24v24H0z"/><path d="M9.857 16.102c0 .488.402.888.893.888h4.63l-.594 2.818a.99.99 0 0 0 .272.914l.71.707 4.41-4.386c.242-.24.393-.572.393-.941v-5.77c0-.737-.598-1.332-1.339-1.332h-6.027c-.553 0-1.03.333-1.232.812L9.951 14.51c-.058.15-.094.31-.094.483v1.11z" fill="#fff" fill-opacity=".6"/><path d="M14.143 7.898a.893.893 0 0 0-.893-.888H8.62l.594-2.818a.99.99 0 0 0-.272-.914l-.71-.707-4.41 4.386c-.242.24-.393.573-.393.941v5.77c0 .737.598 1.332 1.339 1.332h6.027c.553 0 1.03-.333 1.232-.812l2.022-4.696c.058-.151.094-.311.094-.484v-1.11z" fill="#fff"/><defs><linearGradient id="paint0_linear" x1="0" y1="-4.002" x2="20.143" y2="24" gradientUnits="userSpaceOnUse"><stop stop-color="#A8ED2F"/><stop offset="1" stop-color="#68DFB1"/></linearGradient></defs></svg>