<?xml version="1.0" encoding="utf-8"?>
<!-- Generator: Adobe Illustrator 17.0.0, SVG Export Plug-In . SVG Version: 6.00 Build 0)  -->
<svg version="1.2" baseProfile="tiny" id="Layer_1" xmlns="http://www.w3.org/2000/svg" xmlns:xlink="http://www.w3.org/1999/xlink"
	 x="0px" y="0px" width="480px" height="480px" viewBox="0 0 480 480" xml:space="preserve">
<g>
	<path fill="#292A29" d="M444.667,256.417c-2.583,3.667-13.932,15.115-19.398,20.942c-2.433-0.16-2.268,2.156-3.234,3.395
		c-15.089,14.271-30.319,28.397-45.233,42.849c-20.759,20.116-42.431,39.363-60.405,62.186c-2.48,3.15-5.544,4.379-9.554,4.193
		c-4.815-0.224-9.653-0.033-14.479,0.091c-29.46,0.759-58.911,1.108-87.717-6.522c-13.545-3.588-25.944-9.629-34.899-20.829
		c-5.887-7.362-10.137-15.392-3.006-24.669c1.305-1.698,0.828-3.834-1.698-4.056c-8.199-0.719-15.788-3.716-23.541-6.064
		c-14.323-4.338-27.929-10.263-40.908-17.827c-6.398-3.729-10.916-10.31-18.705-11.88c-2.878-0.58-5.608-1.896-8.405-2.877
		c-1.278-0.846-2.3-2.134-3.971-2.303c-9.562-5.886-15.618-13.391-21.771-23.945c-1.922-3.297-3.075-15.298-0.864-18.08
		c4.451-5.602,9.756-6.379,15.799-6.857c0.745,0.887,1.559,0.44,2.366,0.121c12.061,1.603,23.886,2.264,33.285-7.722
		c1.004-1.067,2.309-2.026,3.663-2.555c3.798-1.482,4.546-4.356,4.42-8.011c-0.132-3.821-0.071-7.678,1.122-11.385
		c1.484-4.611,3.541-5.147,8.234-4.52c10.578,1.413,21.451,5.848,31.59-1.724c0.924-0.69,1.944-1.373,3.027-1.711
		c6.663-2.079,9.148-7.514,11.522-13.396c5.085-12.602,9.927-25.31,16.243-37.397c6.218-11.9,19.125-12.246,24.326-2.276
		c0.486,0.931,1.049,2.167,3.168,1.865c0.894-5.107,1.788-10.412,2.758-15.703c1.043-5.686,0.814-11.508,3.08-17.087
		c5.515-13.577,17.57-17.74,29.789-9.676c3.027,1.997,5.88,4.438,8.292,7.14c2.924,3.275,4.552,2.492,6.912-0.649
		c3.287-4.373,6.925-8.537,10.808-12.393c3.627-3.602,7.472-6.814,13.282-6.962c8.869-0.227,15.308,3.749,20.361,10.428
		c6.7,8.855,9.879,19.43,13.908,29.576c2.089,5.259,4.133,10.536,6.231,15.892c2.531-1.292,3.09-3.171,4.259-4.531
		c2.819-3.28,5.644-6.274,10.513-6.767c6.971-0.706,12.769,6.28,14.78,12.625c2.768,8.732,4.512,17.7,5.712,26.768
		c1.616,12.21,7.338,21.04,19.59,25.012c5.502,1.784,10.852,4.087,16.156,6.419c11.217,4.931,22.358,10.035,33.53,15.068
		c0.759,0.631,1.293,1.636,2.508,1.511c5.135,3.97,11.14,6.803,15.484,11.819C446.75,247.583,447.25,252.083,444.667,256.417z
		 M58.048,254.603c-3.245-1.315-4.07,1.572-4.771,3.334c-0.814,2.047-0.795,4.609,2.368,5.31c0.329,0.328,0.658,0.656,0.987,0.984
		c0.068,5.101,3.303,8.197,7.56,9.388c7.814,2.187,15.664,4.837,23.939,4.446c4.23-0.2,5.15,1.941,4.257,5.191
		c-2.086,7.595,1.955,11.526,7.77,15.232c19.337,12.323,40.369,20.445,62.551,25.685c18.794,4.44,37.558,4.508,56.241-1.189
		c13.705-4.179,26.548-10.382,39.627-16.046c7.06-3.057,14.195-5.871,21.998-6.139c6.966-0.239,11.486,3.602,14.735,9.362
		c3.098,5.494,2.088,10.699-1.463,15.423c-5.355,7.124-12.324,12.482-20.258,16.379c-20.988,10.308-43.343,13.502-66.467,11.836
		c-9.711-0.7-19.079-2.952-27.462-8.273c-1.871-1.188-3.704-3.658-6.09-1.459c-2.122,1.955-1.396,4.638-0.461,7.03
		c2.735,6.999,8.171,12.095,14.221,15.559c8.76,5.017,18.44,8.231,28.561,10.097c19.871,3.663,39.804,2.908,59.784,1.812
		c3.306-0.181,4.894-1.425,5.53-4.973c2.798-15.611,10.855-28.028,23.521-37.581c10.055-7.583,19.637-15.724,28.02-25.191
		c14.115-15.941,26.217-33.033,31.346-54.171c1.103-4.548,0.325-5.513-4.085-5.316c-19.971,0.893-39.941,1.858-59.921,2.486
		c-3.9,0.123-5.858,1.36-6.595,5.092c-1.295,6.561-3.763,12.715-6.592,18.764c-5.696,12.179-18.156,19.642-31.351,17.239
		c-26.448-4.816-46.319-17.808-53.235-45.641c-0.539-2.17-1.774-3.429-4.043-3.832c-2.25-0.4-3.212,0.919-4.394,2.47
		c-3.507,4.599-6.97,9.201-11.431,13.037c-13.738,11.814-30.105,13.7-47.276,13.368c-11.717-0.227-25.776-12.269-26.979-24.07
		c-0.262-2.566-0.316-5.679-2.799-7.763c-3.199,1.358-5.93,3.159-8.373,5.408c-5.703,5.252-11.81,9.088-20.16,6.966
		c-1.505-0.383-3.373-1.791-5.082-0.129C67.208,253.98,62.638,253.148,58.048,254.603z M306.16,183.817
		c4.501-1.442,8.98-3.564,11.496-7.374c2.056-3.112-2.023-6.241-2.546-9.604c-0.152-0.98-0.399-1.954-0.701-2.899
		c-0.964-3.023-2.823-3.496-5.272-1.65c-2.235,1.685-4.377,3.492-6.561,5.246c-1.846-0.15-3.535,0.147-5.306,0.903
		c-9.88,4.217-20.315,6.268-30.942,7.351c-17.329,1.767-34.55,0.587-51.701-2.161c-2.852-0.457-5.255-0.221-6.02,3.38
		c-0.667,3.142-2.617,5.692-4.625,8.145c-0.775-2.542-1.676-5.054-2.3-7.633c-1.611-6.653-2.867-13.458-6.661-19.302
		c-2.738-4.218-5.604-4.086-8.293,0.036c-8.023,12.297-11.362,26.685-17.67,39.761c-2.491,5.164-4.806,10.159-9.962,13.239
		c-1.686,1.007-3.028,2.492-3.494,4.566c0.996,1.625,2.565,1.383,4.017,1.532c8.595,0.885,17.186,1.813,25.781,2.697
		c14.551,1.496,28.886,4.507,43.465,5.916c11.742,1.135,23.358,3.559,35.097,4.733c10.594,1.06,20.946,4.59,31.611,4.043
		c21.937-1.125,43.839-2.93,65.76-4.393c2.426-0.162,4.018-1.133,3.679-3.6c-0.927-6.747-1.507-13.424-6.998-18.798
		c-5.206-5.095-8.852-11.323-9.876-19.024c-1.391-10.463-3.299-20.861-6.945-30.883c-0.794-2.182-2.098-3.225-3.725-4.067
		c-1.828-0.946-2.995,0.6-4.218,1.783c-5.207,5.037-6.913,12.01-10.194,18.115c-2.112,3.931-1.614,6.096,2.894,7.906
		c6.976,2.801,7.758,7.324,2.954,13.324c-3.348,4.182-7.234,7.781-11.633,10.861c-14.303,10.015-30.736,13.48-47.624,14.592
		c-19.464,1.281-38.986,0.78-58.346-1.934c-8.218-1.152-16.538-2.497-23.962-6.568c-3.872-2.124-8.671-4.35-8.191-9.641
		c0.464-5.121,4.666-7.544,9.32-9.324c4.134-1.581,8.728-0.218,12.65-2.465c0.872,0.899,2.003,1.123,3.183,1.239
		c11.43,1.126,22.784,2.862,34.247,3.809c16.26,1.343,32.276,0.448,48.068-3.57C293.514,190.348,300.363,188.268,306.16,183.817z
		 M403.736,230.908c-9.524-5.443-19.92-8.732-29.899-12.787c-1.681,2.034-0.957,3.599-0.591,5.201
		c1.227,5.361,2.216,10.831,1.917,16.295c-0.848,15.473-4.774,30.16-12.194,43.85c-12.826,23.664-31.195,42.413-52.198,58.796
		c-9.288,7.245-16.292,15.968-19.779,27.424c-3.369,11.065-1.662,13.12,9.88,11.063c4.884,1.506,8.561,0.268,11.568-4.124
		c2.52-3.681,5.697-6.932,8.734-10.234c23.206-25.23,48.786-48.035,73.409-71.82c13.73-13.262,28.101-25.882,40.455-40.533
		c2.394-2.839,2.394-4.85-0.565-7.002C425.014,240.155,414.85,234.629,403.736,230.908z M214.248,347.053
		c4.568,0.707,8.78-1.428,13.309-1.502c13.845-0.227,27.152-3.118,39.7-9.185c8.015-3.875,15.657-8.201,21.073-15.581
		c2.286-3.115,2.27-6.037-0.248-9.073c-3.618-4.362-7.981-5.212-15.905-2.03c-11.259,4.522-22.303,9.576-33.561,14.1
		c-10.547,4.238-21.143,8.32-32.639,9.553c-5.472,0.587-10.923,1.049-16.414,1.294c-2.188,0.098-4.654,0.931-5.018,3.317
		c-0.372,2.44,2.19,2.923,3.968,3.788C196.65,345.691,205.521,346.033,214.248,347.053z M262.055,250.576
		c-9.555-2.789-18.498-2.852-27.291-3.811c-2.282-0.249-3.802,1.146-2.16,3.873c1.951,3.24,3.644,6.64,6.511,9.231
		c6.108,5.519,13.128,8.141,22.058,7.329C257.774,261.314,257.255,256.081,262.055,250.576z M145.653,233.695
		c-0.004,0.035-0.008,0.07-0.011,0.104c-1.652-0.168-3.305-0.323-4.955-0.507c-1.141-0.127-2.366-0.534-3.172,0.679
		c-0.847,1.276-0.428,2.529,0.253,3.742c4.568,8.127,11.55,12.51,20.772,13.493c2.286,0.244,3.703-0.998,2.397-2.739
		c-2.453-3.269-1.48-6.381-0.135-9.235c1.416-3.004,0.623-3.865-2.277-4.141C154.229,234.681,149.943,234.166,145.653,233.695z
		 M272.755,264.428c5.002-2.016,7.106-5.923,5.583-10.74c-0.826-2.611-2.541-3.114-5.495-2.136
		C274.248,256.025,273.561,260.288,272.755,264.428z M173.394,248.399c2.172-2.599,3.984-5.123,3.718-8.273
		c-0.136-1.608-1.261-3.571-4.621-2.388C175.359,240.988,169.867,244.424,173.394,248.399z"/>
	<path fill="#FD611D" d="M425.605,230.613c-11.172-5.033-22.313-10.137-33.53-15.068c-5.303-2.331-10.654-4.635-16.156-6.419
		c-12.253-3.973-17.974-12.803-19.59-25.012c-1.201-9.069-2.944-18.036-5.712-26.768c-2.011-6.345-7.809-13.331-14.78-12.625
		c-4.869,0.493-7.694,3.487-10.513,6.767c-1.169,1.36-1.728,3.239-4.259,4.531c-2.099-5.357-4.142-10.633-6.231-15.892
		c-4.029-10.145-7.208-20.721-13.908-29.576c-5.053-6.678-11.492-10.655-20.361-10.428c-5.81,0.149-9.655,3.361-13.282,6.962
		c-3.883,3.856-7.521,8.019-10.808,12.393c-2.361,3.141-3.988,3.924-6.912,0.649c-2.412-2.702-5.265-5.143-8.292-7.14
		c-12.22-8.064-24.274-3.901-29.789,9.676c-2.266,5.579-2.037,11.401-3.08,17.087c-0.97,5.291-1.864,10.595-2.758,15.703
		c-2.12,0.302-2.683-0.934-3.168-1.865c-5.201-9.97-18.108-9.624-24.326,2.276c-6.316,12.087-11.158,24.796-16.243,37.397
		c-2.374,5.883-4.859,11.317-11.522,13.396c-1.084,0.338-2.103,1.02-3.027,1.711c-10.139,7.572-21.012,3.137-31.59,1.724
		c-4.692-0.627-6.749-0.091-8.234,4.52c-1.193,3.707-1.254,7.564-1.122,11.385c0.126,3.655-0.621,6.528-4.42,8.011
		c-1.353,0.528-2.659,1.488-3.663,2.555c-9.399,9.986-21.224,9.325-33.281,7.722c0.08-1.496,0.293-2.999,0.21-4.485
		c-1.062-18.987,3.188-37.261,8.791-55.053c3.732-11.849,9.307-23.143,15.703-34.028c14.316-24.359,33.294-44.089,56.758-59.573
		c11.593-7.65,23.924-13.859,37.109-18.504c7.038-2.48,14.083-4.538,21.356-6.147c7.915-1.751,15.792-3.989,23.866-4.347
		c23.606-1.049,46.91-0.005,69.795,7.49c11.68,3.825,22.872,8.423,33.764,13.868c10.101,5.05,19.247,11.662,28.032,18.754
		c19.106,15.424,34.284,34.026,45.574,55.844c6.171,11.926,10.882,24.293,14.46,37.301
		C423.666,207.041,425.503,218.639,425.605,230.613z"/>
	<path fill="#E2B371" d="M71.778,254.728c1.709-1.662,3.576-0.254,5.082,0.129c8.35,2.122,14.457-1.714,20.16-6.966
		c2.442-2.249,5.174-4.05,8.373-5.408c2.483,2.085,2.537,5.198,2.799,7.763c1.203,11.801,15.262,23.843,26.979,24.07
		c17.171,0.332,33.538-1.554,47.276-13.368c4.461-3.836,7.924-8.438,11.431-13.037c1.182-1.55,2.144-2.869,4.394-2.47
		c2.269,0.403,3.504,1.663,4.043,3.832c6.916,27.833,26.787,40.824,53.235,45.641c13.194,2.403,25.655-5.06,31.351-17.239
		c2.829-6.049,5.297-12.203,6.592-18.764c0.737-3.732,2.695-4.969,6.595-5.092c19.98-0.629,39.95-1.593,59.921-2.486
		c4.41-0.197,5.188,0.768,4.085,5.316c-5.129,21.139-17.231,38.231-31.346,54.171c-8.383,9.467-17.964,17.607-28.02,25.191
		c-12.666,9.552-20.723,21.97-23.521,37.581c-0.636,3.548-2.225,4.792-5.53,4.973c-19.981,1.096-39.913,1.851-59.784-1.812
		c-10.12-1.865-19.8-5.08-28.561-10.097c-6.05-3.465-11.486-8.56-14.221-15.559c-0.935-2.392-1.661-5.074,0.461-7.03
		c2.386-2.199,4.219,0.272,6.09,1.459c8.383,5.321,17.751,7.573,27.462,8.273c23.124,1.666,45.479-1.528,66.467-11.836
		c7.934-3.897,14.903-9.255,20.258-16.379c3.552-4.724,4.562-9.93,1.463-15.423c-3.249-5.76-7.769-9.601-14.735-9.362
		c-7.803,0.267-14.938,3.081-21.998,6.139c-13.079,5.664-25.922,11.866-39.627,16.046c-18.683,5.697-37.446,5.63-56.241,1.189
		c-22.182-5.241-43.214-13.363-62.551-25.685c-5.815-3.706-9.857-7.638-7.77-15.232c0.893-3.25-0.027-5.391-4.257-5.191
		c-8.274,0.391-16.125-2.259-23.939-4.446c-4.256-1.191-7.492-4.287-7.558-9.387c4.922-3.985,10.777-5.63,16.719-5.982
		C73.726,256.081,71.849,255.96,71.778,254.728z"/>
	<path fill="#FD611D" d="M291.666,419.406c-0.6,0.113-1.199,0.227-1.799,0.34c-2.785-1.009-5.637-0.962-8.323,0.087
		c-7.538,2.946-15.607,3.048-23.401,3.667c-16.763,1.331-33.417-0.059-49.952-3.874c-12.447-2.872-24.641-6.263-36.271-11.466
		c-18.92-8.464-36.097-19.619-51.152-33.959c-17.507-16.675-31.187-36.088-40.764-58.227c-2.837-6.559-6.996-12.929-6.52-20.627
		c2.797,0.98,5.527,2.296,8.405,2.877c7.789,1.571,12.308,8.152,18.705,11.88c12.979,7.564,26.586,13.489,40.908,17.827
		c7.752,2.348,15.341,5.345,23.541,6.064c2.526,0.222,3.003,2.358,1.698,4.056c-7.131,9.276-2.88,17.307,3.006,24.669
		c8.955,11.2,21.354,17.241,34.899,20.829c28.806,7.63,58.257,7.281,87.717,6.522c4.825-0.124,9.664-0.315,14.479-0.091
		c4.01,0.187,7.074-1.043,9.554-4.193c17.974-22.823,39.646-42.069,60.405-62.186c14.914-14.452,30.144-28.578,45.229-42.843
		c0.113,8.474-3.385,16.167-5.957,23.881c-4.208,12.618-10.196,24.592-17.554,35.76c-13.278,20.151-29.591,37.391-49.47,51.185
		c-13.926,9.663-28.897,17.103-44.98,22.562C299.911,415.559,295.15,416.168,291.666,419.406z"/>
	<path fill="#E2B371" d="M201.119,190.626c-3.922,2.248-8.516,0.884-12.65,2.465c-4.655,1.78-8.856,4.204-9.32,9.324
		c-0.48,5.292,4.319,7.518,8.191,9.641c7.424,4.072,15.744,5.416,23.962,6.568c19.359,2.714,38.882,3.215,58.346,1.934
		c16.888-1.112,33.321-4.576,47.624-14.592c4.4-3.081,8.285-6.68,11.633-10.861c4.804-6.001,4.022-10.524-2.954-13.324
		c-4.508-1.81-5.006-3.975-2.894-7.906c3.281-6.105,4.986-13.078,10.194-18.115c1.223-1.183,2.39-2.729,4.218-1.783
		c1.628,0.842,2.932,1.886,3.725,4.067c3.646,10.022,5.554,20.421,6.945,30.883c1.024,7.701,4.67,13.929,9.876,19.024
		c5.491,5.374,6.071,12.05,6.998,18.798c0.339,2.467-1.253,3.439-3.679,3.6c-21.921,1.463-43.823,3.268-65.76,4.393
		c-10.665,0.547-21.017-2.983-31.611-4.043c-11.74-1.174-23.355-3.598-35.097-4.733c-14.578-1.409-28.914-4.42-43.465-5.916
		c-8.595-0.884-17.186-1.812-25.781-2.697c-1.452-0.149-3.021,0.093-4.017-1.532c0.466-2.074,1.808-3.559,3.494-4.566
		c5.156-3.081,7.471-8.076,9.962-13.239c6.308-13.076,9.647-27.463,17.67-39.761c2.689-4.122,5.555-4.254,8.293-0.036
		c3.794,5.844,5.05,12.649,6.661,19.302c0.624,2.579,1.525,5.09,2.302,7.611C203.031,186.95,202.075,188.788,201.119,190.626z"/>
	<path fill="#006EB6" d="M300.871,380.75c-11.543,2.057-13.249,0.002-9.88-11.063c3.488-11.456,10.491-20.178,19.779-27.424
		c21.003-16.383,39.372-35.132,52.198-58.796c7.42-13.69,11.347-28.377,12.194-43.85c0.299-5.464-0.69-10.934-1.917-16.295
		c-0.367-1.602-1.09-3.167,0.591-5.201c9.979,4.055,20.375,7.344,29.899,12.788c-1.408,5.449-1.738,11.077-2.994,16.578
		c-3.349,14.667-9.346,28.174-18.2,40.158c-13.92,18.843-31.839,33.822-49.402,49.093c-7.52,6.538-15.426,12.652-22.241,19.976
		C304.594,363.489,300.08,371.014,300.871,380.75z"/>
	<path fill="#00BBE8" d="M300.871,380.75c-0.791-9.736,3.723-17.261,10.027-24.036c6.815-7.324,14.721-13.437,22.241-19.976
		c17.563-15.271,35.482-30.25,49.402-49.093c8.853-11.984,14.851-25.491,18.2-40.158c1.256-5.502,1.587-11.13,2.994-16.578
		c11.114,3.721,21.278,9.247,30.737,16.127c2.96,2.153,2.959,4.164,0.565,7.002c-12.353,14.651-26.725,27.271-40.455,40.533
		c-24.623,23.784-50.203,46.589-73.409,71.82c-3.037,3.302-6.214,6.554-8.734,10.234
		C309.432,381.018,305.755,382.255,300.871,380.75z"/>
	<path fill="#00BBE8" d="M201.119,190.626c0.956-1.838,1.912-3.676,2.866-5.493c2.006-2.432,3.955-4.982,4.623-8.124
		c0.765-3.601,3.169-3.837,6.02-3.38c17.15,2.748,34.372,3.928,51.701,2.161c10.627-1.083,21.062-3.134,30.942-7.351
		c1.771-0.756,3.46-1.053,5.306-0.903c-0.22,5.738,1.664,11.014,3.583,16.281c-5.797,4.451-12.645,6.531-19.544,8.286
		c-15.791,4.018-31.808,4.914-48.068,3.57c-11.463-0.947-22.817-2.683-34.247-3.809
		C203.122,191.748,201.991,191.524,201.119,190.626z"/>
	<path fill="#FEFDFD" d="M214.248,347.053c-8.727-1.02-17.597-1.361-25.734-5.319c-1.778-0.865-4.34-1.348-3.968-3.788
		c0.363-2.386,2.83-3.219,5.018-3.317c5.491-0.245,10.942-0.708,16.414-1.294c11.495-1.233,22.092-5.315,32.639-9.553
		c11.258-4.524,22.303-9.578,33.561-14.1c7.923-3.182,12.286-2.333,15.905,2.03c2.518,3.036,2.535,5.958,0.248,9.073
		c-5.416,7.38-13.057,11.706-21.073,15.581c-12.549,6.067-25.855,8.958-39.7,9.185C223.028,345.625,218.816,347.76,214.248,347.053z
		"/>
	<path fill="#FEB493" d="M425.605,230.613c-0.102-11.973-1.94-23.572-5.14-35.209c-3.578-13.008-8.289-25.375-14.46-37.301
		c-11.29-21.818-26.468-40.42-45.574-55.844c-8.786-7.092-17.931-13.704-28.032-18.754c-10.892-5.445-22.084-10.043-33.764-13.868
		c-22.885-7.495-46.189-8.538-69.795-7.49c-8.074,0.359-15.951,2.597-23.866,4.347c-7.274,1.609-14.318,3.667-21.356,6.147
		c-13.185,4.645-25.516,10.854-37.109,18.504c-23.464,15.484-42.442,35.213-56.758,59.573
		c-6.397,10.885-11.972,22.179-15.703,34.028c-5.604,17.792-9.853,36.067-8.791,55.053c0.083,1.486-0.13,2.989-0.21,4.485
		c-0.811,0.32-1.625,0.767-2.37-0.12c0.436-9.803-0.074-19.766,1.55-29.368c2.005-11.861,4.657-23.77,9.205-34.991
		c5.63-13.894,12.112-27.349,20.708-39.81c11.226-16.273,24.364-30.605,39.864-42.81c12.966-10.211,27.073-18.752,42.42-24.572
		c17.031-6.458,34.659-10.844,53.054-12.512c13.546-1.228,26.838-0.748,40.254,0.45c7.962,0.711,15.555,2.849,23.202,4.938
		c6.366,1.739,12.699,3.442,18.867,5.897c10.125,4.028,19.886,8.73,29.129,14.455c14.879,9.216,28.453,20.088,40.137,33.163
		c12.957,14.498,23.758,30.388,31.776,48.234c3.783,8.42,7.201,16.957,9.506,25.793c3.331,12.766,7.018,25.6,5.765,39.093
		C426.898,232.249,426.365,231.244,425.605,230.613z"/>
	<path fill="#FEB493" d="M73.484,295.348c-0.476,7.698,3.683,14.068,6.52,20.627c9.577,22.14,23.257,41.552,40.764,58.227
		c15.055,14.34,32.232,25.495,51.152,33.959c11.63,5.203,23.823,8.594,36.271,11.466c16.536,3.815,33.19,5.204,49.952,3.874
		c7.794-0.619,15.863-0.721,23.401-3.667c2.687-1.05,5.538-1.097,8.323-0.087c-2.552,2.322-5.613,2.96-8.987,3.493
		c-14.046,2.22-28.173,1.911-42.307,2.2c-10.229,0.209-20.455-0.624-30.237-2.749c-13.97-3.034-27.62-7.733-40.678-13.843
		c-18.487-8.649-35.066-20.232-49.604-34.363c-14.159-13.763-25.852-29.577-34.927-47.307c-5.043-9.852-9.044-20.08-13.069-30.33
		c-0.467-1.189-1.269-2.412-0.547-3.805C71.184,293.214,72.206,294.502,73.484,295.348z"/>
	<path fill="#FEB493" d="M291.666,419.406c3.484-3.238,8.245-3.848,12.403-5.259c16.082-5.46,31.054-12.899,44.98-22.562
		c19.879-13.794,36.193-31.034,49.47-51.185c7.358-11.168,13.346-23.142,17.554-35.76c2.573-7.713,6.07-15.406,5.957-23.881
		c0.97-1.244,0.805-3.56,3.238-3.4c1.273,4.899-1.419,9.28-2.362,13.749c-1.68,7.959-4.623,15.762-7.928,23.237
		c-3.453,7.811-7.704,15.305-12.042,22.682c-13.415,22.813-31.455,41.368-53.061,56.508c-14.113,9.889-29.292,17.931-45.661,23.176
		C300.382,417.939,296.487,421.847,291.666,419.406z"/>
	<path fill="#FEFDFD" d="M262.055,250.576c-4.799,5.505-4.281,10.738-0.881,16.621c-8.931,0.812-15.95-1.81-22.058-7.329
		c-2.867-2.591-4.56-5.991-6.511-9.231c-1.642-2.727-0.122-4.122,2.16-3.873C243.556,247.724,252.499,247.788,262.055,250.576z"/>
	<path fill="#FEFDFD" d="M145.653,233.695c4.29,0.47,8.576,0.985,12.872,1.395c2.9,0.277,3.692,1.138,2.277,4.141
		c-1.345,2.854-2.317,5.966,0.135,9.235c1.307,1.741-0.111,2.982-2.397,2.739c-9.222-0.982-16.205-5.365-20.772-13.493
		c-0.681-1.213-1.101-2.465-0.253-3.742c0.805-1.213,2.03-0.806,3.172-0.679c1.65,0.184,3.303,0.34,4.955,0.507
		C145.645,233.765,145.649,233.73,145.653,233.695z"/>
	<path fill="#006EB6" d="M306.16,183.817c-1.919-5.268-3.802-10.543-3.583-16.281c2.183-1.753,4.325-3.561,6.56-5.246
		c2.449-1.846,4.308-1.373,5.272,1.65c0.302,0.945,0.549,1.919,0.701,2.899c0.523,3.363,4.602,6.492,2.546,9.604
		C315.139,180.253,310.661,182.375,306.16,183.817z"/>
	<path fill="#FEFDFD" d="M71.778,254.728c0.071,1.231,1.948,1.352,1.575,3.521c-5.942,0.352-11.798,1.997-16.719,5.982
		c-0.331-0.329-0.66-0.657-0.988-0.983c-1.015-3.385,0.113-6.176,2.402-8.645C62.638,253.148,67.208,253.98,71.778,254.728z"/>
	<path fill="#FEFDFD" d="M272.755,264.428c0.806-4.14,1.493-8.402,0.088-12.876c2.954-0.977,4.669-0.475,5.495,2.136
		C279.861,258.505,277.757,262.412,272.755,264.428z"/>
	<path fill="#FEFDFD" d="M173.394,248.399c-3.527-3.975,1.965-7.411-0.903-10.661c3.36-1.183,4.486,0.78,4.621,2.388
		C177.378,243.276,175.566,245.8,173.394,248.399z"/>
	<path fill="#E2B371" d="M58.048,254.603c-2.288,2.469-3.417,5.26-2.402,8.645c-3.165-0.702-3.183-3.264-2.369-5.311
		C53.977,256.175,54.803,253.289,58.048,254.603z"/>
</g>
</svg>
