<svg width="56" height="56" fill="none" xmlns="http://www.w3.org/2000/svg"><rect width="56" height="56" rx="16" fill="url(#paint0_linear)"/><g filter="url(#filter0_d)"><path fill-rule="evenodd" clip-rule="evenodd" d="M42.267 37.277a.075.075 0 0 0-.03.005.06.06 0 0 0-.014.009c-.457.734-1.34 1.405-2.256 2.103-.663.505-1.346 1.024-1.87 1.576-.68.716-.708.927-.821 1.805l-.014.105c-.046.36-.221.676-.474.9a1.417 1.417 0 0 1-.944.362l-.063-.002a1.42 1.42 0 0 1-.973-.447 1.453 1.453 0 0 1-.393-1.064c.099-2.257.372-2.619 1.772-4.403l-5.406.013v.002a.315.315 0 0 1-.044-.003c-.46-.022-.778-.185-.995-.404-.321-.323-.403-.756-.403-1.045 0-.012 0-.023.002-.035.005-.265.06-.579.255-.86.046-.066.099-.13.16-.19-1.369-.23-1.37-1.262-1.37-1.505 0-.452.172-.83.454-1.104a1.68 1.68 0 0 1 .845-.434 1.485 1.485 0 0 1-.462-1.057c0-.39.156-.76.407-1.043.251-.282.6-.476.987-.515l.073-.008a1.425 1.425 0 0 1-.35-.972c.006-.317.109-.615.283-.86.175-.246.423-.44.719-.546l.142-.051v-.001a.34.34 0 0 1 .146-.02c1.388-.001 2.427-.032 3.257-.056 2.93-.085 3.303-.096 7.471 1.421a.667.667 0 0 0 .22.04l1.662.01a.675.675 0 0 1 .664.672v6.929a.673.673 0 0 1-.667.673h-1.97z" fill="#FFFFFE"/></g><g filter="url(#filter1_d)"><path fill-rule="evenodd" clip-rule="evenodd" d="M13.637 20.458a.077.077 0 0 0 .03-.006.06.06 0 0 0 .014-.008c.457-.734 1.34-1.406 2.256-2.103.664-.505 1.346-1.025 1.87-1.577.68-.716.708-.927.821-1.804l.014-.106c.046-.36.221-.675.474-.9a1.417 1.417 0 0 1 1.98.088 1.453 1.453 0 0 1 .393 1.063c-.099 2.257-.372 2.62-1.772 4.404l5.406-.014v-.001c.015 0 .03 0 .044.003.46.022.778.184.995.403.321.324.403.757.403 1.045 0 .012 0 .024-.002.036-.005.264-.06.578-.255.86a1.395 1.395 0 0 1-.16.189c1.369.23 1.37 1.262 1.37 1.505 0 .452-.172.83-.454 1.105a1.682 1.682 0 0 1-.845.434 1.485 1.485 0 0 1 .462 1.057c0 .39-.156.76-.407 1.042-.251.282-.6.477-.987.516l-.073.007a1.425 1.425 0 0 1 .35.972 1.537 1.537 0 0 1-.283.86c-.175.246-.423.44-.719.546l-.142.051v.002a.34.34 0 0 1-.146.019 110.13 110.13 0 0 0-3.257.056c-2.93.086-3.303.097-7.471-1.42a.667.667 0 0 0-.22-.04l-1.662-.01a.661.661 0 0 1-.47-.2.675.675 0 0 1-.194-.473v-6.928a.673.673 0 0 1 .667-.673h1.97z" fill="#FFFFFE"/></g><defs><filter id="filter0_d" x="24.387" y="23.501" width="24.517" height="24.641" filterUnits="userSpaceOnUse" color-interpolation-filters="sRGB"><feFlood flood-opacity="0" result="BackgroundImageFix"/><feColorMatrix in="SourceAlpha" values="0 0 0 0 0 0 0 0 0 0 0 0 0 0 0 0 0 0 127 0"/><feOffset/><feGaussianBlur stdDeviation="2"/><feColorMatrix values="0 0 0 0 1 0 0 0 0 1 0 0 0 0 1 0 0 0 0.5 0"/><feBlend in2="BackgroundImageFix" result="effect1_dropShadow"/><feBlend in="SourceGraphic" in2="effect1_dropShadow" result="shape"/></filter><filter id="filter1_d" x="7" y="9.592" width="24.517" height="24.641" filterUnits="userSpaceOnUse" color-interpolation-filters="sRGB"><feFlood flood-opacity="0" result="BackgroundImageFix"/><feColorMatrix in="SourceAlpha" values="0 0 0 0 0 0 0 0 0 0 0 0 0 0 0 0 0 0 127 0"/><feOffset/><feGaussianBlur stdDeviation="2"/><feColorMatrix values="0 0 0 0 1 0 0 0 0 1 0 0 0 0 1 0 0 0 0.5 0"/><feBlend in2="BackgroundImageFix" result="effect1_dropShadow"/><feBlend in="SourceGraphic" in2="effect1_dropShadow" result="shape"/></filter><linearGradient id="paint0_linear" x1="0" y1="-9.338" x2="-18.676" y2="46.662" gradientUnits="userSpaceOnUse"><stop stop-color="#A8ED2F"/><stop offset="1" stop-color="#68DFB1"/></linearGradient></defs></svg>