<svg width="60" height="60" viewBox="0 0 60 60" xmlns="http://www.w3.org/2000/svg"><title>Icon_Assign_Tokens@2x</title><g fill="none" fill-rule="evenodd"><circle fill="#F2F6F7" cx="30" cy="30" r="30"/><g transform="translate(5 12)" stroke="#000"><path d="M14.456 4.872l-2.301 2.471c-6.53 7.002-7.342 16.895 0 23.908 7.341 7.013 18.096 5.418 24.625-1.583" opacity=".67"/><path d="M11.4 30.553l2.702-2.702M13.4 32.553l2.702-2.702M16.072 33.881l2.03-2.03"/><circle stroke-width="1.5" fill="#FFF" cx="26.333" cy="16.667" r="16.667"/><path d="M14.43 12.334c-2.392 6.574.997 13.843 7.571 16.235 6.574 2.393 13.842-.996 16.235-7.57 2.393-6.574-.997-13.842-7.57-16.235a12.64 12.64 0 0 0-10.647.922" opacity=".5" stroke-linecap="round" stroke-linejoin="round"/><path d="M16.911 16.083a9.44 9.44 0 1 0 9.438-8.856" opacity=".2" stroke-linecap="round" stroke-linejoin="round"/></g><path d="M44.376 46.388l-2.55-1.063v-.994L43.1 41.4l.751-5.704-2.027-3.334-3.113-.534-3.01.534-2.635 2.615v4.13l1.14 3.228 1.496 1.995v.994l-6.014 2.564-.94 1.12V51.2h17.185a2 2 0 0 0 2-2c0-1.17-.809-2.184-1.95-2.445l-1.608-.368z" fill="#FFF"/><path d="M29.313 49.354v1.334H43.75V52H29.312c-.355 0-.663-.13-.922-.39-.26-.26-.39-.567-.39-.922v-1.97c0-.368.219-.68.656-.932l.657-.38 5.762-2.727a5.039 5.039 0 0 1-1.169-1.323 8.718 8.718 0 0 1-.769-1.59 8.708 8.708 0 0 1-.42-1.589 8.465 8.465 0 0 1-.123-1.302v-3.281c0-.547.17-1.094.512-1.64a5.728 5.728 0 0 1 1.354-1.477 7.437 7.437 0 0 1 1.897-1.067A5.876 5.876 0 0 1 38.5 31c.725 0 1.439.137 2.143.41a7.26 7.26 0 0 1 1.887 1.067c.553.437 1.005.93 1.353 1.476.349.547.523 1.094.523 1.64v3.282c0 .396-.04.854-.123 1.374a8.926 8.926 0 0 1-.41 1.59 7.813 7.813 0 0 1-.759 1.558 5.368 5.368 0 0 1-1.148 1.302l1.743.8-.328 1.313-1.969-.923a1.329 1.329 0 0 1-.759-1.046c-.013-.233.02-.451.103-.656.082-.206.212-.383.39-.534.71-.547 1.213-1.322 1.507-2.327.294-1.005.44-1.822.44-2.451v-3.281c0-.356-.136-.725-.41-1.108a4.831 4.831 0 0 0-1.056-1.056 6.157 6.157 0 0 0-1.466-.8 4.564 4.564 0 0 0-1.661-.318c-.56 0-1.114.106-1.661.318a6.147 6.147 0 0 0-1.477.81c-.437.329-.79.684-1.056 1.067-.266.383-.4.745-.4 1.087v3.281c0 .643.16 1.463.482 2.46.321.999.824 1.771 1.508 2.318a1.302 1.302 0 0 1 .492 1.19c-.028.219-.11.42-.246.605a1.329 1.329 0 0 1-.513.42l-5.763 2.728a1.327 1.327 0 0 0-.338.205c-.144.11-.215.294-.215.553zm21.524-.954c.163 0 .304.06.422.178.12.119.178.26.178.422 0 .163-.059.303-.178.422a.577.577 0 0 1-.422.178h-2.8v2.8c0 .163-.059.303-.178.422a.577.577 0 0 1-.422.178.577.577 0 0 1-.421-.178.577.577 0 0 1-.178-.422v-2.8h-2.8a.577.577 0 0 1-.422-.178.577.577 0 0 1-.178-.422c0-.163.059-.303.178-.422a.577.577 0 0 1 .422-.178h2.8v-2.8c0-.163.059-.303.178-.422a.577.577 0 0 1 .422-.178c.162 0 .303.06.421.178.12.119.178.26.178.422v2.8h2.8z" fill="#00E7E2"/></g></svg>