<svg width="419" height="412" viewBox="0 0 419 412" xmlns="http://www.w3.org/2000/svg"><defs><linearGradient x1="58.303%" y1="29.305%" x2="-20.356%" y2="89.584%" id="a"><stop stop-color="#E9F2F4" offset="0%"/><stop stop-color="#FFF" offset="100%"/></linearGradient><linearGradient x1="50%" y1="125.887%" x2="50%" y2="27.419%" id="b"><stop stop-color="#E9F2F4" offset="0%"/><stop stop-color="#FFF" offset="100%"/></linearGradient><linearGradient x1="38.76%" y1="40.284%" x2="27.198%" y2="4.898%" id="c"><stop stop-color="#E9F2F4" offset="0%"/><stop stop-color="#FFF" offset="100%"/></linearGradient></defs><g fill="none" fill-rule="evenodd"><path d="M175.738 24.104c-.186 0-85.818 27.261-85.818 101.817S172.575 236.64 233.447 236.64c33.107 0 60.305-9.6 78.245-18.357 2.312-10.57 10.72-35.601 38.54-35.789 4.96-.193 9.615.735 13.526 2.96 18.615 10.017 6.515 28.747 6.515 28.747a42.027 42.027 0 0 0 2.12-.397 45.162 45.162 0 0 0 2.136-.52c22.374-6.003 47.585-31.5 43.212-74.195-3.505-34.237-35.222-55.937-50.651-64.558-5.052-2.822-8.358-4.249-8.358-4.249.558-3.477.739-6.166.739-8.232 0-.388-.008-.751-.019-1.093V56.95C278.487 8.018 209.972.48 176.179.48c-14.598 0-22.78 1.367-22.78 1.367l22.34 22.257zm171.078 46.364s-10.983-3.524-22.151-5.008c-5.587 5.75-10.427 8.16-11.916 8.904l-.372.37c-32.578-6.863-44.305-23.554-44.305-23.554 30.717-.184 58.455 7.047 78.744 19.288z" fill="url(#a)" opacity=".779"/><path d="M376.171 115.704c0 24.383-10.057 46.901-27.197 65.14l-.814.936 1.373-.003c4.657-.188 9.314.742 13.228 2.975 18.628 10.052 6.52 28.848 6.52 28.848 23.285-3.722 52.158-29.776 47.5-75.376-3.508-34.356-35.247-56.133-50.686-64.784 6.636 13.093 10.076 27.474 10.076 42.264" fill="url(#b)" opacity=".374"/><path d="M.64 200.406c0 3.008.117 5.871.285 8.67 23.03 44.138 50.733 82.699 82.419 114.631 39.516 39.737 85.496 69.217 136.693 87.653 51.011-18.37 96.994-47.916 136.7-87.844 11.771-11.861 22.998-24.681 33.663-38.38-84.894-6.081-79.737-57.47-79.737-57.47 0-2.037 0-4.079.372-6.119 0 0 .188-1.804.806-4.636-17.934 8.759-45.121 18.357-78.22 18.357-60.849 0-143.474-36.16-143.474-110.71 0-74.552 85.601-101.81 85.601-101.81l-.045-.014c-2.17-.167-4.496-.174-6.654-.174C75.446 25.9.64 104.158.64 200.406" fill="url(#c)" opacity=".557"/></g></svg>