<svg width="56" height="56" fill="none" xmlns="http://www.w3.org/2000/svg"><path fill="url(#paint0_linear)" d="M0 0h56v56H0z"/><path d="M12.24 39.239c-3.327-5.869-1.063-15.071 5.82-21.956 7.818-7.816 18.625-9.679 24.144-4.161a.212.212 0 0 0 .02.022c-1.104 3.213-4.621 10.05-15.163 13.746-9.658 3.387-13.383 8.774-14.82 12.349zm26.715-17.101c-2.522 2.523-6.105 5-11.181 6.78-10.302 3.613-13.18 9.527-13.983 12.392.039.038.07.08.107.115 5.517 5.518 16.326 3.654 24.142-4.162 6.955-6.955 9.192-16.276 5.715-22.134-.837 1.951-2.292 4.5-4.8 7.008z" fill="url(#paint1_linear)"/><g filter="url(#filter0_f)"><path d="M12.24 39.239c-3.327-5.869-1.063-15.071 5.82-21.956 7.818-7.816 18.625-9.679 24.144-4.161a.212.212 0 0 0 .02.022c-1.104 3.213-4.621 10.05-15.163 13.746-9.658 3.387-13.383 8.774-14.82 12.349zm26.715-17.101c-2.522 2.523-6.105 5-11.181 6.78-10.302 3.613-13.18 9.527-13.983 12.392.039.038.07.08.107.115 5.517 5.518 16.326 3.654 24.142-4.162 6.955-6.955 9.192-16.276 5.715-22.134-.837 1.951-2.292 4.5-4.8 7.008z" fill="url(#paint2_linear)"/></g><defs><filter id="filter0_f" x="8.729" y="7.949" width="38.643" height="38.648" filterUnits="userSpaceOnUse" color-interpolation-filters="sRGB"><feFlood flood-opacity="0" result="BackgroundImageFix"/><feBlend in="SourceGraphic" in2="BackgroundImageFix" result="shape"/><feGaussianBlur stdDeviation="1" result="effect1_foregroundBlur"/></filter><linearGradient id="paint0_linear" x1="0" y1="0" x2="48.5" y2="56" gradientUnits="userSpaceOnUse"><stop stop-color="#90F7EC"/><stop offset="1" stop-color="#32CCBC"/></linearGradient><linearGradient id="paint1_linear" x1="31.5" y1="21" x2="37" y2="37" gradientUnits="userSpaceOnUse"><stop stop-color="#fff"/><stop offset="1" stop-color="#fff" stop-opacity=".67"/></linearGradient><linearGradient id="paint2_linear" x1="25" y1="12.5" x2="37" y2="37" gradientUnits="userSpaceOnUse"><stop stop-color="#fff"/><stop offset="1" stop-color="#fff" stop-opacity="0"/></linearGradient></defs></svg>