<svg width="72" height="72" viewBox="0 0 72 72" fill="none" xmlns="http://www.w3.org/2000/svg">
<rect width="72" height="72" rx="12" fill="#30D2F3"/>
<path d="M57.3165 46.0151V25.985C57.3165 24.5667 56.5598 23.2561 55.3315 22.5468L37.9851 12.5319C36.7568 11.8227 35.2433 11.8227 34.015 12.5319L16.6686 22.5469C15.4403 23.2562 14.6836 24.5667 14.6836 25.9851V46.0151C14.6836 47.4334 15.4403 48.7441 16.6686 49.4533L34.015 59.4683C35.2433 60.1775 36.7568 60.1775 37.9851 59.4683L55.3314 49.4532C56.5598 48.7441 57.3165 47.4334 57.3165 46.0151Z" fill="#0AC0E5"/>
<mask id="mask0" mask-type="alpha" maskUnits="userSpaceOnUse" x="14" y="12" width="44" height="49">
<path d="M57.3165 46.0151V25.985C57.3165 24.5667 56.5598 23.2561 55.3315 22.5468L37.9851 12.5319C36.7568 11.8227 35.2433 11.8227 34.015 12.5319L16.6686 22.5469C15.4403 23.2562 14.6836 24.5667 14.6836 25.9851V46.0151C14.6836 47.4334 15.4403 48.7441 16.6686 49.4533L34.015 59.4683C35.2433 60.1775 36.7568 60.1775 37.9851 59.4683L55.3314 49.4532C56.5598 48.7441 57.3165 47.4334 57.3165 46.0151Z" fill="#0AC0E5"/>
</mask>
<g mask="url(#mask0)">
<path d="M36 31V62L60 53.5L59 21.5L36 31Z" fill="#3CDEFF"/>
</g>
<path d="M36 36.0001L56.7847 24.0001C56.442 23.4065 55.9457 22.9015 55.3315 22.547L37.985 12.5319C36.7566 11.8227 35.2433 11.8227 34.0149 12.5319L16.6685 22.547C16.0543 22.9015 15.558 23.4065 15.2153 24.0001L36 36.0001Z" fill="#71E7FF"/>
<rect width="72" height="72" rx="12" fill="url(#paint0_linear)"/>
<path d="M23.9616 47.9805C30.5687 47.9805 35.9248 42.6249 35.9248 36.0183C35.9248 29.4117 30.5687 24.056 23.9616 24.056C17.3546 24.056 11.9985 29.4117 11.9985 36.0183C11.9985 42.6249 17.3546 47.9805 23.9616 47.9805Z" fill="white" fill-opacity="0.4" stroke="white" stroke-width="0.6"/>
<path d="M48.0378 47.9805C54.6449 47.9805 60.0009 42.6249 60.0009 36.0183C60.0009 29.4117 54.6449 24.056 48.0378 24.056C41.4308 24.056 36.0747 29.4117 36.0747 36.0183C36.0747 42.6249 41.4308 47.9805 48.0378 47.9805Z" fill="white" fill-opacity="0.4" stroke="white" stroke-width="0.6"/>
<path d="M36.0188 35.9245C42.6258 35.9245 47.9819 30.5688 47.9819 23.9623C47.9819 17.3557 42.6258 12 36.0188 12C29.4117 12 24.0557 17.3557 24.0557 23.9623C24.0557 30.5688 29.4117 35.9245 36.0188 35.9245Z" fill="white" fill-opacity="0.4" stroke="white" stroke-width="0.6"/>
<path d="M36.0188 60.0025C42.6258 60.0025 47.9819 54.6468 47.9819 48.0403C47.9819 41.4337 42.6258 36.078 36.0188 36.078C29.4117 36.078 24.0557 41.4337 24.0557 48.0403C24.0557 54.6468 29.4117 60.0025 36.0188 60.0025Z" fill="white" fill-opacity="0.4" stroke="white" stroke-width="0.6"/>
<defs>
<linearGradient id="paint0_linear" x1="-46.6151" y1="-37.5862" x2="67.771" y2="76.2482" gradientUnits="userSpaceOnUse">
<stop stop-color="#FF9372"/>
<stop offset="1" stop-color="#FFD770"/>
</linearGradient>
</defs>
</svg>
