<svg width="24" height="24" fill="none" xmlns="http://www.w3.org/2000/svg"><path fill="url(#paint0_linear)" d="M0 0h24v24H0z"/><path d="M7.987 15.993a3.988 3.988 0 1 0 0-7.975 3.988 3.988 0 0 0 0 7.975z" fill="#fff" fill-opacity=".4" stroke="#fff" stroke-width=".6"/><path d="M16.013 15.993a3.988 3.988 0 1 0 0-7.975 3.988 3.988 0 0 0 0 7.975z" fill="#fff" fill-opacity=".4" stroke="#fff" stroke-width=".6"/><path d="M12.007 11.975a3.988 3.988 0 1 0 0-7.975 3.988 3.988 0 0 0 0 7.975zM12.007 20a3.988 3.988 0 1 0 0-7.974 3.988 3.988 0 0 0 0 7.975z" fill="#fff" fill-opacity=".4" stroke="#fff" stroke-width=".6"/><defs><linearGradient id="paint0_linear" x1="-15.538" y1="-12.529" x2="22.59" y2="25.416" gradientUnits="userSpaceOnUse"><stop stop-color="#FF9372"/><stop offset="1" stop-color="#FFD770"/></linearGradient></defs></svg>