<svg width="80" height="80" xmlns="http://www.w3.org/2000/svg"><defs><linearGradient x1="9.361%" y1="8.797%" x2="50%" y2="64.682%" id="a"><stop stop-color="#314EC9" offset="0%"/><stop stop-color="#329CEF" offset="100%"/></linearGradient></defs><g fill="none" fill-rule="evenodd"><path fill="url(#a)" d="M0 0h80v80H0z"/><g fill="#FFF" fill-rule="nonzero"><path d="M22.285 46.976a1.464 1.464 0 0 0 .272 1.69l.358.358a64.004 64.004 0 0 1 3.697-4.012c.103-.103.21-.153.313-.248l-2.3-2.3c-1.337 2.418-2.117 4.07-2.34 4.512zm12.597 6.306a66.593 66.593 0 0 1-4.006 3.703l.485.485a1.46 1.46 0 0 0 1.702.266c.757-.39 1.948-.95 4.476-2.358l-2.408-2.409c-.096.104-.146.21-.25.313zm-.779-7.489c-1.057-1.056-4.028-.11-5.424 1.286-4.67 4.67-6.778 7.98-7.725 9.935a1.461 1.461 0 0 0 1.955 1.952c1.91-.928 5.18-3.027 9.906-7.751 1.534-1.536 2.292-4.418 1.289-5.42l-.001-.002zm-14.54-11.328L15.428 38.6a1.462 1.462 0 0 0 1.412 2.446c2.235-.599 4.202-.852 5.526-.513 1.884-3.349 3.908-6.432 6.052-9.233-1.24-.795-5.338-.352-8.855 3.165zm20.183 30.281a1.46 1.46 0 0 0 1.69-.272l4.136-4.135c3.202-3.202 3.765-7.334 3.039-8.644-3.124 2.354-6.288 4.342-9.24 6.006.204 1.15.068 2.266-.413 5.525a1.46 1.46 0 0 0 .788 1.52zm4.279-35.08a4.391 4.391 0 0 0 0 6.202 4.39 4.39 0 0 0 6.203 0 4.39 4.39 0 0 0 0-6.202 4.39 4.39 0 0 0-6.203 0zm20.791-13.24a1.46 1.46 0 0 0-1.348-1.348c-3.591-.27-7.168.171-10.673 1.243.264 2.409 1.51 5.015 3.636 7.142 2.152 2.152 4.83 3.397 7.281 3.63.944-3.309 1.392-6.853 1.104-10.667z"/><path d="M54.364 25.53c-2.433-2.432-3.919-5.35-4.395-8.191-8.78 3.6-17.184 11.463-23.825 22.509l3.3 3.3c2.254-.916 4.99-1.158 6.726.577 1.738 1.739 1.492 4.474.577 6.726l3.408 3.407c8.499-5.121 18.393-13.191 22.6-23.927-2.91-.44-5.919-1.928-8.391-4.4zm-2.068 12.406c-2.85 2.85-7.488 2.85-10.338 0-2.85-2.85-2.85-7.488 0-10.338 2.85-2.85 7.488-2.85 10.338 0 2.85 2.85 2.85 7.488 0 10.338z"/></g></g></svg>