<svg width="192" height="192" xmlns="http://www.w3.org/2000/svg"><defs><linearGradient x1="50%" y1="0%" x2="50%" y2="100%" id="a"><stop stop-color="#A5EC35" offset="0%"/><stop stop-color="#6ADFAC" offset="100%"/></linearGradient></defs><g fill="none" fill-rule="evenodd"><path fill="url(#a)" d="M0 0h192v192H0z"/><g transform="translate(34 101)" stroke="#FFF"><circle stroke-width="2" cx="47" cy="60" r="3"/><circle stroke-width="2" cx="114" cy="33" r="3"/><circle stroke-width="2" cx="120" cy="17" r="3"/><circle stroke-width="2" cx="121" cy="3" r="3"/><circle stroke-width="2" cx="91" cy="55" r="3"/><circle stroke-width="2" cx="70" cy="62" r="3"/><circle stroke-width="2" cx="19" cy="45" r="3"/><circle stroke-width="2" cx="7" cy="25" r="3"/><circle stroke-width="2" cx="3" cy="15" r="3"/><circle stroke-width="2" cx="48.5" cy="12.5" r="2.5"/><circle stroke-width="2" cx="48.5" cy="12.5" r="2.5"/><circle cx="39" cy="44" r="2"/><circle cx="20" cy="30" r="2"/><circle cx="62" cy="53" r="2"/><circle cx="104" cy="45" r="2"/><circle cx="92" cy="44" r="2"/><circle stroke-width="2" cx="57.5" cy="38.5" r="2.5"/><path stroke-width="2" stroke-linecap="round" d="M46 13H28.962L18 24h-7.358M46 10.826L41 6H10l-4.86 5.822"/><path stroke-linecap="round" d="M46.25 14L30.175 30H22m68 12.47L87 39v-5.236L79 25"/><path stroke-linecap="square" d="M102 43L80 18v-8"/><path stroke-width="2" stroke-linecap="round" d="M61.795 2.826v9.901l-4.235 5.941V36M55 38.5l-8 8.35V57m1.5-42v10L35.25 37.893h-7.928L22 42.94M65 3h8l18.259 21.41h11.758L111 30"/><path stroke-width="2" stroke-linecap="round" d="M80 10h14.916l5.515 6.344h15.792M65 3.5v3.105l14 18.461v17.875L88 53"/><path stroke-width="2" stroke-linecap="round" d="M69.628 58V47.226L65 39.773V28.97l4-5.315V12.5M58.772 2.826L50 10"/><path stroke-linecap="square" d="M59 42l2.795 4v5M48.5 24v10.954L41 42"/><path stroke-width="2" stroke-linecap="round" d="M118 2.826H94L88 10"/></g><g fill="#FFF"><path d="M97 26l-6.58 44L73 67.18zm.514 0L120 67.258 91 70zM97 110L73 68l17.4 2.88z"/><path d="M96.5 110L91 70.824 120 68z"/></g></g></svg>