<svg width="73" height="73" xmlns="http://www.w3.org/2000/svg"><defs><linearGradient x1="1.992%" y1="1.889%" x2="100%" y2="94.831%" id="a"><stop stop-color="#FEDFAD" offset="0%"/><stop stop-color="#F74F70" offset="100%"/></linearGradient><linearGradient x1="50%" y1="2.748%" x2="50%" y2="100%" id="b"><stop stop-color="#FDCFA6" offset="0%"/><stop stop-color="#F86379" offset="100%"/></linearGradient><linearGradient x1="50%" y1="0%" x2="50%" y2="171.224%" id="c"><stop stop-color="#FCB99D" offset="0%"/><stop stop-color="#F86078" offset="100%"/></linearGradient></defs><g fill="none" fill-rule="evenodd"><path d="M20.511 0H52.49c7.132 0 9.718.743 12.326 2.137a14.538 14.538 0 0 1 6.048 6.048C72.257 10.793 73 13.38 73 20.511V52.49c0 7.132-.743 9.718-2.137 12.326a14.538 14.538 0 0 1-6.048 6.048C62.207 72.257 59.62 73 52.489 73H20.51c-7.132 0-9.718-.743-12.326-2.137a14.538 14.538 0 0 1-6.048-6.048C.743 62.207 0 59.62 0 52.489V20.51c0-7.132.743-9.718 2.137-12.326a14.538 14.538 0 0 1 6.048-6.048C10.793.743 13.38 0 20.511 0z" fill="url(#a)"/><path d="M23.674 27.927V26H17.92S16 26.867 16 27.927v23.862a3.83 3.83 0 0 0 3.837 3.726h3.837V27.927z" fill="#FFF" opacity=".23"/><path d="M54.173 18H24.756c-.928 0-1.919 1.06-1.919 1.927v32.116c0 2.12-1.727 3.854-3.837 3.854h33.255c2.11 0 3.837-1.734 3.837-3.854V19.927c0-.931-1.055-1.927-1.919-1.927z" fill="#FFF"/><path d="M51.941 45.022H27.64a.643.643 0 0 0 0 1.284H51.94a.643.643 0 0 0 0-1.284zm0-5.139H27.64a.643.643 0 0 0 0 1.285H51.94a.643.643 0 0 0 0-1.285zm0 2.57H27.64a.643.643 0 0 0 0 1.284H51.94a.643.643 0 0 0 0-1.285zm.103-11.314H41.305c-.295 0-.537.289-.537.642 0 .353.242.642.537.642h10.738c.296 0 .537-.289.537-.642 0-.353-.241-.642-.536-.642zm0-5.139H41.305c-.295 0-.537.29-.537.642 0 .354.242.643.537.643h10.738c.296 0 .537-.29.537-.643 0-.353-.241-.642-.536-.642zm0 7.708H41.305c-.295 0-.537.289-.537.642 0 .353.242.643.537.643h10.738c.296 0 .537-.29.537-.643 0-.353-.241-.642-.536-.642zm0-5.139H41.305c-.295 0-.537.29-.537.643 0 .353.242.642.537.642h10.738c.296 0 .537-.29.537-.642 0-.354-.241-.643-.536-.643zm-3.3 19.022H27.64a.643.643 0 0 0 0 1.285h21.103a.643.643 0 0 0 0-1.285z" fill="url(#b)" fill-rule="nonzero"/><rect fill="url(#c)" x="27" y="26" width="12" height="9" rx="1"/></g></svg>