<svg width="24" height="24" fill="none" xmlns="http://www.w3.org/2000/svg"><path fill="url(#paint0_linear)" d="M0 0h24v24H0z"/><path d="M18.563 3.6H15.5v1.26c0 .696-.588 1.26-1.313 1.26H9.813c-.725 0-1.312-.564-1.313-1.26V3.6H5.438A.429.429 0 0 0 5 4.02v15.96c0 .232.196.42.438.42h13.125a.429.429 0 0 0 .437-.42V4.02a.429.429 0 0 0-.438-.42zm-7.566 12.477l-1.75 1.68a.45.45 0 0 1-.619 0l-.875-.84a.408.408 0 0 1 .011-.594.45.45 0 0 1 .608 0l.566.543 1.44-1.383a.45.45 0 0 1 .619.01.408.408 0 0 1 0 .584zm0-3.36l-1.75 1.68a.45.45 0 0 1-.619 0l-.875-.84a.408.408 0 0 1 .011-.594.45.45 0 0 1 .608 0l.566.543 1.44-1.383a.45.45 0 0 1 .619.01.408.408 0 0 1 0 .584zm0-3.36l-1.75 1.68a.45.45 0 0 1-.619 0l-.875-.84a.408.408 0 0 1 .011-.594.45.45 0 0 1 .608 0l.566.543 1.44-1.383a.45.45 0 0 1 .619.01.408.408 0 0 1 0 .584zm4.94 7.683h-2.624a.43.43 0 0 1-.438-.42c0-.232.196-.42.438-.42h2.625c.241 0 .437.188.437.42 0 .232-.196.42-.437.42zm0-3.36h-2.624a.429.429 0 0 1-.438-.42c0-.232.196-.42.438-.42h2.625c.241 0 .437.188.437.42 0 .232-.196.42-.437.42zm0-3.36h-2.624a.43.43 0 0 1-.438-.42c0-.232.196-.42.438-.42h2.625c.241 0 .437.188.437.42a.43.43 0 0 1-.437.42z" fill="#fff"/><path d="M14.188 5.28H9.813a.429.429 0 0 1-.438-.42V3.6h5.25v1.26c0 .232-.196.42-.438.42z" fill="#fff"/><path d="M18.563 3.6H15.5v1.26c0 .696-.588 1.26-1.313 1.26H9.813c-.725 0-1.312-.564-1.313-1.26V3.6H5.438A.429.429 0 0 0 5 4.02v15.96c0 .232.196.42.438.42h13.125a.429.429 0 0 0 .437-.42V4.02a.429.429 0 0 0-.438-.42zm-7.566 12.477l-1.75 1.68a.45.45 0 0 1-.619 0l-.875-.84a.408.408 0 0 1 .011-.594.45.45 0 0 1 .608 0l.566.543 1.44-1.383a.45.45 0 0 1 .619.01.408.408 0 0 1 0 .584zm0-3.36l-1.75 1.68a.45.45 0 0 1-.619 0l-.875-.84a.408.408 0 0 1 .011-.594.45.45 0 0 1 .608 0l.566.543 1.44-1.383a.45.45 0 0 1 .619.01.408.408 0 0 1 0 .584zm0-3.36l-1.75 1.68a.45.45 0 0 1-.619 0l-.875-.84a.408.408 0 0 1 .011-.594.45.45 0 0 1 .608 0l.566.543 1.44-1.383a.45.45 0 0 1 .619.01.408.408 0 0 1 0 .584zm4.94 7.683h-2.624a.43.43 0 0 1-.438-.42c0-.232.196-.42.438-.42h2.625c.241 0 .437.188.437.42 0 .232-.196.42-.437.42zm0-3.36h-2.624a.429.429 0 0 1-.438-.42c0-.232.196-.42.438-.42h2.625c.241 0 .437.188.437.42 0 .232-.196.42-.437.42zm0-3.36h-2.624a.43.43 0 0 1-.438-.42c0-.232.196-.42.438-.42h2.625c.241 0 .437.188.437.42a.43.43 0 0 1-.437.42z" fill="#fff"/><defs><linearGradient id="paint0_linear" x1="9.214" y1="5.143" x2="25.5" y2="27.214" gradientUnits="userSpaceOnUse"><stop stop-color="#D461A6"/><stop offset="1" stop-color="#AF4CE3"/></linearGradient></defs></svg>