<svg width="56" height="56" fill="none" xmlns="http://www.w3.org/2000/svg"><path fill="url(#paint0_linear)" d="M0 0h56v56H0z"/><path d="M42.062 10H35.5v2.7c-.002 1.49-1.26 2.698-2.813 2.7h-9.374c-1.553-.002-2.811-1.21-2.813-2.7V10h-6.562c-.518 0-.938.403-.938.9v34.2c0 .497.42.9.938.9h28.124c.518 0 .938-.403.938-.9V10.9c0-.497-.42-.9-.938-.9zM25.85 36.736l-3.75 3.6a.965.965 0 0 1-1.325 0l-1.875-1.8a.875.875 0 0 1 .023-1.272.965.965 0 0 1 1.302 0l1.212 1.163 3.088-2.963a.965.965 0 0 1 1.325.022c.351.349.351.901 0 1.25zm0-7.2l-3.75 3.6a.965.965 0 0 1-1.325 0l-1.875-1.8a.875.875 0 0 1 .023-1.272.966.966 0 0 1 1.302 0l1.212 1.163 3.088-2.963a.965.965 0 0 1 1.325.022c.351.349.351.901 0 1.25zm0-7.2l-3.75 3.6a.965.965 0 0 1-1.325 0l-1.875-1.8a.875.875 0 0 1 .023-1.272.966.966 0 0 1 1.302 0l1.212 1.163 3.088-2.963a.965.965 0 0 1 1.325.022c.351.349.351.902 0 1.25zM36.438 38.8h-5.626c-.517 0-.937-.403-.937-.9s.42-.9.938-.9h5.625c.517 0 .937.403.937.9s-.42.9-.937.9zm0-7.2h-5.626c-.517 0-.937-.403-.937-.9s.42-.9.938-.9h5.625c.517 0 .937.403.937.9s-.42.9-.937.9zm0-7.2h-5.626c-.517 0-.937-.403-.937-.9s.42-.9.938-.9h5.625c.517 0 .937.403.937.9s-.42.9-.937.9z" fill="#fff"/><path d="M32.687 13.6h-9.374c-.518 0-.938-.403-.938-.9V10h11.25v2.7c0 .497-.42.9-.938.9z" fill="#fff"/><path d="M42.062 10H35.5v2.7c-.002 1.49-1.26 2.698-2.813 2.7h-9.374c-1.553-.002-2.811-1.21-2.813-2.7V10h-6.562c-.518 0-.938.403-.938.9v34.2c0 .497.42.9.938.9h28.124c.518 0 .938-.403.938-.9V10.9c0-.497-.42-.9-.938-.9zM25.85 36.736l-3.75 3.6a.965.965 0 0 1-1.325 0l-1.875-1.8a.875.875 0 0 1 .023-1.272.965.965 0 0 1 1.302 0l1.212 1.163 3.088-2.963a.965.965 0 0 1 1.325.022c.351.349.351.901 0 1.25zm0-7.2l-3.75 3.6a.965.965 0 0 1-1.325 0l-1.875-1.8a.875.875 0 0 1 .023-1.272.966.966 0 0 1 1.302 0l1.212 1.163 3.088-2.963a.965.965 0 0 1 1.325.022c.351.349.351.901 0 1.25zm0-7.2l-3.75 3.6a.965.965 0 0 1-1.325 0l-1.875-1.8a.875.875 0 0 1 .023-1.272.966.966 0 0 1 1.302 0l1.212 1.163 3.088-2.963a.965.965 0 0 1 1.325.022c.351.349.351.902 0 1.25zM36.438 38.8h-5.626c-.517 0-.937-.403-.937-.9s.42-.9.938-.9h5.625c.517 0 .937.403.937.9s-.42.9-.937.9zm0-7.2h-5.626c-.517 0-.937-.403-.937-.9s.42-.9.938-.9h5.625c.517 0 .937.403.937.9s-.42.9-.937.9zm0-7.2h-5.626c-.517 0-.937-.403-.937-.9s.42-.9.938-.9h5.625c.517 0 .937.403.937.9s-.42.9-.937.9z" fill="#fff"/><g filter="url(#filter0_f)"><path d="M42.062 10H35.5v2.7c-.002 1.49-1.26 2.698-2.813 2.7h-9.374c-1.553-.002-2.811-1.21-2.813-2.7V10h-6.562c-.518 0-.938.403-.938.9v34.2c0 .497.42.9.938.9h28.124c.518 0 .938-.403.938-.9V10.9c0-.497-.42-.9-.938-.9zM25.85 36.736l-3.75 3.6a.965.965 0 0 1-1.325 0l-1.875-1.8a.875.875 0 0 1 .023-1.272.965.965 0 0 1 1.302 0l1.212 1.163 3.088-2.963a.965.965 0 0 1 1.325.022c.351.349.351.901 0 1.25zm0-7.2l-3.75 3.6a.965.965 0 0 1-1.325 0l-1.875-1.8a.875.875 0 0 1 .023-1.272.966.966 0 0 1 1.302 0l1.212 1.163 3.088-2.963a.965.965 0 0 1 1.325.022c.351.349.351.901 0 1.25zm0-7.2l-3.75 3.6a.965.965 0 0 1-1.325 0l-1.875-1.8a.875.875 0 0 1 .023-1.272.966.966 0 0 1 1.302 0l1.212 1.163 3.088-2.963a.965.965 0 0 1 1.325.022c.351.349.351.902 0 1.25zM36.438 38.8h-5.626c-.517 0-.937-.403-.937-.9s.42-.9.938-.9h5.625c.517 0 .937.403.937.9s-.42.9-.937.9zm0-7.2h-5.626c-.517 0-.937-.403-.937-.9s.42-.9.938-.9h5.625c.517 0 .937.403.937.9s-.42.9-.937.9zm0-7.2h-5.626c-.517 0-.937-.403-.937-.9s.42-.9.938-.9h5.625c.517 0 .937.403.937.9s-.42.9-.937.9z" fill="url(#paint1_linear)"/><path d="M32.687 13.6h-9.374c-.518 0-.938-.403-.938-.9V10h11.25v2.7c0 .497-.42.9-.938.9z" fill="url(#paint2_linear)"/><path d="M42.062 10H35.5v2.7c-.002 1.49-1.26 2.698-2.813 2.7h-9.374c-1.553-.002-2.811-1.21-2.813-2.7V10h-6.562c-.518 0-.938.403-.938.9v34.2c0 .497.42.9.938.9h28.124c.518 0 .938-.403.938-.9V10.9c0-.497-.42-.9-.938-.9zM25.85 36.736l-3.75 3.6a.965.965 0 0 1-1.325 0l-1.875-1.8a.875.875 0 0 1 .023-1.272.965.965 0 0 1 1.302 0l1.212 1.163 3.088-2.963a.965.965 0 0 1 1.325.022c.351.349.351.901 0 1.25zm0-7.2l-3.75 3.6a.965.965 0 0 1-1.325 0l-1.875-1.8a.875.875 0 0 1 .023-1.272.966.966 0 0 1 1.302 0l1.212 1.163 3.088-2.963a.965.965 0 0 1 1.325.022c.351.349.351.901 0 1.25zm0-7.2l-3.75 3.6a.965.965 0 0 1-1.325 0l-1.875-1.8a.875.875 0 0 1 .023-1.272.966.966 0 0 1 1.302 0l1.212 1.163 3.088-2.963a.965.965 0 0 1 1.325.022c.351.349.351.902 0 1.25zM36.438 38.8h-5.626c-.517 0-.937-.403-.937-.9s.42-.9.938-.9h5.625c.517 0 .937.403.937.9s-.42.9-.937.9zm0-7.2h-5.626c-.517 0-.937-.403-.937-.9s.42-.9.938-.9h5.625c.517 0 .937.403.937.9s-.42.9-.937.9zm0-7.2h-5.626c-.517 0-.937-.403-.937-.9s.42-.9.938-.9h5.625c.517 0 .937.403.937.9s-.42.9-.937.9z" fill="url(#paint3_linear)"/></g><defs><filter id="filter0_f" x="11" y="8" width="34" height="40" filterUnits="userSpaceOnUse" color-interpolation-filters="sRGB"><feFlood flood-opacity="0" result="BackgroundImageFix"/><feBlend in="SourceGraphic" in2="BackgroundImageFix" result="shape"/><feGaussianBlur stdDeviation="1" result="effect1_foregroundBlur"/></filter><linearGradient id="paint0_linear" x1="21.5" y1="12" x2="59.5" y2="63.5" gradientUnits="userSpaceOnUse"><stop stop-color="#D461A6"/><stop offset="1" stop-color="#AF4CE3"/></linearGradient><linearGradient id="paint1_linear" x1="28" y1="10" x2="28" y2="46" gradientUnits="userSpaceOnUse"><stop stop-color="#fff"/><stop offset="1" stop-color="#fff" stop-opacity="0"/></linearGradient><linearGradient id="paint2_linear" x1="28" y1="10" x2="28" y2="13.6" gradientUnits="userSpaceOnUse"><stop stop-color="#fff"/><stop offset="1" stop-color="#fff" stop-opacity="0"/></linearGradient><linearGradient id="paint3_linear" x1="28" y1="10" x2="28" y2="46" gradientUnits="userSpaceOnUse"><stop stop-color="#fff"/><stop offset="1" stop-color="#fff" stop-opacity="0"/></linearGradient></defs></svg>