<svg width="30" height="45" fill="none" xmlns="http://www.w3.org/2000/svg"><path d="M.443 25.873l1.088-.469 13.47-5.806 14.556 6.275-5.47 11.197-13.37 1.876L.661 28.186l-.219-2.313z" fill="#133444"/><path d="M26.529 18.968a15.007 15.007 0 0 0-9.777-5.261 15.298 15.298 0 0 0-3.743.03 15.007 15.007 0 0 0-9.538 5.231l-.605.995-1.009 1.655-.737 1.215a3.952 3.952 0 0 0-.041.099l-.01.022 1.628.955 10.313 6.049L15 31.126V16.667l-1.99.897v-2.165l1.99-.897 1.992.897 10.143 4.568-.606-.999z" fill="#C42370"/><path d="M30 29.472c0 4.815-2.307 9.32-5.885 12.224a14.91 14.91 0 0 1-4.742 2.603c-1.41.464-2.887.7-4.373.701-8.284 0-15-7.314-15-15.528a14.738 14.738 0 0 1 .443-3.599L15 34.413l14.557-8.54c.295 1.177.444 2.386.443 3.599z" fill="#1C4D6B"/><path d="M13.248 13.71l1.752.789-1.991.897v-1.794l.239.108zM13.009 17.564l1.99-.896v14.464l-1.99-1.168v-12.4z" fill="#000"/><path d="M15 16.668v14.464l13.949-8.182L15 16.668z" fill="#1D4259"/><path d="M15 0v16.668l13.949 6.282L15 0z" fill="#4B6B9A"/><path d="M15 16.668v14.464l-1.99-1.168-11.94-7.008-.019-.011.027-.012.041-.099 1.745-2.871 10.145-4.564v2.172L15 16.668z" fill="#343535"/><path d="M15 16.668v14.464l-1.99-1.168-11.94-7.003-.019-.011.027-.012 11.931-5.374L15 16.668z" fill="#3E5578"/><path d="M15 0v16.668L1.051 22.95 15.001 0z" fill="#6DB2D8"/><path d="M9.357 43.813zM9.983 44.071zM11.182 44.469z" fill="#335F8A"/><path d="M.443 25.873L15 34.413a16.427 16.427 0 0 1-1.042 3.789c-1.165 2.791-3.518 5.744-8.071 3.498C2.307 38.794 0 34.287 0 29.472a14.738 14.738 0 0 1 .443-3.599z" fill="#6DB2D8"/><path d="M24.113 41.697l-.035.029c-.076.06-.152.121-.229.18l-.02.016a6.494 6.494 0 0 1-.25.19c-.09.067-.182.134-.275.197-.092.063-.185.13-.279.193-.093.063-.165.11-.247.163l-.046.03a12.626 12.626 0 0 1-.569.347 18.384 18.384 0 0 1-.597.326l-.01.006-.3.15c-.1.051-.199.099-.306.147-.108.049-.207.099-.31.14a14.507 14.507 0 0 1-2.518.832l-.107.024a12 12 0 0 1-.266.057l-.246.047c-.083.015-.15.028-.226.04l-.251.038c-.04.007-.082.013-.123.018l-.189.024-.104.013c-.069.01-.139.016-.208.023-.086.009-.17.017-.256.024l-.2.014c-.065.004-.115.008-.173.01h-.008c-.068 0-.136.008-.2.01-.093 0-.188.007-.282.009-.095.002-.19 0-.285 0h-.284c-.095 0-.19 0-.283-.009-.069 0-.136-.006-.204-.01h-.008c-.059 0-.117-.006-.174-.01l-.2-.014a11.047 11.047 0 0 1-.463-.047l-.1-.013a6.057 6.057 0 0 1-.188-.024c-.042 0-.083-.011-.123-.018a9.38 9.38 0 0 1-.477-.078c-.075-.014-.165-.03-.246-.047l-.267-.057-.106-.024a13.65 13.65 0 0 1-.688-.176l-.299-.087a14.488 14.488 0 0 1-1.531-.567c-.1-.045-.207-.092-.31-.14-.104-.047-.205-.098-.307-.147-.101-.048-.199-.099-.299-.15l-.01-.006c-.1-.051-.2-.104-.3-.158-.099-.053-.198-.11-.298-.168a5.506 5.506 0 0 1-.268-.162l-.032-.02a13.033 13.033 0 0 1-.263-.165l-.046-.03a13.26 13.26 0 0 1-.527-.356l-.274-.197c-.09-.066-.168-.126-.251-.19l-.02-.016c-.077-.059-.152-.12-.228-.18l-.036-.029c4.553 2.246 6.906-.707 8.071-3.498a16.43 16.43 0 0 0 1.042-3.786 16.42 16.42 0 0 0 1.042 3.787c1.164 2.788 3.517 5.74 8.07 3.495z" fill="#529BBA"/><path d="M18.316 44.6zM19.373 44.3zM20.017 44.071z" fill="#335F8A"/><path d="M30 29.472c0 4.815-2.308 9.321-5.887 12.225-4.553 2.246-6.906-.707-8.07-3.498A16.423 16.423 0 0 1 15 34.413l14.557-8.54c.295 1.177.444 2.386.443 3.599z" fill="#4B6B9A"/></svg>