<svg width="40" height="25" viewBox="0 0 40 25" fill="none" xmlns="http://www.w3.org/2000/svg">
<path d="M8.19214 4.83423C14.7136 -1.55086 25.2871 -1.55086 31.8086 4.83423L32.5934 5.60268C32.9195 5.92194 32.9195 6.43955 32.5934 6.7588L29.9085 9.38754C29.7455 9.54717 29.4812 9.54717 29.3181 9.38754L28.2381 8.33005C23.6885 3.87565 16.3122 3.87565 11.7626 8.33005L10.606 9.46253C10.4429 9.62216 10.1786 9.62216 10.0156 9.46253L7.33067 6.8338C7.00459 6.51454 7.00459 5.99693 7.33067 5.67768L8.19214 4.83423ZM37.3612 10.2707L39.7507 12.6103C40.0768 12.9296 40.0768 13.4472 39.7507 13.7664L28.9761 24.3159C28.65 24.6352 28.1213 24.6352 27.7952 24.3159C27.7952 24.3159 27.7952 24.3159 27.7952 24.3159L20.148 16.8286C20.0665 16.7488 19.9343 16.7488 19.8528 16.8286C19.8528 16.8286 19.8528 16.8286 19.8528 16.8286L12.2057 24.3159C11.8797 24.6352 11.351 24.6352 11.0249 24.3159C11.0249 24.3159 11.0249 24.3159 11.0249 24.3159L0.249927 13.7663C-0.0761476 13.447 -0.0761476 12.9294 0.249927 12.6102L2.63949 10.2706C2.96557 9.95134 3.49424 9.95134 3.82031 10.2706L11.4676 17.758C11.5492 17.8378 11.6813 17.8378 11.7628 17.758C11.7628 17.758 11.7629 17.758 11.7629 17.758L19.4098 10.2706C19.7359 9.95133 20.2645 9.95132 20.5906 10.2706C20.5906 10.2706 20.5906 10.2706 20.5906 10.2706L28.238 17.758C28.3195 17.8378 28.4516 17.8378 28.5332 17.758L36.1804 10.2707C36.5064 9.95147 37.0351 9.95147 37.3612 10.2707Z" fill="#3B99FC"/>
</svg>
