<?xml version="1.0" encoding="UTF-8"?>
<svg xmlns="http://www.w3.org/2000/svg" xmlns:xlink="http://www.w3.org/1999/xlink" width="95pt" height="95pt" viewBox="0 0 95 95" version="1.1">
<g id="surface1">
<path style=" stroke:none;fill-rule:nonzero;fill:rgb(80%,81.176471%,81.960784%);fill-opacity:1;" d="M 81.085938 61.414062 C 75.914062 56.238281 69.757812 52.410156 63.039062 50.089844 C 70.234375 45.132812 74.960938 36.839844 74.960938 27.460938 C 74.960938 12.320312 62.640625 0 47.5 0 C 32.359375 0 20.039062 12.320312 20.039062 27.460938 C 20.039062 36.839844 24.765625 45.132812 31.960938 50.089844 C 25.242188 52.410156 19.085938 56.238281 13.914062 61.414062 C 4.941406 70.382812 0 82.3125 0 95 L 7.421875 95 C 7.421875 72.902344 25.402344 54.921875 47.5 54.921875 C 69.597656 54.921875 87.578125 72.902344 87.578125 95 L 95 95 C 95 82.3125 90.058594 70.382812 81.085938 61.414062 Z M 47.5 47.5 C 36.449219 47.5 27.460938 38.511719 27.460938 27.460938 C 27.460938 16.410156 36.449219 7.421875 47.5 7.421875 C 58.550781 7.421875 67.539062 16.410156 67.539062 27.460938 C 67.539062 38.511719 58.550781 47.5 47.5 47.5 Z M 47.5 47.5 "/>
</g>
</svg>
