<svg xmlns="http://www.w3.org/2000/svg" xmlns:xlink="http://www.w3.org/1999/xlink" viewBox="0 0 70 70"><defs><linearGradient id="a" x1="28.43" y1="59.42" x2="54.08" y2="36.06" gradientTransform="matrix(1 0 0 -1 0 77)" gradientUnits="userSpaceOnUse"><stop offset="0" stop-color="#aeb1ff"/><stop offset="1" stop-color="#9397ff" stop-opacity="0"/></linearGradient><linearGradient id="b" x1="11.17" y1="59.33" x2="37.88" y2="35.11" gradientTransform="matrix(1 0 0 -1 0 77)" gradientUnits="userSpaceOnUse"><stop offset="0" stop-color="#e8e8ff"/><stop offset="1" stop-color="#9ea2ff"/></linearGradient><linearGradient id="c" x1="33.09" y1="52.77" x2="56.93" y2="21.14" xlink:href="#a"/><linearGradient id="d" x1="18.77" y1="42.61" x2="47.65" y2="22.92" gradientTransform="matrix(1 0 0 -1 0 77)" gradientUnits="userSpaceOnUse"><stop offset="0" stop-color="#f4f5ff"/><stop offset="1" stop-color="#9ea2ff"/></linearGradient></defs><path fill="#5f64ff" d="M0 0h70v70H0z"/><path d="M35 15l17.32 10v10L35 25l-8.66 5V20z" fill-rule="evenodd" fill="url(#a)"/><path d="M26.34 20l-8.66 5v10L35 45l8.66-5-17.32-10z" fill-rule="evenodd" fill="url(#b)"/><path d="M26.34 30L35 25l17.32 10v10l-8.67 5V40z" fill-rule="evenodd" fill="url(#c)"/><path d="M35 55l8.66-5V40L35 45 17.68 35v10z" fill-rule="evenodd" fill="url(#d)"/></svg>