<svg width="22" height="22" viewBox="0 0 22 22" xmlns="http://www.w3.org/2000/svg"><g fill="none" fill-rule="evenodd"><path d="M0 0h22v22H0z"/><g stroke="#8B9396"><path d="M6 12.26C6.402 13.75 9.137 15 12.475 15 16.089 15 19 13.534 19 11.875c0-.886-1.07-1.903-2.967-2.357" stroke-linecap="round" stroke-linejoin="round"/><path d="M16 6.88C16 8.536 13.1 10 9.5 10S3 8.536 3 6.88C3 5.224 5.9 4 9.5 4S16 5.224 16 6.88"/><path d="M6 12v2c0 1.667 2.9 3 6.5 3s6.5-1.333 6.5-3v-2c0 1.643-2.9 3.095-6.5 3.095S6 13.643 6 12z" stroke-linecap="round" stroke-linejoin="round"/><path d="M9.5 10.095C5.9 10.095 3 8.643 3 7v2c0 1.667 2.9 3 6.5 3S16 10.667 16 9V7c0 1.643-2.9 3.095-6.5 3.095"/></g></g></svg>