<svg width="22" height="22" viewBox="0 0 22 22" xmlns="http://www.w3.org/2000/svg"><g fill="none" fill-rule="evenodd"><path d="M0 0h22v22H0z"/><path d="M14.928 16.169l.395.22c.264.146.396.337.396.571v1.186a.753.753 0 0 1-.235.564.773.773 0 0 1-.556.227H4.79a.773.773 0 0 1-.557-.227.753.753 0 0 1-.234-.564V16.96c0-.215.132-.4.396-.557l.395-.234 3.032-1.64c-.556-.44-.942-1.026-1.157-1.758-.215-.733-.322-1.314-.322-1.744V9.05c0-.332.102-.662.307-.989.205-.327.474-.623.806-.886.332-.264.71-.479 1.135-.645a3.497 3.497 0 0 1 1.282-.249c.44 0 .87.083 1.29.25.419.165.793.38 1.12.644.327.263.59.559.79.886.2.327.301.657.301.989v1.977c0 .479-.095 1.075-.286 1.787-.19.713-.559 1.29-1.106 1.729l2.945 1.626zM14.78 18v-.835a.391.391 0 0 0-.102-.073l-.117-.059a.071.071 0 0 1-.037-.014.479.479 0 0 0-.051-.03l-2.945-1.626a.99.99 0 0 1-.337-.315.863.863 0 0 1-.146-.432.856.856 0 0 1 .066-.454.913.913 0 0 1 .285-.366c.4-.313.674-.76.82-1.34.147-.581.22-1.058.22-1.429V9.05c0-.342-.256-.733-.769-1.172a2.672 2.672 0 0 0-1.794-.66c-.664 0-1.262.22-1.794.66-.533.44-.799.83-.799 1.172v1.977c0 .371.088.848.264 1.429.176.58.464 1.027.864 1.34.117.098.208.22.271.366a.856.856 0 0 1 .066.454.863.863 0 0 1-.146.432.865.865 0 0 1-.337.3L5.23 17.005a.06.06 0 0 0-.029.007.115.115 0 0 0-.03.022.432.432 0 0 0-.124.059l-.11.073V18h9.844zm3.428-4.16l.395.22c.264.146.396.336.396.57v1.173a.753.753 0 0 1-.234.564.773.773 0 0 1-.557.227h-1.553a5.372 5.372 0 0 0-.183-.542.952.952 0 0 0-.3-.396h1.89v-.835a4.202 4.202 0 0 0-.103-.066.408.408 0 0 0-.117-.05.092.092 0 0 0-.037-.023.402.402 0 0 1-.051-.022l-2.988-1.626a.99.99 0 0 1-.337-.315.863.863 0 0 1-.147-.432.856.856 0 0 1 .066-.454.913.913 0 0 1 .286-.366c.4-.322.68-.774.842-1.355.161-.581.242-1.052.242-1.414V6.721c0-.352-.264-.747-.791-1.187a2.756 2.756 0 0 0-1.817-.659 2.981 2.981 0 0 0-1.787.6 2.301 2.301 0 0 0-.586-.102l-.6-.03c.341-.4.78-.737 1.318-1.01a3.608 3.608 0 0 1 1.655-.41c.44 0 .872.085 1.297.256a4.52 4.52 0 0 1 1.135.652c.332.264.6.562.806.894.205.332.307.664.307.996v1.977c0 .469-.102 1.062-.307 1.78-.205.718-.581 1.292-1.128 1.721l2.988 1.64z" fill="#8B9396"/></g></svg>