<svg width="22" height="22" viewBox="0 0 22 22" xmlns="http://www.w3.org/2000/svg"><g fill="none" fill-rule="evenodd"><path d="M0 0h22v22H0z"/><path d="M4.04 16.984V18h11.44v1H4.04a1.02 1.02 0 0 1-.731-.297A.943.943 0 0 1 3 18v-1.5c0-.281.173-.518.52-.71l.52-.29 4.566-2.078a3.891 3.891 0 0 1-.926-1.008 6.536 6.536 0 0 1-.61-1.21 6.431 6.431 0 0 1-.333-1.212A6.209 6.209 0 0 1 6.64 9V6.5c0-.417.135-.833.406-1.25a4.43 4.43 0 0 1 1.073-1.125 5.961 5.961 0 0 1 1.503-.813A4.82 4.82 0 0 1 11.32 3c.574 0 1.14.104 1.698.313a5.819 5.819 0 0 1 1.495.812c.439.333.796.708 1.073 1.125.276.417.414.833.414 1.25V9c0 .302-.032.651-.098 1.047a6.59 6.59 0 0 1-.324 1.21 5.86 5.86 0 0 1-.602 1.188 4.13 4.13 0 0 1-.91.992l1.381.61-.26 1-1.56-.703a1.045 1.045 0 0 1-.406-.32.958.958 0 0 1-.195-.477c-.01-.177.016-.344.082-.5a1.03 1.03 0 0 1 .308-.406c.564-.417.962-1.008 1.195-1.774.233-.765.349-1.388.349-1.867V6.5c0-.27-.108-.552-.325-.844a3.757 3.757 0 0 0-.837-.804 4.941 4.941 0 0 0-1.162-.61A3.744 3.744 0 0 0 11.32 4c-.444 0-.883.08-1.316.242a4.932 4.932 0 0 0-1.17.617 3.65 3.65 0 0 0-.837.813c-.211.292-.317.568-.317.828V9c0 .49.127 1.115.382 1.875.254.76.653 1.349 1.194 1.766a.969.969 0 0 1 .195 1.367c-.108.14-.243.247-.406.32l-4.566 2.078a1.041 1.041 0 0 0-.268.157c-.114.083-.171.223-.171.421zM18.5 16a.48.48 0 0 1 .352.148.48.48 0 0 1 .148.352.48.48 0 0 1-.148.352.48.48 0 0 1-.352.148H17v1.5a.48.48 0 0 1-.148.352.48.48 0 0 1-.352.148.48.48 0 0 1-.352-.148A.48.48 0 0 1 16 18.5V17h-1.5a.48.48 0 0 1-.352-.148A.48.48 0 0 1 14 16.5a.48.48 0 0 1 .148-.352A.48.48 0 0 1 14.5 16H16v-1.5a.48.48 0 0 1 .148-.352A.48.48 0 0 1 16.5 14a.48.48 0 0 1 .352.148.48.48 0 0 1 .148.352V16h1.5z" fill="#8B9396"/></g></svg>