<svg width="22" height="22" viewBox="0 0 22 22" xmlns="http://www.w3.org/2000/svg"><g fill="none" fill-rule="evenodd"><path d="M0 0h22v22H0z"/><path d="M2.053 11.267c.576.047 1.169.105 1.497.176.328.07 2.297.557 3.656.557.2 0 .442-.005.723-.015a6.99 6.99 0 0 0 .814-.075c.26-.04.489-.1.683-.181.194-.08 2.051-3.995 1.83-4.59-.149-.398-1.243-.598-3.282-.603-.311 0-.579.001-.803.005l-.337.005a.318.318 0 0 1-.16-.04.292.292 0 0 1-.111-.11.237.237 0 0 1-.055-.142.385.385 0 0 1 .025-.16c.08-.228.149-.479.206-.754a6.92 6.92 0 0 0 .12-.808c.024-.265.027-.507.01-.728-.016-.221-.062-.392-.135-.513l-.13-.2C6.562 3.03 6.462 3 6.301 3c-.02 0-.054.017-.1.05-.047.034-.101.117-.161.251a11.039 11.039 0 0 1-.89 1.723A7.683 7.683 0 0 1 4.138 6.31a5.006 5.006 0 0 1-1.06.828 2.635 2.635 0 0 1-1.024.352c-.06.127-.08 3.65 0 3.777zm18.167-.534c-.575-.047-1.168-.105-1.496-.176-.328-.07-2.297-.557-3.656-.557-.201 0-.442.005-.724.015a6.99 6.99 0 0 0-.813.075c-.261.04-.49.1-.683.181-.195.08-2.052 3.995-1.83 4.59.148.398 1.242.598 3.281.603.312 0 .58-.001.804-.005l.336-.005c.06 0 .114.014.16.04a.292.292 0 0 1 .111.11.244.244 0 0 1 .056.142.385.385 0 0 1-.025.16 5.73 5.73 0 0 0-.206.754 7.047 7.047 0 0 0-.12.808 4.466 4.466 0 0 0-.011.728c.017.221.062.392.136.513l.13.2c.04.06.14.091.302.091.02 0 .053-.017.1-.05.047-.034.1-.117.16-.251.269-.643.565-1.217.89-1.723a7.683 7.683 0 0 1 1.014-1.286 5.006 5.006 0 0 1 1.06-.828 2.64 2.64 0 0 1 1.024-.352c.06-.127.08-3.65 0-3.777z" stroke="#8B9396" stroke-linecap="round" stroke-linejoin="round"/></g></svg>