<svg width="306" height="153" fill="none" xmlns="http://www.w3.org/2000/svg"><path d="M0 4a4 4 0 0 1 4-4h298a4 4 0 0 1 4 4v149H0V4z" fill="url(#paint0_linear)"/><path d="M160.934 82.934h40.668v40.668h-40.668V82.934z" fill="#fff"/><path d="M152.801 115.467c-22.461 0-40.667-18.208-40.667-40.666 0-22.463 18.208-40.667 40.667-40.667 22.458 0 40.666 18.205 40.666 40.667h8.135c0-26.95-21.851-48.801-48.801-48.801C125.85 26 104 47.85 104 74.8c0 26.951 21.85 48.802 48.801 48.802v-8.135z" fill="url(#paint1_linear)" fill-opacity=".6"/><path d="M152.801 99.2c-13.476 0-24.401-10.924-24.401-24.4 0-13.478 10.925-24.4 24.401-24.4 13.475 0 24.4 10.922 24.4 24.4h8.134c0-17.966-14.567-32.533-32.534-32.533-17.968 0-32.534 14.567-32.534 32.534s14.566 32.534 32.534 32.534v-8.134z" fill="url(#paint2_linear)" fill-opacity=".8"/><path d="M152.801 82.934a8.134 8.134 0 1 1 8.133-8.133h8.133c0-8.983-7.283-16.267-16.266-16.267-8.986 0-16.267 7.284-16.267 16.267s7.281 16.266 16.267 16.266v-8.133z" fill="url(#paint3_linear)"/><defs><linearGradient id="paint0_linear" x1="16.393" y1="17.759" x2="116.673" y2="246.682" gradientUnits="userSpaceOnUse"><stop stop-color="#FF9372"/><stop offset="1" stop-color="#FFD770"/></linearGradient><linearGradient id="paint1_linear" x1="-227.609" y1="-299.609" x2="195.501" y2="135.802" gradientUnits="userSpaceOnUse"><stop stop-color="#FF9372"/><stop offset="1" stop-color="#FFD770"/></linearGradient><linearGradient id="paint2_linear" x1="-100.808" y1="-174.808" x2="181.268" y2="115.468" gradientUnits="userSpaceOnUse"><stop stop-color="#FF9372"/><stop offset="1" stop-color="#FFD770"/></linearGradient><linearGradient id="paint3_linear" x1="26" y1="-50" x2="167.034" y2="95.134" gradientUnits="userSpaceOnUse"><stop stop-color="#FF9372"/><stop offset="1" stop-color="#FFDF8E"/></linearGradient></defs></svg>