<svg width="52" height="52" fill="none" xmlns="http://www.w3.org/2000/svg"><path d="M0 0h52v52H0V0z" fill="url(#paint0_linear)"/><path d="M28.35 28.35h13.822v13.822H28.35V28.35z" fill="#fff"/><path d="M25.586 39.407c-7.634 0-13.821-6.188-13.821-13.821 0-7.635 6.188-13.821 13.82-13.821 7.634 0 13.822 6.187 13.822 13.82h2.765C42.172 16.427 34.746 9 25.586 9 16.426 9 9 16.426 9 25.586c0 9.16 7.426 16.586 16.586 16.586v-2.765z" fill="url(#paint1_linear)" fill-opacity=".6"/><path d="M25.586 33.879a8.293 8.293 0 1 1 8.293-8.293h2.764c0-6.107-4.95-11.057-11.057-11.057s-11.058 4.95-11.058 11.057c0 6.106 4.95 11.057 11.058 11.057V33.88z" fill="url(#paint2_linear)" fill-opacity=".8"/><path d="M25.586 28.35a2.764 2.764 0 1 1 2.764-2.764h2.764a5.529 5.529 0 1 0-5.528 5.528V28.35z" fill="url(#paint3_linear)"/><defs><linearGradient id="paint0_linear" x1="2.786" y1="6.036" x2="48.75" y2="58.5" gradientUnits="userSpaceOnUse"><stop stop-color="#FF9372"/><stop offset="1" stop-color="#FFD770"/></linearGradient><linearGradient id="paint1_linear" x1="-103.704" y1="-101.664" x2="40.099" y2="46.318" gradientUnits="userSpaceOnUse"><stop stop-color="#FF9372"/><stop offset="1" stop-color="#FFD770"/></linearGradient><linearGradient id="paint2_linear" x1="-60.608" y1="-59.248" x2="35.261" y2="39.408" gradientUnits="userSpaceOnUse"><stop stop-color="#FF9372"/><stop offset="1" stop-color="#FFD770"/></linearGradient><linearGradient id="paint3_linear" x1="-17.51" y1="-16.83" x2="30.423" y2="32.497" gradientUnits="userSpaceOnUse"><stop stop-color="#FF9372"/><stop offset="1" stop-color="#FFDF8E"/></linearGradient></defs></svg>