<svg width="73" height="73" xmlns="http://www.w3.org/2000/svg"><defs><linearGradient x1="0%" y1="0%" x2="100%" y2="94.831%" id="a"><stop stop-color="#33BCE6" offset="0%"/><stop stop-color="#48E2E5" offset="100%"/></linearGradient><linearGradient x1="5.146%" y1="24.206%" x2="50%" y2="100%" id="b"><stop stop-color="#2597B7" offset="0%"/><stop stop-color="#39C5E1" offset="100%"/></linearGradient><linearGradient x1="5.738%" y1="50%" x2="100%" y2="50%" id="c"><stop stop-color="#3DCEE5" offset="0%"/><stop stop-color="#48E2E6" offset="100%"/></linearGradient></defs><g fill="none" fill-rule="evenodd"><path d="M20.511 0H52.49c7.132 0 9.718.743 12.326 2.137a14.538 14.538 0 0 1 6.048 6.048C72.257 10.793 73 13.38 73 20.511V52.49c0 7.132-.743 9.718-2.137 12.326a14.538 14.538 0 0 1-6.048 6.048C62.207 72.257 59.62 73 52.489 73H20.51c-7.132 0-9.718-.743-12.326-2.137a14.538 14.538 0 0 1-6.048-6.048C.743 62.207 0 59.62 0 52.489V20.51c0-7.132.743-9.718 2.137-12.326a14.538 14.538 0 0 1 6.048-6.048C10.793.743 13.38 0 20.511 0z" fill="url(#a)"/><path fill="url(#b)" d="M19.973 0L0 11.5v23L19.973 46l19.974-11.5v-23z" transform="translate(17 14)"/><path fill="#73F0F8" d="M36.973 60V14l19.974 11.5v23z"/><path fill="url(#c)" d="M0 11.5L19.973 0l19.974 11.5-19.974 10.983z" transform="translate(17 14)"/></g></svg>