<svg xmlns="http://www.w3.org/2000/svg" width="56" height="56" fill="none" viewBox="0 0 160 160"><defs/><path fill="url(#prefix__paint0_linear)" d="M0 0h160v160H0z"/><g clip-path="url(#prefix__clip0)"><path fill="#fff" fill-opacity=".9" d="M91.46 49.39c5.121 3.211 8.713 8.645 9.367 14.953a16.151 16.151 0 006.864 1.537c8.973 0 16.246-7.272 16.246-16.244 0-8.973-7.273-16.246-16.246-16.246-8.887.003-16.096 7.146-16.231 16zM80.817 82.653c8.973 0 16.245-7.275 16.245-16.246 0-8.972-7.274-16.244-16.245-16.244-8.972 0-16.249 7.274-16.249 16.245 0 8.972 7.277 16.245 16.249 16.245zm6.89 1.107H73.924c-11.47 0-20.8 9.332-20.8 20.802v16.858l.042.264 1.161.363c10.946 3.42 20.455 4.561 28.282 4.561 15.288 0 24.149-4.359 24.695-4.637l1.085-.549h.116v-16.86c.004-11.47-9.327-20.802-20.796-20.802zm26.878-16.771h-13.678a20.021 20.021 0 01-6.18 13.945c10.195 3.032 17.655 12.486 17.655 23.653v5.194c13.505-.494 21.288-4.322 21.801-4.579l1.085-.55h.116V87.788c0-11.468-9.331-20.8-20.799-20.8zm-62.274-1.106c3.178 0 6.135-.928 8.64-2.508.796-5.193 3.58-9.731 7.557-12.822.017-.305.046-.606.046-.913 0-8.973-7.274-16.245-16.243-16.245-8.974 0-16.246 7.272-16.246 16.245 0 8.969 7.272 16.243 16.246 16.243zM66.9 80.934a20.033 20.033 0 01-6.176-13.868c-.507-.037-1.009-.077-1.526-.077H45.416c-11.47 0-20.8 9.33-20.8 20.799v16.861l.042.26 1.161.366c8.781 2.741 16.618 4.005 23.424 4.403v-5.091c.003-11.167 7.46-20.618 17.657-23.653z"/></g><defs><linearGradient id="prefix__paint0_linear" x1="160" x2="0" y1="160" y2="0" gradientUnits="userSpaceOnUse"><stop stop-color="#EE355E"/><stop offset="1" stop-color="#EE18CA"/></linearGradient><clipPath id="prefix__clip0"><path fill="#fff" d="M0 0h110.769v110.769H0z" transform="translate(24.615 24.615)"/></clipPath></defs></svg>