<svg xmlns="http://www.w3.org/2000/svg" width="56" height="56" fill="none" viewBox="0 0 160 160"><defs/><path fill="url(#prefix__paint0_linear)" d="M0 0h160v160H0z"/><g fill="#fff" clip-path="url(#prefix__clip0)"><path fill-opacity=".6" d="M51.594 48.295l42.523-11.607-2.252-4.552c-1.474-2.959-5.067-4.18-8.026-2.707L45.772 48.295h5.822z"/><path fill-opacity=".8" d="M107.317 37.023a5.99 5.99 0 00-1.582.216l-9.99 2.73-30.508 8.326H114.959l-1.869-6.852a5.979 5.979 0 00-5.773-4.42z"/><path d="M121.199 52.487H32.667a5.995 5.995 0 00-5.786 4.42 6.202 6.202 0 00-.214 1.57v66.73a5.991 5.991 0 005.989 5.989h88.531a5.991 5.991 0 005.989-5.989v-16.709h-35.54c-5.617 0-10.18-4.564-10.18-10.182V84.997c0-2.756 1.101-5.26 2.886-7.092a10.08 10.08 0 016.073-3.007c.395-.047.803-.071 1.21-.071h35.551v-16.35c.012-3.307-2.671-5.99-5.977-5.99z"/><path fill-opacity=".9" d="M131.381 80.553a5.988 5.988 0 00-2.096-1.246 6.11 6.11 0 00-1.941-.323H91.636a5.991 5.991 0 00-5.988 5.989v13.331a5.992 5.992 0 005.989 5.99h35.707c.683 0 1.33-.12 1.941-.324a5.807 5.807 0 002.096-1.246 5.967 5.967 0 001.952-4.42V84.974c0-1.75-.754-3.33-1.952-4.42zM104.142 92.83a2.995 2.995 0 01-2.994 2.995h-1.989a2.996 2.996 0 01-2.994-2.995v-1.988c0-.958.443-1.809 1.15-2.348a3.026 3.026 0 011.844-.647H101.148a2.995 2.995 0 012.994 2.995v1.988z"/></g><defs><linearGradient id="prefix__paint0_linear" x1="160" x2="0" y1="160" y2="0" gradientUnits="userSpaceOnUse"><stop stop-color="#34EDDF"/><stop offset="1" stop-color="#35ACB2"/></linearGradient><clipPath id="prefix__clip0"><path fill="#fff" d="M0 0h106.667v106.667H0z" transform="translate(26.667 26.667)"/></clipPath></defs></svg>