<svg width="24" height="24" fill="none" xmlns="http://www.w3.org/2000/svg"><path d="M0 0h24v24H0V0z" fill="url(#paint0_linear)"/><path d="M11.586 4.883a.584.584 0 00.828 0l1.255-1.255a.586.586 0 10-.828-.829l-.255.255v-.468a.586.586 0 10-1.172 0v.468L11.16 2.8a.586.586 0 10-.829.829l1.256 1.255zm.828 14.234a.584.584 0 00-.828 0l-1.255 1.255a.586.586 0 10.828.829l.255-.255v.468a.586.586 0 101.172 0v-.468l.255.255a.586.586 0 00.829-.829l-1.256-1.255zm9-7.703h-.468l.255-.255a.586.586 0 00-.829-.829l-1.255 1.256a.584.584 0 000 .828l1.255 1.256a.586.586 0 00.829-.829l-.255-.255h.468a.586.586 0 100-1.172zM3.628 13.67l1.255-1.256a.584.584 0 000-.828L3.628 10.33a.586.586 0 00-.829.828l.255.255h-.468a.586.586 0 000 1.172h.468l-.255.255a.586.586 0 00.829.829zm17.175 1.485a.586.586 0 00-.718-.415l-1.714.46a.584.584 0 00-.415.717l.46 1.715a.586.586 0 101.132-.303l-.094-.349.406.234a.586.586 0 00.586-1.014l-.406-.234.349-.094a.586.586 0 00.414-.717zM3.197 8.846a.586.586 0 00.718.414l1.714-.46a.584.584 0 00.415-.717l-.46-1.715a.586.586 0 10-1.132.303l.094.349-.406-.234A.586.586 0 003.554 7.8l.406.234-.349.093a.586.586 0 00-.414.718zm14.435 9.57l-1.715-.46a.584.584 0 00-.717.415l-.46 1.714a.586.586 0 101.132.303l.094-.348.234.406a.586.586 0 101.015-.586l-.235-.406.349.094a.586.586 0 00.303-1.132zM6.368 5.584l1.715.46A.584.584 0 008.8 5.63l.46-1.715a.586.586 0 10-1.132-.303l-.094.348-.234-.406a.586.586 0 00-1.015.586l.235.406-.349-.094a.586.586 0 00-.303 1.132zM8.8 18.37a.584.584 0 00-.717-.414l-1.715.46a.586.586 0 10.303 1.132l.349-.094-.234.406a.586.586 0 001.014.586l.235-.406.093.349a.586.586 0 001.132-.304l-.46-1.714zm6.4-12.74a.584.584 0 00.717.414l1.715-.46a.586.586 0 10-.303-1.132l-.349.094.234-.406a.586.586 0 00-1.014-.586l-.235.406-.093-.349a.586.586 0 10-1.132.304l.46 1.714zm-9.215 9.843a.584.584 0 00-.356-.273l-1.714-.46a.586.586 0 00-.303 1.132l.348.094-.406.234a.586.586 0 10.586 1.015l.406-.235-.094.349a.586.586 0 001.132.303l.46-1.715a.584.584 0 00-.059-.444z" fill="#fff" fill-opacity=".5"/><g clip-path="url(#clip0)"><path d="M20.827 8.046l-8.595 9.509a.55.55 0 01-.833 0l-5.227-5.821a.704.704 0 010-.923l1.249-1.38a.55.55 0 01.833 0l3.566 3.972 6.924-7.663a.551.551 0 01.833 0l1.25 1.383a.7.7 0 010 .923z" fill="#fff"/></g><defs><linearGradient id="paint0_linear" x1="-13" y1="-10.5" x2="25" y2="25" gradientUnits="userSpaceOnUse"><stop stop-color="#7C80F2"/><stop offset=".526" stop-color="#7C80F2"/><stop offset="1" stop-color="#65AAFF"/><stop offset="1" stop-color="#65AAFF"/></linearGradient><clipPath id="clip0"><path fill="#fff" transform="translate(6 3)" d="M0 0h15v17H0z"/></clipPath></defs></svg>