<svg width="24" height="24" fill="none" xmlns="http://www.w3.org/2000/svg"><path fill="url(#paint0_linear)" d="M0 0h24v24H0z"/><path d="M17.455 4H6.545a.727.727 0 0 0-.726.727v14.546c0 .401.325.727.727.727h10.909a.727.727 0 0 0 .727-.727V4.727A.727.727 0 0 0 17.455 4zm-.727 1.454v2.182H7.272V5.454h9.454zM7.272 18.546V9.09h9.454v9.454H7.273z" fill="url(#paint1_linear)"/><path d="M9.873 9.734h-1.51c-.2 0-.363.163-.363.364v1.51c0 .201.163.364.364.364h1.51c.2 0 .363-.163.363-.364v-1.51a.363.363 0 0 0-.364-.364zM12.755 9.734h-1.51c-.2 0-.363.163-.363.364v1.51c0 .201.162.364.363.364h1.51c.2 0 .363-.163.363-.364v-1.51a.363.363 0 0 0-.363-.364zM15.636 9.734h-1.51c-.2 0-.363.163-.363.364v1.51c0 .201.163.364.364.364h1.51c.2 0 .363-.163.363-.364v-1.51a.363.363 0 0 0-.364-.364z" fill="#fff"/><path d="M9.873 12.7h-1.51c-.2 0-.363.162-.363.363v1.51c0 .201.163.364.364.364h1.51c.2 0 .363-.163.363-.364v-1.51a.362.362 0 0 0-.364-.364zM12.755 12.7h-1.51c-.2 0-.363.162-.363.363v1.51c0 .201.162.364.363.364h1.51c.2 0 .363-.163.363-.364v-1.51a.363.363 0 0 0-.363-.364z" fill="#fff" fill-opacity=".8"/><path d="M9.873 15.665h-1.51c-.2 0-.363.163-.363.363v1.51c0 .202.163.364.364.364h1.51c.2 0 .363-.163.363-.364v-1.51c0-.201-.162-.363-.364-.363zM12.755 15.665h-1.51c-.2 0-.363.163-.363.363v1.51c0 .202.162.364.363.364h1.51c.2 0 .363-.163.363-.364v-1.51c0-.201-.162-.363-.363-.363zM15.636 12.7h-1.51c-.2 0-.363.162-.363.363v4.475c0 .202.163.364.364.364h1.51c.2 0 .363-.163.363-.364v-4.475a.363.363 0 0 0-.364-.364z" fill="#fff" fill-opacity=".6"/><defs><linearGradient id="paint0_linear" x1="26.195" y1="7.083" x2="8.072" y2="-9.061" gradientUnits="userSpaceOnUse"><stop stop-color="#46C4E6"/><stop offset="1" stop-color="#4A80E4"/></linearGradient><linearGradient id="paint1_linear" x1="12" y1="8" x2="12" y2="27.5" gradientUnits="userSpaceOnUse"><stop stop-color="#fff"/><stop offset="1" stop-color="#fff" stop-opacity="0"/></linearGradient></defs></svg>