<svg width="56" height="56" fill="none" xmlns="http://www.w3.org/2000/svg"><path fill="url(#paint0_linear)" d="M0 0h56v56H0z"/><path d="M39.25 11.228C37.371 11.228 37.371 9 35.492 9s-1.879 2.228-3.75 2.228c-1.87 0-1.879-2.228-3.75-2.228-1.87 0-1.87 2.228-3.75 2.228C22.363 11.228 22.372 9 20.5 9c-1.871 0-1.879 2.228-3.75 2.228S14.871 9.38 13 9.38V45a2 2 0 0 0 2 2h26a2 2 0 0 0 2-2V9.381c-1.879 0-1.879 1.847-3.75 1.847z" fill="#fff"/><path d="M31 19a1 1 0 0 1 1-1h6a1 1 0 1 1 0 2h-6a1 1 0 0 1-1-1z" fill="#FF897E"/><rect x="17" y="23" width="22" height="2" rx="1" fill="#FF897E" fill-opacity=".8"/><rect x="17" y="28" width="22" height="2" rx="1" fill="#FF897E" fill-opacity=".6"/><rect x="17" y="33" width="22" height="2" rx="1" fill="#FF897E" fill-opacity=".5"/><rect x="17" y="38" width="22" height="2" rx="1" fill="#FF897E" fill-opacity=".3"/><defs><linearGradient id="paint0_linear" x1="70" y1="82.5" x2="14" y2="-1.5" gradientUnits="userSpaceOnUse"><stop stop-color="#FFF886"/><stop offset="1" stop-color="#FF4E78"/></linearGradient></defs></svg>