<svg width="24" height="24" fill="none" xmlns="http://www.w3.org/2000/svg"><path fill="url(#paint0_linear)" d="M0 0h24v24H0z"/><path d="M16.821 4.812c-.805 0-.805-.955-1.61-.955s-.805.955-1.607.955c-.802 0-.805-.955-1.607-.955-.802 0-.802.955-1.607.955-.806 0-.802-.955-1.604-.955s-.806.955-1.607.955c-.802 0-.806-.792-1.608-.792v15.123a1 1 0 0 0 1 1H17.43a1 1 0 0 0 1-1V4.02c-.806 0-.806.792-1.608.792z" fill="#fff"/><path d="M13.286 8.143c0-.237.192-.429.428-.429h2.572a.429.429 0 1 1 0 .857h-2.572a.429.429 0 0 1-.428-.428z" fill="#FF897E"/><rect x="7.286" y="9.857" width="9.429" height=".857" rx=".429" fill="#FF897E" fill-opacity=".8"/><rect x="7.286" y="12" width="9.429" height=".857" rx=".429" fill="#FF897E" fill-opacity=".6"/><rect x="7.286" y="14.143" width="9.429" height=".857" rx=".429" fill="#FF897E" fill-opacity=".5"/><rect x="7.286" y="16.286" width="9.429" height=".857" rx=".429" fill="#FF897E" fill-opacity=".3"/><defs><linearGradient id="paint0_linear" x1="30" y1="35.357" x2="6" y2="-.643" gradientUnits="userSpaceOnUse"><stop stop-color="#FFF886"/><stop offset="1" stop-color="#FF4E78"/></linearGradient></defs></svg>