<svg xmlns="http://www.w3.org/2000/svg" width="56" height="56" fill="none" viewBox="0 0 160 160"><defs/><path fill="url(#prefix__paint0_linear)" d="M0 0h160v160H0z"/><g fill="#fff" clip-path="url(#prefix__clip0)"><path d="M42.238 95.016a3.128 3.128 0 00.583 3.613l.764.764a136.796 136.796 0 017.902-8.576c.22-.22.447-.327.669-.53l-4.916-4.918c-2.858 5.17-4.525 8.702-5.002 9.647zM69.164 108.494a141.94 141.94 0 01-8.562 7.916l1.036 1.035a3.122 3.122 0 003.638.57c1.619-.834 4.164-2.032 9.568-5.041l-5.148-5.149c-.204.223-.31.449-.532.669z" opacity=".9"/><path d="M67.498 92.487c-2.258-2.258-8.61-.234-11.593 2.749-9.98 9.98-14.488 17.056-16.512 21.234a3.126 3.126 0 004.178 4.174c4.085-1.984 11.075-6.47 21.174-16.569 3.28-3.282 4.9-9.441 2.755-11.586l-.002-.002z" opacity=".5"/><path d="M36.42 68.273l-8.838 8.839a3.124 3.124 0 003.018 5.229c4.777-1.281 8.98-1.822 11.811-1.096 4.027-7.16 8.354-13.75 12.936-19.736-2.65-1.7-11.41-.753-18.926 6.764zM79.561 132.998a3.118 3.118 0 003.615-.58l8.84-8.839c6.842-6.845 8.047-15.676 6.494-18.476-6.676 5.031-13.44 9.28-19.75 12.837.435 2.459.146 4.844-.884 11.81a3.118 3.118 0 001.685 3.248z"/><path d="M88.708 58.014c-3.655 3.656-3.655 9.602 0 13.258 3.656 3.655 9.603 3.655 13.259 0 3.655-3.656 3.655-9.602 0-13.258-3.656-3.655-9.603-3.655-13.259 0z" opacity=".6"/><path d="M133.15 29.715a3.121 3.121 0 00-2.884-2.883c-7.675-.577-15.32.367-22.813 2.658.564 5.148 3.227 10.72 7.773 15.265 4.6 4.6 10.323 7.262 15.563 7.76 2.018-7.073 2.975-14.648 2.361-22.8z"/><path d="M110.806 49.175c-5.2-5.2-8.376-11.437-9.395-17.51C82.646 39.363 64.682 56.17 50.487 79.78l7.052 7.052c4.819-1.956 10.668-2.473 14.379 1.236 3.714 3.716 3.188 9.563 1.232 14.375l7.285 7.284C98.6 98.778 119.75 81.53 128.743 58.581c-6.221-.94-12.652-4.12-17.937-9.406zm-4.421 26.517c-6.091 6.091-16.004 6.091-22.096 0-6.092-6.092-6.092-16.006 0-22.097 6.092-6.092 16.005-6.092 22.096 0 6.092 6.092 6.092 16.005 0 22.097z" opacity=".9"/></g><defs><linearGradient id="prefix__paint0_linear" x1="160" x2="0" y1="160" y2="0" gradientUnits="userSpaceOnUse"><stop stop-color="#86DBFF"/><stop offset="1" stop-color="#5C4EFF"/></linearGradient><clipPath id="prefix__clip0"><path fill="#fff" d="M0 0h106.667v106.667H0z" transform="translate(26.667 26.667)"/></clipPath></defs></svg>