<svg xmlns="http://www.w3.org/2000/svg" width="56" height="56" fill="none" viewBox="0 0 160 160"><defs/><path fill="url(#prefix__paint0_linear)" d="M0 0h160v160H0z"/><g fill="#fff" clip-path="url(#prefix__clip0)"><path d="M57.658 87.577a66.44 66.44 0 008.636-.554V56.971a66.49 66.49 0 00-8.636-.554c-17.116 0-30.991 6.293-30.991 14.056v3.048c0 7.763 13.875 14.056 30.99 14.056z"/><path d="M57.658 103.27c2.997 0 5.895-.193 8.636-.553v-8.81c-2.742.36-5.638.557-8.636.557-14.94 0-27.41-4.795-30.34-11.177a6.856 6.856 0 00-.651 2.879v3.048c0 7.763 13.875 14.056 30.99 14.056z" opacity=".8"/><path d="M66.294 110.285v-.685c-2.742.36-5.638.557-8.636.557-14.94 0-27.41-4.796-30.34-11.178a6.853 6.853 0 00-.651 2.879v3.048c0 7.764 13.875 14.057 30.99 14.057 3.424 0 6.716-.253 9.794-.717a11.093 11.093 0 01-1.156-4.913v-3.048z" opacity=".7"/><path d="M102.342 32.61c-17.116 0-30.99 6.294-30.99 14.057v3.048c0 7.763 13.874 14.056 30.99 14.056 17.115 0 30.991-6.293 30.991-14.056v-3.048c0-7.763-13.876-14.056-30.991-14.056z"/><path d="M102.342 70.658c-14.94 0-27.41-4.795-30.34-11.177a6.853 6.853 0 00-.65 2.879v3.048c0 7.763 13.874 14.056 30.99 14.056 17.115 0 30.991-6.293 30.991-14.056V62.36c0-.987-.225-1.95-.652-2.88-2.929 6.383-15.399 11.178-30.339 11.178z" opacity=".8"/><path d="M102.342 86.35c-14.94 0-27.41-4.795-30.34-11.177a6.853 6.853 0 00-.65 2.88V81.1c0 7.763 13.874 14.056 30.99 14.056 17.115 0 30.991-6.293 30.991-14.056v-3.049c0-.987-.225-1.95-.652-2.879-2.929 6.382-15.399 11.177-30.339 11.177z" opacity=".7"/><path d="M102.342 102.891c-14.94 0-27.41-4.795-30.34-11.177a6.854 6.854 0 00-.65 2.878v3.049c0 7.763 13.874 14.056 30.99 14.056 17.115 0 30.991-6.293 30.991-14.056v-3.049c0-.986-.225-1.95-.652-2.878-2.929 6.381-15.399 11.177-30.339 11.177z" opacity=".6"/><path d="M102.342 118.583c-14.94 0-27.41-4.795-30.34-11.176a6.851 6.851 0 00-.65 2.878v3.048c0 7.764 13.874 14.057 30.99 14.057 17.115 0 30.991-6.293 30.991-14.057v-3.048c0-.987-.225-1.95-.652-2.879-2.929 6.382-15.399 11.177-30.339 11.177z" opacity=".4"/></g><defs><linearGradient id="prefix__paint0_linear" x1="160" x2="0" y1="160" y2="0" gradientUnits="userSpaceOnUse"><stop stop-color="#469F1B"/><stop offset="1" stop-color="#60FFCF"/></linearGradient><clipPath id="prefix__clip0"><path fill="#fff" d="M0 0h106.667v106.667H0z" transform="translate(26.667 26.667)"/></clipPath></defs></svg>