<svg width="56" height="56" fill="none" xmlns="http://www.w3.org/2000/svg"><path fill="url(#paint0_linear)" d="M0 0h56v56H0z"/><path d="M45.764 36.346V19.654c0-1.182-.63-2.274-1.655-2.865L29.654 8.443a3.308 3.308 0 0 0-3.308 0L11.89 16.79a3.308 3.308 0 0 0-1.654 2.865v16.692c0 1.182.63 2.274 1.654 2.865l14.456 8.346a3.308 3.308 0 0 0 3.308 0L44.11 39.21a3.308 3.308 0 0 0 1.655-2.865z" fill="#7D80F2"/><path d="M44.11 39.21c.513-.296.928-.719 1.213-1.216L28 27.993V48c.571 0 1.142-.148 1.654-.443L44.11 39.21z" fill="#7370DB"/><path d="M28 28l17.32-10a3.304 3.304 0 0 0-1.21-1.21L29.654 8.442a3.308 3.308 0 0 0-3.308 0L11.89 16.79A3.305 3.305 0 0 0 10.68 18L28 28z" fill="url(#paint1_linear)"/><path d="M11.89 39.21a3.306 3.306 0 0 1-1.214-1.215L28 27.993V48a3.307 3.307 0 0 1-1.654-.443L11.89 39.21z" fill="#8BB3EA" fill-opacity=".1"/><g filter="url(#filter0_f)"><path d="M28 28l17-10a3.276 3.276 0 0 0-1.188-1.21L29.623 8.442a3.195 3.195 0 0 0-3.248 0L12.188 16.79A3.276 3.276 0 0 0 11 18l17 10z" fill="url(#paint2_linear)" fill-opacity=".6"/></g><defs><filter id="filter0_f" x="7" y="4" width="42" height="28" filterUnits="userSpaceOnUse" color-interpolation-filters="sRGB"><feFlood flood-opacity="0" result="BackgroundImageFix"/><feBlend in="SourceGraphic" in2="BackgroundImageFix" result="shape"/><feGaussianBlur stdDeviation="2" result="effect1_foregroundBlur"/></filter><linearGradient id="paint0_linear" x1="3" y1="6.5" x2="52.5" y2="63" gradientUnits="userSpaceOnUse"><stop stop-color="#65AAFF"/><stop offset="1" stop-color="#5D21D4"/></linearGradient><linearGradient id="paint1_linear" x1="28" y1="8" x2="46" y2="29" gradientUnits="userSpaceOnUse"><stop stop-color="#fff"/><stop offset="1" stop-color="#DBEAFF" stop-opacity="0"/></linearGradient><linearGradient id="paint2_linear" x1="28" y1="8" x2="38.62" y2="29.343" gradientUnits="userSpaceOnUse"><stop stop-color="#fff"/><stop offset="1" stop-color="#DBEAFF" stop-opacity="0"/></linearGradient></defs></svg>