<svg width="24" height="24" fill="none" xmlns="http://www.w3.org/2000/svg"><path fill="url(#paint0_linear)" d="M0 0h24v24H0z"/><path d="M19.105 15.338V8.662c0-.473-.252-.91-.661-1.146l-5.782-3.339a1.323 1.323 0 0 0-1.324 0L5.556 7.516c-.41.236-.662.673-.662 1.146v6.676c0 .473.253.91.662 1.146l5.782 3.339c.41.236.914.236 1.324 0l5.782-3.339c.41-.236.662-.673.662-1.146z" fill="#7D80F2"/><path d="M18.444 16.484c.205-.118.371-.287.485-.486l-6.929-4V20c.229 0 .457-.059.662-.177l5.782-3.339z" fill="#7370DB"/><path d="M12 12l6.928-4a1.322 1.322 0 0 0-.484-.484l-5.782-3.339a1.323 1.323 0 0 0-1.324 0L5.556 7.516c-.205.118-.37.286-.484.484L12 12z" fill="url(#paint1_linear)"/><path d="M5.556 16.484a1.322 1.322 0 0 1-.485-.486l6.929-4V20c-.229 0-.457-.059-.662-.177l-5.782-3.339z" fill="#8BB3EA" fill-opacity=".1"/><defs><linearGradient id="paint0_linear" x1="1.286" y1="2.786" x2="22.5" y2="27" gradientUnits="userSpaceOnUse"><stop stop-color="#65AAFF"/><stop offset="1" stop-color="#5D21D4"/></linearGradient><linearGradient id="paint1_linear" x1="12" y1="4" x2="24" y2="13.5" gradientUnits="userSpaceOnUse"><stop stop-color="#fff"/><stop offset="1" stop-color="#DBEAFF" stop-opacity="0"/></linearGradient></defs></svg>