<svg width="56" height="56" fill="none" xmlns="http://www.w3.org/2000/svg"><path fill="url(#paint0_linear)" d="M0 0h56v56H0z"/><path fill="#fff" d="M10 9h36v36H10z"/><g filter="url(#filter0_f)"><path fill="url(#paint1_linear)" d="M10 9h36v36H10z"/></g><path stroke="url(#paint2_linear)" stroke-width="2" d="M13.177 12.177h29.647v29.647H13.177z"/><path d="M34.776 27c0 1.383-.417 2.67-1.126 3.745l3.437 3.452a1.364 1.364 0 0 1 0 1.923 1.35 1.35 0 0 1-1.915 0l-3.437-3.452a6.708 6.708 0 0 1-3.73 1.13 6.709 6.709 0 0 1-3.73-1.13l-3.437 3.452a1.35 1.35 0 0 1-1.914 0 1.364 1.364 0 0 1 0-1.923l3.437-3.452A6.779 6.779 0 0 1 21.235 27c0-1.384.416-2.671 1.126-3.746l-3.437-3.452a1.364 1.364 0 0 1 0-1.923 1.35 1.35 0 0 1 1.914 0l3.437 3.452a6.709 6.709 0 0 1 3.73-1.13c1.378 0 2.66.417 3.73 1.13l3.437-3.452a1.35 1.35 0 0 1 1.915 0 1.364 1.364 0 0 1 0 1.923l-3.437 3.452a6.779 6.779 0 0 1 1.126 3.745zm-6.77-4.08c-2.24 0-4.063 1.83-4.063 4.08 0 2.249 1.822 4.079 4.062 4.079s4.062-1.83 4.062-4.08-1.822-4.079-4.062-4.079zm0 5.44A1.357 1.357 0 0 1 26.65 27c0-.752.606-1.36 1.354-1.36.748 0 1.354.608 1.354 1.36 0 .75-.606 1.36-1.354 1.36z" fill="url(#paint3_linear)" fill-opacity=".9" stroke="#fff" stroke-width=".2"/><path fill="#fff" d="M16.353 43.941h6.353v3.176h-6.353zM33.294 43.941h6.353v3.176h-6.353z"/><defs><filter id="filter0_f" x="4" y="3" width="48" height="48" filterUnits="userSpaceOnUse" color-interpolation-filters="sRGB"><feFlood flood-opacity="0" result="BackgroundImageFix"/><feBlend in="SourceGraphic" in2="BackgroundImageFix" result="shape"/><feGaussianBlur stdDeviation="3" result="effect1_foregroundBlur"/></filter><linearGradient id="paint0_linear" x1="0" y1="-9.338" x2="-18.676" y2="46.662" gradientUnits="userSpaceOnUse"><stop stop-color="#FF6A3D"/><stop offset="1" stop-color="#FF127F"/></linearGradient><linearGradient id="paint1_linear" x1="28" y1="9" x2="28" y2="49.5" gradientUnits="userSpaceOnUse"><stop stop-color="#fff"/><stop offset="1" stop-color="#fff" stop-opacity="0"/></linearGradient><linearGradient id="paint2_linear" x1="29" y1="44.5" x2="29.5" y2="13" gradientUnits="userSpaceOnUse"><stop stop-color="#FF3169" stop-opacity=".56"/><stop offset="1" stop-color="#FF6B3E"/></linearGradient><linearGradient id="paint3_linear" x1="18.527" y1="14.306" x2="12.156" y2="33.327" gradientUnits="userSpaceOnUse"><stop stop-color="#FF6A3D"/><stop offset="1" stop-color="#FF127F"/></linearGradient></defs></svg>