<svg width="24" height="24" fill="none" xmlns="http://www.w3.org/2000/svg"><path fill="url(#paint0_linear)" d="M0 0h24v24H0z"/><path d="M17.6 19.493a.506.506 0 0 1-.507.507h-.586a.506.506 0 0 1-.507-.507v-.853c0-.267.213-.507.507-.507h.586c.267 0 .507.214.507.507v.853zM7.734 19.493a.506.506 0 0 1-.507.507H6.64a.506.506 0 0 1-.506-.507v-.853c0-.267.213-.507.506-.507h.587c.267 0 .507.214.507.507v.853z" fill="#E4D0EC"/><path d="M19.467 17.44c0 .827-.64 1.493-1.467 1.493H6c-.827 0-1.467-.666-1.467-1.493v-12C4.533 4.613 5.173 4 6 4h12c.827 0 1.467.613 1.467 1.413V17.44z" fill="#fff"/><path d="M17.867 16.053c0 .64-.614 1.28-1.227 1.28H7.36c-.64 0-1.226-.64-1.226-1.28V6.8c0-.64.613-1.2 1.226-1.2h9.28c.64 0 1.227.56 1.227 1.2v9.253z" fill="#E4618B" fill-opacity=".15"/><path d="M6.933 9.653c0 .267-.213.48-.48.48H6.32a.478.478 0 0 1-.48-.48V8.187c0-.267.213-.48.48-.48h.133c.267 0 .48.213.48.48v1.466zM6.933 14.987c0 .266-.213.48-.48.48H6.32a.478.478 0 0 1-.48-.48V13.52c0-.267.213-.48.48-.48h.133c.267 0 .48.213.48.48v1.467z" fill="#F9C1E2"/><path d="M14.857 11.333c0 .97.018 2.068.705 2.754l.27.27a.571.571 0 1 1-.808.809l-.27-.271c-.687-.686-1.784-.704-2.754-.704s-2.067.018-2.754.704l-.27.27a.571.571 0 1 1-.809-.807l.271-.271c.687-.686.705-1.783.705-2.754 0-.97-.018-2.067-.705-2.753l-.27-.271a.571.571 0 1 1 .807-.808l.271.27c.687.687 1.784.705 2.754.705s2.067-.018 2.754-.704l.27-.271a.571.571 0 1 1 .809.808l-.271.27c-.687.687-.705 1.784-.705 2.754zM12 9.62c-.945 0-1.714.769-1.714 1.714 0 .946.769 1.715 1.714 1.715s1.714-.77 1.714-1.715c0-.945-.769-1.714-1.714-1.714zm0 2.286a.571.571 0 1 1 0-1.143.571.571 0 0 1 0 1.143z" fill="url(#paint1_linear)"/><defs><linearGradient id="paint0_linear" x1="0" y1="0" x2="33.667" y2="37.833" gradientUnits="userSpaceOnUse"><stop stop-color="#F5A623"/><stop offset="1" stop-color="#D012FF"/></linearGradient><linearGradient id="paint1_linear" x1="8" y1="7.333" x2="19.222" y2="19.944" gradientUnits="userSpaceOnUse"><stop stop-color="#F5A623"/><stop offset="1" stop-color="#D012FF"/></linearGradient></defs></svg>