<svg width="306" height="153" fill="none" xmlns="http://www.w3.org/2000/svg"><path d="M0 4a4 4 0 0 1 4-4h298a4 4 0 0 1 4 4v149H0V4z" fill="url(#paint0_linear)"/><path d="M194.192 95.524c.003-13.626-11.041-24.674-24.663-24.674-13.636 0-24.676 11.05-24.676 24.678 0 13.622 11.046 24.67 24.676 24.667h24.674l-.011-24.67z" fill="#fff"/><path d="M109.006 59.67c0 13.628 11.042 24.67 24.669 24.674 13.635-.003 24.673-11.045 24.673-24.674S147.304 34.995 133.675 35L109 35.002l.006 24.668z" fill="#fff"/><path d="M196.203 45.996c0 7.753-6.286 14.04-14.04 14.04-7.755 0-14.04-6.287-14.04-14.04 0-7.755 6.285-14.04 14.04-14.04 7.754 0 14.04 6.285 14.04 14.04z" fill="url(#paint1_linear)"/><path d="M134.53 106.912c0 6.784-5.504 12.286-12.289 12.286-6.784 0-12.282-5.502-12.282-12.286 0-6.782 5.498-12.285 12.283-12.285 6.785 0 12.288 5.503 12.288 12.285z" fill="url(#paint2_linear)"/><defs><linearGradient id="paint0_linear" x1="-33.5" y1="-132.5" x2="95.91" y2="132.019" gradientUnits="userSpaceOnUse"><stop stop-color="#9AFFD8"/><stop offset="1" stop-color="#68DFB1"/></linearGradient><linearGradient id="paint1_linear" x1="79.338" y1="-63.218" x2="60.487" y2="38.098" gradientUnits="userSpaceOnUse"><stop stop-color="#82F0C5"/><stop offset="1" stop-color="#46C996"/></linearGradient><linearGradient id="paint2_linear" x1="10.5" y1="43" x2="15.86" y2="131.596" gradientUnits="userSpaceOnUse"><stop stop-color="#82F0C5"/><stop offset="1" stop-color="#46C996"/></linearGradient></defs></svg>