<svg width="52" height="52" fill="none" xmlns="http://www.w3.org/2000/svg"><path d="M0 0h52v52H0V0z" fill="url(#paint0_linear)"/><path d="M39.954 32.605a8.383 8.383 0 0 0-8.382-8.386 8.386 8.386 0 1 0 0 16.77h8.386l-.004-8.384z" fill="#fff"/><path d="M11.002 20.42a8.385 8.385 0 1 0 16.77 0 8.382 8.382 0 0 0-8.386-8.385H11l.002 8.384z" fill="#fff"/><path d="M40.638 15.772a4.772 4.772 0 1 1-9.544 0 4.772 4.772 0 0 1 9.544 0z" fill="url(#paint1_linear)"/><path d="M19.677 36.476a4.175 4.175 0 1 1-8.352.001 4.175 4.175 0 0 1 8.352-.001z" fill="url(#paint2_linear)"/><defs><linearGradient id="paint0_linear" x1="-5.693" y1="-45.033" x2="50.004" y2="11.89" gradientUnits="userSpaceOnUse"><stop stop-color="#9AFFD8"/><stop offset="1" stop-color="#68DFB1"/></linearGradient><linearGradient id="paint1_linear" x1=".919" y1="-21.346" x2="-5.488" y2="13.088" gradientUnits="userSpaceOnUse"><stop stop-color="#82F0C5"/><stop offset="1" stop-color="#46C996"/></linearGradient><linearGradient id="paint2_linear" x1="-22.477" y1="14.754" x2="-20.655" y2="44.865" gradientUnits="userSpaceOnUse"><stop stop-color="#82F0C5"/><stop offset="1" stop-color="#46C996"/></linearGradient></defs></svg>