<svg width="1231" height="822" fill="none" xmlns="http://www.w3.org/2000/svg"><g clip-path="url(#clip0)"><path d="M1108 378.279c-12 79-59.33 138.333-82.5 157.5 23-1.5 35.5 3.5 46.5 10 37.49 22.15 27 61.833 16.5 82.5 25-2 117.77-29 139.5-161.5 21.73-132.5-86.5-217.5-154-252 14.5 23 46.12 83.741 34 163.5z" fill="#84B3D8" fill-opacity=".1"/><path opacity=".1" fill-rule="evenodd" clip-rule="evenodd" d="M514 67.779c-82 26.666-246 128.4-246 322 0 242 390.5 386.5 647.5 251.5 16-73 64.5-104.5 110-105.5 50.67-45.834 133.4-174.7 49-321.5l-20-10c1.33-6.167 3.5-26.5 0-41-54-34.5-299.5-185.5-600.5-160.5 36.4 37.2 55.167 58.833 60 65zm273.5 79.5c47-.334 158.7 10.6 229.5 57-41.6-10.8-59.333-13.5-63-13.5-6.167 4.666-22.1 16.5-36.5 26.5-90-20.5-123.833-58.167-130-70z" fill="#488BC6"/><path fill-rule="evenodd" clip-rule="evenodd" d="M268 389.779c0-193.6 164-295.334 246-322l-.202-.257C357.688 68.831 195.253 133.296 76 319.78c-119.2 186.4-70.333 412.333-31 502l.854.221h994.116C912.499 775.581 904.995 683.589 915.5 641.279c-257 135-647.5-9.5-647.5-251.5z" fill="#84B3D8" fill-opacity=".1"/></g><defs><clipPath id="clip0"><path fill="#fff" d="M.865 0h1229.97v822H.865z"/></clipPath></defs></svg>