<svg width="24" height="24" fill="none" xmlns="http://www.w3.org/2000/svg"><rect opacity=".5" width="24" height="24" rx="4" fill="#798EBB"/><path d="M8.965 14.187a.05.05 0 0 0 0 .071l1.031 1.005a.05.05 0 0 0 .07 0A6.31 6.31 0 0 1 14.5 13.47c1.675 0 3.25.635 4.434 1.789a.05.05 0 0 0 .07 0l1.03-1.005a.05.05 0 0 0 0-.071A7.884 7.884 0 0 0 14.5 11.95a7.871 7.871 0 0 0-5.535 2.237zm2.235 2.175a.05.05 0 0 0 0 .072l1.03 1.005a.05.05 0 0 0 .07 0 3.135 3.135 0 0 1 2.2-.889c.832 0 1.613.315 2.2.887a.05.05 0 0 0 .07 0l1.03-1.005a.05.05 0 0 0 0-.071 4.699 4.699 0 0 0-3.3-1.332 4.696 4.696 0 0 0-3.3 1.333zm1.792 3.217c0 .813.677 1.471 1.508 1.471.833 0 1.508-.658 1.508-1.471 0-.814-.675-1.471-1.508-1.471-.831 0-1.508.657-1.508 1.47z" fill="#fff" stroke="#fff" stroke-width=".1" stroke-linejoin="round"/><path fill-rule="evenodd" clip-rule="evenodd" d="M10.502 3.248A.59.59 0 0 0 10 3a.591.591 0 0 0-.503.248l-5.401 7.785a.53.53 0 0 0-.08.432.556.556 0 0 0 .277.351l3.8 2.063a1.27 1.27 0 0 1 .296-.438c.152-.146.308-.286.468-.42l-2.926-1.588 3.47-1.275v2.445c.381-.269.781-.506 1.197-.71v-1.735l2.562.941a9.059 9.059 0 0 1 2.792.018.542.542 0 0 0-.048-.084l-5.402-7.785zm2.582 12.139l-1.158 1.535-.344-.33c-.024-.074-.05-.11-.082-.092l-.028-.015-.084-.08a4.413 4.413 0 0 1 1.696-1.018zm-5.067-.823l-3.135-1.798a.604.604 0 0 0-.728.098.531.531 0 0 0-.045.697l5.32 7.056a.568.568 0 0 0 .376.357A.61.61 0 0 0 10 21a.609.609 0 0 0 .195-.026.568.568 0 0 0 .376-.357l1.354-1.837c.018-.076.04-.15.064-.221a1.251 1.251 0 0 1-.487-.291l-.342-.33-.562.745V17.4l-.078-.076a1.273 1.273 0 0 1-.38-.755 1.249 1.249 0 0 1-.767-.346l-.983-.945c-.2-.191-.33-.442-.373-.713zm6.84-2.287a7.558 7.558 0 0 0-4.61 1.28 7.42 7.42 0 0 0-.989.801l.363.35.074.04c.094.05.2.075.305.072a.606.606 0 0 0 .306-.073l4.552-2.47zM6.068 10.2l3.335-4.805v3.58L6.067 10.2zm7.866 0l-3.335-1.225v-3.58l3.335 4.805zm-4.531 8.484v-2.035l-2.704-1.55 2.704 3.585z" fill="#fff"/><path d="M10 3l-.004.15h.008L10 3zm.502.248l-.123.086.123-.086zm-1.005 0l.124.086-.124-.086zm-5.401 7.785l.123.086-.123-.086zm.197.784l-.072.131.072-.132zm3.8 2.062l-.071.131a.15.15 0 0 0 .21-.075l-.139-.056zm.296-.438l.104.108-.104-.108zm.468-.42l.096.115a.15.15 0 0 0-.024-.247l-.072.132zm-2.926-1.588l-.052-.14a.15.15 0 0 0-.02.272l.072-.132zm3.47-1.275h.15a.15.15 0 0 0-.201-.14l.052.14zm0 2.445h-.15a.15.15 0 0 0 .237.123l-.086-.123zm1.197-.71l.066.136a.15.15 0 0 0 .085-.135h-.15zm0-1.735l.052-.14a.15.15 0 0 0-.202.14h.15zm2.562.941l-.052.141c.024.009.05.011.074.008l-.022-.149zm2.792.018l-.024.148a.15.15 0 0 0 .16-.21l-.136.062zm-.048-.084l.123-.085-.123.085zm-3.978 5.89l-.104.107a.15.15 0 0 0 .224-.018l-.12-.09zm1.158-1.536l.12.09a.15.15 0 0 0-.166-.233l.046.143zm-1.502 1.204l-.142.048a.15.15 0 0 0 .038.06l.104-.108zM11.5 16.5l-.07.132a.15.15 0 0 0 .145-.002l-.075-.13zm-.028-.015l-.104.108c.01.01.02.018.033.024l.07-.132zm-.084-.08l-.104-.109a.15.15 0 0 0 0 .216l.104-.108zm1.046-.748l-.068-.133.068.133zm-7.552-2.89l-.075.13.075-.13zm3.135 1.797l.148-.024a.15.15 0 0 0-.074-.106l-.074.13zm-3.862-1.7l.107.105-.107-.105zm-.046.697l-.12.09.12-.09zm5.32 7.056l.142-.048a.15.15 0 0 0-.022-.043l-.12.09zm.376.357l-.044.143.044-.143zM10 21l.004-.15h-.008L10 21zm.195-.026l-.044-.144.044.144zm.376-.357l-.121-.09a.15.15 0 0 0-.021.042l.142.048zm1.354-1.837l.12.089a.15.15 0 0 0 .026-.054l-.146-.035zm.064-.221l.142.048a.15.15 0 0 0-.096-.191l-.046.143zm-.487-.291l.104-.108-.104.108zm-.342-.33l.104-.108a.15.15 0 0 0-.224.018l.12.09zm-.562.745h-.15a.15.15 0 0 0 .27.09l-.12-.09zm0-1.284h.15a.15.15 0 0 0-.046-.108l-.104.108zm-.078-.076l-.104.108.104-.108zm-.38-.755l.149-.019a.15.15 0 0 0-.137-.13l-.012.15zm-.767-.346l-.104.108.104-.108zm-.983-.945l.104-.108-.104.108zm6.468-3l.071.132a.15.15 0 0 0-.065-.282l-.006.15zm-4.61 1.28l-.084-.125.084.125zm-.99.801l-.104-.107a.15.15 0 0 0 0 .216l.104-.109zm.363.35l-.104.107c.01.01.02.018.032.024l.072-.132zm.074.04l.071-.133-.071.132zm.305.072l.004-.15h-.008l.004.15zm.306-.073l-.072-.132.072.132zm-.904-9.353h.15a.15.15 0 0 0-.274-.086l.124.086zm-3.335 4.805l-.123-.085a.15.15 0 0 0 .175.226l-.052-.14zm3.335-1.225l.051.141a.15.15 0 0 0 .099-.14h-.15zm1.197 0h-.15c0 .063.039.12.098.141l.051-.14zm3.334 1.225l-.052.141a.15.15 0 0 0 .175-.226l-.123.085zm-3.335-4.805l.124-.086a.15.15 0 0 0-.274.086h.15zM9.402 16.648h.15a.15.15 0 0 0-.076-.13l-.074.13zm0 2.035l-.12.09a.15.15 0 0 0 .27-.09h-.15zm-2.704-3.585l.075-.13a.15.15 0 0 0-.195.22l.12-.09zM10.004 3.15a.441.441 0 0 1 .375.184l.247-.171a.741.741 0 0 0-.63-.313l.008.3zm-.383.184a.441.441 0 0 1 .375-.184l.008-.3a.74.74 0 0 0-.63.313l.247.17zm-5.402 7.785l5.402-7.785-.247-.171-5.401 7.785.246.17zm-.058.31a.38.38 0 0 1 .058-.31l-.246-.171a.68.68 0 0 0-.103.554l.291-.073zm.204.256a.406.406 0 0 1-.204-.256l-.29.073c.047.19.176.351.35.446l.144-.263zm3.8 2.062l-3.8-2.062-.144.263 3.8 2.062.144-.263zm.067.188c.059-.145.147-.277.261-.386l-.208-.216a1.42 1.42 0 0 0-.33.49l.277.112zm.261-.386a8.55 8.55 0 0 1 .46-.413l-.192-.23a8.85 8.85 0 0 0-.476.426l.208.217zM5.86 11.565l2.927 1.588.143-.264-2.927-1.587-.143.263zm3.49-1.547l-3.47 1.274.104.282 3.47-1.275-.103-.281zm.203 2.585v-2.445h-.3v2.445h.3zm-.064.123a8.503 8.503 0 0 1 1.176-.697l-.131-.27c-.424.207-.83.448-1.218.722l.173.245zm.96-2.568v1.736h.3v-1.736h-.3zm2.764.8l-2.562-.94-.103.281 2.561.941.104-.281zm-.03.29a8.908 8.908 0 0 1 1.318-.098v-.3c-.46 0-.915.034-1.362.1l.044.298zm1.318-.098c.483 0 .96.039 1.428.115l.048-.296a9.19 9.19 0 0 0-1.476-.119v.3zm1.28-.031c.014.02.026.04.035.06l.273-.125a.688.688 0 0 0-.06-.106l-.247.17zm-5.4-7.785l5.4 7.785.247-.171-5.401-7.785-.247.17zm1.666 13.678l1.158-1.535-.24-.18-1.157 1.535.24.18zm-.016-.198l-.344-.33-.208.215.344.331.208-.216zm-.455-.184a.121.121 0 0 1-.092.011.107.107 0 0 1-.053-.032c-.005-.006-.005-.007-.002 0a.29.29 0 0 1 .012.03l.284-.095a.393.393 0 0 0-.066-.13.194.194 0 0 0-.095-.062.178.178 0 0 0-.138.018l.15.26zm-.174-.013l.029.015.14-.264-.028-.016-.141.265zm.175-.24l-.084-.08-.208.215.084.081.207-.216zm-.084.135a4.265 4.265 0 0 1 1.01-.721l-.136-.267c-.393.201-.758.46-1.082.772l.208.216zm1.01-.721c.202-.104.412-.191.629-.262l-.093-.285a4.593 4.593 0 0 0-.672.28l.137.267zm-7.695-2.895l3.135 1.798.15-.26-3.136-1.798-.149.26zm-.545.073a.454.454 0 0 1 .545-.072l.15-.26a.754.754 0 0 0-.91.123l.215.209zm-.034.501a.381.381 0 0 1 .034-.501l-.215-.21a.681.681 0 0 0-.058.892l.24-.18zm5.321 7.056L4.23 13.47l-.24.181 5.32 7.056.24-.18zm.3.304a.418.418 0 0 1-.278-.261l-.284.096a.717.717 0 0 0 .474.452l.088-.287zm.147.02a.458.458 0 0 1-.147-.02l-.088.287a.76.76 0 0 0 .243.033l-.008-.3zm.155-.02a.457.457 0 0 1-.147.02l-.008.3a.76.76 0 0 0 .243-.033l-.088-.287zm.277-.261c-.04.119-.14.22-.277.261l.088.287a.717.717 0 0 0 .474-.452l-.284-.096zm1.376-1.878l-1.354 1.837.241.178 1.355-1.837-.242-.178zm.267.124c.017-.07.037-.14.06-.208l-.284-.097a2.699 2.699 0 0 0-.068.234l.292.071zm-.036-.399a1.1 1.1 0 0 1-.429-.256l-.208.216c.16.154.347.262.546.326l.091-.286zm-.429-.256l-.342-.33-.208.217.342.329.208-.216zm-.888.613l.562-.744-.24-.18-.561.744.24.18zm-.27-1.374v1.284h.3V17.4h-.3zm.254-.108l-.078-.076-.208.216.079.076.207-.216zm-.078-.076a1.123 1.123 0 0 1-.335-.666l-.298.039c.042.32.19.618.425.843l.208-.216zm-.472-.796a1.098 1.098 0 0 1-.675-.305l-.208.216c.242.233.547.363.86.388l.023-.3zm-.675-.305l-.983-.945-.208.216.983.945.208-.216zm-.983-.945a1.123 1.123 0 0 1-.33-.629l-.295.048c.049.302.194.583.417.798l.208-.217zm6.006-2.75c.117 0 .234.003.35.008l.014-.3a8.03 8.03 0 0 0-.364-.008v.3zm-4.168 1.262a7.41 7.41 0 0 1 4.168-1.262v-.3c-1.574 0-3.075.46-4.336 1.313l.168.249zm-.97.786c.302-.292.627-.554.97-.786l-.168-.248a7.57 7.57 0 0 0-1.01.818l.208.216zm.363.132l-.363-.349-.208.217.363.348.208-.216zm.041.016l-.074-.04-.143.264.074.04.143-.264zm.23.055a.456.456 0 0 1-.23-.055l-.143.264c.118.064.25.094.381.09l-.008-.3zm.238-.055a.456.456 0 0 1-.23.055l-.008.3a.756.756 0 0 0 .381-.09l-.143-.265zm4.552-2.47l-4.552 2.47.143.264 4.552-2.47-.143-.264zM9.278 5.309l-3.334 4.806.246.17L9.525 5.48l-.247-.171zm.274 3.666v-3.58h-.3v3.58h.3zM6.119 10.34l3.334-1.225-.103-.282-3.335 1.225.104.282zm4.428-1.225l3.334 1.225.104-.282-3.335-1.225-.103.282zm-.099-3.721v3.58h.3v-3.58h-.3zm3.608 4.72l-3.334-4.806-.247.171 3.335 4.806.246-.171zm-4.804 6.534v2.035h.3v-2.035h-.3zm-2.628-1.42l2.703 1.55.15-.26-2.704-1.55-.15.26zm2.897 3.365l-2.703-3.585-.24.18 2.704 3.585.24-.18z" fill="#fff"/></svg>