<svg width="28" height="28" viewBox="0 0 28 28" xmlns="http://www.w3.org/2000/svg"><title>Artboard</title><g fill="none" fill-rule="evenodd"><path d="M0 0h28v28H0z"/><rect stroke="#8B9396" x="5.5" y="5.5" width="17" height="17" rx="2"/><path d="M8 23v2M12 23v2M16 23v2M20 23v2" stroke="#8B9396" stroke-linecap="round"/><g stroke="#8B9396" stroke-linecap="round"><path d="M8 3v2M12 3v2M16 3v2M20 3v2"/></g><g stroke="#8B9396" stroke-linecap="round"><path d="M25 8h-2M25 12h-2M25 16h-2M25 20h-2"/></g><g stroke="#8B9396" stroke-linecap="round"><path d="M5 8H3M5 12H3M5 16H3M5 20H3"/></g></g></svg>