<svg width="502" height="660" fill="none" xmlns="http://www.w3.org/2000/svg"><mask id="a" maskUnits="userSpaceOnUse" x="0" y="0" width="502" height="660"><path fill="#fff" d="M0 0h502v660H0z"/></mask><g mask="url(#a)"><path fill="url(#paint0_linear)" d="M-32-154h605v986H-32z"/><path d="M250.85-244.101L-26.082 208.938 250.85 82.547v-326.648z" stroke="url(#paint1_linear)" stroke-width=".8" stroke-dasharray="1"/><path d="M250.85 424.809v218.292L-26.082 265.568 250.85 424.809z" stroke="url(#paint2_linear)" stroke-width=".8" stroke-dasharray="1"/><path opacity=".498" d="M250.85-244.101l276.931 453.039L250.85 82.547v-326.648z" stroke="url(#paint3_linear)" stroke-width=".8" stroke-dasharray="1"/><path d="M250.85 424.809v218.292l276.931-377.533L250.85 424.809z" stroke="url(#paint4_linear)" stroke-width=".8" stroke-dasharray="1"/><path d="M250.85-500L-186 214.383 250.85 15.081V-500z" stroke="url(#paint5_linear)" stroke-width=".8" stroke-dasharray="1"/><path opacity=".436" d="M252.15 554.782V899L-184.7 303.681l436.85 251.101z" stroke="url(#paint6_linear)" stroke-width=".8" stroke-dasharray="1"/><path opacity=".498" d="M250.85-500L687.7 214.383 250.85 15.081V-500z" stroke="url(#paint7_linear)" stroke-width=".8" stroke-dasharray="1"/><path d="M251.15 554.782V899L688 303.681 251.15 554.782z" stroke="url(#paint8_linear)" stroke-width=".8" stroke-dasharray="1"/><path d="M-26 208.655L251 366V83L-26 208.655z" stroke="url(#paint9_linear)" stroke-width=".8" stroke-dasharray="1"/><path d="M528 208.655L251 366V83l277 125.655z" stroke="url(#paint10_linear)" stroke-width=".8" stroke-dasharray="1"/><path d="M263.229 392.882c54.036 0 97.841-43.678 97.841-97.557 0-53.879-43.805-97.556-97.841-97.556-54.037 0-97.842 43.677-97.842 97.556s43.805 97.557 97.842 97.557z" fill="url(#paint11_linear)"/><path d="M334.258 269.798c7.012 9.465 8.366 16.923 8.366 28.539 0 14.09-5.826 27.105-15.75 37.646l6.041 22.48h18.339l19.309-21.835 5.178-31.945 1.079-19.038-19.094-21.512-23.468 5.665z" fill="#B4C3E5"/><path d="M119.432 361.044l3.344 13.23s39.482 80.778 128.37 110.787c0 0 80.869-34.419 116.791-92.824l-49.585-43.132s-23.732 18.823-59.007 18.823-83.171-20.974-83.171-64.213c0-43.239 49.622-59.05 49.622-59.05l-21.143-5.163h-54.045l-34.304 82.391 3.128 39.151z" fill="url(#paint12_linear)"/><path d="M418.136 270.241c-1.51-1.506-34.954-48.998-155.018-90.193-6.171-2.398-11.216-.409-11.216-.409-111.521 28.355-166.234 86.877-166.234 90.602 0 3.726 15.965 59.719 26.321 82.521.863 1.936 14.671 26.245 24.919 39.475-6.041-13.23-12.621-24.739-12.621-44.53 0-55.824 43.365-101.214 97.626-103.15 1.294 0 2.697 0 3.991.108l-12.945-12.907s52.104-8.713 118.985 31.622c0 0 .971 2.044 0 8.067 0 0 31.5 13.553 34.197 39.905 2.696 26.352-14.024 41.41-27.508 43.561 0 0 7.011-10.863-3.776-16.671-2.265-1.291-4.962-1.829-7.659-1.721-20.604 0-22.977 23.448-22.977 23.448-.216 1.183-.216 2.366-.216 3.549 0 0-3.452 34.312 57.821 33.666 0 0 31.067-35.064 39.266-66.579 3.02-11.616 5.178-20.329 6.58-26.782 3.452-9.143 6.796-22.611 10.032-32.399l.432-1.183z" fill="#DCE4F6"/><path opacity=".895" d="M305.299 273.813c.863-.43 3.668-1.828 6.904-5.162 6.472.86 12.837 2.904 12.837 2.904-11.758-7.099-27.832-11.294-45.631-11.187 0 0 6.796 9.681 25.674 13.661l.216-.216z" fill="#fff"/><path fill-rule="evenodd" clip-rule="evenodd" d="M255.246 174.344c17.044 5.594 99.136 34.66 164.076 90.599l1.511 1.096-.324 1.865c0 .439-7.12 42.996-31.068 90.818-14.131 28.188-31.283 52.758-50.916 72.939-24.164 24.789-52.104 43.106-83.279 54.513l-1.834.658-1.942.768-1.834-.658-1.833-.658c-31.176-11.408-59.223-29.725-83.279-54.513-19.633-20.291-36.785-44.751-50.917-72.939-22.955-45.946-30.35-86.852-31.018-90.55a10.98 10.98 0 0 0-.05-.268l-.323-1.865 1.402-1.206c64.94-55.939 147.033-85.005 164.077-90.599l3.775-1.206 2.158.658 1.618.548zm78.532 252.711c19.202-19.743 35.922-43.764 49.73-71.295 20.712-41.35 28.587-78.533 30.205-86.979-66.558-56.706-150.808-85.004-162.243-88.733-11.542 3.729-95.684 32.027-162.242 88.733 1.618 8.556 9.385 45.738 30.204 87.199 13.808 27.53 30.529 51.441 49.73 71.184 23.84 24.46 51.456 42.338 82.308 53.416 30.852-11.078 58.468-29.066 82.308-53.525z" fill="url(#paint13_linear)"/></g><defs><linearGradient id="paint0_linear" x1="882.223" y1="333.522" x2="-2.164" y2="-203.166" gradientUnits="userSpaceOnUse"><stop stop-color="#95BBCE"/><stop offset=".463" stop-color="#C5D0E6"/><stop offset="1" stop-color="#E7E4F6"/></linearGradient><linearGradient id="paint1_linear" x1="801.702" y1="-188.9" x2="-216.857" y2="-597.403" gradientUnits="userSpaceOnUse"><stop stop-color="#fff"/><stop offset="1" stop-color="#fff"/></linearGradient><linearGradient id="paint2_linear" x1="801.702" y1="311.57" x2="-158.327" y2="-150.465" gradientUnits="userSpaceOnUse"><stop stop-color="#fff"/><stop offset="1" stop-color="#fff"/></linearGradient><linearGradient id="paint3_linear" x1="-300.002" y1="-188.9" x2="718.556" y2="-597.403" gradientUnits="userSpaceOnUse"><stop stop-color="#fff"/><stop offset=".068" stop-color="#fff"/><stop offset="1" stop-color="#fff"/></linearGradient><linearGradient id="paint4_linear" x1="-300.002" y1="311.57" x2="660.026" y2="-150.465" gradientUnits="userSpaceOnUse"><stop stop-color="#fff"/><stop offset="1" stop-color="#fff"/></linearGradient><linearGradient id="paint5_linear" x1="1119.8" y1="-412.954" x2="-486.772" y2="-1057.53" gradientUnits="userSpaceOnUse"><stop stop-color="#fff"/><stop offset="1" stop-color="#fff"/></linearGradient><linearGradient id="paint6_linear" x1="1121.1" y1="376.219" x2="-393.096" y2="-352.797" gradientUnits="userSpaceOnUse"><stop stop-color="#fff"/><stop offset="1" stop-color="#fff"/></linearGradient><linearGradient id="paint7_linear" x1="-618.099" y1="-412.954" x2="988.473" y2="-1057.53" gradientUnits="userSpaceOnUse"><stop stop-color="#fff"/><stop offset=".068" stop-color="#fff"/><stop offset="1" stop-color="#fff"/></linearGradient><linearGradient id="paint8_linear" x1="-617.8" y1="376.219" x2="896.396" y2="-352.797" gradientUnits="userSpaceOnUse"><stop stop-color="#fff"/><stop offset="1" stop-color="#fff"/></linearGradient><linearGradient id="paint9_linear" x1="801.988" y1="117.483" x2="-35.363" y2="-420.259" gradientUnits="userSpaceOnUse"><stop stop-color="#fff" stop-opacity=".01"/><stop offset="1" stop-color="#fff"/></linearGradient><linearGradient id="paint10_linear" x1="-299.988" y1="117.483" x2="537.363" y2="-420.259" gradientUnits="userSpaceOnUse"><stop stop-color="#fff" stop-opacity=".01"/><stop offset="1" stop-color="#fff"/></linearGradient><linearGradient id="paint11_linear" x1="433.353" y1="299.866" x2="305.967" y2="178.15" gradientUnits="userSpaceOnUse"><stop stop-color="#D4DDF3"/><stop offset="1" stop-color="#B4C3E5"/></linearGradient><linearGradient id="paint12_linear" x1="180.157" y1="173.767" x2="62.76" y2="382.648" gradientUnits="userSpaceOnUse"><stop stop-color="#B7C5E4"/><stop offset="1" stop-color="#ECF2FF"/></linearGradient><linearGradient id="paint13_linear" x1="-167.595" y1="156.348" x2="-31.625" y2="650.698" gradientUnits="userSpaceOnUse"><stop stop-color="#F9FAFF"/><stop offset="0" stop-color="#FDFDFF"/></linearGradient></defs></svg>