<svg width="24" height="24" fill="none" xmlns="http://www.w3.org/2000/svg"><path opacity=".5" fill="#798EBB" d="M0 0h24v24H0z"/><mask id="a" maskUnits="userSpaceOnUse" x="3" y="3" width="18" height="18" fill="#000"><path fill="#fff" d="M3 3h18v18H3z"/><path d="M19.766 10.73h-2.071a.234.234 0 0 0-.235.234v.802h-2.12V8.99l.703-.702a1.268 1.268 0 0 0 1.614-.15c.495-.495.495-1.3 0-1.796a1.271 1.271 0 0 0-1.796 0 1.272 1.272 0 0 0-.15 1.615l-.702.701h-2.775V6.54h.802c.129 0 .234-.104.234-.234v-2.07A.234.234 0 0 0 13.036 4h-2.071a.234.234 0 0 0-.235.234v2.071c0 .13.105.235.235.235h.8v2.12h-.8v.468h3.907v5.744H9.128V9.128h1.837v-.203-.266H8.99l-.702-.701a1.26 1.26 0 0 0 .222-.717 1.271 1.271 0 0 0-2.54 0A1.266 1.266 0 0 0 7.957 8.29l.702.702v2.775H6.54v-.802a.234.234 0 0 0-.234-.234h-2.07a.234.234 0 0 0-.235.234v2.071c0 .13.105.235.234.235h2.071c.13 0 .235-.105.235-.235v-.8h2.12v2.774l-.703.702a1.272 1.272 0 0 0-1.614.15 1.271 1.271 0 0 0 .898 2.167c.325 0 .65-.123.898-.371.438-.439.488-1.12.15-1.614l.702-.702h2.775v2.12h-.801a.234.234 0 0 0-.235.234v2.07c0 .13.105.235.235.235h2.07c.13 0 .235-.105.235-.234v-2.071a.234.234 0 0 0-.234-.235h-.802v-2.12h2.775l.702.703a1.272 1.272 0 0 0 1.048 1.986 1.271 1.271 0 0 0 0-2.54c-.26 0-.507.078-.717.222l-.701-.702v-2.775h2.12v.801c0 .13.104.235.234.235h2.07c.13 0 .235-.105.235-.235v-2.07a.234.234 0 0 0-.234-.235zM11.199 4.47h1.602V6.07H11.2V4.469zM4.469 12.8v-1.602H6.07V12.8H4.469zm2.206-4.994a.796.796 0 0 1-.235-.566.798.798 0 0 1 1.368-.566.796.796 0 0 1 .234.566.802.802 0 0 1-1.367.566zm1.132 9.519a.802.802 0 0 1-1.133-1.133.802.802 0 0 1 1.133 1.133zm4.994 2.205H11.2V17.93h1.602v1.602zm3.392-12.856a.799.799 0 0 1 1.133 0 .802.802 0 0 1-1.133 1.133.802.802 0 0 1 0-1.133zm1.133 9.518a.802.802 0 0 1-1.133 1.133.802.802 0 0 1 1.133-1.133zM19.53 12.8H17.93v-1.602h1.602V12.8z"/></mask><path d="M19.766 10.73h-2.071a.234.234 0 0 0-.235.234v.802h-2.12V8.99l.703-.702a1.268 1.268 0 0 0 1.614-.15c.495-.495.495-1.3 0-1.796a1.271 1.271 0 0 0-1.796 0 1.272 1.272 0 0 0-.15 1.615l-.702.701h-2.775V6.54h.802c.129 0 .234-.104.234-.234v-2.07A.234.234 0 0 0 13.036 4h-2.071a.234.234 0 0 0-.235.234v2.071c0 .13.105.235.235.235h.8v2.12h-.8v.468h3.907v5.744H9.128V9.128h1.837v-.203-.266H8.99l-.702-.701a1.26 1.26 0 0 0 .222-.717 1.271 1.271 0 0 0-2.54 0A1.266 1.266 0 0 0 7.957 8.29l.702.702v2.775H6.54v-.802a.234.234 0 0 0-.234-.234h-2.07a.234.234 0 0 0-.235.234v2.071c0 .13.105.235.234.235h2.071c.13 0 .235-.105.235-.235v-.8h2.12v2.774l-.703.702a1.272 1.272 0 0 0-1.614.15 1.271 1.271 0 0 0 .898 2.167c.325 0 .65-.123.898-.371.438-.439.488-1.12.15-1.614l.702-.702h2.775v2.12h-.801a.234.234 0 0 0-.235.234v2.07c0 .13.105.235.235.235h2.07c.13 0 .235-.105.235-.234v-2.071a.234.234 0 0 0-.234-.235h-.802v-2.12h2.775l.702.703a1.272 1.272 0 0 0 1.048 1.986 1.271 1.271 0 0 0 0-2.54c-.26 0-.507.078-.717.222l-.701-.702v-2.775h2.12v.801c0 .13.104.235.234.235h2.07c.13 0 .235-.105.235-.235v-2.07a.234.234 0 0 0-.234-.235zM11.199 4.47h1.602V6.07H11.2V4.469zM4.469 12.8v-1.602H6.07V12.8H4.469zm2.206-4.994a.796.796 0 0 1-.235-.566.798.798 0 0 1 1.368-.566.796.796 0 0 1 .234.566.802.802 0 0 1-1.367.566zm1.132 9.519a.802.802 0 0 1-1.133-1.133.802.802 0 0 1 1.133 1.133zm4.994 2.205H11.2V17.93h1.602v1.602zm3.392-12.856a.799.799 0 0 1 1.133 0 .802.802 0 0 1-1.133 1.133.802.802 0 0 1 0-1.133zm1.133 9.518a.802.802 0 0 1-1.133 1.133.802.802 0 0 1 1.133-1.133zM19.53 12.8H17.93v-1.602h1.602V12.8z" fill="url(#paint0_linear)"/><path d="M17.46 11.766v.3h.3v-.3h-.3zm-2.12 0h-.3v.3h.3v-.3zm0-2.775l-.211-.212-.088.088v.124h.3zm.703-.702l.169-.248-.206-.14-.176.176.213.212zm1.614-.15l.212.212-.212-.212zm0-1.796l.212-.212-.212.212zm-1.796 0l.212.212-.212-.212zm-.15 1.615l.212.212.176-.176-.14-.206-.248.17zm-.702.701v.3h.124l.088-.087-.212-.213zm-2.775 0h-.3v.3h.3v-.3zm0-2.12v-.3h-.3v.3h.3zm-.468 0h.3v-.3h-.3v.3zm0 2.12v.3h.3v-.3h-.3zm-.801 0v-.3.3zm3.907.47h.3v-.3h-.3v.3zm0 5.743v.3h.3v-.3h-.3zm-5.744 0h-.3v.3h.3v-.3zm0-2.871l-.3-.016V12h.3zm0-.001l.3.016v-.032l-.3.016zm0 0h-.3v.015l.3-.016zm0-2.872v-.3h-.3v.3h.3zm-.137-.469l-.212.213.088.087h.124v-.3zm-.702-.701l-.247-.17-.141.206.176.176.212-.212zM6.343 6.343l-.212-.212.212.212zM7.958 8.29l.212-.212-.176-.176-.206.14.17.248zm.701.702h.3v-.124l-.087-.088-.213.212zm0 2.775v.3h.3v-.3h-.3zm-2.12 0h-.3v.3h.3v-.3zm0 .468v-.3h-.3v.3h.3zm2.12 0h.3v-.3h-.3v.3zm0 2.775l.213.212.087-.088v-.124h-.3zm-.702.702l-.169.248.206.14.176-.176-.213-.212zm-1.614.15l-.212-.212.212.212zm0 1.796l-.212.212.212-.212zm1.946-1.614l-.212-.213-.176.176.14.206.248-.17zm.702-.702v-.3h-.124l-.088.087.212.213zm2.775 0h.3v-.3h-.3v.3zm0 2.12v.3h.3v-.3h-.3zm.468 0h-.3v.3h.3v-.3zm0-2.12v-.3h-.3v.3h.3zm2.775 0l.212-.213-.088-.088h-.124v.3zm.702.702l.248.169.14-.206-.176-.176-.212.213zm.15 1.614l.212-.212-.212.212zm1.796 0l.212.212-.212-.212zm0-1.796l.212-.212-.212.212zm-1.615-.15l-.212.212.176.176.206-.14-.17-.248zm-.701-.702h-.3v.124l.087.088.213-.212zm0-2.775v-.3h-.3v.3h.3zm2.12 0h.3v-.3h-.3v.3zM20 10.964h-.3.3zM11.199 4.47v-.3h-.3v.3h.3zm1.602 0h.3v-.3h-.3v.3zm0 1.602v.3h.3v-.3h-.3zm-.8 0l-.016.3H12v-.3zm-.001 0l.016-.3h-.032l.016.3zm0 0v.3h.015L12 6.07zm-.801 0h-.3v.3h.3v-.3zm-6.73 6.73h-.3v.3h.3v-.3zm0-1.602v-.3h-.3v.3h.3zm1.602 0h.3v-.3h-.3v.3zm0 .8l.3.016V12h-.3zm0 .001l-.3-.016v.032l.3-.016zm0 0h.3v-.015l-.3.016zm0 .801v.3h.3v-.3h-.3zm.604-4.994l.212-.212-.212.212zm0-1.132l.212.212-.212-.212zm0 10.65l-.213.213.212-.212zm0-1.132l-.213-.213.212.213zm1.132 0l-.212.212.212-.212zm4.994 3.338v.3h.3v-.3h-.3zm-1.602 0h-.3v.3h.3v-.3zm0-1.602v-.3h-.3v.3h.3zm1.602 0h.3v-.3h-.3v.3zm3.392-11.254l-.213-.212.213.212zm1.133 0l.212-.212-.212.212zm0 1.133l.212.212-.212-.212zm-1.133 0l-.212.212.212-.212zm1.133 8.385l-.213.212.213-.212zm-1.133 1.133l.212-.213-.212.213zm0-1.133l-.213-.212.213.212zm.566-.235v.3-.3zm2.772-3.157v.3h.3v-.3h-.3zm-1.602 0h-.3v.3h.3v-.3zm0-1.602v-.3h-.3v.3h.3zm1.602 0h.3v-.3h-.3v.3zm.235-.769h-2.071v.6h2.07v-.6zm-2.071 0a.534.534 0 0 0-.535.534h.6c0 .037-.029.066-.065.066v-.6zm-.535.534v.802h.6v-.802h-.6zm.3.502h-2.12v.6h2.12v-.6zm-1.82.3V8.99h-.6v2.775h.6zm-.087-2.563l.702-.702-.425-.424-.701.702.424.424zm.32-.666c.267.182.577.273.886.273v-.6a.968.968 0 0 1-.547-.169l-.339.496zm.886.273c.401 0 .804-.153 1.11-.459l-.424-.424a.966.966 0 0 1-.686.283v.6zm1.11-.459a1.571 1.571 0 0 0 0-2.22l-.424.424a.971.971 0 0 1 0 1.372l.424.424zm0-2.22a1.571 1.571 0 0 0-2.22 0l.424.424a.971.971 0 0 1 1.372 0l.424-.424zm-2.22 0a1.572 1.572 0 0 0-.185 1.996l.495-.339a.972.972 0 0 1 .114-1.233l-.424-.424zm-.15 1.614l-.702.702.424.425.702-.702-.424-.425zm-.49.614h-2.775v.6h2.775v-.6zm-2.475.3V6.54h-.6v2.12h.6zm-.3-1.82h.802v-.6h-.802v.6zm.802 0c.295 0 .534-.239.534-.534h-.6c0-.036.03-.065.066-.065v.6zm.534-.534v-2.07h-.6v2.07h.6zm0-2.07a.534.534 0 0 0-.534-.535v.6a.066.066 0 0 1-.066-.066h.6zm-.534-.535h-2.071v.6h2.07v-.6zm-2.071 0a.534.534 0 0 0-.535.534h.6c0 .037-.03.066-.065.066v-.6zm-.535.534v2.071h.6v-2.07h-.6zm0 2.071c0 .295.24.535.535.535v-.6c.036 0 .065.029.065.065h-.6zm.535.535h.8v-.6h-.8v.6zm.5-.3v2.12h.6V6.54h-.6zm.3 1.82h-.8v.6h.8v-.6zm-1.1.3V8.863h.6v-.001-.001-.002-.001-.001-.001-.002-.001-.001-.001-.001-.001-.001-.001-.001-.001-.001-.001-.001-.001-.001-.001-.001-.001-.001-.001-.001-.001-.002-.001-.001-.001-.001-.001-.001-.001-.001-.001-.001-.001-.001-.001-.001-.001-.001-.001-.001-.001-.001-.001-.001-.001-.001-.001-.001-.001-.001-.001V8.8 8.8v-.001-.001-.001-.001-.001-.001-.001-.001-.001-.001-.001-.001-.001-.001-.001-.001-.001-.001-.001-.001-.001-.001-.001-.001-.001-.001-.001-.001-.001-.001-.001-.001-.001-.001-.001-.001-.001-.001-.001-.001-.001-.001-.001-.001-.001-.001-.001-.001-.001-.001-.001-.001-.001-.001-.001-.001-.001-.001-.001-.001-.001-.001-.001-.001-.001-.001-.001-.001-.001-.001-.001-.001-.001-.001-.001-.001-.001-.001-.001-.001-.001-.001-.001-.001-.001-.001-.001-.001-.001-.001-.001-.001-.001-.001-.001-.001-.001V8.7 8.7v-.001-.001-.001-.001-.001-.001-.001-.001-.001-.001-.001-.002-.002-.002-.002-.001-.001-.001-.002-.001-.002-.001-.002-.001-.002-.001-.002-.001-.001-.001-.002h-.6zm0 .203V8.894h.6v-.001-.001-.001-.001-.001-.001-.001-.001-.001-.001-.001-.001-.001-.001-.001-.001-.001-.001-.001-.001-.001-.001-.001-.001-.001-.001-.001h-.6V9.129h.6v-.003-.002-.003-.003-.002-.003-.003-.002-.003-.002-.003-.002-.003-.003-.002-.002-.003-.002-.003-.002-.003-.002-.002-.003-.002-.002-.003-.002-.002-.002-.002-.003-.002-.002-.002-.002-.002-.002-.003-.002-.002-.002-.002-.002-.002-.002-.002-.002-.002-.001-.002-.002-.002-.002-.002-.002V9v-.002-.002-.002-.001-.002-.002-.002-.001-.002-.002-.001-.002-.001-.002-.002-.001-.002-.001-.002-.001-.002-.001-.002-.001-.002-.001-.001-.002-.001-.002-.002-.002-.002-.002-.002-.001-.002-.002-.001-.001-.002-.002-.001-.001-.001-.001-.001-.002-.002-.002-.002-.002-.002-.002-.001-.001-.001-.001-.002-.001-.001-.001V8.9 8.9v-.001-.001-.001-.002-.001-.001-.001-.001-.002-.001-.001-.001-.001-.001-.001-.001-.001-.001-.001-.001-.001-.001-.001-.001-.001-.001-.001-.001-.001-.001-.001h-.6V8.895h.6v-.001-.001-.001-.001-.001-.001-.001-.001-.001-.001-.001-.001-.001-.001-.001-.001-.001-.001-.002-.001-.002-.001-.001-.001-.001-.002-.001-.002h-.6zm.3.565h3.907v-.6h-3.907v.6zm3.607-.3v5.744h.6V9.128h-.6zm.3 5.444H9.128v.6h5.744v-.6zm-5.444.3V12h-.6v2.87h.6zm0-2.855v-.001l-.6-.032.6.033zm0-.033l-.6.031v.001l.6-.032zm0 .015V9.13h-.6v2.87h.6zm-.3-2.57h1.837v-.6H9.128v.6zm2.137-.3v-.002-.002-.002-.002-.002-.002-.002-.001-.002-.002-.001-.002-.002-.001-.002V9.1 9.1v-.001-.001-.002-.002-.001-.001-.001-.001-.001-.002-.002-.002-.002-.002-.002-.001-.002-.002-.002-.002-.002-.001-.001-.001-.001-.001-.002-.001-.001-.001-.002-.001-.001-.001-.002-.001-.002-.001-.002-.001-.001-.001-.002-.002-.002-.001-.001-.001-.002-.001-.001-.001-.001-.001-.001-.001-.001-.001-.001-.001-.001-.001-.001-.001-.001-.001-.001-.001-.001-.001-.001-.001-.001-.001-.001V9 9v-.001-.001-.001-.001-.001-.001-.001-.001-.001-.001-.001-.001-.001-.001-.001-.001-.001-.001-.001-.001-.001-.001-.001-.001-.001-.001-.001-.001-.001-.001-.001-.001-.001-.001-.001-.001-.001-.001-.001-.001-.001-.001-.001-.001-.001-.001-.001-.001-.001-.001-.001-.001-.001-.001-.001-.001-.001-.001-.001-.001-.001-.001-.001-.001-.001-.001-.001-.001-.001-.002-.001-.002-.001h-.6V9.129h.6zm0-.204v-.002-.001-.001-.001-.002-.001-.001-.001-.001-.001-.002-.001-.001-.001-.001-.001-.002-.001V8.9 8.9v-.001-.001-.001-.001-.001-.001-.001-.001-.001-.001-.001-.001-.001-.001-.001-.001-.001-.001-.001-.001-.001-.001-.001-.001-.001-.001-.001-.001-.001-.001-.001-.001-.001-.001-.001-.001-.001-.001-.001-.001-.001-.001-.001-.001-.001-.001-.001-.001-.001-.001-.001-.001-.001-.001-.001-.001-.001-.001-.001-.001-.001-.001-.001-.001-.001-.001-.001-.001-.001-.001-.001-.001-.001-.001-.001-.001-.001-.001-.001-.001-.001-.001-.001-.001-.001-.001-.001-.001-.001-.001-.001-.001-.001-.001-.001-.001-.001-.001V8.8 8.8v-.001-.001-.001-.001-.001-.001-.001-.001-.001-.001-.001-.001-.001-.001-.001-.001-.001-.001-.001-.001-.002-.001-.001-.001-.001-.001-.001-.001-.001-.001-.001-.002-.001-.001-.001-.002-.001-.002-.001-.001-.002-.001-.001-.002-.001-.001-.001-.002-.001-.001-.001-.001-.002-.002-.001-.001-.001-.001-.001-.001-.001-.001-.001-.002-.002-.002-.002-.002-.001-.001-.001-.001-.001-.001-.001-.001-.001-.002-.002-.002-.001V8.7 8.7v-.002-.002-.001-.001-.001-.002-.002-.001-.001-.002-.002-.001-.002-.002-.001-.002-.002-.002-.002-.001-.002-.001-.002-.002-.002h-.6V8.925h.6zm-.3-.566H8.99v.6h1.974v-.6zm-1.762.088L8.5 7.746l-.424.424.702.702.424-.425zm-.667-.32a1.56 1.56 0 0 0 .275-.886h-.6a.96.96 0 0 1-.17.547l.495.34zm.275-.886c0-.419-.164-.814-.46-1.11l-.424.424a.962.962 0 0 1 .284.686h.6zm-.46-1.11a1.571 1.571 0 0 0-2.22 0l.424.424a.971.971 0 0 1 1.372 0l.424-.424zm-2.22 0c-.296.296-.46.691-.46 1.11h.6c0-.26.1-.502.284-.686l-.424-.424zm-.46 1.11c0 .419.164.814.46 1.11l.424-.424a.961.961 0 0 1-.284-.686h-.6zm.46 1.11c.306.306.709.46 1.11.46v-.6a.966.966 0 0 1-.686-.284l-.424.424zm1.11.46c.31 0 .62-.092.886-.274l-.339-.496a.968.968 0 0 1-.547.17v.6zm.504-.31l.702.702.425-.424-.702-.702-.425.424zm.614.49v2.775h.6V8.99h-.6zm.3 2.475H6.54v.6h2.12v-.6zm-1.82.3v-.802h-.6v.802h.6zm0-.802a.534.534 0 0 0-.534-.534v.6a.066.066 0 0 1-.065-.066h.6zm-.534-.534h-2.07v.6h2.07v-.6zm-2.07 0a.534.534 0 0 0-.535.534h.6c0 .037-.03.066-.066.066v-.6zm-.535.534v2.071h.6v-2.07h-.6zm0 2.071c0 .296.24.535.534.535v-.6c.037 0 .066.03.066.065h-.6zm.534.535h2.071v-.6h-2.07v.6zm2.071 0c.295 0 .535-.24.535-.535h-.6c0-.036.029-.065.065-.065v.6zm.535-.535v-.8h-.6v.8h.6zm-.3-.5h2.12v-.6H6.54v.6zm1.82-.3v2.774h.6v-2.775h-.6zm.087 2.562l-.702.702.425.424.702-.702-.425-.424zm-.32.666a1.572 1.572 0 0 0-1.996.186l.424.424a.972.972 0 0 1 1.233-.114l.339-.495zm-1.996.186a1.571 1.571 0 0 0 0 2.22l.424-.424a.971.971 0 0 1 0-1.372l-.424-.424zm0 2.22c.306.306.709.46 1.11.46v-.6a.966.966 0 0 1-.686-.284l-.424.424zm1.11.46c.401 0 .804-.154 1.11-.46l-.424-.424a.966.966 0 0 1-.686.283v.6zm1.11-.46a1.572 1.572 0 0 0 .186-1.996l-.496.339a.972.972 0 0 1-.114 1.233l.424.424zm.15-1.614l.702-.702-.424-.425-.702.702.424.425zm.49-.614h2.775v-.6H8.99v.6zm2.475-.3v2.12h.6v-2.12h-.6zm.3 1.82h-.801v.6h.8v-.6zm-.801 0a.534.534 0 0 0-.535.534h.6c0 .036-.03.065-.065.065v-.6zm-.535.534v2.07h.6v-2.07h-.6zm0 2.07c0 .296.24.535.535.535v-.6c.036 0 .065.03.065.066h-.6zm.535.535h2.07v-.6h-2.07v.6zm2.07 0c.296 0 .535-.24.535-.534h-.6c0-.037.03-.066.066-.066v.6zm.535-.534v-2.071h-.6v2.07h.6zm0-2.071a.534.534 0 0 0-.534-.535v.6a.066.066 0 0 1-.066-.065h.6zm-.534-.535h-.802v.6h.802v-.6zm-.502.3v-2.12h-.6v2.12h.6zm-.3-1.82h2.775v-.6h-2.775v.6zm2.563-.087l.702.702.424-.425-.702-.702-.424.425zm.666.32a1.572 1.572 0 0 0 .186 1.996l.424-.424a.972.972 0 0 1-.114-1.233l-.496-.339zm.186 1.996c.296.296.691.46 1.11.46v-.6c-.26 0-.502-.1-.686-.284l-.424.424zm1.11.46c.419 0 .814-.164 1.11-.46l-.424-.424a.962.962 0 0 1-.686.284v.6zm1.11-.46a1.571 1.571 0 0 0 0-2.22l-.424.424a.971.971 0 0 1 0 1.372l.424.424zm0-2.22a1.561 1.561 0 0 0-1.11-.46v.6c.26 0 .502.1.686.284l.424-.424zm-1.11-.46c-.32 0-.627.096-.887.275l.34.494a.96.96 0 0 1 .547-.169v-.6zm-.505.31l-.701-.702-.425.424.702.702.424-.424zm-.613-.49v-2.775h-.6v2.775h.6zm-.3-2.475h2.12v-.6h-2.12v.6zm1.82-.3v.801h.6v-.8h-.6zm0 .801c0 .296.239.535.534.535v-.6c.036 0 .065.03.065.065h-.6zm.534.535h2.07v-.6h-2.07v.6zm2.07 0c.296 0 .535-.24.535-.535h-.6c0-.036.03-.065.066-.065v.6zm.535-.535v-2.07h-.6v2.07h.6zm0-2.07a.534.534 0 0 0-.534-.535v.6a.066.066 0 0 1-.066-.066h.6zm-9.101-6.196h1.602v-.6H11.2v.6zm1.302-.3V6.07h.6V4.469h-.6zm.3 1.302h-.8v.6h.8v-.6zm-.785 0l-.032.6.032-.6zm-.032 0l.031.6-.03-.6zm.015 0h-.8v.6h.8v-.6zm-.5.3V4.469h-.6V6.07h.6zm-6.73 6.73v-1.602h-.6V12.8h.6zm-.3-1.302H6.07v-.6H4.469v.6zm1.302-.3v.8h.6v-.8h-.6zm0 .785l.6.032-.6-.032zm0 .032l.6-.031-.6.03zm0-.015v.8h.6v-.8h-.6zm.3.5H4.469v.6H6.07v-.6zm.816-4.906a.496.496 0 0 1-.147-.354h-.6c0 .294.115.571.322.779l.425-.425zm-.147-.354c0-.134.052-.26.147-.354l-.425-.425a1.096 1.096 0 0 0-.322.779h.6zm.147-.354a.498.498 0 0 1 .354-.147v-.6c-.281 0-.564.108-.779.323l.425.424zm.354-.147c.13 0 .257.05.354.147l.425-.425a1.099 1.099 0 0 0-.779-.322v.6zm.354.147c.095.095.147.22.147.354h.6c0-.294-.115-.571-.322-.779l-.425.425zm.147.354c0 .134-.052.26-.147.354l.425.425c.207-.208.322-.485.322-.779h-.6zm-.147.354a.502.502 0 0 1-.708 0l-.425.425c.43.43 1.128.43 1.558 0l-.425-.425zm0 9.518a.502.502 0 0 1-.708 0l-.425.425c.43.43 1.128.43 1.557 0l-.424-.425zm-.708 0a.502.502 0 0 1 0-.708l-.425-.425c-.43.43-.43 1.128 0 1.558l.425-.425zm0-.708a.502.502 0 0 1 .708 0l.424-.424a1.102 1.102 0 0 0-1.557 0l.425.424zm.708 0a.502.502 0 0 1 0 .708l.424.425c.43-.43.43-1.128 0-1.557l-.424.424zm5.206 2.826H11.2v.6h1.602v-.6zm-1.302.3V17.93h-.6v1.602h.6zm-.3-1.302h1.602v-.6H11.2v.6zm1.302-.3v1.602h.6V17.93h-.6zm3.904-11.042a.498.498 0 0 1 .354-.147v-.6c-.281 0-.564.108-.779.323l.425.424zm.354-.147c.13 0 .257.05.354.147l.425-.425a1.099 1.099 0 0 0-.779-.322v.6zm.354.147a.502.502 0 0 1 0 .708l.425.425c.43-.43.43-1.128 0-1.557l-.425.424zm0 .708a.502.502 0 0 1-.708 0l-.424.425c.43.43 1.127.43 1.557 0l-.425-.425zm-.708 0a.502.502 0 0 1 0-.708l-.425-.424c-.429.43-.429 1.127 0 1.557l.425-.424zm.708 8.81a.502.502 0 0 1 0 .708l.425.425c.43-.43.43-1.128 0-1.557l-.425.424zm0 .708a.496.496 0 0 1-.354.147v.6c.294 0 .571-.115.779-.322l-.425-.425zm-.354.147a.496.496 0 0 1-.354-.147l-.425.425c.208.207.485.322.779.322v-.6zm-.354-.147a.502.502 0 0 1 0-.708l-.425-.424c-.429.43-.429 1.127 0 1.557l.425-.425zm0-.708a.496.496 0 0 1 .354-.147v-.6c-.294 0-.571.115-.779.323l.425.424zm.354-.147c.134 0 .26.052.354.147l.425-.424a1.096 1.096 0 0 0-.779-.323v.6zm2.772-3.757H17.93v.6h1.602v-.6zm-1.302.3v-1.602h-.6V12.8h.6zm-.3-1.302h1.602v-.6H17.93v.6zm1.302-.3V12.8h.6v-1.602h-.6z" fill="url(#paint1_linear)" mask="url(#a)"/><defs><linearGradient id="paint0_linear" x1="12" y1="10" x2="12" y2="33.5" gradientUnits="userSpaceOnUse"><stop stop-color="#fff"/><stop offset="1" stop-color="#fff" stop-opacity="0"/></linearGradient><linearGradient id="paint1_linear" x1="12" y1="9.053" x2="12" y2="27.368" gradientUnits="userSpaceOnUse"><stop offset=".24" stop-color="#fff"/><stop offset="1" stop-color="#fff" stop-opacity="0"/></linearGradient></defs></svg>