<svg width="56" height="56" fill="none" xmlns="http://www.w3.org/2000/svg"><path fill="url(#paint0_linear)" d="M0 0h56v56H0z"/><rect x="18" y="15" width="20" height="2.5" rx="1.25" fill="#fff"/><g filter="url(#filter0_f)"><rect x="18" y="15" width="20" height="2.5" rx="1.25" fill="#fff"/></g><rect opacity=".7" x="18" y="21" width="20" height="2.5" rx="1.25" fill="#fff"/><rect opacity=".5" x="18" y="27" width="10" height="2.5" rx="1.25" fill="#fff"/><path d="M43.35 34.337v-2.38c0-2.799-2.4-5.057-5.35-5.057-2.95 0-5.35 2.258-5.35 5.056v2.38c-.97.05-1.75.81-1.75 1.75v8.262c0 .973.834 1.752 1.85 1.752h10.5c1.016 0 1.85-.78 1.85-1.752v-8.261c0-.941-.78-1.7-1.75-1.75zm-8.75-2.38c0-1.765 1.517-3.205 3.4-3.205s3.4 1.44 3.4 3.204v2.378h-6.8v-2.378zm8.55 12.29h-10.3v-8.06h10.3v8.06z" fill="#fff" stroke="#fff" stroke-width=".2"/><g filter="url(#filter1_f)"><path d="M43.25 34.434v-2.477C43.25 29.218 40.9 27 38 27s-5.25 2.219-5.25 4.956v2.478c-.966 0-1.75.74-1.75 1.653v8.26c0 .913.784 1.653 1.75 1.653h10.5c.967 0 1.75-.74 1.75-1.652v-8.261c0-.913-.783-1.653-1.75-1.653zm-8.75-2.477c0-1.826 1.567-3.305 3.5-3.305s3.5 1.48 3.5 3.304v2.478h-7v-2.477zm8.75 12.39h-10.5v-8.26h10.5v8.26z" fill="url(#paint1_linear)"/><path d="M43.35 34.337v-2.38c0-2.799-2.4-5.057-5.35-5.057-2.95 0-5.35 2.258-5.35 5.056v2.38c-.97.05-1.75.81-1.75 1.75v8.262c0 .973.834 1.752 1.85 1.752h10.5c1.016 0 1.85-.78 1.85-1.752v-8.261c0-.941-.78-1.7-1.75-1.75zm-8.75-2.38c0-1.765 1.517-3.205 3.4-3.205s3.4 1.44 3.4 3.204v2.378h-6.8v-2.378zm8.55 12.29h-10.3v-8.06h10.3v8.06z" stroke="#fff" stroke-width=".2"/></g><path d="M41.98 25.205a1.12 1.12 0 0 0 1.12-1.119V10.172c0-.6-.513-1.105-1.12-1.105H13.233c-.606 0-1.12.504-1.12 1.105v33.614c0 .6.514 1.105 1.12 1.105h13.284a1.084 1.084 0 0 0 0-2.168H14.351V11.277h26.51v12.81c0 .617.502 1.118 1.12 1.118z" fill="url(#paint2_linear)" stroke="url(#paint3_linear)" stroke-width=".2"/><g filter="url(#filter2_f)"><path d="M43 24.086a1.02 1.02 0 0 1-2.038 0v-12.91H14.25v31.647h12.265a.984.984 0 0 1 0 1.968H13.232c-.552 0-1.02-.46-1.02-1.005V10.172c0-.544.468-1.005 1.02-1.005H41.98c.552 0 1.019.46 1.019 1.005v13.914z" fill="url(#paint4_linear)"/><path d="M41.98 25.205a1.12 1.12 0 0 0 1.12-1.119V10.172c0-.6-.513-1.105-1.12-1.105H13.233c-.606 0-1.12.504-1.12 1.105v33.614c0 .6.514 1.105 1.12 1.105h13.284a1.084 1.084 0 0 0 0-2.168H14.351V11.277h26.51v12.81c0 .617.502 1.118 1.12 1.118z" stroke="url(#paint5_linear)" stroke-width=".2"/></g><defs><filter id="filter0_f" x="16" y="13" width="24" height="6.5" filterUnits="userSpaceOnUse" color-interpolation-filters="sRGB"><feFlood flood-opacity="0" result="BackgroundImageFix"/><feBlend in="SourceGraphic" in2="BackgroundImageFix" result="shape"/><feGaussianBlur stdDeviation="1" result="effect1_foregroundBlur"/></filter><filter id="filter1_f" x="26.8" y="22.8" width="22.4" height="27.4" filterUnits="userSpaceOnUse" color-interpolation-filters="sRGB"><feFlood flood-opacity="0" result="BackgroundImageFix"/><feBlend in="SourceGraphic" in2="BackgroundImageFix" result="shape"/><feGaussianBlur stdDeviation="2" result="effect1_foregroundBlur"/></filter><filter id="filter2_f" x="8.012" y="4.967" width="39.188" height="44.023" filterUnits="userSpaceOnUse" color-interpolation-filters="sRGB"><feFlood flood-opacity="0" result="BackgroundImageFix"/><feBlend in="SourceGraphic" in2="BackgroundImageFix" result="shape"/><feGaussianBlur stdDeviation="2" result="effect1_foregroundBlur"/></filter><linearGradient id="paint0_linear" x1="4" y1="3" x2="51" y2="53.5" gradientUnits="userSpaceOnUse"><stop stop-color="#62C0E3"/><stop offset="1" stop-color="#6BE5F0"/></linearGradient><linearGradient id="paint1_linear" x1="38" y1="25" x2="38" y2="46" gradientUnits="userSpaceOnUse"><stop stop-color="#fff"/><stop offset="1" stop-color="#fff" stop-opacity="0"/></linearGradient><linearGradient id="paint2_linear" x1="27.606" y1="9.167" x2="27.606" y2="80" gradientUnits="userSpaceOnUse"><stop stop-color="#fff"/><stop offset="1" stop-color="#fff" stop-opacity="0"/></linearGradient><linearGradient id="paint3_linear" x1="27.606" y1="9.167" x2="27.606" y2="84" gradientUnits="userSpaceOnUse"><stop stop-color="#fff"/><stop offset="1" stop-color="#fff" stop-opacity="0"/></linearGradient><linearGradient id="paint4_linear" x1="27.606" y1="1" x2="27.606" y2="27" gradientUnits="userSpaceOnUse"><stop stop-color="#fff"/><stop offset="1" stop-color="#fff" stop-opacity="0"/></linearGradient><linearGradient id="paint5_linear" x1="27.606" y1="9.167" x2="27.606" y2="84" gradientUnits="userSpaceOnUse"><stop stop-color="#fff"/><stop offset="1" stop-color="#fff" stop-opacity="0"/></linearGradient></defs></svg>