<svg width="56" height="56" fill="none" xmlns="http://www.w3.org/2000/svg"><path fill="#fff" d="M0 0h56v56H0z"/><path fill="url(#paint0_linear)" d="M0 0h56v56H0z"/><path d="M40.883 45h-8.977V34.375c0-.122-.207-.204-.207-.204H24.3c-.124 0-.207.082-.207.204V45h-8.977C13.413 45 12 43.61 12 41.935V24.691c0-1.063.457-2.084 1.205-2.86l.042-.042 12.426-10.87c1.288-1.225 3.408-1.225 4.696 0L42.795 21.83c.79.736 1.205 1.798 1.205 2.86v17.245C44 43.651 42.629 45 40.883 45z" fill="#fff"/><g filter="url(#filter0_f)"><path d="M40.883 45h-8.977V34.375c0-.122-.083-.204-.207-.204H24.3c-.124 0-.207.082-.207.204V45h-8.977C13.413 45 12 43.61 12 41.935V24.691c0-1.063.457-2.084 1.205-2.86l.042-.042 12.426-10.87c1.288-1.225 3.408-1.225 4.696 0L42.795 21.83c.79.736 1.205 1.798 1.205 2.86v17.245C44 43.651 42.629 45 40.883 45z" fill="url(#paint1_linear)"/></g><defs><filter id="filter0_f" x="8" y="6" width="40" height="43" filterUnits="userSpaceOnUse" color-interpolation-filters="sRGB"><feFlood flood-opacity="0" result="BackgroundImageFix"/><feBlend in="SourceGraphic" in2="BackgroundImageFix" result="shape"/><feGaussianBlur stdDeviation="2" result="effect1_foregroundBlur"/></filter><linearGradient id="paint0_linear" x1="8" y1="5" x2="50" y2="54.5" gradientUnits="userSpaceOnUse"><stop stop-color="#43D8F8"/><stop offset="1" stop-color="#68DFD8"/></linearGradient><linearGradient id="paint1_linear" x1="28" y1="22.153" x2="28" y2="48.403" gradientUnits="userSpaceOnUse"><stop stop-color="#fff"/><stop offset="1" stop-color="#fff" stop-opacity="0"/></linearGradient></defs></svg>