<svg width="24" height="24" fill="none" xmlns="http://www.w3.org/2000/svg"><path opacity=".5" fill="#798EBB" d="M0 0h24v24H0z"/><path d="M4.884 4.819h0a.777.777 0 0 0 0 1.201L8.373 9l-3.489 2.98a.777.777 0 0 0 0 1.201.952.952 0 0 0 1.214 0l4.193-3.58s0 0 0 0A.79.79 0 0 0 10.575 9a.79.79 0 0 0-.284-.6s0 0 0 0L6.098 4.818h0a.952.952 0 0 0-1.214 0zM18.685 13.706h-7.16a.676.676 0 0 0-.55.3.953.953 0 0 0-.165.547c0 .196.055.39.165.546.109.155.297.301.55.301h7.16c.253 0 .44-.146.55-.3a.952.952 0 0 0 .165-.547.953.953 0 0 0-.165-.546.676.676 0 0 0-.55-.301z" fill="#fff" stroke="#fff" stroke-width=".8"/></svg>