<svg width="56" height="56" fill="none" xmlns="http://www.w3.org/2000/svg"><path fill="url(#paint0_linear)" d="M0 0h56v56H0z"/><mask id="a" maskUnits="userSpaceOnUse" x="7" y="7" width="42" height="42" fill="#000"><path fill="#fff" d="M7 7h42v42H7z"/><path d="M47.414 24.825h-5.177a.586.586 0 0 0-.586.586v2.003h-5.3v-6.937l1.755-1.754a3.17 3.17 0 0 0 1.792.553c.813 0 1.626-.31 2.244-.929a3.178 3.178 0 0 0 0-4.49 3.178 3.178 0 0 0-4.489.001 3.179 3.179 0 0 0-.375 4.036l-1.755 1.754h-6.937V14.35h2.003a.586.586 0 0 0 .586-.586V8.586A.586.586 0 0 0 30.589 8h-5.177a.586.586 0 0 0-.586.586v5.177c0 .324.262.586.586.586h2.002v5.3h-2.002v1.171h9.768v14.36H20.82V20.82h4.592v-.509-.664h-4.935l-1.754-1.753a3.15 3.15 0 0 0 .554-1.792c0-.848-.33-1.646-.93-2.245a3.178 3.178 0 0 0-4.49 0c-.599.6-.929 1.397-.929 2.245 0 .848.33 1.645.93 2.244a3.164 3.164 0 0 0 2.244.929 3.17 3.17 0 0 0 1.792-.553l1.755 1.754v6.937h-5.3v-2.003a.586.586 0 0 0-.586-.586H8.586a.586.586 0 0 0-.586.586v5.177c0 .324.262.586.586.586h5.177a.586.586 0 0 0 .586-.586v-2.002h5.3v6.937l-1.755 1.755a3.18 3.18 0 0 0-4.036.375 3.178 3.178 0 0 0 0 4.49 3.165 3.165 0 0 0 2.244.928c.813 0 1.626-.31 2.245-.929a3.18 3.18 0 0 0 .375-4.036l1.755-1.755h6.937v5.3h-2.003a.586.586 0 0 0-.585.586v5.177c0 .324.262.586.585.586h5.178a.586.586 0 0 0 .586-.586v-5.177a.586.586 0 0 0-.586-.586h-2.003v-5.3h6.936l1.756 1.755a3.179 3.179 0 0 0 .375 4.036c.6.6 1.397.93 2.245.93.848 0 1.645-.33 2.244-.93a3.178 3.178 0 0 0 0-4.489c-.6-.6-1.396-.93-2.244-.93-.65 0-1.269.194-1.792.554l-1.755-1.754v-6.937h5.3v2.002c0 .324.262.586.586.586h5.177a.586.586 0 0 0 .586-.586v-5.177a.586.586 0 0 0-.586-.586zM25.997 9.172h4.006v4.005H25.997V9.172zM9.172 30.002v-4.005h4.005V30.002H9.172zm5.514-12.483a1.99 1.99 0 0 1-.586-1.416 1.996 1.996 0 0 1 2.003-2.002c.512 0 1.025.195 1.415.586.379.378.587.88.587 1.416a2.005 2.005 0 0 1-3.419 1.416zm2.832 23.795c-.78.78-2.05.78-2.832 0a2.005 2.005 0 0 1 0-2.832 2.005 2.005 0 0 1 2.832 0c.781.78.781 2.051 0 2.832zm12.485 5.514h-4.006v-4.005h4.006v4.005zm8.479-32.141c.39-.39.903-.586 1.416-.586.512 0 1.025.195 1.416.586.78.78.78 2.05 0 2.832-.78.78-2.051.78-2.832 0a2.006 2.006 0 0 1 0-2.832zm2.832 23.795a2.005 2.005 0 0 1-1.416 3.419 2.005 2.005 0 0 1 0-4.005 1.99 1.99 0 0 1 1.416.586zm5.514-8.48h-4.005v-4.005h4.005v4.006z"/></mask><path d="M47.414 24.825h-5.177a.586.586 0 0 0-.586.586v2.003h-5.3v-6.937l1.755-1.754a3.17 3.17 0 0 0 1.792.553c.813 0 1.626-.31 2.244-.929a3.178 3.178 0 0 0 0-4.49 3.178 3.178 0 0 0-4.489.001 3.179 3.179 0 0 0-.375 4.036l-1.755 1.754h-6.937V14.35h2.003a.586.586 0 0 0 .586-.586V8.586A.586.586 0 0 0 30.589 8h-5.177a.586.586 0 0 0-.586.586v5.177c0 .324.262.586.586.586h2.002v5.3h-2.002v1.171h9.768v14.36H20.82V20.82h4.592v-.509-.664h-4.935l-1.754-1.753a3.15 3.15 0 0 0 .554-1.792c0-.848-.33-1.646-.93-2.245a3.178 3.178 0 0 0-4.49 0c-.599.6-.929 1.397-.929 2.245 0 .848.33 1.645.93 2.244a3.164 3.164 0 0 0 2.244.929 3.17 3.17 0 0 0 1.792-.553l1.755 1.754v6.937h-5.3v-2.003a.586.586 0 0 0-.586-.586H8.586a.586.586 0 0 0-.586.586v5.177c0 .324.262.586.586.586h5.177a.586.586 0 0 0 .586-.586v-2.002h5.3v6.937l-1.755 1.755a3.18 3.18 0 0 0-4.036.375 3.178 3.178 0 0 0 0 4.49 3.165 3.165 0 0 0 2.244.928c.813 0 1.626-.31 2.245-.929a3.18 3.18 0 0 0 .375-4.036l1.755-1.755h6.937v5.3h-2.003a.586.586 0 0 0-.585.586v5.177c0 .324.262.586.585.586h5.178a.586.586 0 0 0 .586-.586v-5.177a.586.586 0 0 0-.586-.586h-2.003v-5.3h6.936l1.756 1.755a3.179 3.179 0 0 0 .375 4.036c.6.6 1.397.93 2.245.93.848 0 1.645-.33 2.244-.93a3.178 3.178 0 0 0 0-4.489c-.6-.6-1.396-.93-2.244-.93-.65 0-1.269.194-1.792.554l-1.755-1.754v-6.937h5.3v2.002c0 .324.262.586.586.586h5.177a.586.586 0 0 0 .586-.586v-5.177a.586.586 0 0 0-.586-.586zM25.997 9.172h4.006v4.005H25.997V9.172zM9.172 30.002v-4.005h4.005V30.002H9.172zm5.514-12.483a1.99 1.99 0 0 1-.586-1.416 1.996 1.996 0 0 1 2.003-2.002c.512 0 1.025.195 1.415.586.379.378.587.88.587 1.416a2.005 2.005 0 0 1-3.419 1.416zm2.832 23.795c-.78.78-2.05.78-2.832 0a2.005 2.005 0 0 1 0-2.832 2.005 2.005 0 0 1 2.832 0c.781.78.781 2.051 0 2.832zm12.485 5.514h-4.006v-4.005h4.006v4.005zm8.479-32.141c.39-.39.903-.586 1.416-.586.512 0 1.025.195 1.416.586.78.78.78 2.05 0 2.832-.78.78-2.051.78-2.832 0a2.006 2.006 0 0 1 0-2.832zm2.832 23.795a2.005 2.005 0 0 1-1.416 3.419 2.005 2.005 0 0 1 0-4.005 1.99 1.99 0 0 1 1.416.586zm5.514-8.48h-4.005v-4.005h4.005v4.006z" fill="url(#paint1_linear)"/><path d="M41.651 27.414v.5h.5v-.5h-.5zm-5.3 0h-.5v.5h.5v-.5zm0-6.937l-.353-.353-.146.146v.207h.5zm1.755-1.754l.283-.413-.343-.234-.293.293.353.354zm4.036-.376l.354.354-.354-.354zm0-4.49l.354-.353-.354.354zm-4.489.001l.354.353-.354-.353zm-.375 4.036l.353.354.294-.294-.235-.342-.412.282zm-1.755 1.754v.5h.207l.147-.146-.354-.354zm-6.937 0h-.5v.5h.5v-.5zm0-5.299v-.5h-.5v.5h.5zm-1.172 0h.5v-.5h-.5v.5zm0 5.3v.5h.5v-.5h-.5zm-2.002 0v-.5.5zm9.768 1.171h.5v-.5h-.5v.5zm0 14.36v.5h.5v-.5h-.5zm-14.36 0h-.5v.5h.5v-.5zm0-7.178l-.499-.027v.027h.5zm0-.002l.5.027.001-.027-.001-.026-.5.026zm0-.001h-.5v.013l.001.013.5-.026zm0-7.178v-.5h-.5v.5h.5zm-.343-1.172l-.354.353.147.147h.207v-.5zm-1.754-1.755l-.412-.283-.235.343.293.294.354-.354zm-4.865-4.036l-.354-.354.354.354zm4.036 4.865l.353-.354-.293-.293-.343.234.283.413zm1.755 1.754h.5v-.207l-.147-.146-.353.353zm0 6.937v.5h.5v-.5h-.5zm-5.3 0h-.5v.5h.5v-.5zm0 1.172v-.5h-.5v.5h.5zm5.3 0h.5v-.5h-.5v.5zm0 6.937l.353.353.146-.146v-.207h-.5zm-1.755 1.755l-.283.412.343.235.293-.294-.353-.353zm-4.036.375l-.354-.354.354.354zm0 4.49l-.354.353.354-.354zm4.864-4.037l-.353-.353-.294.293.235.343.412-.283zm1.755-1.755v-.5h-.207l-.146.147.353.353zm6.937 0h.5v-.5h-.5v.5zm0 5.3v.5h.5v-.5h-.5zm1.172 0h-.5v.5h.5v-.5zm0-5.3v-.5h-.5v.5h.5zm6.936 0l.354-.353-.146-.147h-.208v.5zm1.756 1.755l.412.283.235-.343-.294-.293-.353.353zm.375 4.036l.354-.353-.354.353zm4.49 0l.353.354-.354-.354zm0-4.489l.353-.353-.354.353zm-4.037-.376l-.354.354.294.294.343-.236-.283-.412zm-1.755-1.754h-.5v.207l.147.147.353-.354zm0-6.937v-.5h-.5v.5h.5zm5.3 0h.5v-.5h-.5v.5zM48 25.41h-.5.5zM25.997 9.171v-.5h-.5v.5h.5zm4.006 0h.5v-.5h-.5v.5zm0 4.006v.5h.5v-.5h-.5zm-2.002 0l-.026.5h.027v-.5zm-.001 0l.026-.5h-.052l.026.5zm-.001 0v.5h.026l-.026-.5zm-2.002 0h-.5v.5h.5v-.5zM9.172 30.003h-.5v.5h.5v-.5zm0-4.006v-.5h-.5v.5h.5zm4.005 0h.5v-.5h-.5v.5zm0 2.001l.5.027v-.027h-.5zm0 .002l-.5-.026v.052l.5-.026zm0 .001h.5v-.026l-.5.026zm0 2.001v.5h.5v-.5h-.5zm1.51-12.483l.353-.354-.354.354zm0-2.832l.353.353-.354-.353zm0 26.627l-.354.353.353-.353zm0-2.832l-.354-.354.353.354zm2.831 0l-.353.353.353-.353zm12.485 8.346v.5h.5v-.5h-.5zm-4.006 0h-.5v.5h.5v-.5zm0-4.005v-.5h-.5v.5h.5zm4.006 0h.5v-.5h-.5v.5zm8.479-28.136l-.354-.354.354.354zm2.832 0l.353-.354-.353.354zm0 2.832l.353.353-.353-.353zm-2.832 0l-.354.353.354-.353zm2.832 20.963l-.354.353.354-.353zm-2.832 0l-.354-.354.354.354zm1.416-.587v.5-.5zm6.93-7.893v.5h.5v-.5h-.5zm-4.005 0h-.5v.5h.5v-.5zm0-4.005v-.5h-.5v.5h.5zm4.005 0h.5v-.5h-.5v.5zm.586-1.672h-5.177v1h5.177v-1zm-5.177 0c-.6 0-1.086.486-1.086 1.086h1c0-.047.038-.086.086-.086v-1zm-1.086 1.086v2.003h1v-2.003h-1zm.5 1.503h-5.3v1h5.3v-1zm-4.8.5v-6.937h-1v6.937h1zm-.146-6.583l1.755-1.755-.707-.707-1.755 1.755.707.707zm1.119-1.696a3.67 3.67 0 0 0 2.074.64v-1a2.67 2.67 0 0 1-1.51-.465l-.564.825zm2.074.64c.94 0 1.881-.357 2.598-1.074l-.707-.707a2.665 2.665 0 0 1-1.891.782v1zm2.598-1.074a3.678 3.678 0 0 0 0-5.197l-.707.707a2.678 2.678 0 0 1 0 3.783l.707.707zm0-5.197a3.678 3.678 0 0 0-5.197 0l.708.707a2.678 2.678 0 0 1 3.782 0l.707-.707zm-5.197 0a3.68 3.68 0 0 0-.434 4.672l.825-.564a2.68 2.68 0 0 1 .317-3.4l-.707-.708zm-.375 4.036l-1.754 1.755.707.707 1.754-1.755-.707-.707zm-1.4 1.608h-6.938v1h6.937v-1zm-6.438.5V14.35h-1v5.3h1zm-.5-4.799h2.003v-1h-2.003v1zm2.003 0c.6 0 1.086-.486 1.086-1.086h-1a.086.086 0 0 1-.086.086v1zm1.086-1.086V8.586h-1v5.177h1zm0-5.177c0-.6-.487-1.086-1.086-1.086v1c.047 0 .086.038.086.086h1zM30.589 7.5h-5.177v1h5.177v-1zm-5.177 0c-.6 0-1.086.486-1.086 1.086h1c0-.048.038-.086.086-.086v-1zm-1.086 1.086v5.177h1V8.586h-1zm0 5.177c0 .6.486 1.086 1.086 1.086v-1a.086.086 0 0 1-.086-.086h-1zm1.086 1.086h2.002v-1h-2.002v1zm1.502-.5v5.3h1v-5.3h-1zm.5 4.8h-2.002v1h2.002v-1zm-2.502.5V20.155h1v-.002-.002-.001-.002-.002-.002-.002-.002-.001-.002-.002-.002-.002-.001-.002-.002-.001-.002-.002-.002-.001-.002-.002-.001-.002-.001-.002-.002-.001-.002-.001-.002-.002-.001-.002-.001-.002-.001-.002-.001-.002-.001-.002-.001-.001-.002-.001-.002-.001-.002-.002-.002-.001-.001-.002-.001-.001-.002-.002-.002-.002-.001-.002-.002-.001-.002-.002-.001-.001-.002-.002-.001-.001-.001-.002-.002-.002-.001-.001-.001-.001-.001-.002-.002-.002-.002-.002-.002-.002-.002-.002-.001-.001-.001-.001-.001-.001V20v-.002-.002-.001-.001-.001-.002-.001-.001-.001-.002-.001-.001-.002-.001-.001-.002-.001-.002-.001-.002-.002-.001-.001-.001-.002-.002-.002-.001-.001-.001-.001-.001-.002-.001-.002-.001-.002-.001-.001-.001-.001-.001-.001-.001-.001-.001-.001-.001-.001-.001-.001-.001-.001-.001-.001-.001-.001-.001-.001-.001-.001-.001-.001-.001-.001-.001-.001-.001-.001-.001-.001-.001-.001-.001-.001-.001-.001-.001-.001-.001-.001-.001-.001-.001-.001-.001-.001-.001-.001-.001-.001-.001-.001-.001-.001-.001-.001-.001-.002-.001-.001-.002-.001-.002-.001-.002-.001-.001-.001-.001-.001-.001-.001-.002-.001-.001-.001-.001-.001-.002-.001-.001-.001-.002-.001-.002-.001-.001-.002-.001-.001-.002-.001-.001-.002-.001-.001-.001-.001-.002-.002-.001-.001-.001-.001-.001-.001-.001-.002-.002-.002-.002-.002-.002-.002-.002-.001-.001-.001-.001-.001-.001-.002-.002-.002-.001-.001-.001-.002-.002-.001-.001-.002-.002-.001-.001-.002-.002-.001-.002-.001-.001-.002-.002-.002-.002-.002-.002-.002-.001-.001-.002-.001-.002-.001-.002-.001-.002-.002-.002-.001-.002-.001-.002-.002-.001-.002-.001-.002-.001-.002-.002-.001-.002-.001-.002-.002-.001-.002-.002-.001-.002-.002-.002-.001-.002-.002-.002-.001-.002-.002-.002-.002-.001-.002-.002-.002-.002-.002-.002-.002-.002-.002-.001-.002-.002-.002-.002-.002-.002-.002-.002-.003h-1zm0 .507V20.237h1v-.001-.001-.001-.001-.001-.001-.001-.001-.001-.001-.001-.001-.001-.001-.001-.001-.001-.001-.001-.001-.002-.001-.001-.001-.001-.001-.001-.001-.001-.001-.001-.001-.002-.001-.001-.002-.001-.001-.002-.001-.001-.001-.001-.001-.001-.001-.001-.001-.001-.001-.001-.001-.001-.001-.001-.001-.001-.001-.001-.001-.001-.001-.001-.001-.001h-1V20.82h1v-.006-.007-.007-.007-.006-.007-.007-.006-.007-.006-.006-.007-.006-.006-.006-.007-.006-.006-.006-.006-.006-.006-.006-.005-.006-.006-.006-.005-.006-.006-.005-.006-.005-.005-.006-.005-.006-.005-.005-.005-.005-.005-.005-.005-.005-.005-.005-.005-.005-.005-.004-.005-.005-.004-.005-.004-.005-.004-.005-.004-.005-.004-.004-.004-.005-.004-.004-.004-.004-.004-.004-.004-.004-.004-.004-.003-.004-.004-.004-.003-.004-.004-.003-.004-.003-.004-.003-.003-.004-.003-.003-.004-.003-.003-.003-.003-.003-.003-.003-.003-.003-.003-.003-.003-.003-.003-.003-.002-.003-.003-.003-.002-.003-.002-.003-.002-.003-.002-.003-.002-.003-.002-.002-.002-.003-.002-.002-.002-.002-.002-.003-.002-.002-.002-.002-.002-.002-.001-.002-.002-.002-.002-.002-.001-.002-.002-.001-.002-.002-.001-.002-.001-.002-.001-.002-.001-.002-.001-.001-.002-.001-.001-.002-.002-.001-.002-.002-.001-.001-.001-.001-.001-.001-.001-.001-.001-.001-.001-.002-.002-.001-.002-.001-.001-.001-.001-.002-.001-.001-.001-.001-.001-.001-.001-.001-.001h-1V20.238h1v-.001-.001-.001-.001-.001-.001-.001-.001-.002-.001-.002-.002-.001-.002-.001-.001-.002-.002-.002-.002-.002-.002-.002-.001-.001-.002-.002-.001-.002-.002-.002-.002-.002-.001-.002-.001-.002-.001-.002-.002-.001-.002-.001-.002-.002-.002-.001-.002-.002-.002-.002h-1zm.5 1.164h9.768v-1h-9.768v1zm9.268-.5v14.36h1V20.82h-1zm.5 13.86H20.82v1h14.36v-1zm-13.86.5v-7.178h-1v7.177h1zm0-7.152v-.001l-.999-.054v.002l.999.053zm0-.054v-.002l-.999.053v.002l.999-.053zm0 .025V20.82h-1v7.178h1zm-.5-6.678h4.592v-1H20.82v1zm5.092-.5v-.004-.003-.004-.003-.003-.004-.003-.003-.004-.003-.003-.003-.003-.003-.004-.003-.003-.003-.003-.003-.003-.003-.003-.003-.003-.003-.002-.003-.003-.003-.003-.002-.003-.003-.003-.002-.003-.002-.003-.003-.002-.003-.002-.003-.002-.003-.002-.003-.002-.003-.002-.002-.003-.002-.002-.003-.002-.002-.003-.002-.002-.002-.002-.002-.002-.003-.002-.002-.002-.002-.002-.002-.002-.002-.002-.002-.002-.002-.002-.002-.001-.002-.002-.002-.002-.001-.002-.002-.002-.001-.002-.002-.001-.002-.002-.001-.002-.002-.001-.002-.001-.002-.001-.002-.001-.002-.001-.002-.001-.002-.002-.002-.001-.001-.002-.001-.001-.002-.002-.001-.002-.002-.001-.002-.002-.001-.001-.001-.001-.002-.002-.002-.002-.002-.002-.002-.002-.001-.001-.001-.001-.002-.001-.001-.001-.002-.001-.001-.002-.002-.001-.001-.001-.001-.001-.001-.001-.001-.001-.001-.001-.002-.001-.001-.001-.001-.001-.001-.001-.001-.001-.001-.001-.001-.001-.001-.001-.001-.001-.001-.001-.001-.001-.001-.001-.001-.001-.001-.001-.001-.001-.001-.001-.001-.001-.001-.001-.001-.001-.001-.001-.001-.001-.001-.001-.001-.001-.001-.001-.001-.001-.001-.001-.001-.001-.001-.002-.001-.001-.001-.001-.001-.001-.002-.002-.001-.001-.002-.001-.001-.002-.001-.001-.001-.001-.001-.001-.002-.002-.002-.002-.002-.002-.001-.001-.001-.001-.002-.002-.001-.001-.001-.002-.002-.001-.002-.002-.001-.002-.001-.001-.002-.001-.002-.002-.002-.001-.002-.001-.002-.001-.002-.001-.002-.001-.002-.001-.002-.002-.001-.002-.002-.001-.002-.002-.001-.002-.002-.002-.001-.002-.002-.002-.002-.002-.002h-1V20.82h1zm0-.509v-.001-.002-.002-.002-.002-.002-.002-.001-.002-.002-.002-.001-.002-.002-.002-.001-.002-.002-.001-.002-.002-.001-.002-.001-.002-.002-.001-.002-.001-.002-.001-.002-.001-.002-.001-.002-.001-.002-.001-.002-.001-.001-.002-.001-.002-.001-.001-.002-.001-.001-.002-.001-.001-.002-.002-.001-.002-.002-.001-.002-.002-.001-.001-.002-.002-.002-.001-.001-.001-.002-.002-.002-.002-.001-.001-.001-.001-.001-.001-.001-.001-.001-.001-.001-.002-.002-.002-.001-.001-.001-.001-.001-.002-.002-.001-.001-.002-.001-.001-.002-.001-.001-.002-.001-.002-.001-.002-.001-.002-.002-.001-.001-.001-.001-.001-.001-.001-.001-.002-.001-.001-.001-.002-.001-.001-.001-.001-.002-.001-.001-.001-.001-.001-.001-.002-.001-.001-.001-.001-.001-.001-.001-.001-.001-.001-.001-.001-.001-.001-.001-.001-.002-.001-.001-.001-.001-.001-.001-.001-.001-.001-.001-.001-.001-.001-.001-.001-.001-.001-.001-.001-.001-.001-.001-.001-.001-.002-.002-.001-.001-.001-.001-.001-.001-.002-.002-.001-.002-.002-.001-.002-.001-.001-.002-.001-.002-.001-.001-.001-.002-.001-.001-.001-.001-.002-.002-.001-.001-.001-.001-.001-.001-.001-.001-.001-.001-.001-.001-.001-.001-.001-.001-.001-.001-.001-.001-.001-.001-.001-.002-.002-.002-.001-.001-.001V20v-.002-.001-.001-.002-.002-.001-.001-.002-.002-.001-.002-.001-.001-.002-.001-.001-.002-.001-.001-.002-.001-.002-.002-.002-.001-.002-.001-.002-.001-.002-.001-.002-.001-.002-.001-.002-.001-.002-.002-.001-.002-.001-.002-.002-.001-.002-.002-.001-.002-.002-.002-.001-.002-.002-.002-.001-.002-.002-.002-.002-.002-.002-.001-.002-.002-.002-.002-.002-.002-.002-.002-.002-.002-.002-.002-.002-.002-.002-.002-.002-.003-.002-.002-.002-.002-.003-.002-.002-.002-.003-.002-.002-.002-.003-.002-.002-.003-.002-.002-.003-.002-.003-.002-.003-.002-.003-.002-.003-.002-.003-.003-.002-.003-.002-.003-.003-.002-.003-.003-.003-.002-.003-.003-.003-.002-.003-.003-.003-.003-.003-.003-.002-.003-.003-.003-.003-.003-.003-.004-.003-.003-.003-.003-.003-.003-.003-.004-.003-.003-.003-.004-.003-.003-.004-.003-.003-.004-.003-.004h-1V20.313h1zm-.5-1.164h-4.935v1h4.935v-1zm-4.581.147l-1.754-1.754-.708.707 1.755 1.754.707-.707zm-1.696-1.117a3.65 3.65 0 0 0 .642-2.075h-1a2.65 2.65 0 0 1-.466 1.508l.824.567zm.642-2.075c0-.98-.383-1.905-1.076-2.599l-.707.707c.505.506.783 1.176.783 1.892h1zM18.7 13.504a3.678 3.678 0 0 0-5.197 0l.707.707a2.678 2.678 0 0 1 3.783 0l.707-.707zm-5.197 0a3.654 3.654 0 0 0-1.076 2.599h1c0-.716.277-1.386.783-1.892l-.707-.707zm-1.076 2.599c0 .98.383 1.905 1.076 2.598l.707-.707a2.654 2.654 0 0 1-.783-1.891h-1zm1.076 2.598a3.665 3.665 0 0 0 2.598 1.075v-1c-.686 0-1.37-.261-1.89-.782l-.708.707zm2.598 1.075a3.67 3.67 0 0 0 2.074-.64l-.564-.826a2.67 2.67 0 0 1-1.51.466v1zm1.438-.7l1.755 1.755.707-.707-1.755-1.755-.707.707zm1.609 1.401v6.937h1v-6.937h-1zm.5 6.437h-5.3v1h5.3v-1zm-4.8.5v-2.003h-1v2.003h1zm0-2.003c0-.6-.486-1.086-1.086-1.086v1c.048 0 .086.039.086.086h1zm-1.086-1.086H8.586v1h5.177v-1zm-5.177 0c-.6 0-1.086.486-1.086 1.086h1c0-.047.038-.086.086-.086v-1zM7.5 25.411v5.177h1v-5.177h-1zm0 5.177c0 .6.486 1.086 1.086 1.086v-1a.086.086 0 0 1-.086-.086h-1zm1.086 1.086h5.177v-1H8.586v1zm5.177 0c.6 0 1.086-.486 1.086-1.086h-1a.086.086 0 0 1-.086.086v1zm1.086-1.086v-2.002h-1v2.002h1zm-.5-1.502h5.3v-1h-5.3v1zm4.8-.5v6.937h1v-6.937h-1zm.146 6.583l-1.755 1.755.707.707 1.755-1.755-.707-.707zm-1.119 1.696a3.68 3.68 0 0 0-4.672.434l.707.708a2.68 2.68 0 0 1 3.4-.317l.565-.825zm-4.672.434a3.678 3.678 0 0 0 0 5.197l.707-.707a2.678 2.678 0 0 1 0-3.782l-.707-.708zm0 5.197a3.665 3.665 0 0 0 2.598 1.075v-1c-.686 0-1.37-.261-1.89-.782l-.708.707zm2.598 1.075c.94 0 1.882-.358 2.599-1.075l-.708-.707a2.665 2.665 0 0 1-1.89.782v1zm2.599-1.075a3.68 3.68 0 0 0 .434-4.672l-.825.565a2.68 2.68 0 0 1-.317 3.4l.708.707zm.375-4.036l1.755-1.755-.707-.707-1.755 1.755.707.707zm1.401-1.609h6.937v-1h-6.937v1zm6.437-.5v5.3h1v-5.3h-1zm.5 4.8h-2.003v1h2.003v-1zm-2.003 0c-.6 0-1.085.486-1.085 1.086h1c0-.047.038-.086.085-.086v-1zm-1.085 1.086v5.177h1v-5.177h-1zm0 5.177c0 .6.486 1.086 1.085 1.086v-1a.086.086 0 0 1-.085-.086h-1zM25.41 48.5h5.178v-1h-5.177v1zm5.178 0c.6 0 1.086-.486 1.086-1.086h-1a.086.086 0 0 1-.086.086v1zm1.086-1.086v-5.177h-1v5.177h1zm0-5.177c0-.6-.487-1.086-1.086-1.086v1c.047 0 .086.038.086.086h1zm-1.086-1.086h-2.003v1h2.003v-1zm-1.503.5v-5.3h-1v5.3h1zm-.5-4.8h6.936v-1h-6.936v1zm6.583-.146l1.755 1.755.707-.707-1.755-1.755-.707.707zm1.696 1.12a3.679 3.679 0 0 0 .434 4.671l.707-.707a2.68 2.68 0 0 1-.316-3.4l-.825-.565zm.434 4.671a3.654 3.654 0 0 0 2.599 1.076v-1a2.654 2.654 0 0 1-1.892-.783l-.707.707zm2.599 1.076c.98 0 1.904-.383 2.598-1.076l-.707-.707a2.654 2.654 0 0 1-1.891.783v1zm2.598-1.076a3.678 3.678 0 0 0 0-5.197l-.707.708a2.678 2.678 0 0 1 0 3.782l.707.707zm0-5.197a3.654 3.654 0 0 0-2.598-1.076v1c.715 0 1.385.278 1.89.784l.708-.707zm-2.598-1.076c-.75 0-1.468.225-2.075.642l.566.824c.44-.302.96-.466 1.509-.466v-1zm-1.439.7l-1.754-1.754-.707.708 1.754 1.754.707-.707zm-1.608-1.4v-6.937h-1v6.937h1zm-.5-6.437h5.3v-1h-5.3v1zm4.8-.5v2.002h1v-2.002h-1zm0 2.002c0 .6.486 1.086 1.086 1.086v-1a.086.086 0 0 1-.086-.086h-1zm1.086 1.086h5.177v-1h-5.177v1zm5.177 0c.6 0 1.086-.486 1.086-1.086h-1a.086.086 0 0 1-.086.086v1zm1.086-1.086v-5.177h-1v5.177h1zm0-5.177c0-.6-.486-1.086-1.086-1.086v1c.048 0 .086.039.086.086h1zM25.997 9.671h4.006v-1h-4.006v1zm3.506-.5v4.006h1V9.172h-1zm.5 3.506H28v1h2.002v-1zm-1.975 0h-.002l-.052 1h.001l.053-1zm-.054 0h-.002l.053 1h.001l-.052-1zm.025 0h-2.002v1H28v-1zm-1.502.5V9.172h-1v4.005h1zM9.672 30.003v-4.006h-1v4.006h1zm-.5-3.506h4.005v-1H9.172v1zm3.505-.5v2.001h1v-2h-1zm0 1.975v.002l1 .052v-.001l-1-.053zm0 .054v.002l1-.053v-.001l-1 .052zm0-.025v2.001h1v-2h-1zm.5 1.501H9.172v1h4.005v-1zm1.863-12.337a1.49 1.49 0 0 1-.44-1.062h-1c0 .667.26 1.297.733 1.77l.707-.708zm-.44-1.062c0-.403.155-.778.44-1.063l-.707-.707a2.49 2.49 0 0 0-.733 1.77h1zm.44-1.063c.292-.292.676-.44 1.062-.44v-1c-.64 0-1.281.245-1.77.733l.708.707zm1.062-.44c.386 0 .77.148 1.063.44l.707-.707a2.496 2.496 0 0 0-1.77-.732v1zm1.063.44c.284.285.44.66.44 1.063h1a2.49 2.49 0 0 0-.733-1.77l-.707.707zm.44 1.063c0 .402-.156.778-.44 1.062l.707.707a2.49 2.49 0 0 0 .733-1.77h-1zm-.44 1.062a1.505 1.505 0 0 1-2.125 0l-.707.707a2.505 2.505 0 0 0 3.539 0l-.707-.707zm0 23.795a1.505 1.505 0 0 1-2.125 0l-.707.707a2.505 2.505 0 0 0 3.539 0l-.707-.707zm-2.125 0a1.505 1.505 0 0 1 0-2.125l-.707-.707a2.505 2.505 0 0 0 0 3.54l.707-.708zm0-2.125a1.505 1.505 0 0 1 2.125 0l.707-.707a2.505 2.505 0 0 0-3.54 0l.708.707zm2.125 0c.585.586.585 1.54 0 2.125l.707.707a2.505 2.505 0 0 0 0-3.539l-.707.707zm12.838 7.493h-4.006v1h4.006v-1zm-3.506.5v-4.005h-1v4.005h1zm-.5-3.505h4.006v-1h-4.006v1zm3.506-.5v4.005h1v-4.005h-1zm9.332-27.783c.293-.292.676-.439 1.063-.439v-1c-.64 0-1.282.244-1.77.732l.707.707zm1.063-.439c.386 0 .77.147 1.062.44l.707-.708a2.497 2.497 0 0 0-1.77-.732v1zm1.062.44c.586.585.586 1.539 0 2.124l.707.707a2.505 2.505 0 0 0 0-3.539l-.707.707zm0 2.124a1.505 1.505 0 0 1-2.125 0l-.707.708a2.505 2.505 0 0 0 3.54 0l-.708-.708zm-2.124 0a1.505 1.505 0 0 1 0-2.125l-.708-.707a2.506 2.506 0 0 0 0 3.54l.708-.707zm2.124 21.67c.586.586.586 1.54 0 2.125l.707.707a2.505 2.505 0 0 0 0-3.539l-.707.707zm0 2.125a1.49 1.49 0 0 1-1.062.44v1a2.49 2.49 0 0 0 1.77-.733l-.708-.707zm-1.062.44a1.49 1.49 0 0 1-1.063-.44l-.707.707a2.49 2.49 0 0 0 1.77.733v-1zm-1.063-.44a1.505 1.505 0 0 1 0-2.125l-.707-.707a2.505 2.505 0 0 0 0 3.54l.707-.708zm0-2.125a1.49 1.49 0 0 1 1.063-.44v-1a2.49 2.49 0 0 0-1.77.733l.707.707zm1.063-.44c.402 0 .778.156 1.062.44l.707-.707a2.489 2.489 0 0 0-1.77-.733v1zm6.93-8.893h-4.005v1h4.005v-1zm-3.505.5v-4.005h-1v4.006h1zm-.5-3.505h4.005v-1h-4.005v1zm3.505-.5v4.006h1v-4.006h-1z" fill="url(#paint2_linear)" mask="url(#a)"/><g opacity=".5" filter="url(#filter0_f)"><mask id="b" maskUnits="userSpaceOnUse" x="7" y="7" width="42" height="42" fill="#000"><path fill="#fff" d="M7 7h42v42H7z"/><path d="M47.414 24.825h-5.177a.586.586 0 0 0-.586.586v2.003h-5.3v-6.937l1.755-1.754a3.17 3.17 0 0 0 1.792.553c.813 0 1.626-.31 2.244-.929a3.178 3.178 0 0 0 0-4.49 3.178 3.178 0 0 0-4.489.001 3.179 3.179 0 0 0-.375 4.036l-1.755 1.754h-6.937V14.35h2.003a.586.586 0 0 0 .586-.586V8.586A.586.586 0 0 0 30.589 8h-5.177a.586.586 0 0 0-.586.586v5.177c0 .324.262.586.586.586h2.002v5.3h-2.002v1.171h9.768v14.36H20.82V20.82h4.592v-.509-.664h-4.935l-1.754-1.753a3.15 3.15 0 0 0 .554-1.792c0-.848-.33-1.646-.93-2.245a3.178 3.178 0 0 0-4.49 0c-.599.6-.929 1.397-.929 2.245 0 .848.33 1.645.93 2.244a3.164 3.164 0 0 0 2.244.929 3.17 3.17 0 0 0 1.792-.553l1.755 1.754v6.937h-5.3v-2.003a.586.586 0 0 0-.586-.586H8.586a.586.586 0 0 0-.586.586v5.177c0 .324.262.586.586.586h5.177a.586.586 0 0 0 .586-.586v-2.002h5.3v6.937l-1.755 1.755a3.18 3.18 0 0 0-4.036.375 3.178 3.178 0 0 0 0 4.49 3.165 3.165 0 0 0 2.244.928c.813 0 1.626-.31 2.245-.929a3.18 3.18 0 0 0 .375-4.036l1.755-1.755h6.937v5.3h-2.003a.586.586 0 0 0-.585.586v5.177c0 .324.262.586.585.586h5.178a.586.586 0 0 0 .586-.586v-5.177a.586.586 0 0 0-.586-.586h-2.003v-5.3h6.936l1.756 1.755a3.179 3.179 0 0 0 .375 4.036c.6.6 1.397.93 2.245.93.848 0 1.645-.33 2.244-.93a3.178 3.178 0 0 0 0-4.489c-.6-.6-1.396-.93-2.244-.93-.65 0-1.269.194-1.792.554l-1.755-1.754v-6.937h5.3v2.002c0 .324.262.586.586.586h5.177a.586.586 0 0 0 .586-.586v-5.177a.586.586 0 0 0-.586-.586zM25.997 9.172h4.006v4.005H25.997V9.172zM9.172 30.002v-4.005h4.005V30.002H9.172zm5.514-12.483a1.99 1.99 0 0 1-.586-1.416 1.996 1.996 0 0 1 2.003-2.002c.512 0 1.025.195 1.415.586.379.378.587.88.587 1.416a2.005 2.005 0 0 1-3.419 1.416zm2.832 23.795c-.78.78-2.05.78-2.832 0a2.005 2.005 0 0 1 0-2.832 2.005 2.005 0 0 1 2.832 0c.781.78.781 2.051 0 2.832zm12.485 5.514h-4.006v-4.005h4.006v4.005zm8.479-32.141c.39-.39.903-.586 1.416-.586.512 0 1.025.195 1.416.586.78.78.78 2.05 0 2.832-.78.78-2.051.78-2.832 0a2.006 2.006 0 0 1 0-2.832zm2.832 23.795a2.005 2.005 0 0 1-1.416 3.419 2.005 2.005 0 0 1 0-4.005 1.99 1.99 0 0 1 1.416.586zm5.514-8.48h-4.005v-4.005h4.005v4.006z"/></mask><path d="M47.414 24.825h-5.177a.586.586 0 0 0-.586.586v2.003h-5.3v-6.937l1.755-1.754a3.17 3.17 0 0 0 1.792.553c.813 0 1.626-.31 2.244-.929a3.178 3.178 0 0 0 0-4.49 3.178 3.178 0 0 0-4.489.001 3.179 3.179 0 0 0-.375 4.036l-1.755 1.754h-6.937V14.35h2.003a.586.586 0 0 0 .586-.586V8.586A.586.586 0 0 0 30.589 8h-5.177a.586.586 0 0 0-.586.586v5.177c0 .324.262.586.586.586h2.002v5.3h-2.002v1.171h9.768v14.36H20.82V20.82h4.592v-.509-.664h-4.935l-1.754-1.753a3.15 3.15 0 0 0 .554-1.792c0-.848-.33-1.646-.93-2.245a3.178 3.178 0 0 0-4.49 0c-.599.6-.929 1.397-.929 2.245 0 .848.33 1.645.93 2.244a3.164 3.164 0 0 0 2.244.929 3.17 3.17 0 0 0 1.792-.553l1.755 1.754v6.937h-5.3v-2.003a.586.586 0 0 0-.586-.586H8.586a.586.586 0 0 0-.586.586v5.177c0 .324.262.586.586.586h5.177a.586.586 0 0 0 .586-.586v-2.002h5.3v6.937l-1.755 1.755a3.18 3.18 0 0 0-4.036.375 3.178 3.178 0 0 0 0 4.49 3.165 3.165 0 0 0 2.244.928c.813 0 1.626-.31 2.245-.929a3.18 3.18 0 0 0 .375-4.036l1.755-1.755h6.937v5.3h-2.003a.586.586 0 0 0-.585.586v5.177c0 .324.262.586.585.586h5.178a.586.586 0 0 0 .586-.586v-5.177a.586.586 0 0 0-.586-.586h-2.003v-5.3h6.936l1.756 1.755a3.179 3.179 0 0 0 .375 4.036c.6.6 1.397.93 2.245.93.848 0 1.645-.33 2.244-.93a3.178 3.178 0 0 0 0-4.489c-.6-.6-1.396-.93-2.244-.93-.65 0-1.269.194-1.792.554l-1.755-1.754v-6.937h5.3v2.002c0 .324.262.586.586.586h5.177a.586.586 0 0 0 .586-.586v-5.177a.586.586 0 0 0-.586-.586zM25.997 9.172h4.006v4.005H25.997V9.172zM9.172 30.002v-4.005h4.005V30.002H9.172zm5.514-12.483a1.99 1.99 0 0 1-.586-1.416 1.996 1.996 0 0 1 2.003-2.002c.512 0 1.025.195 1.415.586.379.378.587.88.587 1.416a2.005 2.005 0 0 1-3.419 1.416zm2.832 23.795c-.78.78-2.05.78-2.832 0a2.005 2.005 0 0 1 0-2.832 2.005 2.005 0 0 1 2.832 0c.781.78.781 2.051 0 2.832zm12.485 5.514h-4.006v-4.005h4.006v4.005zm8.479-32.141c.39-.39.903-.586 1.416-.586.512 0 1.025.195 1.416.586.78.78.78 2.05 0 2.832-.78.78-2.051.78-2.832 0a2.006 2.006 0 0 1 0-2.832zm2.832 23.795a2.005 2.005 0 0 1-1.416 3.419 2.005 2.005 0 0 1 0-4.005 1.99 1.99 0 0 1 1.416.586zm5.514-8.48h-4.005v-4.005h4.005v4.006z" fill="url(#paint3_linear)"/><path d="M41.651 27.414v.5h.5v-.5h-.5zm-5.3 0h-.5v.5h.5v-.5zm0-6.937l-.353-.353-.146.146v.207h.5zm1.755-1.754l.283-.413-.343-.234-.293.293.353.354zm4.036-.376l.354.354-.354-.354zm0-4.49l.354-.353-.354.354zm-4.489.001l.354.353-.354-.353zm-.375 4.036l.353.354.294-.294-.235-.342-.412.282zm-1.755 1.754v.5h.207l.147-.146-.354-.354zm-6.937 0h-.5v.5h.5v-.5zm0-5.299v-.5h-.5v.5h.5zm-1.172 0h.5v-.5h-.5v.5zm0 5.3v.5h.5v-.5h-.5zm-2.002 0v-.5.5zm9.768 1.171h.5v-.5h-.5v.5zm0 14.36v.5h.5v-.5h-.5zm-14.36 0h-.5v.5h.5v-.5zm0-7.178l-.499-.027v.027h.5zm0-.002l.5.027.001-.027-.001-.026-.5.026zm0-.001h-.5v.013l.001.013.5-.026zm0-7.178v-.5h-.5v.5h.5zm-.343-1.172l-.354.353.147.147h.207v-.5zm-1.754-1.755l-.412-.283-.235.343.293.294.354-.354zm-.376-4.036l.354-.354-.354.354zm-4.49 0l-.353-.354.354.354zm0 4.49l-.353.353.354-.354zm4.037.375l.353-.354-.293-.293-.343.234.283.413zm1.755 1.754h.5v-.207l-.147-.146-.353.353zm0 6.937v.5h.5v-.5h-.5zm-5.3 0h-.5v.5h.5v-.5zm0 1.172v-.5h-.5v.5h.5zm5.3 0h.5v-.5h-.5v.5zm0 6.937l.353.353.146-.146v-.207h-.5zm-1.755 1.755l-.283.412.343.235.293-.294-.353-.353zm-4.036.375l-.354-.354.354.354zm0 4.49l-.354.353.354-.354zm4.489 0l-.354-.354.354.353zm.375-4.037l-.353-.353-.294.293.235.343.412-.283zm1.755-1.755v-.5h-.207l-.146.147.353.353zm6.937 0h.5v-.5h-.5v.5zm0 5.3v.5h.5v-.5h-.5zm1.172 0h-.5v.5h.5v-.5zm0-5.3v-.5h-.5v.5h.5zm6.936 0l.354-.353-.146-.147h-.208v.5zm1.756 1.755l.412.283.235-.343-.294-.293-.353.353zm.375 4.036l.354-.353-.354.353zm4.49 0l.353.354-.354-.354zm0-4.489l.353-.353-.354.353zm-4.037-.376l-.354.354.294.294.343-.236-.283-.412zm-1.755-1.754h-.5v.207l.147.147.353-.354zm0-6.937v-.5h-.5v.5h.5zm5.3 0h.5v-.5h-.5v.5zM48 25.41h-.5.5zM25.997 9.171v-.5h-.5v.5h.5zm4.006 0h.5v-.5h-.5v.5zm0 4.006v.5h.5v-.5h-.5zm-2.002 0l-.026.5h.027v-.5zm-.001 0l.026-.5h-.052l.026.5zm-.001 0v.5h.026l-.026-.5zm-2.002 0h-.5v.5h.5v-.5zM9.172 30.003h-.5v.5h.5v-.5zm0-4.006v-.5h-.5v.5h.5zm4.005 0h.5v-.5h-.5v.5zm0 2.001l.5.027v-.027h-.5zm0 .002l-.5-.026v.052l.5-.026zm0 .001h.5v-.026l-.5.026zm0 2.001v.5h.5v-.5h-.5zm1.51-12.483l.353-.354-.354.354zm0-2.832l.353.353-.354-.353zm2.832 0l-.354.353.354-.353zm0 2.832l-.354-.354.354.354zm-2.833 23.795l-.353.353.353-.353zm0-2.832l-.353-.354.353.354zm2.832 0l-.353.353.353-.353zm12.485 8.346v.5h.5v-.5h-.5zm-4.006 0h-.5v.5h.5v-.5zm0-4.005v-.5h-.5v.5h.5zm4.006 0h.5v-.5h-.5v.5zm8.479-28.136l-.354-.354.354.354zm2.832 0l.353-.354-.353.354zm0 2.832l.353.353-.353-.353zm-2.832 0l-.354.353.354-.353zm2.832 20.963l-.354.353.354-.353zm0 2.832l.353.353-.353-.353zm-2.832 0l-.354.353.354-.353zm0-2.832l-.354-.354.354.354zm1.416-.587v.5-.5zm6.93-7.893v.5h.5v-.5h-.5zm-4.005 0h-.5v.5h.5v-.5zm0-4.005v-.5h-.5v.5h.5zm4.005 0h.5v-.5h-.5v.5zm.586-1.672h-5.177v1h5.177v-1zm-5.177 0c-.6 0-1.086.486-1.086 1.086h1c0-.047.038-.086.086-.086v-1zm-1.086 1.086v2.003h1v-2.003h-1zm.5 1.503h-5.3v1h5.3v-1zm-4.8.5v-6.937h-1v6.937h1zm-.146-6.583l1.755-1.755-.707-.707-1.755 1.755.707.707zm1.119-1.696a3.67 3.67 0 0 0 2.074.64v-1a2.67 2.67 0 0 1-1.51-.465l-.564.825zm2.074.64c.94 0 1.881-.357 2.598-1.074l-.707-.707a2.665 2.665 0 0 1-1.891.782v1zm2.598-1.074a3.678 3.678 0 0 0 0-5.197l-.707.707a2.678 2.678 0 0 1 0 3.783l.707.707zm0-5.197a3.678 3.678 0 0 0-5.197 0l.708.707a2.678 2.678 0 0 1 3.782 0l.707-.707zm-5.197 0a3.68 3.68 0 0 0-.434 4.672l.825-.564a2.679 2.679 0 0 1 .317-3.4l-.707-.708zm-.375 4.036l-1.754 1.755.707.707 1.754-1.755-.707-.707zm-1.4 1.608h-6.938v1h6.937v-1zm-6.438.5V14.35h-1v5.3h1zm-.5-4.799h2.003v-1h-2.003v1zm2.003 0c.6 0 1.086-.486 1.086-1.086h-1a.086.086 0 0 1-.086.086v1zm1.086-1.086V8.586h-1v5.177h1zm0-5.177c0-.6-.487-1.086-1.086-1.086v1c.047 0 .086.038.086.086h1zM30.589 7.5h-5.177v1h5.177v-1zm-5.177 0c-.6 0-1.086.486-1.086 1.086h1c0-.048.038-.086.086-.086v-1zm-1.086 1.086v5.177h1V8.586h-1zm0 5.177c0 .6.486 1.086 1.086 1.086v-1a.086.086 0 0 1-.086-.086h-1zm1.086 1.086h2.002v-1h-2.002v1zm1.502-.5v5.3h1v-5.3h-1zm.5 4.8h-2.002v1h2.002v-1zm-2.502.5V20.155h1v-.002-.002-.001-.002-.002-.002-.002-.002-.001-.002-.002-.002-.002-.001-.002-.002-.001-.002-.002-.002-.001-.002-.002-.001-.002-.001-.002-.002-.001-.002-.001-.002-.002-.001-.002-.001-.002-.001-.002-.001-.002-.001-.002-.001-.001-.002-.001-.002-.001-.002-.002-.002-.001-.001-.002-.001-.001-.002-.002-.002-.002-.001-.002-.002-.001-.002-.002-.001-.001-.002-.002-.001-.001-.001-.002-.002-.002-.001-.001-.001-.001-.001-.002-.002-.002-.002-.002-.002-.002-.002-.002-.001-.001-.001-.001-.001-.001V20v-.002-.002-.001-.001-.001-.002-.001-.001-.001-.002-.001-.001-.002-.001-.001-.002-.001-.002-.001-.002-.002-.001-.001-.001-.002-.002-.002-.001-.001-.001-.001-.001-.002-.001-.002-.001-.002-.001-.001-.001-.001-.001-.001-.001-.001-.001-.001-.001-.001-.001-.001-.001-.001-.001-.001-.001-.001-.001-.001-.001-.001-.001-.001-.001-.001-.001-.001-.001-.001-.001-.001-.001-.001-.001-.001-.001-.001-.001-.001-.001-.001-.001-.001-.001-.001-.001-.001-.001-.001-.001-.001-.001-.001-.001-.001-.001-.001-.001-.002-.001-.001-.002-.001-.002-.001-.002-.001-.001-.001-.001-.001-.001-.001-.002-.001-.001-.001-.001-.001-.002-.001-.001-.001-.002-.001-.002-.001-.001-.002-.001-.001-.002-.001-.001-.002-.001-.001-.001-.001-.002-.002-.001-.001-.001-.001-.001-.001-.001-.002-.002-.002-.002-.002-.002-.002-.002-.001-.001-.001-.001-.001-.001-.002-.002-.002-.001-.001-.001-.002-.002-.001-.001-.002-.002-.001-.001-.002-.002-.001-.002-.001-.001-.002-.002-.002-.002-.002-.002-.002-.001-.001-.002-.001-.002-.001-.002-.001-.002-.002-.002-.001-.002-.001-.002-.002-.001-.002-.001-.002-.001-.002-.002-.001-.002-.001-.002-.002-.001-.002-.002-.001-.002-.002-.002-.001-.002-.002-.002-.001-.002-.002-.002-.002-.001-.002-.002-.002-.002-.002-.002-.002-.002-.002-.001-.002-.002-.002-.002-.002-.002-.002-.002-.003h-1zm0 .507V20.237h1v-.001-.001-.001-.001-.001-.001-.001-.001-.001-.001-.001-.001-.001-.001-.001-.001-.001-.001-.001-.001-.002-.001-.001-.001-.001-.001-.001-.001-.001-.001-.001-.001-.002-.001-.001-.002-.001-.001-.002-.001-.001-.001-.001-.001-.001-.001-.001-.001-.001-.001-.001-.001-.001-.001-.001-.001-.001-.001-.001-.001-.001-.001-.001-.001-.001h-1V20.82h1v-.006-.007-.007-.007-.006-.007-.007-.006-.007-.006-.006-.007-.006-.006-.006-.007-.006-.006-.006-.006-.006-.006-.006-.005-.006-.006-.006-.005-.006-.006-.005-.006-.005-.005-.006-.005-.006-.005-.005-.005-.005-.005-.005-.005-.005-.005-.005-.005-.005-.005-.004-.005-.005-.004-.005-.004-.005-.004-.005-.004-.005-.004-.004-.004-.005-.004-.004-.004-.004-.004-.004-.004-.004-.004-.004-.003-.004-.004-.004-.003-.004-.004-.003-.004-.003-.004-.003-.003-.004-.003-.003-.004-.003-.003-.003-.003-.003-.003-.003-.003-.003-.003-.003-.003-.003-.003-.003-.002-.003-.003-.003-.002-.003-.002-.003-.002-.003-.002-.003-.002-.003-.002-.002-.002-.003-.002-.002-.002-.002-.002-.003-.002-.002-.002-.002-.002-.002-.001-.002-.002-.002-.002-.002-.001-.002-.002-.001-.002-.002-.001-.002-.001-.002-.001-.002-.001-.002-.001-.001-.002-.001-.001-.002-.002-.001-.002-.002-.001-.001-.001-.001-.001-.001-.001-.001-.001-.001-.001-.002-.002-.001-.002-.001-.001-.001-.001-.002-.001-.001-.001-.001-.001-.001-.001-.001-.001h-1V20.238h1v-.001-.001-.001-.001-.001-.001-.001-.001-.002-.001-.002-.002-.001-.002-.001-.001-.002-.002-.002-.002-.002-.002-.002-.001-.001-.002-.002-.001-.002-.002-.002-.002-.002-.001-.002-.001-.002-.001-.002-.002-.001-.002-.001-.002-.002-.002-.001-.002-.002-.002-.002h-1zm.5 1.164h9.768v-1h-9.768v1zm9.268-.5v14.36h1V20.82h-1zm.5 13.86H20.82v1h14.36v-1zm-13.86.5v-7.178h-1v7.177h1zm0-7.152v-.001l-.999-.054v.002l.999.053zm0-.054v-.002l-.999.053v.002l.999-.053zm0 .025V20.82h-1v7.178h1zm-.5-6.678h4.592v-1H20.82v1zm5.092-.5v-.004-.003-.004-.003-.003-.004-.003-.003-.004-.003-.003-.003-.003-.003-.004-.003-.003-.003-.003-.003-.003-.003-.003-.003-.003-.003-.002-.003-.003-.003-.003-.002-.003-.003-.003-.002-.003-.002-.003-.003-.002-.003-.002-.003-.002-.003-.002-.003-.002-.003-.002-.002-.003-.002-.002-.003-.002-.002-.003-.002-.002-.002-.002-.002-.002-.003-.002-.002-.002-.002-.002-.002-.002-.002-.002-.002-.002-.002-.002-.002-.001-.002-.002-.002-.002-.001-.002-.002-.002-.001-.002-.002-.001-.002-.002-.001-.002-.002-.001-.002-.001-.002-.001-.002-.001-.002-.001-.002-.001-.002-.002-.002-.001-.001-.002-.001-.001-.002-.002-.001-.002-.002-.001-.002-.002-.001-.001-.001-.001-.002-.002-.002-.002-.002-.002-.002-.002-.001-.001-.001-.001-.002-.001-.001-.001-.002-.001-.001-.002-.002-.001-.001-.001-.001-.001-.001-.001-.001-.001-.001-.001-.002-.001-.001-.001-.001-.001-.001-.001-.001-.001-.001-.001-.001-.001-.001-.001-.001-.001-.001-.001-.001-.001-.001-.001-.001-.001-.001-.001-.001-.001-.001-.001-.001-.001-.001-.001-.001-.001-.001-.001-.001-.001-.001-.001-.001-.001-.001-.001-.001-.001-.001-.001-.001-.001-.001-.002-.001-.001-.001-.001-.001-.001-.002-.002-.001-.001-.002-.001-.001-.002-.001-.001-.001-.001-.001-.001-.002-.002-.002-.002-.002-.002-.001-.001-.001-.001-.002-.002-.001-.001-.001-.002-.002-.001-.002-.002-.001-.002-.001-.001-.002-.001-.002-.002-.002-.001-.002-.001-.002-.001-.002-.001-.002-.001-.002-.001-.002-.002-.001-.002-.002-.001-.002-.002-.001-.002-.002-.002-.001-.002-.002-.002-.002-.002-.002h-1V20.82h1zm0-.509v-.001-.002-.002-.002-.002-.002-.002-.001-.002-.002-.002-.001-.002-.002-.002-.001-.002-.002-.001-.002-.002-.001-.002-.001-.002-.002-.001-.002-.001-.002-.001-.002-.001-.002-.001-.002-.001-.002-.001-.002-.001-.001-.002-.001-.002-.001-.001-.002-.001-.001-.002-.001-.001-.002-.002-.001-.002-.002-.001-.002-.002-.001-.001-.002-.002-.002-.001-.001-.001-.002-.002-.002-.002-.001-.001-.001-.001-.001-.001-.001-.001-.001-.001-.001-.002-.002-.002-.001-.001-.001-.001-.001-.002-.002-.001-.001-.002-.001-.001-.002-.001-.001-.002-.001-.002-.001-.002-.001-.002-.002-.001-.001-.001-.001-.001-.001-.001-.001-.002-.001-.001-.001-.002-.001-.001-.001-.001-.002-.001-.001-.001-.001-.001-.001-.002-.001-.001-.001-.001-.001-.001-.001-.001-.001-.001-.001-.001-.001-.001-.001-.001-.002-.001-.001-.001-.001-.001-.001-.001-.001-.001-.001-.001-.001-.001-.001-.001-.001-.001-.001-.001-.001-.001-.001-.001-.001-.002-.002-.001-.001-.001-.001-.001-.001-.002-.002-.001-.002-.002-.001-.002-.001-.001-.002-.001-.002-.001-.001-.001-.002-.001-.001-.001-.001-.002-.002-.001-.001-.001-.001-.001-.001-.001-.001-.001-.001-.001-.001-.001-.001-.001-.001-.001-.001-.001-.001-.001-.001-.001-.002-.002-.002-.001-.001-.001V20v-.002-.001-.001-.002-.002-.001-.001-.002-.002-.001-.002-.001-.001-.002-.001-.001-.002-.001-.001-.002-.001-.002-.002-.002-.001-.002-.001-.002-.001-.002-.001-.002-.001-.002-.001-.002-.001-.002-.002-.001-.002-.001-.002-.002-.001-.002-.002-.001-.002-.002-.002-.001-.002-.002-.002-.001-.002-.002-.002-.002-.002-.002-.001-.002-.002-.002-.002-.002-.002-.002-.002-.002-.002-.002-.002-.002-.002-.002-.002-.002-.003-.002-.002-.002-.002-.003-.002-.002-.002-.003-.002-.002-.002-.003-.002-.002-.003-.002-.002-.003-.002-.003-.002-.003-.002-.003-.002-.003-.002-.003-.003-.002-.003-.002-.003-.003-.002-.003-.003-.003-.002-.003-.003-.003-.002-.003-.003-.003-.003-.003-.003-.002-.003-.003-.003-.003-.003-.003-.004-.003-.003-.003-.003-.003-.003-.003-.004-.003-.003-.003-.004-.003-.003-.004-.003-.003-.004-.003-.004h-1V20.313h1zm-.5-1.164h-4.935v1h4.935v-1zm-4.581.147l-1.754-1.754-.708.707 1.755 1.754.707-.707zm-1.696-1.117a3.65 3.65 0 0 0 .642-2.075h-1a2.65 2.65 0 0 1-.466 1.508l.824.567zm.642-2.075c0-.98-.383-1.905-1.076-2.599l-.707.707c.505.506.783 1.176.783 1.892h1zM18.7 13.504a3.678 3.678 0 0 0-5.197 0l.707.707a2.678 2.678 0 0 1 3.783 0l.707-.707zm-5.197 0a3.654 3.654 0 0 0-1.076 2.599h1c0-.716.277-1.386.783-1.892l-.707-.707zm-1.076 2.599c0 .98.383 1.905 1.076 2.598l.707-.707a2.654 2.654 0 0 1-.783-1.891h-1zm1.076 2.598a3.665 3.665 0 0 0 2.598 1.075v-1c-.686 0-1.37-.261-1.89-.782l-.708.707zm2.598 1.075a3.67 3.67 0 0 0 2.074-.64l-.564-.826a2.67 2.67 0 0 1-1.51.466v1zm1.438-.7l1.755 1.755.707-.707-1.755-1.755-.707.707zm1.609 1.401v6.937h1v-6.937h-1zm.5 6.437h-5.3v1h5.3v-1zm-4.8.5v-2.003h-1v2.003h1zm0-2.003c0-.6-.486-1.086-1.086-1.086v1c.048 0 .086.039.086.086h1zm-1.086-1.086H8.586v1h5.177v-1zm-5.177 0c-.6 0-1.086.486-1.086 1.086h1c0-.047.038-.086.086-.086v-1zM7.5 25.411v5.177h1v-5.177h-1zm0 5.177c0 .6.486 1.086 1.086 1.086v-1a.086.086 0 0 1-.086-.086h-1zm1.086 1.086h5.177v-1H8.586v1zm5.177 0c.6 0 1.086-.486 1.086-1.086h-1a.086.086 0 0 1-.086.086v1zm1.086-1.086v-2.002h-1v2.002h1zm-.5-1.502h5.3v-1h-5.3v1zm4.8-.5v6.937h1v-6.937h-1zm.146 6.583l-1.755 1.755.707.707 1.755-1.755-.707-.707zm-1.119 1.696a3.68 3.68 0 0 0-4.672.434l.707.708a2.68 2.68 0 0 1 3.4-.317l.565-.825zm-4.672.434a3.678 3.678 0 0 0 0 5.197l.707-.707a2.678 2.678 0 0 1 0-3.782l-.707-.708zm0 5.197a3.665 3.665 0 0 0 2.598 1.075v-1c-.686 0-1.37-.261-1.89-.782l-.708.707zm2.598 1.075c.94 0 1.882-.358 2.599-1.075l-.708-.707a2.665 2.665 0 0 1-1.89.782v1zm2.599-1.075a3.68 3.68 0 0 0 .434-4.672l-.825.565a2.68 2.68 0 0 1-.317 3.4l.708.707zm.375-4.036l1.755-1.755-.707-.707-1.755 1.755.707.707zm1.401-1.609h6.937v-1h-6.937v1zm6.437-.5v5.3h1v-5.3h-1zm.5 4.8h-2.003v1h2.003v-1zm-2.003 0c-.6 0-1.085.486-1.085 1.086h1c0-.047.038-.086.085-.086v-1zm-1.085 1.086v5.177h1v-5.177h-1zm0 5.177c0 .6.486 1.086 1.085 1.086v-1a.086.086 0 0 1-.085-.086h-1zM25.41 48.5h5.178v-1h-5.177v1zm5.178 0c.6 0 1.086-.486 1.086-1.086h-1a.086.086 0 0 1-.086.086v1zm1.086-1.086v-5.177h-1v5.177h1zm0-5.177c0-.6-.487-1.086-1.086-1.086v1c.047 0 .086.038.086.086h1zm-1.086-1.086h-2.003v1h2.003v-1zm-1.503.5v-5.3h-1v5.3h1zm-.5-4.8h6.936v-1h-6.936v1zm6.583-.146l1.755 1.755.707-.707-1.755-1.755-.707.707zm1.696 1.12a3.679 3.679 0 0 0 .434 4.671l.707-.707a2.68 2.68 0 0 1-.316-3.4l-.825-.565zm.434 4.671a3.654 3.654 0 0 0 2.599 1.076v-1a2.654 2.654 0 0 1-1.892-.783l-.707.707zm2.599 1.076c.98 0 1.904-.383 2.598-1.076l-.707-.707a2.654 2.654 0 0 1-1.891.783v1zm2.598-1.076a3.678 3.678 0 0 0 0-5.197l-.707.708a2.678 2.678 0 0 1 0 3.782l.707.707zm0-5.197a3.654 3.654 0 0 0-2.598-1.076v1c.715 0 1.385.278 1.89.784l.708-.707zm-2.598-1.076c-.75 0-1.468.225-2.075.642l.566.824c.44-.302.96-.466 1.509-.466v-1zm-1.439.7l-1.754-1.754-.707.708 1.754 1.754.707-.707zm-1.608-1.4v-6.937h-1v6.937h1zm-.5-6.437h5.3v-1h-5.3v1zm4.8-.5v2.002h1v-2.002h-1zm0 2.002c0 .6.486 1.086 1.086 1.086v-1a.086.086 0 0 1-.086-.086h-1zm1.086 1.086h5.177v-1h-5.177v1zm5.177 0c.6 0 1.086-.486 1.086-1.086h-1a.086.086 0 0 1-.086.086v1zm1.086-1.086v-5.177h-1v5.177h1zm0-5.177c0-.6-.486-1.086-1.086-1.086v1c.048 0 .086.039.086.086h1zM25.997 9.671h4.006v-1h-4.006v1zm3.506-.5v4.006h1V9.172h-1zm.5 3.506H28v1h2.002v-1zm-1.975 0h-.002l-.052 1h.001l.053-1zm-.054 0h-.002l.053 1h.001l-.052-1zm.025 0h-2.002v1H28v-1zm-1.502.5V9.172h-1v4.005h1zM9.672 30.003v-4.006h-1v4.006h1zm-.5-3.506h4.005v-1H9.172v1zm3.505-.5v2.001h1v-2h-1zm0 1.975v.002l1 .052v-.001l-1-.053zm0 .054v.002l1-.053v-.001l-1 .052zm0-.025v2.001h1v-2h-1zm.5 1.501H9.172v1h4.005v-1zm1.863-12.337a1.49 1.49 0 0 1-.44-1.062h-1c0 .667.26 1.297.733 1.77l.707-.708zm-.44-1.062c0-.403.155-.778.44-1.063l-.707-.707a2.49 2.49 0 0 0-.733 1.77h1zm.44-1.063c.292-.292.676-.44 1.062-.44v-1c-.64 0-1.281.245-1.77.733l.708.707zm1.062-.44c.386 0 .77.148 1.063.44l.707-.707a2.496 2.496 0 0 0-1.77-.732v1zm1.063.44c.284.285.44.66.44 1.063h1a2.49 2.49 0 0 0-.733-1.77l-.707.707zm.44 1.063c0 .402-.156.778-.44 1.062l.707.707a2.49 2.49 0 0 0 .733-1.77h-1zm-.44 1.062a1.505 1.505 0 0 1-2.125 0l-.707.707a2.505 2.505 0 0 0 3.539 0l-.707-.707zm0 23.795a1.505 1.505 0 0 1-2.125 0l-.707.707a2.505 2.505 0 0 0 3.539 0l-.707-.707zm-2.125 0a1.505 1.505 0 0 1 0-2.125l-.707-.707a2.505 2.505 0 0 0 0 3.54l.707-.708zm0-2.125a1.505 1.505 0 0 1 2.125 0l.707-.707a2.505 2.505 0 0 0-3.54 0l.708.707zm2.125 0c.585.586.585 1.54 0 2.125l.707.707a2.505 2.505 0 0 0 0-3.539l-.707.707zm12.838 7.493h-4.006v1h4.006v-1zm-3.506.5v-4.005h-1v4.005h1zm-.5-3.505h4.006v-1h-4.006v1zm3.506-.5v4.005h1v-4.005h-1zm9.332-27.783c.293-.292.676-.439 1.063-.439v-1c-.64 0-1.282.244-1.77.732l.707.707zm1.063-.439c.386 0 .77.147 1.062.44l.707-.708a2.497 2.497 0 0 0-1.77-.732v1zm1.062.44c.586.585.586 1.539 0 2.124l.707.707a2.505 2.505 0 0 0 0-3.539l-.707.707zm0 2.124a1.505 1.505 0 0 1-2.125 0l-.707.708a2.505 2.505 0 0 0 3.54 0l-.708-.708zm-2.124 0a1.505 1.505 0 0 1 0-2.125l-.708-.707a2.506 2.506 0 0 0 0 3.54l.708-.707zm2.124 21.67c.586.586.586 1.54 0 2.125l.707.707a2.505 2.505 0 0 0 0-3.539l-.707.707zm0 2.125a1.49 1.49 0 0 1-1.062.44v1a2.49 2.49 0 0 0 1.77-.733l-.708-.707zm-1.062.44a1.49 1.49 0 0 1-1.063-.44l-.707.707a2.49 2.49 0 0 0 1.77.733v-1zm-1.063-.44a1.505 1.505 0 0 1 0-2.125l-.707-.707a2.505 2.505 0 0 0 0 3.54l.707-.708zm0-2.125a1.49 1.49 0 0 1 1.063-.44v-1a2.49 2.49 0 0 0-1.77.733l.707.707zm1.063-.44c.402 0 .778.156 1.062.44l.707-.707a2.489 2.489 0 0 0-1.77-.733v1zm6.93-8.893h-4.005v1h4.005v-1zm-3.505.5v-4.005h-1v4.006h1zm-.5-3.505h4.005v-1h-4.005v1zm3.505-.5v4.006h1v-4.006h-1z" fill="url(#paint4_linear)" mask="url(#b)"/></g><defs><filter id="filter0_f" x="3.5" y="3.5" width="49" height="49" filterUnits="userSpaceOnUse" color-interpolation-filters="sRGB"><feFlood flood-opacity="0" result="BackgroundImageFix"/><feBlend in="SourceGraphic" in2="BackgroundImageFix" result="shape"/><feGaussianBlur stdDeviation="2" result="effect1_foregroundBlur"/></filter><linearGradient id="paint0_linear" x1="4" y1="3" x2="51" y2="53.5" gradientUnits="userSpaceOnUse"><stop stop-color="#62C0E3"/><stop offset="1" stop-color="#6BE5F0"/></linearGradient><linearGradient id="paint1_linear" x1="28" y1="19.053" x2="28" y2="71.684" gradientUnits="userSpaceOnUse"><stop stop-color="#fff"/><stop offset="1" stop-color="#fff" stop-opacity="0"/></linearGradient><linearGradient id="paint2_linear" x1="28" y1="20.632" x2="28" y2="66.421" gradientUnits="userSpaceOnUse"><stop stop-color="#fff"/><stop offset="1" stop-color="#fff" stop-opacity="0"/></linearGradient><linearGradient id="paint3_linear" x1="28" y1="19.053" x2="28" y2="73" gradientUnits="userSpaceOnUse"><stop stop-color="#fff"/><stop offset="1" stop-color="#fff" stop-opacity="0"/></linearGradient><linearGradient id="paint4_linear" x1="28" y1="20.632" x2="28" y2="72.5" gradientUnits="userSpaceOnUse"><stop stop-color="#fff"/><stop offset="1" stop-color="#fff" stop-opacity="0"/></linearGradient></defs></svg>