<svg width="24" height="24" fill="none" xmlns="http://www.w3.org/2000/svg"><path fill="url(#paint0_linear)" d="M0 0h24v24H0z"/><path fill-rule="evenodd" clip-rule="evenodd" d="M10 19H6.364C5.6 19 5 18.422 5 17.686v-7.39c0-.455.182-.91.527-1.226l5.437-4.676a1.536 1.536 0 0 1 2.054 0l5.436 4.659.019.017c.327.333.527.77.527 1.226v7.39c0 .719-.618 1.314-1.364 1.314H14v-4a2 2 0 1 0-4 0v4z" fill="#fff"/><defs><linearGradient id="paint0_linear" x1="3.429" y1="2.143" x2="21.429" y2="23.357" gradientUnits="userSpaceOnUse"><stop stop-color="#43D8F8"/><stop offset="1" stop-color="#68DFD8"/></linearGradient></defs></svg>