<svg xmlns="http://www.w3.org/2000/svg" viewBox="0 0 24 24"><path opacity=".5" fill="#798EBB" d="M0 0h24v24H0z"/><path d="M15.94 5.82c-.66 0-.66-.82-1.32-.82s-.66.82-1.31.82S12.65 5 12 5s-.66.82-1.32.82S10 5 9.38 5s-.66.82-1.32.82-.66-.68-1.31-.68V18a1 1 0 001 1h8.5a1 1 0 001-1V5.14c-.66 0-.66.68-1.31.68zm-.49 10h-6.9a.39.39 0 010-.77h6.9a.39.39 0 010 .77zm0-1.53h-6.9a.39.39 0 010-.77h6.9a.39.39 0 010 .77zm0-1.53h-6.9a.39.39 0 01-.38-.39.38.38 0 01.38-.37h6.9a.38.38 0 01.38.38.39.39 0 01-.38.39zm0-1.54h-6.9a.38.38 0 110-.76h6.9a.38.38 0 110 .76zm0-1.53h-2.3a.38.38 0 010-.76h2.3a.38.38 0 110 .76z" fill="#fff"/></svg>