<svg width="24" height="24" fill="none" xmlns="http://www.w3.org/2000/svg"><path opacity=".5" fill="#798EBB" d="M0 0h24v24H0z"/><rect x="7.75" y="6.43" width="8.333" height="1.042" rx=".521" fill="#fff"/><rect opacity=".9" x="7.75" y="8.93" width="8.333" height="1.042" rx=".521" fill="#fff"/><rect opacity=".5" x="7.75" y="11.43" width="4.167" height="1.042" rx=".521" fill="#fff"/><path d="M18.37 14.434v-.938c0-1.202-1.029-2.166-2.287-2.166s-2.287.964-2.287 2.165v.939c-.407.046-.73.375-.73.782v3.443c0 .44.377.788.83.788h4.375c.452 0 .829-.348.829-.788v-3.443c0-.407-.323-.736-.73-.782zm-3.645-.938c0-.7.603-1.277 1.358-1.277.756 0 1.359.577 1.359 1.277v.932h-2.717v-.933zm3.446 5.062h-4.175v-3.242h4.175v3.242z" fill="#fff" stroke="#fff" stroke-width=".2"/><path d="M11.298 17.923h-5.01V4.937h10.93v5.28a.525.525 0 0 0 1.049 0V4.418a.527.527 0 0 0-.525-.519H5.763a.527.527 0 0 0-.525.519v14.005c0 .284.241.519.525.519h5.535a.51.51 0 0 0 0-1.02z" fill="url(#paint0_linear)" stroke="url(#paint1_linear)" stroke-width=".2"/><defs><linearGradient id="paint0_linear" x1="9.5" y1="9.5" x2="17.5" y2="29" gradientUnits="userSpaceOnUse"><stop stop-color="#fff"/><stop offset="1" stop-color="#fff" stop-opacity="0"/></linearGradient><linearGradient id="paint1_linear" x1="11.752" y1="4" x2="11.752" y2="35.18" gradientUnits="userSpaceOnUse"><stop stop-color="#fff"/><stop offset="1" stop-color="#fff" stop-opacity="0"/></linearGradient></defs></svg>