<svg width="24" height="24" viewBox="0 0 24 24" fill="none" xmlns="http://www.w3.org/2000/svg">
<rect width="24" height="24" fill="#30D2F3"/>
<path d="M19 15.3383V8.66166C19 8.18888 18.7515 7.75201 18.3482 7.5156L12.6518 4.1773C12.2485 3.9409 11.7515 3.9409 11.3482 4.1773L5.65183 7.51563C5.24847 7.75204 5 8.18888 5 8.66169V15.3383C5 15.8111 5.24847 16.248 5.65183 16.4844L11.3482 19.8227C11.7515 20.0591 12.2485 20.0591 12.6518 19.8227L18.3481 16.4843C18.7515 16.248 19 15.8111 19 15.3383Z" fill="#0AC0E5"/>
<mask id="mask0" mask-type="alpha" maskUnits="userSpaceOnUse" x="5" y="4" width="14" height="16">
<path d="M19 15.3383V8.66166C19 8.18888 18.7515 7.75201 18.3482 7.5156L12.6518 4.1773C12.2485 3.9409 11.7515 3.9409 11.3482 4.1773L5.65183 7.51563C5.24847 7.75204 5 8.18888 5 8.66169V15.3383C5 15.8111 5.24847 16.248 5.65183 16.4844L11.3482 19.8227C11.7515 20.0591 12.2485 20.0591 12.6518 19.8227L18.3481 16.4843C18.7515 16.248 19 15.8111 19 15.3383Z" fill="#0AC0E5"/>
</mask>
<g mask="url(#mask0)">
<path d="M12 10.3333V20.6666L19.8812 17.8333L19.5528 7.16665L12 10.3333Z" fill="#3CDEFF"/>
</g>
<path d="M12 12L18.8254 8.00001C18.7128 7.80213 18.5499 7.63382 18.3482 7.51564L12.6518 4.1773C12.2485 3.9409 11.7515 3.9409 11.3481 4.1773L5.65181 7.51564C5.45013 7.63382 5.28714 7.80213 5.17462 8.00001L12 12Z" fill="#71E7FF"/>
</svg>
