<svg width="24" height="24" fill="none" xmlns="http://www.w3.org/2000/svg"><path fill="#30D2F3" d="M0 0h24v24H0z"/><path d="M19 15.338V8.662c0-.473-.248-.91-.652-1.146l-5.696-3.339a1.287 1.287 0 0 0-1.304 0L5.652 7.516A1.327 1.327 0 0 0 5 8.662v6.676c0 .473.248.91.652 1.146l5.696 3.339c.403.236.9.236 1.304 0l5.696-3.339c.404-.236.652-.673.652-1.146z" fill="#0AC0E5"/><mask id="a" maskUnits="userSpaceOnUse" x="5" y="4" width="14" height="16"><path d="M19 15.338V8.662c0-.473-.248-.91-.652-1.146l-5.696-3.339a1.287 1.287 0 0 0-1.304 0L5.652 7.516A1.327 1.327 0 0 0 5 8.662v6.676c0 .473.248.91.652 1.146l5.696 3.339c.403.236.9.236 1.304 0l5.696-3.339c.404-.236.652-.673.652-1.146z" fill="#0AC0E5"/></mask><g mask="url(#a)"><path d="M12 10.333v10.334l7.881-2.834-.328-10.666L12 10.333z" fill="#3CDEFF"/></g><path d="M12 12l6.825-4a1.313 1.313 0 0 0-.477-.484l-5.696-3.339a1.287 1.287 0 0 0-1.304 0L5.652 7.516A1.313 1.313 0 0 0 5.175 8L12 12z" fill="#71E7FF"/></svg>