<svg width="65" height="65" viewBox="0 0 65 65" xmlns="http://www.w3.org/2000/svg"><title>template-democracy</title><g transform="translate(.165)" fill="none" fill-rule="evenodd"><ellipse fill="#F2F6F7" cx="32" cy="32.011" rx="32" ry="32.011"/><path d="M22.24 45.358l-.028-.042h-.01l-.72.01c-.483.008-1.06.011-1.728.011h-3.75c-.197 0-.502-.055-.976-.167-.738-.175-1.134-.773-1.156-1.621 0-.374.081-.723.245-1.04l.208-.395a.153.153 0 0 0 .024-.055c.004-.02.005-.031.015.01-.005-.009-.014-.026-.024-.04a.153.153 0 0 0-.017-.019c-.031-.01-.037-.018-.047-.031l-.105-.069c-.073-.05-.175-.123-.308-.219a1.581 1.581 0 0 1-.678-1.257c0-.556.236-1.038.675-1.403l.45-.373c.021-.017.03-.03.036-.066 0-.005.002-.007.003-.008l-.111-.158v-.024c.006.035.024.06.074.125a7.125 7.125 0 0 0-.093-.113c-.234-.278-.325-.636-.303-1.035.024-.636.414-1.132 1.068-1.458.231-.116.407-.203.528-.262l.149-.07c.014-.012.02-.017.066-.028a.22.22 0 0 0 .004-.012l-.151-.192a1.475 1.475 0 0 1-.293-1.218c.126-.53.522-.915 1.114-1.16a6.998 6.998 0 0 1 1.61-.428 15.6 15.6 0 0 1 1.816-.168 44.892 44.892 0 0 1 1.57-.033c2.8 0 5.18.38 8.006 1.22 1.362.404 2.165.461 3.478.374.518-.035.682-.043.946-.04.117.002.231.007.344.017l.323.026.174.274c.208.33.435.888.702 1.703.273.836.408 1.817.408 2.941 0 1.101-.092 1.981-.283 2.65-.18.632-.341 1.098-.489 1.41l-.157.33-.364.038c-.334.033-.58.058-.855.089-.437.048-.845.099-1.228.155-.933.136-1.618.293-1.854.427-.706.4-1.415.954-2.128 1.667-.717.717-1.412 1.597-2.082 2.641-.673 1.048-1.29 2.243-1.856 3.6-.173.386-.336.641-.558.8-.209.148-.368.228-.593.228-.542 0-.944-.12-1.185-.483-.089-.133-.185-.28-.293-.451-.219-.358-.341-.819-.384-1.386-.039-.51-.031-1.064.022-1.664.053-.59.142-1.192.269-1.804.127-.615.282-1.18.468-1.707a.217.217 0 0 0 .013-.047z" stroke="#7F7F7F" stroke-width="1.3" stroke-linecap="round" stroke-linejoin="round"/><path d="M41.722 17.892l.029.042h.01l.72-.01c.483-.008 1.059-.011 1.728-.011h3.749c.198 0 .503.055.977.167.738.175 1.134.773 1.155 1.621 0 .374-.08.723-.244 1.04l-.209.395a.153.153 0 0 0-.023.055c-.004.02-.005.031-.015-.01.005.009.013.026.023.04l.017.019c.032.01.038.018.048.031l.104.069c.074.05.176.123.31.219.415.3.652.725.677 1.257 0 .556-.236 1.038-.676 1.403l-.449.373c-.021.017-.03.03-.036.066l-.003.008.111.158v.024c-.006-.035-.025-.06-.075-.125l.094.113c.234.278.325.636.303 1.035-.025.636-.414 1.132-1.068 1.458-.231.116-.407.203-.528.262l-.149.07c-.014.012-.02.017-.066.028a.22.22 0 0 0-.004.012l.151.192c.27.345.376.754.293 1.218-.126.53-.522.915-1.114 1.16a6.998 6.998 0 0 1-1.61.428 15.6 15.6 0 0 1-1.817.168c-.608.022-1.131.033-1.57.033-2.8 0-5.179-.38-8.005-1.22-1.362-.404-2.166-.461-3.479-.374-.517.035-.681.043-.945.04a5.077 5.077 0 0 1-.344-.017l-.324-.026-.173-.274c-.209-.33-.435-.888-.702-1.703-.274-.836-.408-1.817-.408-2.941 0-1.101.092-1.981.283-2.65.18-.632.34-1.098.488-1.41l.157-.33.365-.038c.333-.033.58-.058.855-.089.436-.048.845-.099 1.228-.155.932-.136 1.618-.293 1.854-.427.705-.4 1.415-.954 2.127-1.667.718-.717 1.412-1.597 2.083-2.641.673-1.048 1.29-2.243 1.855-3.6.174-.386.337-.641.56-.8.207-.148.367-.228.592-.228.541 0 .944.12 1.185.483.089.133.184.28.293.451.219.358.34.819.384 1.386.038.51.03 1.064-.022 1.664a15.722 15.722 0 0 1-.27 1.804c-.127.615-.281 1.18-.467 1.707a.217.217 0 0 0-.013.047z" stroke="#000" stroke-width="1.3" stroke-linecap="round" stroke-linejoin="round"/></g></svg>